<?xml version="1.0" encoding="utf-8"?>
<!-- Generator: Adobe Illustrator 16.0.0, SVG Export Plug-In . SVG Version: 6.00 Build 0)  -->
<!DOCTYPE svg PUBLIC "-//W3C//DTD SVG 1.1//EN" "http://www.w3.org/Graphics/SVG/1.1/DTD/svg11.dtd">
<svg version="1.1" xmlns="http://www.w3.org/2000/svg" xmlns:xlink="http://www.w3.org/1999/xlink" x="0px" y="0px" width="24px"
	 height="24.002px" viewBox="0 0 24 24.002" enable-background="new 0 0 24 24.002" xml:space="preserve">
<g id="Frames-24px">
	<rect fill="none" width="24" height="24.002"/>
</g>
<g id="Outline">
	<g>
		<polygon fill="#757575" points="15,2 9,2 9,4 12,4 15,4 		"/>
		<path fill="#757575" d="M22.699,8.339C22.256,7.513,21.399,7,20.463,7H15c0-1.654-1.346-3-3-3c-1.622,0-2.939,1.296-2.986,3H3.536
			C2.6,7,1.743,7.513,1.3,8.339c-0.443,0.826-0.395,1.824,0.126,2.605c0.396,0.593,0.99,1.025,1.717,1.231l6.523,1.538L9.895,16H9
			c-1.654,0-3,1.346-3,3v1c0,0.553,0.448,1,1,1h10c0.552,0,1-0.447,1-1v-1c0-1.654-1.346-3-3-3h-0.896l0.228-2.287l6.569-1.549
			c0.683-0.194,1.277-0.627,1.674-1.221C23.094,10.163,23.142,9.165,22.699,8.339z M3.646,10.24
			c-0.227-0.064-0.425-0.209-0.557-0.406c-0.11-0.165-0.12-0.375-0.027-0.55C3.156,9.109,3.338,9,3.536,9h5.659l0.261,2.609
			L3.646,10.24z M15,18c0.551,0,1,0.449,1,1H8c0-0.551,0.449-1,1-1H15z M12,16h-0.096L11,7c0-0.551,0.449-1,1-1s1,0.449,1.005,0.9
			l-0.91,9.1H12z M20.91,9.833c-0.132,0.198-0.33,0.343-0.513,0.396l-5.856,1.38L14.8,9h5.663c0.198,0,0.379,0.109,0.473,0.284
			C21.03,9.458,21.02,9.669,20.91,9.833z"/>
	</g>
</g>
</svg>
