<?xml version="1.0" encoding="utf-8"?>
<!-- Generator: Adobe Illustrator 16.0.0, SVG Export Plug-In . SVG Version: 6.00 Build 0)  -->
<!DOCTYPE svg PUBLIC "-//W3C//DTD SVG 1.1//EN" "http://www.w3.org/Graphics/SVG/1.1/DTD/svg11.dtd">
<svg version="1.1" xmlns="http://www.w3.org/2000/svg" xmlns:xlink="http://www.w3.org/1999/xlink" x="0px" y="0px" width="24px"
	 height="24px" viewBox="0 0 24 24" enable-background="new 0 0 24 24" xml:space="preserve">
<g id="Frames-24px">
	<rect fill="none" width="24" height="24"/>
</g>
<g id="Outline">
	<path fill="#757575" d="M12,3.002c-4.486,0-8,3.584-8,8.158c0,7.757,7.33,10.656,7.642,10.775c0.115,0.044,0.236,0.066,0.358,0.066
		s0.243-0.022,0.358-0.066C12.67,21.816,20,18.917,20,11.16C20,6.586,16.486,3.002,12,3.002z M12.004,19.911
		C10.665,19.276,6,16.667,6,11.16c0-0.183,0.011-0.362,0.026-0.541c0.073,1.316,0.699,4.295,4.913,4.295
		c0,0,0.967-4.861-4.833-4.907C6.619,7.124,9.022,5.002,12,5.002s5.382,2.122,5.895,5.005c-5.8,0.046-4.833,4.907-4.833,4.907
		c4.213,0,4.84-2.979,4.913-4.294C17.989,10.798,18,10.978,18,11.16C18,16.708,13.366,19.276,12.004,19.911z"/>
</g>
</svg>
