<?xml version="1.0" encoding="utf-8"?>
<!-- Generator: Adobe Illustrator 16.0.0, SVG Export Plug-In . SVG Version: 6.00 Build 0)  -->
<!DOCTYPE svg PUBLIC "-//W3C//DTD SVG 1.1//EN" "http://www.w3.org/Graphics/SVG/1.1/DTD/svg11.dtd">
<svg version="1.1" xmlns="http://www.w3.org/2000/svg" xmlns:xlink="http://www.w3.org/1999/xlink" x="0px" y="0px" width="24px"
	 height="24px" viewBox="0 0 24 24" enable-background="new 0 0 24 24" xml:space="preserve">
<g id="Frames-24px">
	<rect fill="none" width="24" height="24"/>
</g>
<g id="Outline">
	<g>
		<path fill="#757575" d="M21.414,5.416c0.781-0.781,0.781-2.047,0-2.828s-2.047-0.781-2.828,0c-0.522,0.522-0.688,1.26-0.511,1.925
			l-1.036,1.036C15.6,4.573,13.866,4.002,12,4.002S8.4,4.573,6.961,5.549L5.925,4.513C6.101,3.848,5.937,3.11,5.414,2.588
			c-0.781-0.781-2.047-0.781-2.828,0s-0.781,2.047,0,2.828c0.522,0.522,1.259,0.687,1.925,0.511l0.931,0.932
			C3.933,8.469,3,10.626,3,13.002v6.5c0,1.93,1.57,3.5,3.5,3.5c1.251,0,2.267-0.574,2.875-1.552c0.563,1.24,1.662,1.552,2.625,1.552
			c0.954,0,2.043-0.305,2.61-1.513c0.115,0.162,0.252,0.324,0.415,0.487c0.661,0.661,1.54,1.025,2.475,1.025
			c1.93,0,3.5-1.57,3.5-3.5v-6.5c0-2.376-0.933-4.533-2.442-6.144l0.931-0.932C20.155,6.103,20.892,5.938,21.414,5.416z M19,19.502
			c0,0.827-0.673,1.5-1.5,1.5c-0.4,0-0.777-0.156-1.061-0.439c-0.352-0.352-0.42-0.606-0.436-1.145
			c-0.023-0.794-0.664-1.416-1.498-1.416c-0.817,0-1.493,0.665-1.506,1.483c-0.021,1.412-0.41,1.517-1,1.517
			c-0.594,0-0.984-0.108-1-1.559c-0.009-0.795-0.664-1.441-1.5-1.441c-0.791,0-1.443,0.594-1.518,1.384
			c-0.099,1.057-0.611,1.616-1.483,1.616c-0.827,0-1.5-0.673-1.5-1.5v-6.5c0-3.86,3.14-7,7-7s7,3.14,7,7V19.502z"/>
		<path fill="#757575" d="M12,8.002c-2.206,0-4,1.794-4,4c0,2.206,1.794,4,4,4s4-1.794,4-4C16,9.796,14.206,8.002,12,8.002z
			 M12,14.002c-1.103,0-2-0.897-2-2c0-1.103,0.897-2,2-2s2,0.897,2,2C14,13.104,13.103,14.002,12,14.002z"/>
	</g>
</g>
</svg>
