<?xml version="1.0" encoding="utf-8"?>
<!-- Generator: Adobe Illustrator 16.0.0, SVG Export Plug-In . SVG Version: 6.00 Build 0)  -->
<!DOCTYPE svg PUBLIC "-//W3C//DTD SVG 1.1//EN" "http://www.w3.org/Graphics/SVG/1.1/DTD/svg11.dtd">
<svg version="1.1" xmlns="http://www.w3.org/2000/svg" xmlns:xlink="http://www.w3.org/1999/xlink" x="0px" y="0px" width="24px"
	 height="24px" viewBox="0 0 24 24" enable-background="new 0 0 24 24" xml:space="preserve">
<g id="Frames-24px">
	<rect fill="none" width="24" height="24"/>
</g>
<g id="Outline">
	<path fill="#757575" d="M12,2C6.486,2,2,6.486,2,12c0,5.515,4.486,10,10,10c2.039,0,3.993-0.602,5.653-1.741l-1.132-1.648
		C15.196,19.52,13.633,20,12,20c-4.411,0-8-3.589-8-8s3.589-8,8-8s8,3.589,8,8v0.783C20,14.171,19.402,15,18.4,15l-0.002,0.018
		C18.337,15.006,18.274,15,18.209,15H18c-0.563,0-1.4-0.818-1.4-1.369V12c0-2.536-2.063-4.6-4.6-4.6S7.4,9.464,7.4,12
		c0,2.536,2.063,4.6,4.6,4.6c1.234,0,2.35-0.494,3.177-1.288C15.826,16.27,16.929,17,18,17l0.002-0.018
		C18.064,16.994,18.129,17,18.196,17H18.4c2.153,0,3.6-1.694,3.6-4.217V12C22,6.486,17.514,2,12,2z M12,14.6
		c-1.434,0-2.6-1.166-2.6-2.6c0-1.433,1.166-2.6,2.6-2.6s2.6,1.167,2.6,2.6C14.6,13.434,13.434,14.6,12,14.6z"/>
</g>
</svg>
