<?xml version="1.0" encoding="utf-8"?>
<!-- Generator: Adobe Illustrator 16.0.0, SVG Export Plug-In . SVG Version: 6.00 Build 0)  -->
<!DOCTYPE svg PUBLIC "-//W3C//DTD SVG 1.1//EN" "http://www.w3.org/Graphics/SVG/1.1/DTD/svg11.dtd">
<svg version="1.1" xmlns="http://www.w3.org/2000/svg" xmlns:xlink="http://www.w3.org/1999/xlink" x="0px" y="0px" width="24px"
	 height="24px" viewBox="0 0 24 24" enable-background="new 0 0 24 24" xml:space="preserve">
<g id="Frames-24px">
	<rect fill="none" width="24" height="24"/>
</g>
<g id="Outline">
	<path fill="#757575" d="M20.754,21.015L20.582,21c-0.058,0-0.154,0.006-0.284,0.016c-0.179,0.013-0.451,0.034-0.781,0.034
		c-2.721,0-4.18-1.334-4.458-4.049H19v-2h-4v-2h3.363C21.007,13,23,11.124,23,8.636C23,6.08,20.92,4,18.363,4
		c-0.854,0-1.62,0.168-2.271,0.492C15.311,3.003,13.75,2,12,2S8.689,3.003,7.908,4.492C7.256,4.168,6.491,4,5.637,4
		C3.08,4,1,6.08,1,8.636C1,11.124,2.993,13,5.637,13H9v2H5v2h3.942c-0.278,2.715-1.738,4.049-4.458,4.049
		c-0.331,0-0.603-0.021-0.781-0.034C3.572,21.006,3.476,21,3.418,21l-0.172,0.015c-0.774,0.135-1.308,0.827-1.24,1.611
		S2.717,24,3.504,24h16.992c0.787,0,1.431-0.591,1.498-1.375C22.062,21.842,21.528,21.15,20.754,21.015z M10,11H5.637
		C4.327,11,3,10.188,3,8.636C3,7.183,4.183,6,5.637,6c0.902,0,1.579,0.262,2.01,0.777c0.254,0.304,0.662,0.429,1.042,0.32
		c0.38-0.109,0.661-0.432,0.715-0.823C9.586,4.978,10.702,4,12,4s2.414,0.978,2.596,2.274c0.055,0.391,0.335,0.714,0.715,0.823
		c0.379,0.108,0.789-0.016,1.042-0.32C16.785,6.262,17.461,6,18.363,6C19.817,6,21,7.183,21,8.636C21,10.188,19.673,11,18.363,11H14
		c-0.552,0-1,0.448-1,1v3h-2v-3C11,11.448,10.552,11,10,11z M8.365,22c1.497-1.005,2.395-2.708,2.593-5h2.083
		c0.184,2.201,0.996,3.838,2.422,4.875c0.059,0.043,0.119,0.085,0.179,0.125H8.365z"/>
</g>
</svg>
