<?xml version="1.0" encoding="utf-8"?>
<!-- Generator: Adobe Illustrator 16.0.0, SVG Export Plug-In . SVG Version: 6.00 Build 0)  -->
<!DOCTYPE svg PUBLIC "-//W3C//DTD SVG 1.1//EN" "http://www.w3.org/Graphics/SVG/1.1/DTD/svg11.dtd">
<svg version="1.1" xmlns="http://www.w3.org/2000/svg" xmlns:xlink="http://www.w3.org/1999/xlink" x="0px" y="0px" width="24px"
	 height="24px" viewBox="0 0 24 24" enable-background="new 0 0 24 24" xml:space="preserve">
<g id="Frames-24px">
	<rect fill="none" width="24" height="24"/>
</g>
<g id="Outline">
	<path fill="#757575" d="M23.895,15.553L21,9.764V6h2V4H13V0h-2v4H1v2h2v2.142c-1.72,0.448-3,2-3,3.858c0,2.206,1.794,4,4,4
		s4-1.794,4-4c0-1.858-1.28-3.41-3-3.858V6h6v6.841C9.077,13.813,8,15.595,8,18c0,3.757,2.617,6,7,6
		c0.404,0,0.769-0.243,0.924-0.617s0.069-0.804-0.217-1.09C15.69,22.276,14,20.556,14,18c0-2.526,1.693-4.278,1.707-4.293
		c0.286-0.286,0.372-0.716,0.217-1.09C15.769,12.244,15.404,12,15,12c-0.717,0-1.381,0.066-2,0.183V6h6v3.764l-2.895,5.789
		c-0.155,0.31-0.138,0.678,0.044,0.974C16.332,16.82,16.653,17,17,17h6c0.347,0,0.668-0.18,0.851-0.474
		C24.033,16.231,24.049,15.863,23.895,15.553z M6,12c0,1.103-0.897,2-2,2s-2-0.897-2-2c0-1.104,0.897-2,2-2S6,10.896,6,12z
		 M12.94,21.768C11.347,21.36,10,20.327,10,18s1.347-3.36,2.94-3.768C12.443,15.198,12,16.484,12,18S12.443,20.802,12.94,21.768z
		 M18.618,15L20,12.236L21.382,15H18.618z"/>
</g>
</svg>
