<?xml version="1.0" encoding="utf-8"?>
<!-- Generator: Adobe Illustrator 16.0.0, SVG Export Plug-In . SVG Version: 6.00 Build 0)  -->
<!DOCTYPE svg PUBLIC "-//W3C//DTD SVG 1.1//EN" "http://www.w3.org/Graphics/SVG/1.1/DTD/svg11.dtd">
<svg version="1.1" xmlns="http://www.w3.org/2000/svg" xmlns:xlink="http://www.w3.org/1999/xlink" x="0px" y="0px" width="24px"
	 height="24px" viewBox="0 0 24 24" enable-background="new 0 0 24 24" xml:space="preserve">
<g id="Frames-24px">
	<rect fill="none" width="24" height="24"/>
</g>
<g id="Outline">
	<g>
		<path fill="#757575" d="M16.999,5c-0.441,0-0.831,0.29-0.958,0.713L15.055,9h-4.056V3c0-0.552-0.448-1-1-1h-1
			c-3.309,0-6,2.691-6,6c0,0.315-0.002,1.712,0.005,2.027c0.002,0.098,0.014,0.195,0.046,0.29l2,6C5.187,16.725,5.568,17,5.999,17h8
			c0.441,0,0.831-0.29,0.958-0.713L17.743,7h3.256V5H16.999z M4.999,8c0-0.472,0.097-0.918,0.248-1.338L7.585,9H4.999V8z
			 M8.999,7.586l-2.6-2.601C7.1,4.38,8.002,4,8.999,4V7.586z M13.255,15H6.72l-1.333-4h9.069L13.255,15z"/>
		<circle fill="#757575" cx="6.999" cy="20" r="2"/>
		<circle fill="#757575" cx="12.999" cy="20" r="2"/>
	</g>
</g>
</svg>
