<?xml version="1.0" encoding="utf-8"?>
<!-- Generator: Adobe Illustrator 16.0.0, SVG Export Plug-In . SVG Version: 6.00 Build 0)  -->
<!DOCTYPE svg PUBLIC "-//W3C//DTD SVG 1.1//EN" "http://www.w3.org/Graphics/SVG/1.1/DTD/svg11.dtd">
<svg version="1.1" xmlns="http://www.w3.org/2000/svg" xmlns:xlink="http://www.w3.org/1999/xlink" x="0px" y="0px"
	 width="24.001px" height="24.001px" viewBox="0 0 24.001 24.001" enable-background="new 0 0 24.001 24.001" xml:space="preserve">
<g id="Frames-24px">
	<rect fill="none" width="24.001" height="24.001"/>
</g>
<g id="Outline">
	<g>
		<rect x="9.001" y="14.001" fill="#757575" width="6" height="2"/>
		<path fill="#757575" d="M19.001,13.001h-1v-2c0.552,0,1-0.448,1-1v-5c0-1.654-1.346-3-3-3h-8c-1.654,0-3,1.346-3,3v5
			c0,0.552,0.448,1,1,1v2h-1c-1.654,0-3,1.346-3,3v5c0,0.552,0.448,1,1,1h18c0.552,0,1-0.448,1-1v-5
			C22.001,14.347,20.655,13.001,19.001,13.001z M19.001,15.001c0.551,0,1,0.448,1,1h-2v-1H19.001z M7.001,5.001c0-0.552,0.449-1,1-1
			h8c0.551,0,1,0.448,1,1v4h-2v-2h-2v2h-2v-2h-2v2h-2V5.001z M5.001,15.001h1v1h-2C4.001,15.449,4.45,15.001,5.001,15.001z
			 M4.001,18.001h2v2h-2V18.001z M8.001,11.001h1v1h2v-1h2v1h2v-1h1v9h-8V11.001z M18.001,20.001v-2h2v2H18.001z"/>
	</g>
</g>
</svg>
