<?xml version="1.0" encoding="utf-8"?>
<!-- Generator: Adobe Illustrator 16.0.0, SVG Export Plug-In . SVG Version: 6.00 Build 0)  -->
<!DOCTYPE svg PUBLIC "-//W3C//DTD SVG 1.1//EN" "http://www.w3.org/Graphics/SVG/1.1/DTD/svg11.dtd">
<svg version="1.1" xmlns="http://www.w3.org/2000/svg" xmlns:xlink="http://www.w3.org/1999/xlink" x="0px" y="0px" width="24px"
	 height="24px" viewBox="0 0 24 24" enable-background="new 0 0 24 24" xml:space="preserve">
<g id="Frames-24px">
	<rect fill="none" width="24" height="24"/>
</g>
<g id="Solid">
	<g>
		<path fill="#757575" d="M15,3v1.05c-1.14,0.232-2,1.242-2,2.45C13,7.879,14.122,9,15.5,9h1C16.776,9,17,9.225,17,9.5
			c0,0.276-0.224,0.5-0.5,0.5H15v3h2v-1.05c1.14-0.233,2-1.243,2-2.45C19,8.122,17.878,7,16.5,7h-1C15.224,7,15,6.776,15,6.5
			C15,6.225,15.224,6,15.5,6H19V4h-2V3H15z"/>
		<path fill="#757575" d="M19,18c0,0.552-0.449,1-1,1h-5v2h4c0,0.552-0.449,1-1,1H8.414L6,19.586v-5.172L8.414,12H12v1
			c0,0.552-0.449,1-1,1H9v2h2c1.654,0,3-1.346,3-3v-2c0-0.552-0.448-1-1-1H8c-0.265,0-0.52,0.105-0.707,0.293L5.46,12.127
			C5.32,12.053,5.169,12,5,12H1c-0.552,0-1,0.448-1,1v8c0,0.552,0.448,1,1,1h4c0.169,0,0.32-0.052,0.46-0.126l1.833,1.834
			C7.48,23.895,7.735,24,8,24h8c1.654,0,3-1.346,3-3v-0.184c1.162-0.414,2-1.514,2-2.816v-1h-2V18z M4,20H2v-6h2V20z"/>
		<path fill="#757575" d="M16,0C11.589,0,8,3.59,8,8c0,0.34,0.028,0.671,0.069,1h2.021C10.035,8.675,10,8.342,10,8
			c0-3.308,2.691-6,6-6s6,2.692,6,6c0,3.309-2.691,6-6,6c-0.341,0-0.674-0.035-1-0.09v2.021C15.328,15.972,15.661,16,16,16
			c4.411,0,8-3.589,8-8C24,3.59,20.411,0,16,0z"/>
	</g>
</g>
</svg>
