<?xml version="1.0" encoding="utf-8"?>
<!-- Generator: Adobe Illustrator 16.0.0, SVG Export Plug-In . SVG Version: 6.00 Build 0)  -->
<!DOCTYPE svg PUBLIC "-//W3C//DTD SVG 1.1//EN" "http://www.w3.org/Graphics/SVG/1.1/DTD/svg11.dtd">
<svg version="1.1" xmlns="http://www.w3.org/2000/svg" xmlns:xlink="http://www.w3.org/1999/xlink" x="0px" y="0px" width="24px"
	 height="24px" viewBox="0 0 24 24" enable-background="new 0 0 24 24" xml:space="preserve">
<g id="Frames-24px">
	<rect fill="none" width="24" height="24"/>
</g>
<g id="Outline">
	<path fill="#757575" d="M18.001,5h-2V3c0-0.552-0.448-1-1-1h-6c-0.552,0-1,0.448-1,1v2h-2c-0.552,0-1,0.448-1,1v14
		c0,1.103,0.897,2,2,2h10c1.103,0,2-0.897,2-2V6C19.001,5.448,18.554,5,18.001,5z M9.001,7c0.552,0,1-0.448,1-1V4h4v2
		c0,0.552,0.448,1,1,1h2l0.001,9H7.001V7H9.001z M7.001,20v-2h10.001l0,2H7.001z"/>
</g>
</svg>
