<?xml version="1.0" encoding="utf-8"?>
<!-- Generator: Adobe Illustrator 16.0.0, SVG Export Plug-In . SVG Version: 6.00 Build 0)  -->
<!DOCTYPE svg PUBLIC "-//W3C//DTD SVG 1.1//EN" "http://www.w3.org/Graphics/SVG/1.1/DTD/svg11.dtd">
<svg version="1.1" xmlns="http://www.w3.org/2000/svg" xmlns:xlink="http://www.w3.org/1999/xlink" x="0px" y="0px" width="24px"
	 height="24px" viewBox="0 0 24 24" enable-background="new 0 0 24 24" xml:space="preserve">
<g id="Frames-24px">
	<rect fill="none" width="24" height="24"/>
</g>
<g id="Solid">
	<path fill="#757575" d="M21.411,19.218L16,12.642V6h1c0.552,0,1-0.447,1-1V2c0-0.552-0.448-1-1-1H7C6.448,1,6,1.448,6,2v3
		c0,0.553,0.448,1,1,1h1v6.642L2.542,19.28c-0.644,0.92-0.721,2.109-0.203,3.105C2.857,23.382,3.877,24,5,24h14
		c1.123,0,2.143-0.618,2.661-1.614C22.179,21.39,22.102,20.2,21.411,19.218z M8,3h8v1H8V3z M9.772,13.636
		C9.919,13.457,10,13.232,10,13V6h4v1h-2v2h2v1h-3v2h3v1c0,0.232,0.081,0.457,0.228,0.636L16.175,16H7.826L9.772,13.636z
		 M19.887,21.462C19.714,21.794,19.375,22,19,22H5c-0.375,0-0.714-0.206-0.887-0.537c-0.173-0.333-0.147-0.729,0.02-0.975L6.181,18
		h11.641l1.998,2.427C20.034,20.734,20.06,21.13,19.887,21.462z"/>
</g>
</svg>
