<?xml version="1.0" encoding="utf-8"?>
<!-- Generator: Adobe Illustrator 16.0.0, SVG Export Plug-In . SVG Version: 6.00 Build 0)  -->
<!DOCTYPE svg PUBLIC "-//W3C//DTD SVG 1.1//EN" "http://www.w3.org/Graphics/SVG/1.1/DTD/svg11.dtd">
<svg version="1.1" xmlns="http://www.w3.org/2000/svg" xmlns:xlink="http://www.w3.org/1999/xlink" x="0px" y="0px" width="24px"
	 height="24.001px" viewBox="0 0 24 24.001" enable-background="new 0 0 24 24.001" xml:space="preserve">
<g id="Frames-24px">
	<rect fill="none" width="24" height="24.001"/>
</g>
<g id="Outline">
	<g>
		<path fill="#757575" d="M16.499,13.556c2.481,0,4.5-2.018,4.5-4.5c0-2.268-3.206-6.551-4.5-8.281c-0.748,1-4.5,5.849-4.5,8.281
			C11.999,11.538,14.018,13.556,16.499,13.556z M16.499,4.166c1.217,1.779,2.5,3.99,2.5,4.89c0,1.378-1.122,2.5-2.5,2.5
			s-2.5-1.122-2.5-2.5C13.999,8.157,15.282,5.945,16.499,4.166z"/>
		<path fill="#757575" d="M19.999,17h-7.586l0.293-0.293c0.304-0.304,0.38-0.769,0.188-1.154l-1-2
			c-0.222-0.444-0.738-0.658-1.211-0.501l-4.757,1.585C5.78,14.266,5.422,14,4.999,14h-4c-0.552,0-1,0.448-1,1v8
			c0,0.552,0.448,1,1,1h4c0.552,0,1-0.448,1-1h11c0.315,0,0.611-0.148,0.8-0.4l3-4c0.228-0.303,0.264-0.708,0.095-1.047
			C20.724,17.214,20.378,17,19.999,17z M1.999,22v-6h2v6H1.999z M16.499,21h-10.5v-4.279l4.494-1.497l0.29,0.579l-1.49,1.49
			c-0.286,0.286-0.372,0.716-0.217,1.09S9.595,19,9.999,19h8L16.499,21z"/>
	</g>
</g>
</svg>
