<?xml version="1.0" encoding="utf-8"?>
<!-- Generator: Adobe Illustrator 16.0.0, SVG Export Plug-In . SVG Version: 6.00 Build 0)  -->
<!DOCTYPE svg PUBLIC "-//W3C//DTD SVG 1.1//EN" "http://www.w3.org/Graphics/SVG/1.1/DTD/svg11.dtd">
<svg version="1.1" xmlns="http://www.w3.org/2000/svg" xmlns:xlink="http://www.w3.org/1999/xlink" x="0px" y="0px" width="24px"
	 height="24.001px" viewBox="0 0 24 24.001" enable-background="new 0 0 24 24.001" xml:space="preserve">
<g id="Frames-24px">
	<rect fill="none" width="24" height="24.001"/>
</g>
<g id="Outline">
	<path fill="#757575" d="M14.999,15V5c0-0.36-0.194-0.692-0.507-0.87c-0.313-0.178-0.698-0.174-1.007,0.012l-5,3
		C8.183,7.323,7.999,7.649,7.999,8v7h-1v7c0,1.103,0.897,2,2,2h5c1.103,0,2-0.897,2-2v-7H14.999z M8.999,17h5h0l0,2H8.999V17z
		 M9.999,8.566l3-1.8V15h-3V8.566z M8.999,22v-1H14l0,1H8.999z"/>
</g>
</svg>
