<?xml version="1.0" encoding="utf-8"?>
<!-- Generator: Adobe Illustrator 16.0.0, SVG Export Plug-In . SVG Version: 6.00 Build 0)  -->
<!DOCTYPE svg PUBLIC "-//W3C//DTD SVG 1.1//EN" "http://www.w3.org/Graphics/SVG/1.1/DTD/svg11.dtd">
<svg version="1.1" xmlns="http://www.w3.org/2000/svg" xmlns:xlink="http://www.w3.org/1999/xlink" x="0px" y="0px" width="24px"
	 height="24px" viewBox="0 0 24 24" enable-background="new 0 0 24 24" xml:space="preserve">
<g id="Frames-24px">
	<rect fill="none" width="24" height="24"/>
</g>
<g id="Outline">
	<path fill="#757575" d="M21.956,16.706L18.331,4.925C17.976,3.774,16.929,3,15.726,3C14.223,3,13,4.223,13,5.726V7h-2V5.726
		C11,4.223,9.777,3,8.274,3c-1.204,0-2.25,0.774-2.605,1.925L2.044,16.706C2.015,16.801,2,16.9,2,17v0.5C2,19.982,4.019,22,6.5,22
		s4.5-2.018,4.5-4.5V13h2v4.5c0,2.482,2.019,4.5,4.5,4.5s4.5-2.018,4.5-4.5V17C22,16.9,21.985,16.801,21.956,16.706z M6.5,20
		C5.122,20,4,18.878,4,17.5S5.122,15,6.5,15S9,16.122,9,17.5S7.878,20,6.5,20z M9,13.762C8.284,13.282,7.425,13,6.5,13
		c-0.451,0-0.877,0.086-1.288,0.21l2.368-7.698C7.675,5.206,7.954,5,8.274,5C8.674,5,9,5.325,9,5.726V7v6V13.762z M11,11V9h2v2H11z
		 M15,7V5.726C15,5.325,15.326,5,15.726,5c0.32,0,0.599,0.206,0.694,0.513l2.368,7.698C18.377,13.086,17.951,13,17.5,13
		c-0.925,0-1.784,0.282-2.5,0.762V13V7z M17.5,20c-1.378,0-2.5-1.122-2.5-2.5s1.122-2.5,2.5-2.5s2.5,1.122,2.5,2.5
		S18.878,20,17.5,20z"/>
</g>
</svg>
