<?xml version="1.0" encoding="utf-8"?>
<!-- Generator: Adobe Illustrator 16.0.0, SVG Export Plug-In . SVG Version: 6.00 Build 0)  -->
<!DOCTYPE svg PUBLIC "-//W3C//DTD SVG 1.1//EN" "http://www.w3.org/Graphics/SVG/1.1/DTD/svg11.dtd">
<svg version="1.1" xmlns="http://www.w3.org/2000/svg" xmlns:xlink="http://www.w3.org/1999/xlink" x="0px" y="0px" width="24px"
	 height="24px" viewBox="0 0 24 24" enable-background="new 0 0 24 24" xml:space="preserve">
<g id="Frames-24px">
	<rect fill="none" width="24" height="24"/>
</g>
<g id="Solid">
	<g>
		<path fill="#757575" d="M12,0.002c-6.617,0-12,5.384-12,12C0,18.618,5.383,24,12,24s12-5.382,12-11.999
			C24,5.385,18.617,0.002,12,0.002z M20.647,7.002h-2.412c-0.416-0.516-2.633-3.899-3.002-4.453
			C17.528,3.336,19.446,4.934,20.647,7.002z M6,12.002c0-3.308,2.691-6,6-6s6,2.692,6,6c0,3.309-2.691,6-6,6S6,15.311,6,12.002z
			 M12.481,2.027l1.487,2.23C13.337,4.097,12.68,4.002,12,4.002s-1.337,0.095-1.968,0.255l1.487-2.23
			C11.68,2.019,11.837,2.002,12,2.002S12.32,2.019,12.481,2.027z M8.767,2.549C8.398,3.103,6.181,6.486,5.765,7.002H3.353
			C4.554,4.934,6.472,3.336,8.767,2.549z M2.461,9.002h2.128C4.212,9.93,4,10.941,4,12.002s0.212,2.073,0.589,3H2.461
			C2.163,14.055,2,13.047,2,12.002C2,10.957,2.163,9.949,2.461,9.002z M3.354,17.002h2.412c0.416,0.517,2.632,3.899,3.001,4.452
			C6.472,20.667,4.554,19.07,3.354,17.002z M11.519,21.976l-1.487-2.229c0.631,0.16,1.288,0.254,1.968,0.254
			s1.337-0.094,1.968-0.254l-1.487,2.229C12.321,21.985,12.163,22,12,22S11.679,21.985,11.519,21.976z M15.233,21.454
			c0.369-0.554,2.586-3.936,3.001-4.452h2.412C19.446,19.07,17.528,20.667,15.233,21.454z M21.539,15.002h-2.127
			c0.377-0.927,0.589-1.939,0.589-3s-0.212-2.072-0.589-3h2.128c0.298,0.948,0.461,1.955,0.461,3
			C22,13.047,21.837,14.055,21.539,15.002z"/>
		<path fill="#757575" d="M13,17.002v-1.05c1.14-0.233,2-1.242,2-2.45c0-0.565-0.195-1.081-0.513-1.5
			c0.317-0.419,0.513-0.935,0.513-1.5c0-1.207-0.86-2.216-2-2.449V7.002h-2v1H9v8h2v1H13z M12.5,14.002H11v-1h1.5
			c0.276,0,0.5,0.224,0.5,0.5C13,13.778,12.776,14.002,12.5,14.002z M13,10.502c0,0.276-0.224,0.5-0.5,0.5H11v-1h1.5
			C12.776,10.002,13,10.226,13,10.502z"/>
	</g>
</g>
</svg>
