<?xml version="1.0" encoding="utf-8"?>
<!-- Generator: Adobe Illustrator 16.0.0, SVG Export Plug-In . SVG Version: 6.00 Build 0)  -->
<!DOCTYPE svg PUBLIC "-//W3C//DTD SVG 1.1//EN" "http://www.w3.org/Graphics/SVG/1.1/DTD/svg11.dtd">
<svg version="1.1" xmlns="http://www.w3.org/2000/svg" xmlns:xlink="http://www.w3.org/1999/xlink" x="0px" y="0px" width="24px"
	 height="24px" viewBox="0 0 24 24" enable-background="new 0 0 24 24" xml:space="preserve">
<g id="Frames-24px">
	<rect fill="none" width="24" height="24"/>
</g>
<g id="Solid">
	<g>
		<path fill="#757575" d="M23.243,16.032c-0.082-0.021-0.162-0.011-0.243-0.011v-0.019V3c0-0.553-0.448-1-1-1H2C1.448,2,1,2.448,1,3
			v13.001v0.019c-0.081,0-0.161-0.009-0.243,0.011c-0.536,0.134-0.861,0.677-0.728,1.213l0.757,3.028C1.033,21.258,1.985,22,3,22h18
			c1.015,0,1.967-0.743,2.213-1.728l0.757-3.028C24.104,16.709,23.778,16.166,23.243,16.032z M3,4h18v12.001h-6
			c-0.265,0-0.52,0.106-0.707,0.293l-0.707,0.707h-3.172l-0.707-0.707C9.52,16.107,9.265,16.002,9,16.002H3V4z M21,20H3
			c-0.09,0-0.25-0.125-0.272-0.213l-0.446-1.786h6.305l0.707,0.707C9.48,18.896,9.735,19.002,10,19.002h4
			c0.265,0,0.52-0.105,0.707-0.293l0.707-0.707h6.305l-0.446,1.786C21.25,19.875,21.09,20,21,20z"/>
		<path fill="#757575" d="M11,14.002v1h2v-1.05c1.14-0.233,2-1.242,2-2.45c0-0.565-0.195-1.081-0.513-1.5
			C14.805,9.583,15,9.067,15,8.502c0-1.207-0.86-2.216-2-2.449V5.002h-2v1H9v8H11z M12.5,12.002H11v-1h1.5
			c0.276,0,0.5,0.224,0.5,0.5C13,11.778,12.776,12.002,12.5,12.002z M13,8.502c0,0.276-0.224,0.5-0.5,0.5H11v-1h1.5
			C12.776,8.002,13,8.226,13,8.502z"/>
	</g>
</g>
</svg>
