<?xml version="1.0" encoding="utf-8"?>
<!-- Generator: Adobe Illustrator 16.0.0, SVG Export Plug-In . SVG Version: 6.00 Build 0)  -->
<!DOCTYPE svg PUBLIC "-//W3C//DTD SVG 1.1//EN" "http://www.w3.org/Graphics/SVG/1.1/DTD/svg11.dtd">
<svg version="1.1" xmlns="http://www.w3.org/2000/svg" xmlns:xlink="http://www.w3.org/1999/xlink" x="0px" y="0px" width="24px"
	 height="24px" viewBox="0 0 24 24" enable-background="new 0 0 24 24" xml:space="preserve">
<g id="Frames-24px">
	<rect fill="none" width="24" height="24"/>
</g>
<g id="Solid">
	<g>
		<path fill="#757575" d="M17,8.051V7h-2v1h-2v8h2v1h2v-1.05c1.14-0.233,2-1.242,2-2.45c0-0.564-0.195-1.08-0.513-1.5
			C18.805,11.581,19,11.066,19,10.5C19,9.293,18.14,8.283,17,8.051z M17,10.5c0,0.276-0.224,0.5-0.5,0.5H15v-1h1.5
			C16.776,10,17,10.225,17,10.5z M16.5,14H15v-1h1.5c0.276,0,0.5,0.224,0.5,0.5C17,13.777,16.776,14,16.5,14z"/>
		<path fill="#757575" d="M16,4c-3.166,0-5.989,1.867-7.271,4.675C7.884,8.235,6.949,8,6,8c-3.309,0-6,2.692-6,6
			c0,3.309,2.691,6,6,6h10c4.411,0,8-3.589,8-8C24,7.59,20.411,4,16,4z M16,18H6c-2.206,0-4-1.794-4-4s1.794-4,4-4
			c1.194,0,2.066,0.531,2.586,0.978c0.262,0.224,0.62,0.297,0.949,0.195c0.329-0.102,0.582-0.367,0.669-0.7
			C10.896,7.84,13.28,6,16,6c3.309,0,6,2.692,6,6C22,15.31,19.309,18,16,18z"/>
	</g>
</g>
</svg>
