<?xml version="1.0" encoding="utf-8"?>
<!-- Generator: Adobe Illustrator 16.0.0, SVG Export Plug-In . SVG Version: 6.00 Build 0)  -->
<!DOCTYPE svg PUBLIC "-//W3C//DTD SVG 1.1//EN" "http://www.w3.org/Graphics/SVG/1.1/DTD/svg11.dtd">
<svg version="1.1" xmlns="http://www.w3.org/2000/svg" xmlns:xlink="http://www.w3.org/1999/xlink" x="0px" y="0px" width="24px"
	 height="24px" viewBox="0 0 24 24" enable-background="new 0 0 24 24" xml:space="preserve">
<g id="Frames-24px">
	<rect fill="none" width="24" height="24"/>
</g>
<g id="Solid">
	<g>
		<path fill="#757575" d="M2,8.006h16v9h2v-10c0-0.007-0.003-0.012-0.004-0.019c-0.002-0.116-0.026-0.229-0.068-0.339
			c-0.011-0.028-0.025-0.053-0.038-0.08c-0.02-0.038-0.032-0.08-0.058-0.117l-4-6C15.646,0.173,15.335,0.006,15,0.006H5
			c-0.334,0-0.646,0.167-0.832,0.445l-4,6C0.144,6.488,0.13,6.53,0.111,6.568C0.098,6.596,0.083,6.62,0.072,6.648
			C0.03,6.758,0.006,6.871,0.004,6.987C0.004,6.994,0,6.999,0,7.006v12c0,0.552,0.448,1,1,1h14v-2H2V8.006z M17.132,6.006H11v-4
			h3.465L17.132,6.006z M5.535,2.006H9v4H2.869L5.535,2.006z"/>
		<rect x="17" y="19" fill="#757575" width="6" height="2"/>
	</g>
</g>
</svg>
