<?xml version="1.0" encoding="utf-8"?>
<!-- Generator: Adobe Illustrator 16.0.0, SVG Export Plug-In . SVG Version: 6.00 Build 0)  -->
<!DOCTYPE svg PUBLIC "-//W3C//DTD SVG 1.1//EN" "http://www.w3.org/Graphics/SVG/1.1/DTD/svg11.dtd">
<svg version="1.1" xmlns="http://www.w3.org/2000/svg" xmlns:xlink="http://www.w3.org/1999/xlink" x="0px" y="0px" width="24px"
	 height="24px" viewBox="0 0 24 24" enable-background="new 0 0 24 24" xml:space="preserve">
<g id="Frames-24px">
	<rect fill="none" width="24" height="24"/>
</g>
<g id="Solid">
	<g>
		<path fill="#757575" d="M22,0H8C6.897,0,6,0.897,6,2v9h2V2h3v6c0,0.404,0.244,0.769,0.617,0.924
			c0.373,0.154,0.803,0.069,1.09-0.217L15,6.415l2.293,2.293C17.484,8.899,17.74,9,18,9c0.129,0,0.259-0.025,0.383-0.076
			C18.756,8.77,19,8.405,19,8V2h3l-0.003,12H15v2h7c1.103,0,2-0.897,2-2V2C24,0.897,23.103,0,22,0z M17,5.586l-1.293-1.292
			C15.512,4.098,15.256,4,15,4s-0.512,0.098-0.707,0.293L13,5.586V2h4V5.586z"/>
		<path fill="#757575" d="M20,17h-7.586l0.293-0.292c0.304-0.305,0.38-0.77,0.188-1.155l-1-2c-0.223-0.445-0.737-0.659-1.211-0.501
			l-4.757,1.585C5.781,14.266,5.423,14,5,14H1c-0.552,0-1,0.448-1,1v8c0,0.552,0.448,1,1,1h4c0.552,0,1-0.448,1-1h11
			c0.315,0,0.611-0.148,0.8-0.399l3-4c0.228-0.303,0.264-0.709,0.095-1.048C20.725,17.215,20.379,17,20,17z M2,22v-6h2v6H2z
			 M16.5,21H6v-4.279l4.494-1.498l0.29,0.58l-1.49,1.491C9.102,17.484,9.01,17.741,9.009,18H9v1h9L16.5,21z"/>
	</g>
</g>
</svg>
