<?xml version="1.0" encoding="utf-8"?>
<!-- Generator: Adobe Illustrator 16.0.0, SVG Export Plug-In . SVG Version: 6.00 Build 0)  -->
<!DOCTYPE svg PUBLIC "-//W3C//DTD SVG 1.1//EN" "http://www.w3.org/Graphics/SVG/1.1/DTD/svg11.dtd">
<svg version="1.1" xmlns="http://www.w3.org/2000/svg" xmlns:xlink="http://www.w3.org/1999/xlink" x="0px" y="0px" width="24px"
	 height="24.001px" viewBox="0 0 24 24.001" enable-background="new 0 0 24 24.001" xml:space="preserve">
<g id="Frames-24px">
	<rect y="0" fill="none" width="24" height="24.001"/>
</g>
<g id="Outline">
	<g>
		<rect x="8.999" y="7" fill="#757575" width="2" height="2"/>
		<rect x="12.999" y="7" fill="#757575" width="2" height="2"/>
		<rect x="8.999" y="11" fill="#757575" width="2" height="2"/>
		<rect x="12.999" y="11" fill="#757575" width="2" height="2"/>
		<rect x="4.999" y="15" fill="#757575" width="2" height="2"/>
		<rect x="8.999" y="15" fill="#757575" width="2" height="2"/>
		<rect x="12.999" y="15" fill="#757575" width="2" height="2"/>
		<rect x="16.999" y="15" fill="#757575" width="2" height="2"/>
		<path fill="#757575" d="M20.999,12h-3V4c0-0.552-0.448-1-1-1h-2V2c0-0.552-0.448-1-1-1h-4c-0.552,0-1,0.448-1,1v1h-2
			c-0.552,0-1,0.448-1,1v8h-3c-0.552,0-1,0.448-1,1v8c0,0.552,0.448,1,1,1h18c0.552,0,1-0.448,1-1v-8
			C21.999,12.448,21.551,12,20.999,12z M19.999,20h-6v-2h-4v2h-6v-6h3c0.552,0,1-0.448,1-1V5h2c0.552,0,1-0.448,1-1V3h2v1
			c0,0.552,0.448,1,1,1h2v8c0,0.552,0.448,1,1,1h3V20z"/>
	</g>
</g>
</svg>
