<?xml version="1.0" encoding="utf-8"?>
<!-- Generator: Adobe Illustrator 16.0.0, SVG Export Plug-In . SVG Version: 6.00 Build 0)  -->
<!DOCTYPE svg PUBLIC "-//W3C//DTD SVG 1.1//EN" "http://www.w3.org/Graphics/SVG/1.1/DTD/svg11.dtd">
<svg version="1.1" xmlns="http://www.w3.org/2000/svg" xmlns:xlink="http://www.w3.org/1999/xlink" x="0px" y="0px" width="24px"
	 height="24.001px" viewBox="0 0 24 24.001" enable-background="new 0 0 24 24.001" xml:space="preserve">
<g id="Frames-24px">
	<rect fill="none" width="24" height="24.001"/>
</g>
<g id="Outline">
	<path fill="#757575" d="M22,20.001v-7c0-0.379-0.214-0.725-0.553-0.895l-4-2c-0.281-0.141-0.613-0.141-0.895,0l-4,2
		C12.214,12.276,12,12.622,12,13.001v7h-2v-12.5c0-1.93-1.57-3.5-3.5-3.5S3,5.571,3,7.501v12.5H0v2h24v-2H22z M8,14.001H5v-3h3
		V14.001z M6.5,6.001c0.827,0,1.5,0.673,1.5,1.5v1.5H5v-1.5C5,6.674,5.673,6.001,6.5,6.001z M5,20.001v-4h3v4H5z M19,20.001v-3h-4v3
		h-1v-6.382l3-1.5l3,1.5v6.382H19z"/>
</g>
</svg>
