<?xml version="1.0" encoding="utf-8"?>
<!-- Generator: Adobe Illustrator 16.0.0, SVG Export Plug-In . SVG Version: 6.00 Build 0)  -->
<!DOCTYPE svg PUBLIC "-//W3C//DTD SVG 1.1//EN" "http://www.w3.org/Graphics/SVG/1.1/DTD/svg11.dtd">
<svg version="1.1" xmlns="http://www.w3.org/2000/svg" xmlns:xlink="http://www.w3.org/1999/xlink" x="0px" y="0px" width="24px"
	 height="24px" viewBox="0 0 24 24" enable-background="new 0 0 24 24" xml:space="preserve">
<g id="Frames-24px">
	<rect fill="none" width="24" height="24"/>
</g>
<g id="Solid">
	<path fill="#757575" d="M20,2H4C2.897,2,2,2.898,2,4v10c0,1.103,0.897,2,2,2h5.585l-5.999,5.999h2.828L11,17.414v4.585h2v-4.585
		l4.586,4.585h2.828L14.415,16H20c1.103,0,2-0.897,2-2V4C22,2.898,21.103,2,20,2z M20,4l0,2H4V4H20z M4,14V8h15.999l-0.002,6H4z"/>
</g>
</svg>
