<?xml version="1.0" encoding="utf-8"?>
<!-- Generator: Adobe Illustrator 16.0.0, SVG Export Plug-In . SVG Version: 6.00 Build 0)  -->
<!DOCTYPE svg PUBLIC "-//W3C//DTD SVG 1.1//EN" "http://www.w3.org/Graphics/SVG/1.1/DTD/svg11.dtd">
<svg version="1.1" xmlns="http://www.w3.org/2000/svg" xmlns:xlink="http://www.w3.org/1999/xlink" x="0px" y="0px" width="24px"
	 height="24px" viewBox="0 0 24 24" enable-background="new 0 0 24 24" xml:space="preserve">
<g id="Frames-24px">
	<rect fill="none" width="24" height="24"/>
</g>
<g id="Outline">
	<g>
		<path fill="#757575" d="M21,3h-3V1h-2v6h2V5h3v15H3V5h2V3H3C1.896,3,1,3.896,1,5v15c0,1.104,0.896,2,2,2h18c1.104,0,2-0.896,2-2V5
			C23,3.896,22.104,3,21,3z"/>
		<polygon fill="#757575" points="8,5 15,5 15,3 8,3 8,1 6,1 6,7 8,7 		"/>
		<rect x="5" y="9" fill="#757575" width="4" height="4"/>
		<rect x="10" y="9" fill="#757575" width="4" height="4"/>
		<rect x="15" y="9" fill="#757575" width="4" height="4"/>
		<rect x="5" y="14" fill="#757575" width="4" height="4"/>
		<rect x="10" y="14" fill="#757575" width="4" height="4"/>
	</g>
</g>
</svg>
