<?xml version="1.0" encoding="utf-8"?>
<!-- Generator: Adobe Illustrator 16.0.0, SVG Export Plug-In . SVG Version: 6.00 Build 0)  -->
<!DOCTYPE svg PUBLIC "-//W3C//DTD SVG 1.1//EN" "http://www.w3.org/Graphics/SVG/1.1/DTD/svg11.dtd">
<svg version="1.1" xmlns="http://www.w3.org/2000/svg" xmlns:xlink="http://www.w3.org/1999/xlink" x="0px" y="0px" width="24px"
	 height="24px" viewBox="0 0 24 24" enable-background="new 0 0 24 24" xml:space="preserve">
<g id="Frames-24px">
	<rect fill="none" width="24" height="24"/>
</g>
<g id="Solid">
	<g>
		<path fill="#757575" d="M16.899,13.002H20v-2h-3.101C16.501,9.042,14.959,7.5,13,7.103V4.002h-2v3.101
			C9.041,7.5,7.499,9.042,7.101,11.002H4v2h3.101c0.398,1.958,1.94,3.501,3.899,3.899v3.101h2v-3.101
			C14.959,16.503,16.501,14.96,16.899,13.002z M12,15.002c-1.657,0-3-1.343-3-3c0-1.658,1.343-3,3-3s3,1.342,3,3
			C15,13.659,13.657,15.002,12,15.002z"/>
		<path fill="#757575" d="M20,20.002h-4v2h4c1.103,0,2-0.898,2-2v-4h-2V20.002z"/>
		<path fill="#757575" d="M20,2.002h-4v2h4v4h2v-4C22,2.899,21.103,2.002,20,2.002z"/>
		<path fill="#757575" d="M4,4.002h4v-2H4c-1.103,0-2,0.897-2,2v4h2V4.002z"/>
		<path fill="#757575" d="M4,16.002H2v4c0,1.102,0.897,2,2,2h4v-2H4V16.002z"/>
	</g>
</g>
</svg>
