<?xml version="1.0" encoding="utf-8"?>
<!-- Generator: Adobe Illustrator 16.0.0, SVG Export Plug-In . SVG Version: 6.00 Build 0)  -->
<!DOCTYPE svg PUBLIC "-//W3C//DTD SVG 1.1//EN" "http://www.w3.org/Graphics/SVG/1.1/DTD/svg11.dtd">
<svg version="1.1" xmlns="http://www.w3.org/2000/svg" xmlns:xlink="http://www.w3.org/1999/xlink" x="0px" y="0px" width="24px"
	 height="24px" viewBox="0 0 24 24" enable-background="new 0 0 24 24" xml:space="preserve">
<g id="Frames-24px">
	<rect fill="none" width="24" height="24"/>
</g>
<g id="Outline">
	<path fill="#757575" d="M13,7.002c-3.521,0-6.442,2.612-6.929,6H6c-2.206,0-4,1.794-4,4v2c0,0.553,0.448,1,1,1h2.185
		c0.414,1.162,1.514,2,2.815,2s2.401-0.838,2.816-2h3.369c0.414,1.162,1.514,2,2.815,2s2.401-0.838,2.816-2H21c0.552,0,1-0.447,1-1
		v-3C22,11.04,17.963,7.002,13,7.002z M19.315,13.002H14v-3.92C16.353,9.421,18.327,10.93,19.315,13.002z M12,9.103v3.899H8.102
		C8.5,11.046,10.044,9.502,12,9.103z M8,20.002c-0.551,0-1-0.449-1-1c0-0.551,0.449-1,1-1s1,0.449,1,1
		C9,19.553,8.552,20.002,8,20.002z M17,20.002c-0.551,0-1-0.449-1-1c0-0.551,0.449-1,1-1s1,0.449,1,1
		C18,19.553,17.552,20.002,17,20.002z M20,18.002h-0.184c-0.415-1.161-1.514-2-2.816-2s-2.401,0.839-2.815,2h-3.369
		c-0.415-1.161-1.514-2-2.816-2s-2.401,0.839-2.815,2H4v-1c0-1.103,0.897-2,2-2h13.92c0.047,0.328,0.08,0.66,0.08,1V18.002z"/>
</g>
</svg>
