<?xml version="1.0" encoding="utf-8"?>
<!-- Generator: Adobe Illustrator 16.0.0, SVG Export Plug-In . SVG Version: 6.00 Build 0)  -->
<!DOCTYPE svg PUBLIC "-//W3C//DTD SVG 1.1//EN" "http://www.w3.org/Graphics/SVG/1.1/DTD/svg11.dtd">
<svg version="1.1" xmlns="http://www.w3.org/2000/svg" xmlns:xlink="http://www.w3.org/1999/xlink" x="0px" y="0px" width="24px"
	 height="24.001px" viewBox="0 0 24 24.001" enable-background="new 0 0 24 24.001" xml:space="preserve">
<g id="Frames-24px">
	<rect fill="none" width="24" height="24.001"/>
</g>
<g id="Outline">
	<path fill="#757575" d="M21.923,3.618C21.768,3.244,21.403,3,20.999,3h-13c-2.757,0-5,2.243-5,5c0,2.757,2.243,5,5,5h2v2.246
		l-5,1.429V14h-2v7h2v-2.246l6.275-1.792c0.429-0.123,0.725-0.516,0.725-0.962v-3h4c0.552,0,1-0.448,1-1h2c0.552,0,1-0.448,1-1V8
		c0-0.43-0.274-0.789-0.655-0.931l2.362-2.362C21.992,4.422,22.078,3.991,21.923,3.618z M15.292,8.293
		C15.104,8.48,14.999,8.735,14.999,9v2h-7c-1.654,0-3-1.346-3-3c0-1.302,0.839-2.401,2-2.815V8h2V5h1v2h2V5h6.586L15.292,8.293z
		 M17.999,9v1h-1V9.415L17.414,9H17.999z"/>
</g>
</svg>
