<?xml version="1.0" encoding="utf-8"?>
<!-- Generator: Adobe Illustrator 16.0.0, SVG Export Plug-In . SVG Version: 6.00 Build 0)  -->
<!DOCTYPE svg PUBLIC "-//W3C//DTD SVG 1.1//EN" "http://www.w3.org/Graphics/SVG/1.1/DTD/svg11.dtd">
<svg version="1.1" xmlns="http://www.w3.org/2000/svg" xmlns:xlink="http://www.w3.org/1999/xlink" x="0px" y="0px" width="24px"
	 height="24.001px" viewBox="0 0 24 24.001" enable-background="new 0 0 24 24.001" xml:space="preserve">
<g id="Frames-24px">
	<rect fill="none" width="24" height="24.001"/>
</g>
<g id="Outline">
	<g>
		<path fill="#757575" d="M21.001,13.002c0-4.601-4.535-11-9-11s-9,6.399-9,11c0,4.898,4.081,5.861,8,5.982v1.018h-3v2h8v-2h-3
			v-1.018C16.92,18.863,21.001,17.9,21.001,13.002z M5.001,13.002c0-3.554,3.754-9,7-9s7,5.446,7,9c0,2.023-0.541,4-7,4
			S5.001,15.025,5.001,13.002z"/>
		<path fill="#757575" d="M15.001,15.002h2c0-1.768-2.635-3-5-3s-5,1.232-5,3l1.992,0.059c0.129-0.323,1.4-1.059,3.008-1.059
			S14.88,14.738,15.001,15.002z"/>
	</g>
</g>
</svg>
