<?xml version="1.0" encoding="utf-8"?>
<!-- Generator: Adobe Illustrator 16.0.0, SVG Export Plug-In . SVG Version: 6.00 Build 0)  -->
<!DOCTYPE svg PUBLIC "-//W3C//DTD SVG 1.1//EN" "http://www.w3.org/Graphics/SVG/1.1/DTD/svg11.dtd">
<svg version="1.1" xmlns="http://www.w3.org/2000/svg" xmlns:xlink="http://www.w3.org/1999/xlink" x="0px" y="0px" width="24px"
	 height="24px" viewBox="0 0 24 24" enable-background="new 0 0 24 24" xml:space="preserve">
<g id="Frames-24px">
	<rect fill="none" width="24" height="24"/>
</g>
<g id="Outline">
	<g>
		<g>
			<path fill="#757575" d="M6,22v-4H4c-1.103,0-2-0.897-2-2V4c0-1.103,0.897-2,2-2h16c1.103,0,2,0.897,2,2v12c0,1.103-0.897,2-2,2
				h-8.667L6,22z M4,4v12h4v2l2.667-2H20V4H4z"/>
		</g>
		<g>
			<path fill="#757575" d="M7.422,11C8.194,12.764,9.95,14,12,14s3.806-1.236,4.578-3H7.422z"/>
		</g>
		<g>
			<circle fill="#757575" cx="9" cy="7.25" r="1.25"/>
		</g>
		<g>
			<circle fill="#757575" cx="15" cy="7.25" r="1.25"/>
		</g>
	</g>
</g>
</svg>
