<?xml version="1.0" encoding="utf-8"?>
<!-- Generator: Adobe Illustrator 16.0.0, SVG Export Plug-In . SVG Version: 6.00 Build 0)  -->
<!DOCTYPE svg PUBLIC "-//W3C//DTD SVG 1.1//EN" "http://www.w3.org/Graphics/SVG/1.1/DTD/svg11.dtd">
<svg version="1.1" xmlns="http://www.w3.org/2000/svg" xmlns:xlink="http://www.w3.org/1999/xlink" x="0px" y="0px" width="24px"
	 height="24px" viewBox="0 0 24 24" enable-background="new 0 0 24 24" xml:space="preserve">
<g id="Frames-24px">
	<rect fill="none" width="24" height="24"/>
</g>
<g id="Outline">
	<g>
		<g>
			<path fill="#757575" d="M3,24v-4H2c-1.103,0-2-0.897-2-2V9c0-1.103,0.897-2,2-2h13c1.103,0,2,0.897,2,2v9c0,1.103-0.897,2-2,2
				H8.333L3,24z M2,9v9h3v2l2.667-2H15V9H2z"/>
		</g>
		<g>
			<polygon fill="#757575" points="21,3 21,0 19,0 19,3 16,3 16,5 19,5 19,8 21,8 21,5 24,5 24,3 			"/>
		</g>
	</g>
</g>
</svg>
