<?xml version="1.0" encoding="utf-8"?>
<!-- Generator: Adobe Illustrator 16.0.0, SVG Export Plug-In . SVG Version: 6.00 Build 0)  -->
<!DOCTYPE svg PUBLIC "-//W3C//DTD SVG 1.1//EN" "http://www.w3.org/Graphics/SVG/1.1/DTD/svg11.dtd">
<svg version="1.1" xmlns="http://www.w3.org/2000/svg" xmlns:xlink="http://www.w3.org/1999/xlink" x="0px" y="0px" width="24px"
	 height="24px" viewBox="0 0 24 24" enable-background="new 0 0 24 24" xml:space="preserve">
<g id="Frames-24px">
	<rect fill="none" width="24" height="24"/>
</g>
<g id="Outline">
	<g>
		<path fill="#757575" d="M15,18H7.667L5,20v-2H2V9h9V7H2C0.897,7,0,7.897,0,9v9c0,1.103,0.897,2,2,2h1v4l5.333-4H15
			c1.103,0,2-0.897,2-2v-6h-2V18z"/>
		<polygon fill="#757575" points="20.707,3.707 19.293,2.293 17,4.586 14.707,2.293 13.293,3.707 15.586,6 13.293,8.293 
			14.707,9.707 17,7.414 19.293,9.707 20.707,8.293 18.414,6 		"/>
	</g>
</g>
</svg>
