<?xml version="1.0" encoding="utf-8"?>
<!-- Generator: Adobe Illustrator 16.0.0, SVG Export Plug-In . SVG Version: 6.00 Build 0)  -->
<!DOCTYPE svg PUBLIC "-//W3C//DTD SVG 1.1//EN" "http://www.w3.org/Graphics/SVG/1.1/DTD/svg11.dtd">
<svg version="1.1" xmlns="http://www.w3.org/2000/svg" xmlns:xlink="http://www.w3.org/1999/xlink" x="0px" y="0px" width="24px"
	 height="24.001px" viewBox="0 0 24 24.001" enable-background="new 0 0 24 24.001" xml:space="preserve">
<g id="Frames-24px">
	<rect fill="none" width="24" height="24.001"/>
</g>
<g id="Outline">
	<path fill="#757575" d="M17.999,4c-0.617,0-1.21,0.139-1.747,0.402C15.361,2.941,13.758,2,11.999,2S8.637,2.941,7.746,4.402
		C7.209,4.139,6.616,4,5.999,4c-2.206,0-4,1.794-4,4c0,1.86,1.277,3.428,3,3.874V21c0,0.552,0.448,1,1,1h12c0.552,0,1-0.448,1-1
		v-9.126c1.723-0.446,3-2.014,3-3.874C21.999,5.794,20.205,4,17.999,4z M6.999,20v-1h10v1H6.999z M17.999,10c-0.552,0-1,0.448-1,1v6
		h-1v-3h-2v3h-1v-4h-2v4h-1v-3h-2v3h-1v-6c0-0.552-0.448-1-1-1c-1.103,0-2-0.897-2-2c0-1.104,0.897-2,2-2
		c0.546,0,1.058,0.22,1.44,0.621C7.688,6.88,8.056,6.986,8.405,6.9c0.349-0.088,0.624-0.355,0.721-0.701
		C9.487,4.904,10.668,4,11.999,4s2.512,0.904,2.874,2.199c0.097,0.346,0.372,0.613,0.721,0.701c0.35,0.086,0.717-0.02,0.966-0.279
		C16.941,6.22,17.453,6,17.999,6c1.103,0,2,0.896,2,2C19.999,9.103,19.102,10,17.999,10z"/>
</g>
</svg>
