<?xml version="1.0" encoding="utf-8"?>
<!-- Generator: Adobe Illustrator 16.0.0, SVG Export Plug-In . SVG Version: 6.00 Build 0)  -->
<!DOCTYPE svg PUBLIC "-//W3C//DTD SVG 1.1//EN" "http://www.w3.org/Graphics/SVG/1.1/DTD/svg11.dtd">
<svg version="1.1" xmlns="http://www.w3.org/2000/svg" xmlns:xlink="http://www.w3.org/1999/xlink" x="0px" y="0px" width="24px"
	 height="24px" viewBox="0 0 24 24" enable-background="new 0 0 24 24" xml:space="preserve">
<g id="Frames-24px">
	<rect fill="none" width="24" height="24"/>
</g>
<g id="Outline">
	<g>
		<path fill="#757575" d="M15,19H7c-2.757,0-5-2.243-5-5s2.243-5,5-5c0.533,0,1.06,0.086,1.563,0.254C9.642,6.699,12.141,5,15,5
			c3.86,0,7,3.14,7,7C22,15.86,18.86,19,15,19z M7,11c-1.654,0-3,1.346-3,3s1.346,3,3,3h8c2.757,0,5-2.243,5-5s-2.243-5-5-5
			c-2.337,0-4.338,1.59-4.866,3.867c-0.073,0.316-0.297,0.578-0.599,0.7c-0.301,0.122-0.644,0.091-0.917-0.086
			C8.13,11.167,7.57,11,7,11z"/>
	</g>
</g>
</svg>
