<?xml version="1.0" encoding="utf-8"?>
<!-- Generator: Adobe Illustrator 16.0.0, SVG Export Plug-In . SVG Version: 6.00 Build 0)  -->
<!DOCTYPE svg PUBLIC "-//W3C//DTD SVG 1.1//EN" "http://www.w3.org/Graphics/SVG/1.1/DTD/svg11.dtd">
<svg version="1.1" xmlns="http://www.w3.org/2000/svg" xmlns:xlink="http://www.w3.org/1999/xlink" x="0px" y="0px" width="24px"
	 height="24px" viewBox="0 0 24 24" enable-background="new 0 0 24 24" xml:space="preserve">
<g id="Frames-24px">
	<rect fill="none" width="24" height="24"/>
</g>
<g id="Outline">
	<g>
		<g>
			<path fill="#757575" d="M19,21H5c-1.103,0-2-0.897-2-2V5c0-1.102,0.897-2,2-2h14c1.103,0,2,0.898,2,2v14
				C21,20.103,20.103,21,19,21z M5,5v14h14.001L19,5H5z"/>
		</g>
		<path fill="#757575" d="M18,13v-2h-2.142c-0.094-0.363-0.238-0.704-0.425-1.019l1.517-1.517L15.536,7.05l-1.517,1.517
			C13.704,8.38,13.363,8.236,13,8.142V6h-2v2.142c-0.363,0.094-0.704,0.238-1.019,0.425L8.464,7.05L7.05,8.464l1.517,1.517
			C8.38,10.296,8.236,10.637,8.142,11H6v2h2.142c0.094,0.363,0.238,0.704,0.425,1.019L7.05,15.536l1.414,1.414l1.517-1.517
			c0.315,0.187,0.656,0.331,1.019,0.425V18h2v-2.142c0.363-0.094,0.704-0.238,1.019-0.425l1.517,1.517l1.414-1.414l-1.517-1.517
			c0.187-0.315,0.331-0.655,0.425-1.019H18z M12,14c-1.103,0-2-0.897-2-2c0-1.102,0.897-2,2-2s2,0.898,2,2
			C14,13.103,13.103,14,12,14z"/>
	</g>
</g>
</svg>
