<?xml version="1.0" encoding="utf-8"?>
<!-- Generator: Adobe Illustrator 16.0.0, SVG Export Plug-In . SVG Version: 6.00 Build 0)  -->
<!DOCTYPE svg PUBLIC "-//W3C//DTD SVG 1.1//EN" "http://www.w3.org/Graphics/SVG/1.1/DTD/svg11.dtd">
<svg version="1.1" xmlns="http://www.w3.org/2000/svg" xmlns:xlink="http://www.w3.org/1999/xlink" x="0px" y="0px" width="24px"
	 height="24px" viewBox="0 0 24 24" enable-background="new 0 0 24 24" xml:space="preserve">
<g id="Frames-24px">
	<rect fill="none" width="24" height="24"/>
</g>
<g id="Solid">
	<g>
		<path fill="#757575" d="M4.086,5C4.562,4.595,6.215,4,8,4s3.438,0.594,3.914,1H14c0-2.244-4.121-3-6-3S2,2.756,2,5v12
			c0,2.245,4.121,3,6,3c0.287,0,0.631-0.02,1-0.058v-2.008C8.675,17.973,8.342,18,8,18c-1.916,0-3.682-0.685-4-1.086v-0.693
			C5.32,16.777,6.985,17,8,17c0.288,0,0.631-0.02,1-0.058v-2.008C8.675,14.973,8.342,15,8,15c-1.937,0-3.709-0.698-4-1.098v-0.682
			C5.32,13.777,6.985,14,8,14c0.288,0,0.631-0.02,1-0.058v-2.008C8.675,11.973,8.342,12,8,12c-1.937,0-3.709-0.698-4-1.098v-0.682
			C5.32,10.777,6.985,11,8,11c0.288,0,0.631-0.02,1-0.058V8.935C8.675,8.973,8.342,9,8,9C6.063,9,4.291,8.303,4,7.903V7.221
			C5.32,7.777,6.985,8,8,8c0.288,0,0.631-0.02,1-0.058V5.936C8.675,5.974,8.342,6,8,6C6.216,6,4.562,5.407,4.086,5z"/>
		<path fill="#757575" d="M16,7c-1.879,0-6,0.756-6,3v9c0,2.245,4.121,3,6,3s6-0.755,6-3v-9C22,7.756,17.879,7,16,7z M20,12.903
			C19.709,13.303,17.937,14,16,14s-3.709-0.698-4-1.098v-0.682C13.32,12.777,14.985,13,16,13s2.68-0.223,4-0.779V12.903z M20,15.903
			C19.709,16.303,17.937,17,16,17s-3.709-0.698-4-1.098v-0.682C13.32,15.777,14.985,16,16,16s2.68-0.223,4-0.779V15.903z M16,9
			c1.785,0,3.438,0.594,3.914,1c-0.476,0.406-2.13,1-3.914,1s-3.438-0.594-3.914-1C12.562,9.595,14.215,9,16,9z M16,20
			c-1.916,0-3.682-0.685-4-1.086v-0.693C13.32,18.777,14.985,19,16,19s2.68-0.223,4-0.779v0.693C19.682,19.315,17.916,20,16,20z"/>
	</g>
</g>
</svg>
