<?xml version="1.0" encoding="utf-8"?>
<!-- Generator: Adobe Illustrator 16.0.0, SVG Export Plug-In . SVG Version: 6.00 Build 0)  -->
<!DOCTYPE svg PUBLIC "-//W3C//DTD SVG 1.1//EN" "http://www.w3.org/Graphics/SVG/1.1/DTD/svg11.dtd">
<svg version="1.1" xmlns="http://www.w3.org/2000/svg" xmlns:xlink="http://www.w3.org/1999/xlink" x="0px" y="0px" width="24px"
	 height="24px" viewBox="0 0 24 24" enable-background="new 0 0 24 24" xml:space="preserve">
<g id="Frames-24px">
	<rect fill="none" width="24" height="24"/>
</g>
<g id="Solid">
	<g>
		<path fill="#757575" d="M12,10C6.486,10,2,14.486,2,20c0,0.552,0.448,1,1,1h18c0.552,0,1-0.448,1-1C22,14.486,17.514,10,12,10z
			 M4.062,19C4.556,15.06,7.928,12,12,12s7.444,3.059,7.938,7H4.062z"/>
		<path fill="#757575" d="M12,9c3.109,0,6.091,1.337,8.182,3.667l1.489-1.335c-1.453-1.62-3.277-2.82-5.276-3.544
			C16.77,7.288,17,6.673,17,6c0-1.654-1.346-3-3-3c-0.771,0-1.468,0.3-2,0.78C11.468,3.301,10.771,3,10,3C8.346,3,7,4.347,7,6
			c0,0.672,0.23,1.288,0.605,1.789c-2,0.724-3.823,1.924-5.276,3.544l1.489,1.335C5.909,10.338,8.891,9,12,9z M14,5
			c0.551,0,1,0.449,1,1c0,0.552-0.449,1-1,1s-1-0.448-1-1C13,5.449,13.449,5,14,5z M10,5c0.551,0,1,0.449,1,1c0,0.552-0.449,1-1,1
			S9,6.552,9,6C9,5.449,9.449,5,10,5z"/>
	</g>
</g>
</svg>
