<?xml version="1.0" encoding="utf-8"?>
<!-- Generator: Adobe Illustrator 16.0.0, SVG Export Plug-In . SVG Version: 6.00 Build 0)  -->
<!DOCTYPE svg PUBLIC "-//W3C//DTD SVG 1.1//EN" "http://www.w3.org/Graphics/SVG/1.1/DTD/svg11.dtd">
<svg version="1.1" xmlns="http://www.w3.org/2000/svg" xmlns:xlink="http://www.w3.org/1999/xlink" x="0px" y="0px" width="24px"
	 height="24px" viewBox="0 0 24 24" enable-background="new 0 0 24 24" xml:space="preserve">
<g id="Frames-24px">
	<rect fill="none" width="24" height="24"/>
</g>
<g id="Outline">
	<path fill="#757575" d="M21,4h-7c-0.265,0-0.52,0.106-0.707,0.293L12,5.586l-1.293-1.293C10.52,4.106,10.265,4,10,4H3
		C2.448,4,2,4.448,2,5v13c0,0.552,0.448,1,1,1h6.586l1.707,1.707C11.488,20.902,11.744,21,12,21s0.512-0.098,0.707-0.293L14.414,19
		H21c0.552,0,1-0.448,1-1V5C22,4.448,21.552,4,21,4z M10,17H4V6h5.586L11,7.414v10.172l-0.293-0.293C10.52,17.106,10.265,17,10,17z
		 M20,17h-6c-0.265,0-0.52,0.106-0.707,0.293L13,17.586V7.414L14.414,6H20V17z"/>
</g>
</svg>
