<?xml version="1.0" encoding="utf-8"?>
<!-- Generator: Adobe Illustrator 16.0.0, SVG Export Plug-In . SVG Version: 6.00 Build 0)  -->
<!DOCTYPE svg PUBLIC "-//W3C//DTD SVG 1.1//EN" "http://www.w3.org/Graphics/SVG/1.1/DTD/svg11.dtd">
<svg version="1.1" xmlns="http://www.w3.org/2000/svg" xmlns:xlink="http://www.w3.org/1999/xlink" x="0px" y="0px" width="24px"
	 height="24.001px" viewBox="0 0 24 24.001" enable-background="new 0 0 24 24.001" xml:space="preserve">
<g id="Frames-24px">
	<rect fill="none" width="24" height="24.001"/>
</g>
<g id="Outline">
	<path fill="#757575" d="M20.955,8.547c-0.233-2.542-2.353-4.545-4.954-4.545h-8c-2.602,0-4.721,2.004-4.954,4.545
		c-1.714,0.226-3.046,1.68-3.046,3.455v5c0,1.102,0.897,2,2,2v1h2v-1h16v1h2v-1c1.103,0,2-0.898,2-2v-5
		C24.001,10.228,22.669,8.773,20.955,8.547z M18.987,8.86c-1.17,0.567-1.986,1.756-1.986,3.142h-4v-6h3
		C17.607,6.002,18.911,7.272,18.987,8.86z M8.001,6.002h3v6h-4c0-1.386-0.815-2.575-1.986-3.142
		C5.091,7.272,6.395,6.002,8.001,6.002z M22.001,17.002h-20v-5c0-0.827,0.673-1.5,1.5-1.5s1.5,0.673,1.5,1.5v1c0,0.552,0.448,1,1,1
		h12c0.552,0,1-0.448,1-1v-1c0-0.827,0.673-1.5,1.5-1.5s1.5,0.673,1.5,1.5V17.002z"/>
</g>
</svg>
