<?xml version="1.0" encoding="utf-8"?>
<!-- Generator: Adobe Illustrator 16.0.0, SVG Export Plug-In . SVG Version: 6.00 Build 0)  -->
<!DOCTYPE svg PUBLIC "-//W3C//DTD SVG 1.1//EN" "http://www.w3.org/Graphics/SVG/1.1/DTD/svg11.dtd">
<svg version="1.1" xmlns="http://www.w3.org/2000/svg" xmlns:xlink="http://www.w3.org/1999/xlink" x="0px" y="0px" width="24px"
	 height="24px" viewBox="0 0 24 24" enable-background="new 0 0 24 24" xml:space="preserve">
<g id="Frames-24px">
	<rect fill="none" width="24" height="24"/>
</g>
<g id="Outline">
	<g>
		<path fill="#757575" d="M12,20H4v-1h8v-2H4V7h12v1h2V4c0-1.103-0.897-2-2-2H4C2.897,2,2,2.897,2,4v16c0,1.103,0.897,2,2,2h8V20z
			 M4,4h12v1H4V4z"/>
		<path fill="#757575" d="M20,10h-4c-1.103,0-2,0.897-2,2v8c0,1.103,0.897,2,2,2h4c1.103,0,2-0.897,2-2v-8
			C22,10.897,21.103,10,20,10z M20,12l0.001,5H16v-5H20z M16,20v-1h4.001v1H16z"/>
	</g>
</g>
</svg>
