<?xml version="1.0" encoding="utf-8"?>
<!-- Generator: Adobe Illustrator 16.0.0, SVG Export Plug-In . SVG Version: 6.00 Build 0)  -->
<!DOCTYPE svg PUBLIC "-//W3C//DTD SVG 1.1//EN" "http://www.w3.org/Graphics/SVG/1.1/DTD/svg11.dtd">
<svg version="1.1" xmlns="http://www.w3.org/2000/svg" xmlns:xlink="http://www.w3.org/1999/xlink" x="0px" y="0px" width="24px"
	 height="24px" viewBox="0 0 24 24" enable-background="new 0 0 24 24" xml:space="preserve">
<g id="Frames-24px">
	<rect fill="none" width="24" height="24"/>
</g>
<g id="Outline">
	<g>
		<path fill="#757575" d="M8.938,9.435l2.013-0.667c0.778,1.263,2.168,2.073,3.685,2.073c0.518,0,1.028-0.093,1.516-0.274
			c2.338-0.874,5.082-5.09,6.321-7.022c-1-0.252-5.028-1.326-7.715-1.326c-0.689,0-1.225,0.075-1.638,0.229
			c-2.022,0.755-3.133,2.87-2.715,4.923L8.466,8.011L8.938,9.435z M13.819,4.321c0.083-0.031,0.34-0.103,0.938-0.103
			c1.322,0,3.194,0.338,4.468,0.606c-1.162,1.61-2.757,3.489-3.774,3.869c-0.88,0.328-1.871,0.055-2.5-0.587l3.451-1.143
			l-0.472-1.424l-3.609,1.196C12.222,5.707,12.808,4.698,13.819,4.321z"/>
		<path fill="#757575" d="M21,13H7v-3c0-0.265-0.105-0.52-0.293-0.707l-3-3C3.42,6.007,2.991,5.921,2.617,6.076
			C2.243,6.231,2,6.596,2,7v15c0,0.552,0.448,1,1,1h18c0.552,0,1-0.448,1-1v-8C22,13.448,21.552,13,21,13z M20,21H4V9.414l1,1V14
			c0,0.552,0.448,1,1,1h14V21z"/>
		<rect x="6" y="17" fill="#757575" width="3" height="2"/>
		<rect x="11" y="17" fill="#757575" width="3" height="2"/>
		<rect x="16" y="17" fill="#757575" width="3" height="2"/>
	</g>
</g>
</svg>
