<?xml version="1.0" encoding="utf-8"?>
<!-- Generator: Adobe Illustrator 16.0.0, SVG Export Plug-In . SVG Version: 6.00 Build 0)  -->
<!DOCTYPE svg PUBLIC "-//W3C//DTD SVG 1.1//EN" "http://www.w3.org/Graphics/SVG/1.1/DTD/svg11.dtd">
<svg version="1.1" xmlns="http://www.w3.org/2000/svg" xmlns:xlink="http://www.w3.org/1999/xlink" x="0px" y="0px" width="24px"
	 height="24.002px" viewBox="0 0 24 24.002" enable-background="new 0 0 24 24.002" xml:space="preserve">
<g id="Frames-24px">
	<rect y="0" fill="none" width="24" height="24.002"/>
</g>
<g id="Outline">
	<g>
		<path fill="#757575" d="M5.939,8.434l2.006-0.672c0.778,1.266,2.17,2.079,3.689,2.079c0.518,0,1.028-0.093,1.516-0.274
			c2.338-0.874,5.082-5.09,6.321-7.022c-1-0.252-5.028-1.326-7.715-1.326c-0.689,0-1.225,0.075-1.638,0.229
			C8.098,2.202,6.987,4.312,7.401,6.363L5.463,7.012L5.939,8.434z M10.818,3.321c0.083-0.031,0.34-0.103,0.938-0.103
			c1.322,0,3.194,0.338,4.468,0.606c-1.162,1.61-2.757,3.489-3.774,3.869c-0.885,0.33-1.884,0.053-2.513-0.598l3.383-1.134
			l-0.477-1.422L9.32,5.72C9.228,4.698,9.812,3.697,10.818,3.321z"/>
		<path fill="#757575" d="M19.856,16.486l-3-5C16.676,11.184,16.35,11,15.999,11h-8c-0.351,0-0.677,0.184-0.857,0.486l-3,5
			C4.048,16.642,3.999,16.819,3.999,17v3c0,0.552,0.448,1,1,1h1v0.5c0,0.827,0.673,1.5,1.5,1.5s1.5-0.673,1.5-1.5V21h6v0.5
			c0,0.827,0.673,1.5,1.5,1.5s1.5-0.673,1.5-1.5V21h1c0.552,0,1-0.448,1-1v-3C19.999,16.819,19.95,16.642,19.856,16.486z M8.565,13
			h6.867l1.8,3H6.765L8.565,13z M5.999,19v-1h2v1H5.999z M9.999,18h4v1h-4V18z M15.999,19v-1h2v1H15.999z"/>
	</g>
</g>
</svg>
