<?xml version="1.0" encoding="utf-8"?>
<!-- Generator: Adobe Illustrator 16.0.0, SVG Export Plug-In . SVG Version: 6.00 Build 0)  -->
<!DOCTYPE svg PUBLIC "-//W3C//DTD SVG 1.1//EN" "http://www.w3.org/Graphics/SVG/1.1/DTD/svg11.dtd">
<svg version="1.1" xmlns="http://www.w3.org/2000/svg" xmlns:xlink="http://www.w3.org/1999/xlink" x="0px" y="0px" width="24px"
	 height="24px" viewBox="0 0 24 24" enable-background="new 0 0 24 24" xml:space="preserve">
<g id="Frames-24px">
	<rect fill="none" width="24" height="24"/>
</g>
<g id="Outline">
	<g>
		<path fill="#757575" d="M14,16l0.001,6H2v-7.057l5.419,3.871C7.593,18.938,7.796,19,8,19s0.407-0.063,0.581-0.186L12,16.372V14
			h-0.121L8,16.771L4.121,14H8v-2H2c-1.103,0-2,0.898-2,2v8c0,1.103,0.897,2,2,2h12c1.103,0,2-0.897,2-2v-6H14z"/>
		<g>
			<g>
				<path fill="#757575" d="M17,14c-3.86,0-7-3.14-7-7c0-3.86,3.14-7,7-7s7,3.14,7,7C24,10.86,20.86,14,17,14z M17,2
					c-2.757,0-5,2.243-5,5c0,2.757,2.243,5,5,5s5-2.243,5-5C22,4.243,19.757,2,17,2z"/>
			</g>
			<g>
				<polygon fill="#757575" points="20,8 16,8 16,3 18,3 18,6 20,6 				"/>
			</g>
		</g>
	</g>
</g>
</svg>
