<?xml version="1.0" encoding="utf-8"?>
<!-- Generator: Adobe Illustrator 16.0.0, SVG Export Plug-In . SVG Version: 6.00 Build 0)  -->
<!DOCTYPE svg PUBLIC "-//W3C//DTD SVG 1.1//EN" "http://www.w3.org/Graphics/SVG/1.1/DTD/svg11.dtd">
<svg version="1.1" xmlns="http://www.w3.org/2000/svg" xmlns:xlink="http://www.w3.org/1999/xlink" x="0px" y="0px"
	 width="24.001px" height="24.001px" viewBox="0 0 24.001 24.001" enable-background="new 0 0 24.001 24.001" xml:space="preserve">
<g id="Frames-24px">
	<rect fill="none" width="24.001" height="24.001"/>
</g>
<g id="Outline">
	<g>
		<path fill="#757575" d="M21.001,3h-16c-0.552,0-1,0.448-1,1v6c0,0.552,0.448,1,1,1h1v2h-3v2h3v1h2v-1h1v-2h-1v-2h3v8h-9v2h20V4
			C22.001,3.448,21.553,3,21.001,3z M12.001,9h-6V5h14v1h-4v2h4v1h-4v2h4v1h-3c-0.552,0-1,0.448-1,1v6h-3v-9
			C13.001,9.448,12.553,9,12.001,9z M18.001,19v-5h2v5H18.001z"/>
		<rect x="7.001" y="6" fill="#757575" width="4" height="2"/>
	</g>
</g>
</svg>
