<?xml version="1.0" encoding="utf-8"?>
<!-- Generator: Adobe Illustrator 16.0.0, SVG Export Plug-In . SVG Version: 6.00 Build 0)  -->
<!DOCTYPE svg PUBLIC "-//W3C//DTD SVG 1.1//EN" "http://www.w3.org/Graphics/SVG/1.1/DTD/svg11.dtd">
<svg version="1.1" xmlns="http://www.w3.org/2000/svg" xmlns:xlink="http://www.w3.org/1999/xlink" x="0px" y="0px" width="24px"
	 height="24px" viewBox="0 0 24 24" enable-background="new 0 0 24 24" xml:space="preserve">
<g id="Frames-24px">
	<rect fill="none" width="24" height="24"/>
</g>
<g id="Solid">
	<path fill="#757575" d="M12,2.002c-5.514,0-10,4.485-10,10c0,5.514,4.486,9.999,10,9.999s10-4.485,10-9.999
		C22,6.487,17.514,2.002,12,2.002z M18.917,8.002h-7.494l2.212-3.831C15.891,4.642,17.795,6.068,18.917,8.002z M14.887,12.002
		l-1.155,2h-3.464l-1.154-2l1.155-2h3.464L14.887,12.002z M11.406,4.032l-3.447,5.97l-1.917-3.32
		C7.384,5.18,9.278,4.188,11.406,4.032z M4.802,8.534l3.156,5.468H4.263C4.098,13.361,4,12.693,4,12.002
		C4,10.759,4.293,9.584,4.802,8.534z M5.083,16.002h7.495l-2.212,3.831C8.11,19.362,6.206,17.936,5.083,16.002z M12.596,19.971
		l3.446-5.969l1.917,3.32C16.616,18.823,14.723,19.813,12.596,19.971z M19.198,15.469l-3.156-5.467h3.695
		c0.166,0.64,0.263,1.308,0.263,2C20,13.245,19.707,14.418,19.198,15.469z"/>
</g>
</svg>
