<?xml version="1.0" encoding="utf-8"?>
<!-- Generator: Adobe Illustrator 16.0.0, SVG Export Plug-In . SVG Version: 6.00 Build 0)  -->
<!DOCTYPE svg PUBLIC "-//W3C//DTD SVG 1.1//EN" "http://www.w3.org/Graphics/SVG/1.1/DTD/svg11.dtd">
<svg version="1.1" xmlns="http://www.w3.org/2000/svg" xmlns:xlink="http://www.w3.org/1999/xlink" x="0px" y="0px" width="24px"
	 height="24px" viewBox="0 0 24 24" enable-background="new 0 0 24 24" xml:space="preserve">
<g id="Frames-24px">
	<rect fill="none" width="24" height="24"/>
</g>
<g id="Outline">
	<g>
		<path fill="#757575" d="M12,2c-4.962,0-9,4.038-9,9v1h4.424c0.774,1.763,2.531,3,4.576,3s3.802-1.237,4.576-3H21v-1
			C21,6.038,16.962,2,12,2z M15,10c0,1.654-1.346,3-3,3s-3-1.346-3-3V9.734c1.362-0.514,2.359-1.379,3-2.085
			c0.641,0.706,1.638,1.571,3,2.085V10z M17,10V9c0-0.459-0.312-0.858-0.757-0.97c-2.199-0.55-3.365-2.51-3.375-2.526
			c-0.356-0.622-1.38-0.622-1.736,0c-0.011,0.02-1.184,1.979-3.375,2.526C7.312,8.142,7,8.541,7,9v1H5.071C5.558,6.612,8.479,4,12,4
			s6.442,2.612,6.929,6H17z"/>
		<path fill="#757575" d="M15.535,16.551l-0.509-0.172L12,18.733l-3.026-2.354l-0.509,0.172C5.669,17.492,4,19.529,4,22v2h16v-2
			C20,19.529,18.331,17.492,15.535,16.551z M6,22c0-1.458,0.944-2.665,2.612-3.369L12,21.268l3.388-2.636
			C17.056,19.335,18,20.542,18,22H6z"/>
	</g>
</g>
</svg>
