<?xml version="1.0" encoding="utf-8"?>
<!-- Generator: Adobe Illustrator 16.0.0, SVG Export Plug-In . SVG Version: 6.00 Build 0)  -->
<!DOCTYPE svg PUBLIC "-//W3C//DTD SVG 1.1//EN" "http://www.w3.org/Graphics/SVG/1.1/DTD/svg11.dtd">
<svg version="1.1" xmlns="http://www.w3.org/2000/svg" xmlns:xlink="http://www.w3.org/1999/xlink" x="0px" y="0px" width="24px"
	 height="24px" viewBox="0 0 24 24" enable-background="new 0 0 24 24" xml:space="preserve">
<g id="Frames-24px">
	<rect fill="none" width="24" height="24"/>
</g>
<g id="Outline">
	<path fill="#757575" d="M21,6.999h-2V6.814c1.162-0.414,2-1.514,2-2.816c0-1.654-1.346-3-3-3s-3,1.346-3,3
		c0,1.302,0.838,2.402,2,2.816v0.184H7V6.814c1.162-0.414,2-1.514,2-2.816c0-1.654-1.346-3-3-3s-3,1.346-3,3
		c0,1.302,0.838,2.402,2,2.816v0.184H3c-0.552,0-1,0.449-1,1v6c0,0.552,0.448,1,1,1h1v7h2v-7h12v7h2v-7h1c0.552,0,1-0.448,1-1v-6
		C22,7.447,21.553,6.999,21,6.999z M15.415,8.999h3.172l-4,4h-3.172L15.415,8.999z M8.586,12.999H5.415l4-4h3.172L8.586,12.999z
		 M18,2.999c0.551,0,1,0.449,1,1c0,0.552-0.449,1-1,1s-1-0.448-1-1C17,3.447,17.449,2.999,18,2.999z M6,2.999c0.551,0,1,0.449,1,1
		c0,0.552-0.449,1-1,1s-1-0.448-1-1C5,3.447,5.449,2.999,6,2.999z M6.586,8.999L4,11.584V8.999H6.586z M17.415,12.999L20,10.413
		v2.586H17.415z"/>
</g>
</svg>
