<?xml version="1.0" encoding="utf-8"?>
<!-- Generator: Adobe Illustrator 16.0.0, SVG Export Plug-In . SVG Version: 6.00 Build 0)  -->
<!DOCTYPE svg PUBLIC "-//W3C//DTD SVG 1.1//EN" "http://www.w3.org/Graphics/SVG/1.1/DTD/svg11.dtd">
<svg version="1.1" xmlns="http://www.w3.org/2000/svg" xmlns:xlink="http://www.w3.org/1999/xlink" x="0px" y="0px" width="24px"
	 height="24px" viewBox="0 0 24 24" enable-background="new 0 0 24 24" xml:space="preserve">
<g id="Frames-24px">
	<rect fill="none" width="24" height="24"/>
</g>
<g id="Outline">
	<g>
		<polygon fill="#757575" points="14.121,11.93 12,14.051 9.879,11.93 8.465,13.344 10.586,15.465 8.465,17.586 9.879,19 12,16.879 
			14.121,19 15.535,17.586 13.414,15.465 15.535,13.344 		"/>
		<path fill="#757575" d="M19,5h-2V3h-1.142c-0.447-1.72-2-3-3.858-3S8.589,1.28,8.142,3H7v2H5C3.897,5,3,5.897,3,7v14
			c0,1.103,0.897,2,2,2h14c1.103,0,2-0.897,2-2V7C21,5.897,20.103,5,19,5z M12,2c0.739,0,1.385,0.402,1.731,1h-3.463
			C10.615,2.402,11.261,2,12,2z M9,5h6v2H9V5z M19,21H5V7h2v2h10V7h2V21z"/>
	</g>
</g>
</svg>
