<?xml version="1.0" encoding="utf-8"?>
<!-- Generator: Adobe Illustrator 16.0.0, SVG Export Plug-In . SVG Version: 6.00 Build 0)  -->
<!DOCTYPE svg PUBLIC "-//W3C//DTD SVG 1.1//EN" "http://www.w3.org/Graphics/SVG/1.1/DTD/svg11.dtd">
<svg version="1.1" xmlns="http://www.w3.org/2000/svg" xmlns:xlink="http://www.w3.org/1999/xlink" x="0px" y="0px" width="24px"
	 height="24px" viewBox="0 0 24 24" enable-background="new 0 0 24 24" xml:space="preserve">
<g id="Frames-24px">
	<rect fill="none" width="24" height="24"/>
</g>
<g id="Outline">
	<g>
		<path fill="#757575" d="M17.414,0H10C8.897,0,8,0.898,8,2v14c0,1.103,0.897,2,2,2h10c1.103,0,2-0.897,2-2V4.586L17.414,0z
			 M20.001,16H10V2h6v4h4L20.001,16z"/>
		<path fill="#757575" d="M7,3H5v16c0,1.103,0.897,2,2,2h12v-2H7V3z"/>
		<path fill="#757575" d="M4,6H2v16c0,1.103,0.897,2,2,2h12v-2H4V6z"/>
	</g>
</g>
</svg>
