<?xml version="1.0" encoding="utf-8"?>
<!-- Generator: Adobe Illustrator 16.0.0, SVG Export Plug-In . SVG Version: 6.00 Build 0)  -->
<!DOCTYPE svg PUBLIC "-//W3C//DTD SVG 1.1//EN" "http://www.w3.org/Graphics/SVG/1.1/DTD/svg11.dtd">
<svg version="1.1" xmlns="http://www.w3.org/2000/svg" xmlns:xlink="http://www.w3.org/1999/xlink" x="0px" y="0px" width="24px"
	 height="24px" viewBox="0 0 24 24" enable-background="new 0 0 24 24" xml:space="preserve">
<g id="Frames-24px">
	<rect fill="none" width="24" height="24"/>
</g>
<g id="Outline">
	<path fill="#757575" d="M19,2h-2V1c0-0.552-0.448-1-1-1s-1,0.448-1,1v1h-2V1c0-0.552-0.448-1-1-1s-1,0.448-1,1v1H9V1
		c0-0.552-0.448-1-1-1S7,0.448,7,1v1H5C3.897,2,3,2.896,3,4v18c0,1.103,0.897,2,2,2h14c1.103,0,2-0.897,2-2V4
		C21,2.896,20.103,2,19,2z M5,22V4h2v1c0,0.553,0.448,1,1,1s1-0.447,1-1V4h2v1c0,0.553,0.448,1,1,1s1-0.447,1-1V4h2v1
		c0,0.553,0.448,1,1,1s1-0.447,1-1V4h2l0.001,18H5z"/>
</g>
</svg>
