<?xml version="1.0" encoding="utf-8"?>
<!-- Generator: Adobe Illustrator 16.0.0, SVG Export Plug-In . SVG Version: 6.00 Build 0)  -->
<!DOCTYPE svg PUBLIC "-//W3C//DTD SVG 1.1//EN" "http://www.w3.org/Graphics/SVG/1.1/DTD/svg11.dtd">
<svg version="1.1" xmlns="http://www.w3.org/2000/svg" xmlns:xlink="http://www.w3.org/1999/xlink" x="0px" y="0px" width="24px"
	 height="24px" viewBox="0 0 24 24" enable-background="new 0 0 24 24" xml:space="preserve">
<g id="Frames-24px">
	<rect fill="none" width="24" height="24"/>
</g>
<g id="Outline">
	<g>
		<polygon fill="#757575" points="11,8.586 9.707,7.293 8.293,8.707 11,11.415 15.707,6.707 14.293,5.293 		"/>
		<polygon fill="#757575" points="11,15.586 9.707,14.293 8.293,15.707 11,18.415 15.707,13.707 14.293,12.293 		"/>
		<path fill="#757575" d="M18,2H6C4.897,2,4,2.897,4,4v16c0,1.103,0.897,2,2,2h12c1.103,0,2-0.897,2-2V4C20,2.897,19.103,2,18,2z
			 M6,20V4h12l0.001,16H6z"/>
	</g>
</g>
</svg>
