<?xml version="1.0" encoding="utf-8"?>
<!-- Generator: Adobe Illustrator 16.0.0, SVG Export Plug-In . SVG Version: 6.00 Build 0)  -->
<!DOCTYPE svg PUBLIC "-//W3C//DTD SVG 1.1//EN" "http://www.w3.org/Graphics/SVG/1.1/DTD/svg11.dtd">
<svg version="1.1" xmlns="http://www.w3.org/2000/svg" xmlns:xlink="http://www.w3.org/1999/xlink" x="0px" y="0px" width="24px"
	 height="24px" viewBox="0 0 24 24" enable-background="new 0 0 24 24" xml:space="preserve">
<g id="Frames-24px">
	<rect fill="none" width="24" height="24"/>
</g>
<g id="Outline">
	<g>
		<polygon fill="#757575" points="20,2 20,4.586 16.707,1.293 15.293,2.707 18.586,6 16,6 16,8 22,8 22,2 		"/>
		<polygon fill="#757575" points="8,18 8,16 2,16 2,22 4,22 4,19.414 7.293,22.707 8.707,21.293 5.414,18 		"/>
		<path fill="#757575" d="M19,9h-7c-1.103,0-2,0.898-2,2v9c0,1.103,0.897,2,2,2h7c1.103,0,2-0.897,2-2v-9C21,9.898,20.103,9,19,9z
			 M12,20v-9h7l0.001,9H12z"/>
		<path fill="#757575" d="M5,4h7l0,4h2V4c0-1.102-0.897-2-2-2H5C3.897,2,3,2.898,3,4v9c0,1.103,0.897,2,2,2h4v-2H5V4z"/>
	</g>
</g>
</svg>
