<?xml version="1.0" encoding="utf-8"?>
<!-- Generator: Adobe Illustrator 16.0.0, SVG Export Plug-In . SVG Version: 6.00 Build 0)  -->
<!DOCTYPE svg PUBLIC "-//W3C//DTD SVG 1.1//EN" "http://www.w3.org/Graphics/SVG/1.1/DTD/svg11.dtd">
<svg version="1.1" xmlns="http://www.w3.org/2000/svg" xmlns:xlink="http://www.w3.org/1999/xlink" x="0px" y="0px" width="24px"
	 height="24px" viewBox="0 0 24 24" enable-background="new 0 0 24 24" xml:space="preserve">
<g id="Frames-24px">
	<rect fill="none" width="24" height="24"/>
</g>
<g id="Outline">
	<g>
		<polygon fill="#757575" points="7,10 7,14 9,14 9,12 11,12 11,17 9,17 9,19 15,19 15,17 13,17 13,12 15,12 15,14 17,14 17,10 		
			"/>
		<path fill="#757575" d="M16.414,1H5C3.897,1,3,1.898,3,3v18c0,1.103,0.897,2,2,2h14c1.103,0,2-0.897,2-2V5.586L16.414,1z M5,21V3
			h10v4h4l0.001,14H5z"/>
	</g>
</g>
</svg>
