<?xml version="1.0" encoding="utf-8"?>
<!-- Generator: Adobe Illustrator 16.0.0, SVG Export Plug-In . SVG Version: 6.00 Build 0)  -->
<!DOCTYPE svg PUBLIC "-//W3C//DTD SVG 1.1//EN" "http://www.w3.org/Graphics/SVG/1.1/DTD/svg11.dtd">
<svg version="1.1" xmlns="http://www.w3.org/2000/svg" xmlns:xlink="http://www.w3.org/1999/xlink" x="0px" y="0px"
	 width="24.001px" height="24px" viewBox="0 0 24.001 24" enable-background="new 0 0 24.001 24" xml:space="preserve">
<g id="Frames-24px">
	<rect fill="none" width="24.001" height="24"/>
</g>
<g id="Outline">
	<path fill="#757575" d="M19.634,2.227c-0.232-0.189-0.536-0.267-0.83-0.207l-5,1C13.336,3.113,13,3.523,13,4h-1.837L5.316,2.051
		L4.684,3.949l2.88,0.96C5.439,6.112,4,8.39,4,11v7h2v-7c0-2.414,1.721-4.435,4-4.898v1.041C8.28,7.59,7,9.142,7,11v10
		c0,0.552,0.448,1,1,1h6c0.552,0,1-0.448,1-1V11c0-1.858-1.28-3.41-3-3.858V6h1c0,0.477,0.336,0.887,0.804,0.98l5,1
		c0.292,0.059,0.598-0.017,0.83-0.207C19.866,7.584,20,7.3,20,7V3C20,2.7,19.866,2.417,19.634,2.227z M13,17h-1v-4h1V17z M13,11h-2
		c-0.552,0-1,0.448-1,1v6c0,0.552,0.448,1,1,1h2v1H9v-9c0-1.103,0.897-2,2-2S13,9.897,13,11z M18,5.78l-3-0.6V4.82l3-0.601V5.78z"/>
</g>
</svg>
