<?xml version="1.0" encoding="utf-8"?>
<!-- Generator: Adobe Illustrator 16.0.0, SVG Export Plug-In . SVG Version: 6.00 Build 0)  -->
<!DOCTYPE svg PUBLIC "-//W3C//DTD SVG 1.1//EN" "http://www.w3.org/Graphics/SVG/1.1/DTD/svg11.dtd">
<svg version="1.1" xmlns="http://www.w3.org/2000/svg" xmlns:xlink="http://www.w3.org/1999/xlink" x="0px" y="0px"
	 width="24.001px" height="24.001px" viewBox="0 0 24.001 24.001" enable-background="new 0 0 24.001 24.001" xml:space="preserve">
<g id="Frames-24px">
	<rect fill="none" width="24.001" height="24.001"/>
</g>
<g id="Outline">
	<g>
		<path fill="#757575" d="M19.001,11h-8V3c0-0.551-0.448-1-1-1h-4c-1.103,0-2,0.898-2,2v7c0,1.102,0.897,2,2,2h3v7
			c0,1.102,0.897,2,2,2h7c1.103,0,2-0.898,2-2v-8C20.001,11.449,19.553,11,19.001,11z M18.001,13v1h-7v-1H18.001z M6.001,4h3v7h-3V4
			z M11.001,20v-4h7v4H11.001z"/>
		<path fill="#757575" d="M16.001,10c1.654,0,3-1.346,3-3c0-1.277-1.522-3.62-2.177-4.568c-0.373-0.541-1.272-0.541-1.646,0
			C14.523,3.38,13.001,5.724,13.001,7C13.001,8.655,14.347,10,16.001,10z M16.001,4.854c0.576,0.971,0.992,1.842,1,2.146
			c0,0.552-0.449,1-1,1s-1-0.448-1-0.999C15.009,6.696,15.425,5.825,16.001,4.854z"/>
	</g>
</g>
</svg>
