<?xml version="1.0" encoding="utf-8"?>
<!-- Generator: Adobe Illustrator 16.0.0, SVG Export Plug-In . SVG Version: 6.00 Build 0)  -->
<!DOCTYPE svg PUBLIC "-//W3C//DTD SVG 1.1//EN" "http://www.w3.org/Graphics/SVG/1.1/DTD/svg11.dtd">
<svg version="1.1" xmlns="http://www.w3.org/2000/svg" xmlns:xlink="http://www.w3.org/1999/xlink" x="0px" y="0px" width="24px"
	 height="24px" viewBox="0 0 24 24" enable-background="new 0 0 24 24" xml:space="preserve">
<g id="Frames-24px">
	<rect fill="none" width="24" height="24"/>
</g>
<g id="Outline">
	<g>
		<path fill="#757575" d="M16.229,12h0.706l-0.313,0.392l1.423,1.423l1.752-2.19c0.24-0.301,0.287-0.712,0.121-1.058
			S19.399,10,19.015,10h-4.786L16.229,12z"/>
		<path fill="#757575" d="M4.707,3.308L3.293,4.722l3.925,3.924l-2.983,3.729c-0.24,0.302-0.287,0.712-0.121,1.058
			S4.631,14,5.015,14h5v7c0,0.425,0.268,0.803,0.669,0.943C10.792,21.982,10.904,22,11.015,22c0.298,0,0.587-0.133,0.781-0.375
			l3.733-4.667l3.764,3.764l1.414-1.414L4.707,3.308z M7.096,12l1.545-1.931L10.571,12H7.096z M12.015,18.15v-4.707l2.091,2.092
			L12.015,18.15z"/>
		<path fill="#757575" d="M11.155,6.926l0.86-1.075v1.936l2,2V3c0-0.425-0.268-0.803-0.669-0.943
			c-0.401-0.142-0.847-0.013-1.112,0.318L9.732,5.503L11.155,6.926z"/>
	</g>
</g>
</svg>
