<?xml version="1.0" encoding="utf-8"?>
<!-- Generator: Adobe Illustrator 16.0.0, SVG Export Plug-In . SVG Version: 6.00 Build 0)  -->
<!DOCTYPE svg PUBLIC "-//W3C//DTD SVG 1.1//EN" "http://www.w3.org/Graphics/SVG/1.1/DTD/svg11.dtd">
<svg version="1.1" xmlns="http://www.w3.org/2000/svg" xmlns:xlink="http://www.w3.org/1999/xlink" x="0px" y="0px" width="24px"
	 height="24px" viewBox="0 0 24 24" enable-background="new 0 0 24 24" xml:space="preserve">
<g id="Frames-24px">
	<rect fill="none" width="24" height="24"/>
</g>
<g id="Outline">
	<g>
		<g>
			<path fill="#757575" d="M11,22c-0.111,0-0.223-0.018-0.331-0.057C10.268,21.803,10,21.425,10,21v-7H5
				c-0.384,0-0.735-0.221-0.901-0.567s-0.12-0.756,0.121-1.058l8-10c0.265-0.331,0.711-0.459,1.112-0.318
				C13.732,2.197,14,2.575,14,3v7h5c0.384,0,0.735,0.221,0.901,0.567s0.12,0.757-0.121,1.058l-8,10C11.587,21.867,11.298,22,11,22z
				 M7.081,12H11c0.552,0,1,0.448,1,1v5.15L16.919,12H13c-0.552,0-1-0.448-1-1V5.851L7.081,12z"/>
		</g>
	</g>
</g>
</svg>
