<?xml version="1.0" encoding="utf-8"?>
<!-- Generator: Adobe Illustrator 16.0.0, SVG Export Plug-In . SVG Version: 6.00 Build 0)  -->
<!DOCTYPE svg PUBLIC "-//W3C//DTD SVG 1.1//EN" "http://www.w3.org/Graphics/SVG/1.1/DTD/svg11.dtd">
<svg version="1.1" xmlns="http://www.w3.org/2000/svg" xmlns:xlink="http://www.w3.org/1999/xlink" x="0px" y="0px" width="24px"
	 height="24px" viewBox="0 0 24 24" enable-background="new 0 0 24 24" xml:space="preserve">
<g id="Frames-24px">
	<rect fill="none" width="24" height="24"/>
</g>
<g id="Outline">
	<g>
		<polygon fill="#757575" points="13,10 11,10 11,13 8,13 8,15 11,15 11,18 13,18 13,15 16,15 16,13 13,13 		"/>
		<path fill="#757575" d="M20,7h-8.25L10.1,4.801C9.725,4.299,9.126,4,8.5,4H4C2.897,4,2,4.898,2,6v13c0,1.103,0.897,2,2,2h16
			c1.103,0,2-0.897,2-2V9C22,7.898,21.103,7,20,7z M4,19V6h4.5l1.65,2.2c0.375,0.501,0.974,0.8,1.6,0.8H20l0.001,10H4z"/>
	</g>
</g>
</svg>
