<?xml version="1.0" encoding="utf-8"?>
<!-- Generator: Adobe Illustrator 16.0.0, SVG Export Plug-In . SVG Version: 6.00 Build 0)  -->
<!DOCTYPE svg PUBLIC "-//W3C//DTD SVG 1.1//EN" "http://www.w3.org/Graphics/SVG/1.1/DTD/svg11.dtd">
<svg version="1.1" xmlns="http://www.w3.org/2000/svg" xmlns:xlink="http://www.w3.org/1999/xlink" x="0px" y="0px"
	 width="24.001px" height="24px" viewBox="0 0 24.001 24" enable-background="new 0 0 24.001 24" xml:space="preserve">
<g id="Frames-24px">
	<rect fill="none" width="24.001" height="24"/>
</g>
<g id="Outline">
	<path fill="#757575" d="M19.707,4.293C18.551,3.137,17.057,2.5,15.5,2.5s-3.051,0.637-4.207,1.793
		c-2.578,2.578-3.725,5.755-3.188,8.188L6.586,14H5c-1.654,0-3,1.346-3,3c0,1.352,0.898,2.497,2.129,2.871
		C4.503,21.102,5.648,22,7,22c1.654,0,3-1.346,3-3v-1.586l1.521-1.521c0.39,0.087,0.793,0.147,1.224,0.147
		c2.272,0,4.875-1.246,6.962-3.333C22.105,10.309,22.105,6.691,19.707,4.293z M9.586,15l-1.293,1.293C8.105,16.48,8,16.735,8,17v2
		c0,0.551-0.449,1-1,1c-0.429,0-0.789-0.274-0.93-0.656l0.637-0.637l-1.414-1.414l-0.637,0.638C4.275,17.789,4,17.429,4,17
		c0-0.551,0.449-1,1-1h2c0.265,0,0.52-0.105,0.707-0.293L9,14.414L9.586,15z M18.293,11.293c-2.567,2.567-6.019,3.566-7.586,2
		c-1.54-1.54-0.643-4.943,2-7.586C13.485,4.929,14.478,4.5,15.5,4.5s2.015,0.429,2.793,1.207
		C19.911,7.325,19.911,9.675,18.293,11.293z"/>
</g>
</svg>
