<?xml version="1.0" encoding="utf-8"?>
<!-- Generator: Adobe Illustrator 16.0.0, SVG Export Plug-In . SVG Version: 6.00 Build 0)  -->
<!DOCTYPE svg PUBLIC "-//W3C//DTD SVG 1.1//EN" "http://www.w3.org/Graphics/SVG/1.1/DTD/svg11.dtd">
<svg version="1.1" xmlns="http://www.w3.org/2000/svg" xmlns:xlink="http://www.w3.org/1999/xlink" x="0px" y="0px" width="24px"
	 height="24.001px" viewBox="0 0 24 24.001" enable-background="new 0 0 24 24.001" xml:space="preserve">
<g id="Frames-24px">
	<rect fill="none" width="24" height="24.001"/>
</g>
<g id="Outline">
	<g>
		<path fill="#757575" d="M21.419,12.269C21.771,11.763,22,11.172,22,10.5c0-1.25-0.65-2.498-2.031-3.108
			C19.656,3.265,16.206,0,12,0S4.344,3.265,4.031,7.392C2.65,8.002,2,9.25,2,10.5c0,0.67,0.228,1.259,0.579,1.765
			C2.22,12.766,2,13.359,2,14c0,0.771,0.301,1.468,0.78,2C2.301,16.532,2,17.229,2,18c0,1.302,0.839,2.401,2,2.815V22
			c0,1.103,0.896,2,2,2h12c1.103,0,2-0.897,2-2v-1.185c1.162-0.414,2-1.514,2-2.815c0-0.771-0.301-1.468-0.78-2
			c0.479-0.532,0.78-1.229,0.78-2C22,13.368,21.777,12.771,21.419,12.269z M20,14c0,0.551-0.448,1-1,1H5c-0.552,0-1-0.449-1-1
			c0-0.162,0.041-0.315,0.111-0.454C4.704,13.832,5.356,14,6,14c0.755,0,1.469-0.239,2.059-0.674C8.805,13.768,9.755,14,10.5,14
			c0.522,0,1.031-0.117,1.5-0.344C12.469,13.883,12.978,14,13.5,14c0.745,0,1.695-0.232,2.441-0.674C16.531,13.761,17.246,14,18,14
			c0.644,0,1.295-0.168,1.887-0.454C19.958,13.685,20,13.838,20,14z M12,2c2.968,0,5.439,2.166,5.916,5H6.084
			C6.561,4.166,9.032,2,12,2z M6,9h12c1.271,0,2,0.547,2,1.5c0,0.845-1.075,1.5-2,1.5c-0.473,0-0.908-0.223-1.198-0.611
			c-0.188-0.253-0.485-0.402-0.802-0.402c-0.315,0-0.613,0.149-0.802,0.402C15,11.656,14.14,12,13.5,12
			c-0.402,0-0.71-0.168-0.897-0.31c-0.356-0.27-0.849-0.27-1.205,0C11.21,11.832,10.902,12,10.5,12c-0.64,0-1.499-0.344-1.698-0.611
			c-0.377-0.506-1.227-0.506-1.604,0C6.909,11.777,6.473,12,6,12c-0.925,0-2-0.655-2-1.5C4,9.547,4.729,9,6,9z M6,22v-1h12v1H6z
			 M19,19H5c-0.552,0-1-0.449-1-1c0-0.551,0.448-1,1-1h8.586l1.707,1.707C15.488,18.902,15.744,19,16,19s0.512-0.098,0.707-0.293
			L18.414,17H19c0.552,0,1,0.449,1,1C20,18.551,19.552,19,19,19z"/>
		<circle fill="#757575" cx="9.25" cy="5.25" r="0.75"/>
		<circle fill="#757575" cx="14.75" cy="5.25" r="0.75"/>
		<circle fill="#757575" cx="12" cy="3.75" r="0.75"/>
	</g>
</g>
</svg>
