<?xml version="1.0" encoding="utf-8"?>
<!-- Generator: Adobe Illustrator 16.0.0, SVG Export Plug-In . SVG Version: 6.00 Build 0)  -->
<!DOCTYPE svg PUBLIC "-//W3C//DTD SVG 1.1//EN" "http://www.w3.org/Graphics/SVG/1.1/DTD/svg11.dtd">
<svg version="1.1" xmlns="http://www.w3.org/2000/svg" xmlns:xlink="http://www.w3.org/1999/xlink" x="0px" y="0px"
	 width="24.001px" height="24px" viewBox="0 0 24.001 24" enable-background="new 0 0 24.001 24" xml:space="preserve">
<g id="Frames-24px">
	<rect fill="none" width="24.001" height="24"/>
</g>
<g id="Outline">
	<g>
		<path fill="#757575" d="M16,2h-6c-5.084,0-8,2.916-8,8v6c0,5.221,3.133,6,5,6c3.821,0,5.325-4.169,5.801-6H16c6,0,6-6.021,6-8
			C22,4.691,19.309,2,16,2z M16,14h-4c-0.489,0-0.906,0.354-0.986,0.835C11.005,14.887,10.067,20,7,20c-1.288,0-3-0.414-3-4v-6
			c0-3.981,2.019-6,6-6h6c2.206,0,4,1.794,4,4C20,13.273,18.078,14,16,14z"/>
		<circle fill="#757575" cx="7" cy="17" r="2"/>
		<path fill="#757575" d="M16,5h-6C7.515,5,5,6.374,5,9c0,3.318,1.009,5,3,5c1.913,0,3.678-1.367,4.393-2H16c3,0,3-3.011,3-4
			C19,6.346,17.654,5,16,5z M16,10h-4c-0.264,0-0.519,0.105-0.706,0.292C10.815,10.767,9.29,12,8,12c-0.673,0-1-0.981-1-3
			c0-1.582,1.962-2,3-2h6c0.551,0,1,0.449,1,1C17,9.803,16.68,10,16,10z"/>
	</g>
</g>
</svg>
