<?xml version="1.0" encoding="utf-8"?>
<!-- Generator: Adobe Illustrator 16.0.0, SVG Export Plug-In . SVG Version: 6.00 Build 0)  -->
<!DOCTYPE svg PUBLIC "-//W3C//DTD SVG 1.1//EN" "http://www.w3.org/Graphics/SVG/1.1/DTD/svg11.dtd">
<svg version="1.1" xmlns="http://www.w3.org/2000/svg" xmlns:xlink="http://www.w3.org/1999/xlink" x="0px" y="0px"
	 width="24.001px" height="24px" viewBox="0 0 24.001 24" enable-background="new 0 0 24.001 24" xml:space="preserve">
<g id="Frames-24px">
	<rect fill="none" width="24.001" height="24"/>
</g>
<g id="Outline">
	<path fill="#757575" d="M12,2C8.14,2,5,5.14,5,9v1c0,1.417,0.989,2.6,2.312,2.913l3.775,8.493C11.247,21.768,11.605,22,12,22
		s0.753-0.232,0.914-0.594l3.775-8.493C18.011,12.6,19,11.417,19,10V9C19,5.14,15.86,2,12,2z M12,18.538l-2.617-5.889
		C9.604,12.533,9.815,12.4,10,12.234C10.531,12.71,11.232,13,12,13s1.469-0.29,2-0.766c0.185,0.166,0.396,0.299,0.617,0.415
		L12,18.538z M17,10c0,0.551-0.449,1-1,1s-1-0.449-1-1c0-0.552-0.448-1-1-1s-1,0.448-1,1c0,0.551-0.449,1-1,1s-1-0.449-1-1
		c0-0.552-0.448-1-1-1s-1,0.448-1,1c0,0.551-0.449,1-1,1s-1-0.449-1-1V9c0-2.757,2.243-5,5-5s5,2.243,5,5V10z"/>
</g>
</svg>
