<?xml version="1.0" encoding="utf-8"?>
<!-- Generator: Adobe Illustrator 16.0.0, SVG Export Plug-In . SVG Version: 6.00 Build 0)  -->
<!DOCTYPE svg PUBLIC "-//W3C//DTD SVG 1.1//EN" "http://www.w3.org/Graphics/SVG/1.1/DTD/svg11.dtd">
<svg version="1.1" xmlns="http://www.w3.org/2000/svg" xmlns:xlink="http://www.w3.org/1999/xlink" x="0px" y="0px" width="24px"
	 height="24.001px" viewBox="0 0 24 24.001" enable-background="new 0 0 24 24.001" xml:space="preserve">
<g id="Frames-24px">
	<rect fill="none" width="24" height="24.001"/>
</g>
<g id="Outline">
	<g>
		<path fill="#757575" d="M20.706,2.292c-0.287-0.286-0.716-0.372-1.09-0.217c-0.374,0.155-0.617,0.52-0.617,0.924v19h2v-6h2
			c0.552,0,1-0.448,1-1C23.999,5.692,20.841,2.427,20.706,2.292z M20.999,13.999V7.242c0.487,1.6,0.908,3.808,0.987,6.757H20.999z"
			/>
		<path fill="#757575" d="M7.999,5.999v-4h-2v4c0,0.737-0.405,1.375-1,1.723V1.999h-2v5.723c-0.595-0.348-1-0.985-1-1.723v-4h-2v4
			c0,1.858,1.28,3.41,3,3.858v12.142h2V9.857C6.719,9.409,7.999,7.857,7.999,5.999z"/>
		<path fill="#757575" d="M11.999,8.999c-3.309,0-6,2.691-6,6s2.691,6,6,6s6-2.691,6-6S15.308,8.999,11.999,8.999z M11.999,18.999
			c-2.206,0-4-1.794-4-4c0-2.205,1.794-4,4-4s4,1.795,4,4C15.999,17.205,14.205,18.999,11.999,18.999z"/>
		<path fill="#757575" d="M13.499,12.999c-0.828,0-1.5,0.672-1.5,1.5c0-0.828-0.672-1.5-1.5-1.5s-1.5,0.672-1.5,1.5
			c0,1.5,3,3.5,3,3.5s3-2,3-3.5C14.999,13.671,14.327,12.999,13.499,12.999z"/>
	</g>
</g>
</svg>
