<?xml version="1.0" encoding="utf-8"?>
<!-- Generator: Adobe Illustrator 16.0.0, SVG Export Plug-In . SVG Version: 6.00 Build 0)  -->
<!DOCTYPE svg PUBLIC "-//W3C//DTD SVG 1.1//EN" "http://www.w3.org/Graphics/SVG/1.1/DTD/svg11.dtd">
<svg version="1.1" xmlns="http://www.w3.org/2000/svg" xmlns:xlink="http://www.w3.org/1999/xlink" x="0px" y="0px"
	 width="24.001px" height="24.001px" viewBox="0 0 24.001 24.001" enable-background="new 0 0 24.001 24.001" xml:space="preserve">
<g id="Frames-24px">
	<rect fill="none" width="24.001" height="24.001"/>
</g>
<g id="Outline">
	<path fill="#757575" d="M18,1.999c-2.206,0-4,1.795-4,4H8.414l-3-3H2v2h2.586l1,1H3c-0.404,0-0.769,0.244-0.924,0.617
		C1.921,6.99,2.007,7.42,2.293,7.706L9,14.414V20H6v2h8v-2h-3v-5.586l4.98-4.981C16.576,9.785,17.26,10,18,10
		c2.206,0,4-1.795,4-4.001C22,3.794,20.206,1.999,18,1.999z M14.556,7.999L10,12.586L5.414,7.999H14.556z M18,8
		c-0.178,0-0.348-0.03-0.512-0.074l0.219-0.22c0.286-0.286,0.372-0.716,0.217-1.09C17.769,6.243,17.404,5.999,17,5.999h-1
		c0-1.104,0.897-2,2-2s2,0.896,2,2S19.103,8,18,8z"/>
</g>
</svg>
