<?xml version="1.0" encoding="utf-8"?>
<!-- Generator: Adobe Illustrator 16.0.0, SVG Export Plug-In . SVG Version: 6.00 Build 0)  -->
<!DOCTYPE svg PUBLIC "-//W3C//DTD SVG 1.1//EN" "http://www.w3.org/Graphics/SVG/1.1/DTD/svg11.dtd">
<svg version="1.1" xmlns="http://www.w3.org/2000/svg" xmlns:xlink="http://www.w3.org/1999/xlink" x="0px" y="0px" width="24px"
	 height="24px" viewBox="0 0 24 24" enable-background="new 0 0 24 24" xml:space="preserve">
<g id="Frames-24px">
	<rect fill="none" width="24" height="24"/>
</g>
<g id="Solid">
	<g>
		<path fill="#757575" d="M23.961,20.726l-2-7C21.839,13.296,21.446,13,21,13h-6c-0.446,0-0.839,0.296-0.961,0.726l-2,7
			c-0.086,0.301-0.026,0.626,0.163,0.876C12.391,21.853,12.686,22,13,22h10c0.314,0,0.609-0.147,0.798-0.398
			C23.987,21.352,24.048,21.027,23.961,20.726z M14.326,20l1.429-5h4.491l1.429,5H14.326z"/>
		<path fill="#757575" d="M9.961,13.726C9.839,13.296,9.446,13,9,13H3c-0.446,0-0.839,0.296-0.961,0.726l-2,7
			c-0.086,0.301-0.026,0.626,0.163,0.876C0.391,21.853,0.686,22,1,22h10c0.314,0,0.609-0.147,0.798-0.398
			c0.189-0.25,0.25-0.575,0.163-0.876L9.961,13.726z M2.326,20l1.429-5h4.491l1.429,5H2.326z"/>
		<path fill="#757575" d="M7,12h10c0.314,0,0.609-0.147,0.798-0.397c0.189-0.251,0.25-0.575,0.163-0.877l-2-7
			C15.839,3.296,15.446,3,15,3H9C8.554,3,8.161,3.296,8.039,3.726l-2,7c-0.086,0.302-0.026,0.626,0.163,0.877
			C6.391,11.853,6.686,12,7,12z M9.754,5h4.491l1.429,5H8.326L9.754,5z"/>
	</g>
</g>
</svg>
