<?xml version="1.0" encoding="utf-8"?>
<!-- Generator: Adobe Illustrator 16.0.0, SVG Export Plug-In . SVG Version: 6.00 Build 0)  -->
<!DOCTYPE svg PUBLIC "-//W3C//DTD SVG 1.1//EN" "http://www.w3.org/Graphics/SVG/1.1/DTD/svg11.dtd">
<svg version="1.1" xmlns="http://www.w3.org/2000/svg" xmlns:xlink="http://www.w3.org/1999/xlink" x="0px" y="0px" width="24px"
	 height="24px" viewBox="0 0 24 24" enable-background="new 0 0 24 24" xml:space="preserve">
<g id="Frames-24px">
	<rect fill="none" width="24" height="24"/>
</g>
<g id="Solid">
	<g>
		<path fill="#757575" d="M22.447,7.105l-10-5c-0.281-0.141-0.613-0.141-0.895,0l-10,5c-0.201,0.1-0.354,0.273-0.445,0.463
			C1.047,7.69,1,7.898,1,8v5.765c0,0.551,0.448,1,1,1s1-0.449,1-1V9.478l2,0.8v4.903c0,0.379,0.214,0.725,0.553,0.895
			c1.719,0.859,3.486,1.919,6.447,1.919s4.729-1.061,6.447-1.919C18.786,15.905,19,15.56,19,15.181v-4.903l3.372-1.349
			c0.365-0.146,0.611-0.493,0.627-0.887C23.016,7.648,22.799,7.283,22.447,7.105z M17,14.563l-0.975,0.487
			c-2.521,1.261-5.53,1.261-8.05,0L7,14.563v-3.485l4.628,1.852C11.748,12.978,11.874,13,12,13s0.252-0.022,0.372-0.071L17,11.077
			V14.563z M12,10.923L4.439,7.898L12,4.119l7.561,3.779L12,10.923z"/>
		<path fill="#757575" d="M2,16c-0.552,0-1,0.448-1,1v2c0,0.553,0.448,1,1,1s1-0.447,1-1v-2C3,16.448,2.552,16,2,16z"/>
	</g>
</g>
</svg>
