<?xml version="1.0" encoding="utf-8"?>
<!-- Generator: Adobe Illustrator 16.0.0, SVG Export Plug-In . SVG Version: 6.00 Build 0)  -->
<!DOCTYPE svg PUBLIC "-//W3C//DTD SVG 1.1//EN" "http://www.w3.org/Graphics/SVG/1.1/DTD/svg11.dtd">
<svg version="1.1" xmlns="http://www.w3.org/2000/svg" xmlns:xlink="http://www.w3.org/1999/xlink" x="0px" y="0px" width="24px"
	 height="24.001px" viewBox="0 0 24 24.001" enable-background="new 0 0 24 24.001" xml:space="preserve">
<g id="Frames-24px">
	<rect y="0" fill="none" width="24" height="24.001"/>
</g>
<g id="Outline">
	<g>
		<rect x="8" y="10.001" fill="#757575" width="8" height="2"/>
		<path fill="#757575" d="M18,2.001H6c-2.209,0-4,1.791-4,4s1.791,4,4,4s4-1.791,4-4c0-0.732-0.211-1.41-0.555-2h5.109
			C14.211,4.591,14,5.268,14,6.001c0,2.209,1.791,4,4,4s4-1.791,4-4S20.209,2.001,18,2.001z M6,8.001c-1.104,0-2-0.896-2-2
			c0-1.104,0.896-2,2-2s2,0.896,2,2C8,7.105,7.104,8.001,6,8.001z M18,8.001c-1.104,0-2-0.896-2-2c0-1.104,0.896-2,2-2s2,0.896,2,2
			C20,7.105,19.104,8.001,18,8.001z"/>
		<polygon fill="#757575" points="8,22.001 10,22.001 10,15.001 11,15.001 11,22.001 13,22.001 13,15.001 14,15.001 14,22.001 
			16,22.001 16,13.001 8,13.001 		"/>
	</g>
</g>
</svg>
