<?xml version="1.0" encoding="utf-8"?>
<!-- Generator: Adobe Illustrator 16.0.0, SVG Export Plug-In . SVG Version: 6.00 Build 0)  -->
<!DOCTYPE svg PUBLIC "-//W3C//DTD SVG 1.1//EN" "http://www.w3.org/Graphics/SVG/1.1/DTD/svg11.dtd">
<svg version="1.1" xmlns="http://www.w3.org/2000/svg" xmlns:xlink="http://www.w3.org/1999/xlink" x="0px" y="0px" width="24px"
	 height="24px" viewBox="0 0 24 24" enable-background="new 0 0 24 24" xml:space="preserve">
<g id="Frames-24px">
	<rect fill="none" width="24" height="24"/>
</g>
<g id="Outline">
	<g>
		<path fill="#757575" d="M13.459,11.954l2.247-2.247l-1.414-1.414C10.209,12.375,6.999,14.847,6.999,18c0,4,3.504,4,5,4s5,0,5-4
			C16.999,15.613,14.744,13.159,13.459,11.954z M11.999,20c-2.355,0-3-0.431-3-2c0-1.533,1.831-3.573,3-4.668
			c1.169,1.095,3,3.135,3,4.668C14.999,19.569,14.354,20,11.999,20z"/>
		<polygon fill="#757575" points="9.706,11.707 15.706,5.707 14.292,4.292 12.999,5.586 12.999,2 10.999,2 10.999,7.586 
			8.292,10.292 		"/>
	</g>
</g>
</svg>
