<?xml version="1.0" encoding="utf-8"?>
<!-- Generator: Adobe Illustrator 16.0.0, SVG Export Plug-In . SVG Version: 6.00 Build 0)  -->
<!DOCTYPE svg PUBLIC "-//W3C//DTD SVG 1.1//EN" "http://www.w3.org/Graphics/SVG/1.1/DTD/svg11.dtd">
<svg version="1.1" xmlns="http://www.w3.org/2000/svg" xmlns:xlink="http://www.w3.org/1999/xlink" x="0px" y="0px" width="24px"
	 height="24.001px" viewBox="0 0 24 24.001" enable-background="new 0 0 24 24.001" xml:space="preserve">
<g id="Frames-24px">
	<rect fill="none" width="24" height="24.001"/>
</g>
<g id="Outline">
	<g>
		<path fill="#757575" d="M22.001,6.001c0-2.748-5.184-4-10-4s-10,1.252-10,4c0,1.325,1.211,2.299,3,2.956v10.044
			c0,0.266,0.105,0.52,0.293,0.707c1.536,1.536,4.122,2.304,6.707,2.304s5.171-0.768,6.707-2.304
			c0.188-0.188,0.293-0.441,0.293-0.707V8.957C20.79,8.3,22.001,7.326,22.001,6.001z M7.001,18.558v-4.652
			c1.439,0.731,3.216,1.106,5,1.106s3.561-0.375,5-1.106v4.652C14.642,20.481,9.36,20.481,7.001,18.558z M17.001,11.544
			c-2.358,1.933-7.642,1.933-10,0V9.517c1.55,0.324,3.296,0.484,5,0.484s3.45-0.16,5-0.484V11.544z M12.001,8.001
			c-5.25,0-8-1.486-8-2c0-0.514,2.75-2,8-2s8,1.486,8,2C20.001,6.515,17.25,8.001,12.001,8.001z"/>
		<path fill="#757575" d="M15.001,5.001h-6c-0.552,0-1,0.448-1,1c0,0.553,0.448,1,1,1h6c0.552,0,1-0.447,1-1
			C16.001,5.449,15.553,5.001,15.001,5.001z"/>
	</g>
</g>
</svg>
