<?xml version="1.0" encoding="utf-8"?>
<!-- Generator: Adobe Illustrator 16.0.0, SVG Export Plug-In . SVG Version: 6.00 Build 0)  -->
<!DOCTYPE svg PUBLIC "-//W3C//DTD SVG 1.1//EN" "http://www.w3.org/Graphics/SVG/1.1/DTD/svg11.dtd">
<svg version="1.1" xmlns="http://www.w3.org/2000/svg" xmlns:xlink="http://www.w3.org/1999/xlink" x="0px" y="0px" width="24px"
	 height="24.001px" viewBox="0 0 24 24.001" enable-background="new 0 0 24 24.001" xml:space="preserve">
<g id="Frames-24px">
	<rect fill="none" width="24" height="24.001"/>
</g>
<g id="Outline">
	<g>
		<path fill="#757575" d="M11.994,19.71c-1.038-0.867-2.458-2.184-3.815-3.71H5.557c2.564,3.22,5.608,5.619,5.828,5.789
			C11.565,21.93,11.782,22,11.999,22s0.434-0.07,0.614-0.211c0.196-0.152,2.647-2.084,4.996-4.789h-2.714
			C13.728,18.202,12.64,19.165,11.994,19.71z"/>
		<path fill="#757575" d="M4.103,9C4.042,8.662,3.999,8.327,3.999,8c0-2.43,1.57-4,4-4c1.289,0,2.352,0.938,2.787,2h2.427
			c0.435-1.062,1.498-2,2.787-2c2.43,0,4,1.57,4,4c0,0.653-0.133,1.324-0.35,2h2.062c0.173-0.668,0.288-1.337,0.288-2
			c0-3.533-2.467-6-6-6c-1.594,0-3.071,0.837-4,2.08C11.07,2.837,9.593,2,7.999,2c-3.533,0-6,2.467-6,6c0,0.332,0.038,0.666,0.083,1
			H4.103z"/>
		<polygon fill="#757575" points="19.696,12 17.207,13.659 13.082,8.503 8.999,12.586 5.999,9.586 3.585,12 0.999,12 0.999,14 
			4.413,14 5.999,12.415 8.999,15.415 12.916,11.497 16.791,16.341 20.302,14 22.999,14 22.999,12 		"/>
	</g>
</g>
</svg>
