<?xml version="1.0" encoding="utf-8"?>
<!-- Generator: Adobe Illustrator 16.0.0, SVG Export Plug-In . SVG Version: 6.00 Build 0)  -->
<!DOCTYPE svg PUBLIC "-//W3C//DTD SVG 1.1//EN" "http://www.w3.org/Graphics/SVG/1.1/DTD/svg11.dtd">
<svg version="1.1" xmlns="http://www.w3.org/2000/svg" xmlns:xlink="http://www.w3.org/1999/xlink" x="0px" y="0px" width="24px"
	 height="24.002px" viewBox="0 0 24 24.002" enable-background="new 0 0 24 24.002" xml:space="preserve">
<g id="Frames-24px">
	<rect fill="none" width="24" height="24.002"/>
</g>
<g id="Outline">
	<g>
		<rect x="3.999" y="4" fill="#757575" width="12" height="2"/>
		<path fill="#757575" d="M20.999,7v2h-10V7h-2v2h-2.5c-2.481,0-4.5,2.019-4.5,4.5c0,1.953,1.258,3.603,3,4.224V20h-1
			c-0.551,0-1-0.449-1-1v-1h-2v1c0,1.654,1.346,3,3,3h12v-2h-3v-2.762c0.842-0.565,1.464-1.414,1.774-2.401l7.468-1.866
			c0.445-0.112,0.757-0.512,0.757-0.971V7H20.999z M10.999,20h-4v-2c4.199,0,3.305,0.028,4-0.05V20z M10.499,16h-4
			c-1.378,0-2.5-1.122-2.5-2.5S5.12,11,6.499,11h4c1.378,0,2.5,1.122,2.5,2.5S11.877,16,10.499,16z M20.999,11.219l-6.077,1.519
			c-0.109-0.633-0.34-1.224-0.685-1.738h6.762V11.219z"/>
		<circle fill="#757575" cx="6.499" cy="13.5" r="1.5"/>
	</g>
</g>
</svg>
