<?xml version="1.0" encoding="utf-8"?>
<!-- Generator: Adobe Illustrator 16.0.0, SVG Export Plug-In . SVG Version: 6.00 Build 0)  -->
<!DOCTYPE svg PUBLIC "-//W3C//DTD SVG 1.1//EN" "http://www.w3.org/Graphics/SVG/1.1/DTD/svg11.dtd">
<svg version="1.1" xmlns="http://www.w3.org/2000/svg" xmlns:xlink="http://www.w3.org/1999/xlink" x="0px" y="0px" width="24px"
	 height="24px" viewBox="0 0 24 24" enable-background="new 0 0 24 24" xml:space="preserve">
<g id="Frames-24px">
	<rect fill="none" width="24" height="24"/>
</g>
<g id="Outline">
	<path fill="#757575" d="M19.998,9.498c0-4.136-3.589-7.5-8-7.5s-8,3.364-8,7.5c0,2.578,1.396,4.855,3.515,6.207l2.147,4.293H8.998
		l1,3h4l1-3h-0.661l2.146-4.293C18.603,14.354,19.998,12.076,19.998,9.498z M17.998,9.498c0,1.919-1.079,3.609-2.709,4.594
		c0.298-1.372,0.459-2.94,0.459-4.594c0-1.654-0.161-3.223-0.458-4.594C16.919,5.889,17.998,7.579,17.998,9.498z M13.558,4.193
		c0.441,1.458,0.69,3.34,0.69,5.305c0,1.964-0.249,3.846-0.69,5.305c-0.498,0.124-1.02,0.195-1.56,0.195s-1.062-0.071-1.56-0.195
		c-0.441-1.458-0.69-3.339-0.69-5.305c0-1.971,0.25-3.848,0.691-5.305c0.498-0.124,1.019-0.195,1.559-0.195
		C12.539,3.998,13.06,4.069,13.558,4.193z M5.998,9.498c0-1.92,1.081-3.611,2.711-4.595C8.412,6.281,8.248,7.865,8.248,9.498
		c0,1.654,0.161,3.223,0.459,4.594C7.077,13.107,5.998,11.417,5.998,9.498z M12.66,19.998h-1.323l-1.663-3.325
		c0.736,0.21,1.516,0.325,2.324,0.325s1.588-0.115,2.324-0.325L12.66,19.998z"/>
</g>
</svg>
