<?xml version="1.0" encoding="utf-8"?>
<!-- Generator: Adobe Illustrator 16.0.0, SVG Export Plug-In . SVG Version: 6.00 Build 0)  -->
<!DOCTYPE svg PUBLIC "-//W3C//DTD SVG 1.1//EN" "http://www.w3.org/Graphics/SVG/1.1/DTD/svg11.dtd">
<svg version="1.1" xmlns="http://www.w3.org/2000/svg" xmlns:xlink="http://www.w3.org/1999/xlink" x="0px" y="0px" width="24px"
	 height="24.001px" viewBox="0 0 24 24.001" enable-background="new 0 0 24 24.001" xml:space="preserve">
<g id="Frames-24px">
	<rect y="0" fill="none" width="24" height="24.001"/>
</g>
<g id="Outline">
	<g>
		<path fill="#757575" d="M18,1.001H9c-1.104,0-2,0.895-2,2v2h2v-2h9c0.551,0,1,0.449,1,1v14h-1v-1h-2v4h2v-1h1v3h2v-19
			C21,2.347,19.654,1.001,18,1.001z"/>
		<circle fill="#757575" cx="8" cy="8.001" r="1"/>
		<circle fill="#757575" cx="6" cy="10.501" r="1"/>
		<circle fill="#757575" cx="10" cy="10.501" r="1"/>
		<circle fill="#757575" cx="8" cy="13.001" r="1"/>
		<circle fill="#757575" cx="4" cy="13.001" r="1"/>
		<circle fill="#757575" cx="12" cy="13.001" r="1"/>
	</g>
</g>
</svg>
