<?xml version="1.0" encoding="utf-8"?>
<!-- Generator: Adobe Illustrator 16.0.0, SVG Export Plug-In . SVG Version: 6.00 Build 0)  -->
<!DOCTYPE svg PUBLIC "-//W3C//DTD SVG 1.1//EN" "http://www.w3.org/Graphics/SVG/1.1/DTD/svg11.dtd">
<svg version="1.1" xmlns="http://www.w3.org/2000/svg" xmlns:xlink="http://www.w3.org/1999/xlink" x="0px" y="0px" width="24px"
	 height="24.002px" viewBox="0 0 24 24.002" enable-background="new 0 0 24 24.002" xml:space="preserve">
<g id="Frames-24px">
	<rect y="0" fill="none" width="24" height="24.002"/>
</g>
<g id="Outline">
	<g>
		<circle fill="#757575" cx="13" cy="6.002" r="1"/>
		<circle fill="#757575" cx="11" cy="8.502" r="1"/>
		<circle fill="#757575" cx="15" cy="8.502" r="1"/>
		<circle fill="#757575" cx="13" cy="11.002" r="1"/>
		<circle fill="#757575" cx="9" cy="11.002" r="1"/>
		<circle fill="#757575" cx="17" cy="11.002" r="1"/>
		<path fill="#757575" d="M24,14.002h-2v-10c0-1.654-1.346-3-3-3h-7v3h2v-1h5c0.551,0,1,0.449,1,1v10H0v2h2v1
			c0,1.89,1.321,3.469,3.086,3.885L3.5,23.002H6l1.5-2h9l1.5,2h2.5l-1.586-2.115C20.679,20.471,22,18.892,22,17.002v-1h2V14.002z
			 M20,17.002c0,1.102-0.897,2-2,2H6c-1.103,0-2-0.898-2-2v-1h16V17.002z"/>
	</g>
</g>
</svg>
