<?xml version="1.0" encoding="utf-8"?>
<!-- Generator: Adobe Illustrator 16.0.0, SVG Export Plug-In . SVG Version: 6.00 Build 0)  -->
<!DOCTYPE svg PUBLIC "-//W3C//DTD SVG 1.1//EN" "http://www.w3.org/Graphics/SVG/1.1/DTD/svg11.dtd">
<svg version="1.1" xmlns="http://www.w3.org/2000/svg" xmlns:xlink="http://www.w3.org/1999/xlink" x="0px" y="0px" width="24px"
	 height="24.001px" viewBox="0 0 24 24.001" enable-background="new 0 0 24 24.001" xml:space="preserve">
<g id="Frames-24px">
	<rect y="0" fill="none" width="24" height="24.001"/>
</g>
<g id="Outline">
	<path fill="#757575" d="M21.426,14.096c-0.466-0.219-0.943-0.415-1.426-0.599V6.001h-2v2H6v-2H4v7.496
		c-0.482,0.184-0.96,0.38-1.426,0.599C2.224,14.262,2,14.614,2,15.001v7h2v-2h16v2h2v-7C22,14.614,21.776,14.262,21.426,14.096z
		 M18,10.001v2.836c-1.625-0.444-3.308-0.698-5-0.772v-2.065H18z M6,10.001h5v2.065c-1.692,0.073-3.375,0.327-5,0.772V10.001z
		 M4,15.646c4.997-2.156,11.003-2.156,16,0v2.355H4V15.646z"/>
</g>
</svg>
