<?xml version="1.0" encoding="utf-8"?>
<!-- Generator: Adobe Illustrator 16.0.0, SVG Export Plug-In . SVG Version: 6.00 Build 0)  -->
<!DOCTYPE svg PUBLIC "-//W3C//DTD SVG 1.1//EN" "http://www.w3.org/Graphics/SVG/1.1/DTD/svg11.dtd">
<svg version="1.1" xmlns="http://www.w3.org/2000/svg" xmlns:xlink="http://www.w3.org/1999/xlink" x="0px" y="0px" width="24px"
	 height="24px" viewBox="0 0 24 24" enable-background="new 0 0 24 24" xml:space="preserve">
<g id="Frames-24px">
	<rect fill="none" width="24" height="24"/>
</g>
<g id="Outline">
	<g>
		<g>
			<g>
				<path fill="#757575" d="M5,17c0-1.841,1.159-3,3-3l0,0c1.841,0,3,1.159,3,3H5z"/>
			</g>
			<g>
				<circle fill="#757575" cx="8" cy="11" r="2"/>
			</g>
		</g>
		<g>
			<rect x="13" y="11" fill="#757575" width="6" height="2"/>
		</g>
		<g>
			<rect x="13" y="15" fill="#757575" width="6" height="2"/>
		</g>
		<path fill="#757575" d="M20,5h-5.185C14.401,3.838,13.302,3,12,3S9.599,3.838,9.185,5H4C2.897,5,2,5.896,2,7v12
			c0,1.103,0.897,2,2,2h16c1.103,0,2-0.897,2-2V7C22,5.896,21.103,5,20,5z M12,5c0.551,0,1,0.449,1,1c0,0.551-0.449,1-1,1
			s-1-0.449-1-1C11,5.449,11.449,5,12,5z M4,19V7h5.185C9.599,8.162,10.698,9,12,9s2.401-0.838,2.815-2H20l0.001,12H4z"/>
	</g>
</g>
</svg>
