<?xml version="1.0" encoding="utf-8"?>
<!-- Generator: Adobe Illustrator 16.0.0, SVG Export Plug-In . SVG Version: 6.00 Build 0)  -->
<!DOCTYPE svg PUBLIC "-//W3C//DTD SVG 1.1//EN" "http://www.w3.org/Graphics/SVG/1.1/DTD/svg11.dtd">
<svg version="1.1" xmlns="http://www.w3.org/2000/svg" xmlns:xlink="http://www.w3.org/1999/xlink" x="0px" y="0px" width="24px"
	 height="24px" viewBox="0 0 24 24" enable-background="new 0 0 24 24" xml:space="preserve">
<g id="Frames-24px">
	<rect fill="none" width="24" height="24"/>
</g>
<g id="Outline">
	<g>
		<path fill="#757575" d="M15,10c0-1.656-1.344-3-3-3s-3,1.344-3,3c0,1.157,0.662,2.149,1.622,2.65L10,17h4l-0.622-4.35
			C14.338,12.149,15,11.157,15,10z"/>
		<g>
			<path fill="#757575" d="M12,22C6.486,22,2,17.514,2,12S6.486,2,12,2s10,4.486,10,10S17.514,22,12,22z M12,4c-4.411,0-8,3.589-8,8
				s3.589,8,8,8s8-3.589,8-8S16.411,4,12,4z"/>
		</g>
	</g>
</g>
</svg>
