<?xml version="1.0" encoding="utf-8"?>
<!-- Generator: Adobe Illustrator 16.0.0, SVG Export Plug-In . SVG Version: 6.00 Build 0)  -->
<!DOCTYPE svg PUBLIC "-//W3C//DTD SVG 1.1//EN" "http://www.w3.org/Graphics/SVG/1.1/DTD/svg11.dtd">
<svg version="1.1" xmlns="http://www.w3.org/2000/svg" xmlns:xlink="http://www.w3.org/1999/xlink" x="0px" y="0px"
	 width="24.001px" height="24.001px" viewBox="0 0 24.001 24.001" enable-background="new 0 0 24.001 24.001" xml:space="preserve">
<g id="Frames-24px">
	<rect fill="none" width="24.001" height="24.001"/>
</g>
<g id="Outline">
	<g>
		<path fill="#757575" d="M17.001,5h-1.279L14.95,2.684C14.813,2.275,14.432,2,14.001,2h-8C5.57,2,5.188,2.275,5.052,2.684l-1,3
			C3.995,5.855,3.985,6.04,4.025,6.217l1.907,8.584l-1.763,2.644C4.06,17.609,4.001,17.803,4.001,18v3c0,0.552,0.448,1,1,1h10
			c0.552,0,1-0.448,1-1v-3c0-0.197-0.059-0.391-0.168-0.555l-1.763-2.644L15.803,7h1.198c0.551,0,1,0.449,1,1v7h2V8
			C20.001,6.345,18.655,5,17.001,5z M13.28,4l0.333,1H6.388l0.333-1H13.28z M14.001,20h-8v-1.697L7.536,16h4.93l1.535,2.303V20z
			 M12.199,14h-1.198v-3h-2v3H7.803L6.248,7h7.507L12.199,14z"/>
		<circle fill="#757575" cx="10.001" cy="18" r="1"/>
	</g>
</g>
</svg>
