<?xml version="1.0" encoding="utf-8"?>
<!-- Generator: Adobe Illustrator 16.0.0, SVG Export Plug-In . SVG Version: 6.00 Build 0)  -->
<!DOCTYPE svg PUBLIC "-//W3C//DTD SVG 1.1//EN" "http://www.w3.org/Graphics/SVG/1.1/DTD/svg11.dtd">
<svg version="1.1" xmlns="http://www.w3.org/2000/svg" xmlns:xlink="http://www.w3.org/1999/xlink" x="0px" y="0px" width="24px"
	 height="24.001px" viewBox="0 0 24 24.001" enable-background="new 0 0 24 24.001" xml:space="preserve">
<g id="Frames-24px">
	<rect fill="none" width="24" height="24.001"/>
</g>
<g id="Outline">
	<g>
		<path fill="#757575" d="M5.999,5v4c0,1.654,1.346,3,3,3h8c1.654,0,3-1.346,3-3V5c0-0.552-0.448-1-1-1h-11V1c0-0.552-0.448-1-1-1
			h-4v2h3V5z M11.999,10V6h2v4H11.999z M16.999,10h-1V6h2v3C17.999,9.551,17.55,10,16.999,10z M9.999,6v4h-1c-0.551,0-1-0.449-1-1V6
			H9.999z"/>
		<path fill="#757575" d="M19.999,13h-14c-0.552,0-1,0.448-1,1v7c0,1.654,1.346,3,3,3h10c1.654,0,3-1.346,3-3v-7
			C20.999,13.448,20.551,13,19.999,13z M17.999,22h-10c-0.551,0-1-0.449-1-1v-6h12v6C18.999,21.551,18.55,22,17.999,22z"/>
		<rect x="10.999" y="16" fill="#757575" width="4" height="2"/>
	</g>
</g>
</svg>
