<?xml version="1.0" encoding="utf-8"?>
<!-- Generator: Adobe Illustrator 16.0.0, SVG Export Plug-In . SVG Version: 6.00 Build 0)  -->
<!DOCTYPE svg PUBLIC "-//W3C//DTD SVG 1.1//EN" "http://www.w3.org/Graphics/SVG/1.1/DTD/svg11.dtd">
<svg version="1.1" xmlns="http://www.w3.org/2000/svg" xmlns:xlink="http://www.w3.org/1999/xlink" x="0px" y="0px"
	 width="24.001px" height="24.001px" viewBox="0 0 24.001 24.001" enable-background="new 0 0 24.001 24.001" xml:space="preserve">
<g id="Frames-24px">
	<rect fill="none" width="24.001" height="24.001"/>
</g>
<g id="Outline">
	<g>
		<path fill="#757575" d="M21.001,2.001h-19v2h6v2c0,1.103,0.897,2,2,2h10c1.103,0,2-0.897,2-2v-3
			C22.001,2.449,21.553,2.001,21.001,2.001z M10.001,6.001v-2h10v2H10.001z"/>
		<path fill="#757575" d="M18.652,14.242c-0.341-0.291-0.833-0.32-1.206-0.073l-1.445,0.964v-4.132c0-0.399-0.238-0.761-0.605-0.918
			c-0.367-0.158-0.792-0.082-1.083,0.192c-0.72,0.683-4.312,4.214-4.312,6.726c0,2.757,2.243,5,5,5s5-2.243,5-5
			C20.001,15.445,18.791,14.361,18.652,14.242z M15.001,20.001c-1.654,0-3-1.346-3-3c0-0.803,0.929-2.198,2-3.472v3.472
			c0,0.369,0.203,0.708,0.528,0.882c0.324,0.174,0.719,0.154,1.026-0.05l2.246-1.497c0.112,0.2,0.199,0.432,0.199,0.665
			C18.001,18.655,16.655,20.001,15.001,20.001z"/>
	</g>
</g>
</svg>
