<?xml version="1.0" encoding="utf-8"?>
<!-- Generator: Adobe Illustrator 16.0.0, SVG Export Plug-In . SVG Version: 6.00 Build 0)  -->
<!DOCTYPE svg PUBLIC "-//W3C//DTD SVG 1.1//EN" "http://www.w3.org/Graphics/SVG/1.1/DTD/svg11.dtd">
<svg version="1.1" xmlns="http://www.w3.org/2000/svg" xmlns:xlink="http://www.w3.org/1999/xlink" x="0px" y="0px" width="24px"
	 height="24.001px" viewBox="0 0 24 24.001" enable-background="new 0 0 24 24.001" xml:space="preserve">
<g id="Frames-24px">
	<rect fill="none" width="24" height="24.001"/>
</g>
<g id="Outline">
	<g>
		<path fill="#757575" d="M14.001,3.001h-1v-1h-2v1h-1c-3.86,0-7,3.141-7,7v3c0,0.404,0.244,0.769,0.617,0.924
			c0.374,0.154,0.804,0.069,1.09-0.217l1.293-1.293l1.293,1.293c0.391,0.391,1.023,0.391,1.414,0l1.293-1.293l1,1v6.586h-3v2h8v-2
			h-3v-6.586l1-1l1.293,1.293c0.391,0.391,1.023,0.391,1.414,0l1.293-1.293l1.293,1.293c0.191,0.191,0.447,0.293,0.707,0.293
			c0.129,0,0.259-0.025,0.383-0.076c0.374-0.156,0.617-0.52,0.617-0.924v-3C21.001,6.142,17.861,3.001,14.001,3.001z M19.001,10.587
			l-0.293-0.293c-0.391-0.391-1.023-0.391-1.414,0l-1.293,1.293l-1.293-1.293c-0.195-0.195-0.451-0.293-0.707-0.293
			s-0.512,0.098-0.707,0.293l-1.293,1.293l-1.293-1.293c-0.391-0.391-1.023-0.391-1.414,0l-1.293,1.293l-1.293-1.293
			c-0.391-0.391-1.023-0.391-1.414,0l-0.293,0.293v-0.586c0-2.757,2.243-5,5-5h4c2.757,0,5,2.243,5,5V10.587z"/>
		<rect x="15.001" y="15.001" fill="#757575" width="2" height="3"/>
	</g>
</g>
</svg>
