<?xml version="1.0" encoding="utf-8"?>
<!-- Generator: Adobe Illustrator 16.0.0, SVG Export Plug-In . SVG Version: 6.00 Build 0)  -->
<!DOCTYPE svg PUBLIC "-//W3C//DTD SVG 1.1//EN" "http://www.w3.org/Graphics/SVG/1.1/DTD/svg11.dtd">
<svg version="1.1" xmlns="http://www.w3.org/2000/svg" xmlns:xlink="http://www.w3.org/1999/xlink" x="0px" y="0px"
	 width="24.001px" height="24.001px" viewBox="0 0 24.001 24.001" enable-background="new 0 0 24.001 24.001" xml:space="preserve">
<g id="Frames-24px">
	<rect fill="none" width="24.001" height="24.001"/>
</g>
<g id="Outline">
	<path fill="#757575" d="M20.001,20v-7c0-2.595-1.518-4.993-3.827-6.195c-0.048-0.994-0.444-1.924-1.152-2.632
		c-1.511-1.512-4.147-1.511-5.657-0.001L9.18,4.357C6.94,3.96,4.615,4.682,3.001,6.292L2.294,6.998c-0.391,0.392-0.39,1.025,0,1.415
		l8.485,8.487c0.391,0.39,1.023,0.39,1.414,0l0.708-0.708c1.617-1.619,2.333-3.941,1.936-6.178l0.185-0.186
		c0.291-0.291,0.514-0.626,0.699-0.979c1.391,0.923,2.28,2.479,2.28,4.15v7h-4v2h8v-2H20.001z M13.606,8.415L13.034,8.99
		c-0.251,0.253-0.35,0.619-0.258,0.963c0.459,1.721-0.036,3.57-1.289,4.825L4.416,7.706c1.251-1.25,3.118-1.744,4.826-1.288
		c0.345,0.092,0.712-0.007,0.965-0.259l0.573-0.573c0.755-0.756,2.072-0.756,2.828,0c0.378,0.378,0.586,0.88,0.586,1.415
		S13.986,8.036,13.606,8.415z"/>
</g>
</svg>
