<?xml version="1.0" encoding="utf-8"?>
<!-- Generator: Adobe Illustrator 16.0.0, SVG Export Plug-In . SVG Version: 6.00 Build 0)  -->
<!DOCTYPE svg PUBLIC "-//W3C//DTD SVG 1.1//EN" "http://www.w3.org/Graphics/SVG/1.1/DTD/svg11.dtd">
<svg version="1.1" xmlns="http://www.w3.org/2000/svg" xmlns:xlink="http://www.w3.org/1999/xlink" x="0px" y="0px" width="24px"
	 height="24px" viewBox="0 0 24 24" enable-background="new 0 0 24 24" xml:space="preserve">
<g id="Frames-24px">
	<rect fill="none" width="24" height="24"/>
</g>
<g id="Outline">
	<path fill="#757575" d="M23.243,15.03c-0.082-0.021-0.162-0.011-0.243-0.011V15V4c0-0.552-0.448-1-1-1H2C1.448,3,1,3.448,1,4v11
		v0.019c-0.081,0-0.161-0.009-0.243,0.011c-0.536,0.134-0.861,0.677-0.728,1.213l0.758,3.031C1.034,20.258,1.985,21,3,21h18
		c1.015,0,1.967-0.743,2.213-1.727l0.757-3.03C24.104,15.707,23.778,15.164,23.243,15.03z M3,5h18v10h-6
		c-0.265,0-0.52,0.106-0.707,0.293L13.586,16h-3.172l-0.707-0.707C9.52,15.106,9.265,15,9,15H3V5z M21,19H3
		c-0.09,0-0.251-0.125-0.272-0.212L2.281,17h6.305l0.707,0.707C9.48,17.895,9.735,18,10,18h4c0.265,0,0.52-0.105,0.707-0.293
		L15.414,17h6.305l-0.447,1.788C21.25,18.875,21.09,19,21,19z"/>
</g>
</svg>
