<?xml version="1.0" encoding="utf-8"?>
<!-- Generator: Adobe Illustrator 16.0.0, SVG Export Plug-In . SVG Version: 6.00 Build 0)  -->
<!DOCTYPE svg PUBLIC "-//W3C//DTD SVG 1.1//EN" "http://www.w3.org/Graphics/SVG/1.1/DTD/svg11.dtd">
<svg version="1.1" xmlns="http://www.w3.org/2000/svg" xmlns:xlink="http://www.w3.org/1999/xlink" x="0px" y="0px" width="24px"
	 height="24px" viewBox="0 0 24 24" enable-background="new 0 0 24 24" xml:space="preserve">
<g id="Frames-24px">
	<rect fill="none" width="24" height="24"/>
</g>
<g id="Outline">
	<g>
		<path fill="#757575" d="M19.999,12c0.552,0,1-0.448,1-1V9c0-0.314-0.148-0.611-0.4-0.8l-7.97-6c-0.355-0.267-0.845-0.267-1.2,0
			l-8.03,6c-0.252,0.188-0.4,0.485-0.4,0.8v2c0,0.552,0.448,1,1,1h7.03v10h1.97V12H19.999z M12.029,5.236l2,4.001V10h-4V9.236
			L12.029,5.236z M19.029,10h-3V9.002c0-0.155-0.036-0.309-0.105-0.447l-1.106-2.213L19.029,9.5V10z M5.029,9.5L9.24,6.342
			L8.134,8.553C8.065,8.691,8.029,8.845,8.029,9v1h-3V9.5z"/>
		<path fill="#757575" d="M20.059,14.757L19.248,18h-3.219c-0.552,0-1,0.448-1,1v3h1.97v-2h2.03v2h1.97v-2.877l1-3.88L20.059,14.757
			z"/>
		<path fill="#757575" d="M7.999,18H4.81l-0.811-3.243l-1.94,0.486l0.94,3.88V22h2v-2h2.03v2h1.97v-3
			C8.999,18.448,8.551,18,7.999,18z"/>
	</g>
</g>
</svg>
