<?xml version="1.0" encoding="utf-8"?>
<!-- Generator: Adobe Illustrator 16.0.0, SVG Export Plug-In . SVG Version: 6.00 Build 0)  -->
<!DOCTYPE svg PUBLIC "-//W3C//DTD SVG 1.1//EN" "http://www.w3.org/Graphics/SVG/1.1/DTD/svg11.dtd">
<svg version="1.1" xmlns="http://www.w3.org/2000/svg" xmlns:xlink="http://www.w3.org/1999/xlink" x="0px" y="0px" width="24px"
	 height="24px" viewBox="0 0 24 24" enable-background="new 0 0 24 24" xml:space="preserve">
<g id="Frames-24px">
	<rect fill="none" width="24" height="24"/>
</g>
<g id="Outline">
	<g>
		<path fill="#757575" d="M8.398,10C7.813,7.972,7.367,5.474,7.901,4.354C8.037,4.068,8.32,3.825,8.57,3.989
			C9.486,4.582,10.273,7.434,10.713,10h2.572c0.439-2.565,1.226-5.417,2.143-6.011c0.25-0.164,0.534,0.081,0.669,0.365
			C16.63,5.471,16.183,7.97,15.6,10h2.078c0.537-2.015,1.028-4.823,0.225-6.507c-0.339-0.71-0.888-1.208-1.587-1.442
			c-0.68-0.226-1.363-0.137-1.975,0.259c-1.074,0.696-1.826,2.402-2.341,4.201c-0.516-1.799-1.268-3.505-2.341-4.201
			C9.046,1.914,8.363,1.825,7.683,2.051C6.983,2.285,6.435,2.783,6.096,3.493C5.292,5.177,5.784,7.985,6.321,10H8.398z"/>
		<path fill="#757575" d="M18.999,11h-14v2h2v8c0,0.552,0.448,1,1,1h8c0.552,0,1-0.448,1-1v-8h2V11z M8.999,20v-4h6v4H8.999z
			 M14.999,14h-6v-1h6V14z"/>
	</g>
</g>
</svg>
