<?xml version="1.0" encoding="utf-8"?>
<!-- Generator: Adobe Illustrator 16.0.0, SVG Export Plug-In . SVG Version: 6.00 Build 0)  -->
<!DOCTYPE svg PUBLIC "-//W3C//DTD SVG 1.1//EN" "http://www.w3.org/Graphics/SVG/1.1/DTD/svg11.dtd">
<svg version="1.1" xmlns="http://www.w3.org/2000/svg" xmlns:xlink="http://www.w3.org/1999/xlink" x="0px" y="0px"
	 width="24.001px" height="24.002px" viewBox="0 0 24.001 24.002" enable-background="new 0 0 24.001 24.002" xml:space="preserve">
<g id="Frames-24px">
	<rect fill="none" width="24.001" height="24.002"/>
</g>
<g id="Outline">
	<g>
		<path fill="#757575" d="M22,9.002v-2c0-0.395-0.233-0.753-0.594-0.914l-9-4c-0.259-0.115-0.554-0.115-0.813,0l-9,4
			C2.233,6.249,2,6.607,2,7.002v2c0,0.553,0.448,1,1,1h8v10H2v2h20v-2h-9v-10h8C21.552,10.002,22,9.555,22,9.002z M4,7.652
			l5.255-2.336L7.465,8.002H4V7.652z M9.869,8.002L12,4.805l2.131,3.197H9.869z M20,8.002h-3.465l-1.791-2.686L20,7.652V8.002z"/>
		<path fill="#757575" d="M16,14.002c-0.552,0-1,0.448-1,1v1c0,1.794,1.206,3,3,3h0.001c1.793,0,2.999-1.206,2.999-3v-1
			c0-0.552-0.448-1-1-1H16z M18,17.002c-0.248,0-1,0-1-1h2C19,16.898,18.429,17.002,18,17.002z"/>
		<path fill="#757575" d="M6.001,19.002c1.906,0,2.999-1.094,2.999-3v-1c0-0.552-0.448-1-1-1H4c-0.552,0-1,0.448-1,1v1
			c0,1.907,1.093,3,3,3H6.001z M5,16.002h2c0,0.794-0.206,1-1.001,1C5.206,17.002,5,16.796,5,16.002z"/>
	</g>
</g>
</svg>
