<?xml version="1.0" encoding="utf-8"?>
<!-- Generator: Adobe Illustrator 16.0.0, SVG Export Plug-In . SVG Version: 6.00 Build 0)  -->
<!DOCTYPE svg PUBLIC "-//W3C//DTD SVG 1.1//EN" "http://www.w3.org/Graphics/SVG/1.1/DTD/svg11.dtd">
<svg version="1.1" xmlns="http://www.w3.org/2000/svg" xmlns:xlink="http://www.w3.org/1999/xlink" x="0px" y="0px" width="24px"
	 height="24.001px" viewBox="0 0 24 24.001" enable-background="new 0 0 24 24.001" xml:space="preserve">
<g id="Frames-24px">
	<rect fill="none" width="24" height="24.001"/>
	<rect fill="none" width="24" height="24.001"/>
</g>
<g id="Outline">
	<g>
		<path fill="#757575" d="M12,20.564c2.403-2.884,6-7.825,6-11.562c0-3.309-2.691-6-6-6s-6,2.691-6,6
			C6,12.739,9.599,17.682,12,20.564z M12,5.002c2.206,0,4,1.794,4,4c0,2.507-2.438,6.294-4,8.382c-1.563-2.086-4-5.871-4-8.382
			C8,6.796,9.795,5.002,12,5.002z"/>
		<circle fill="#757575" cx="12" cy="9.002" r="2"/>
		<rect x="8" y="21.002" fill="#757575" width="8" height="2"/>
	</g>
</g>
</svg>
