<?xml version="1.0" encoding="utf-8"?>
<!-- Generator: Adobe Illustrator 16.0.0, SVG Export Plug-In . SVG Version: 6.00 Build 0)  -->
<!DOCTYPE svg PUBLIC "-//W3C//DTD SVG 1.1//EN" "http://www.w3.org/Graphics/SVG/1.1/DTD/svg11.dtd">
<svg version="1.1" xmlns="http://www.w3.org/2000/svg" xmlns:xlink="http://www.w3.org/1999/xlink" x="0px" y="0px" width="24px"
	 height="24.001px" viewBox="0 0 24 24.001" enable-background="new 0 0 24 24.001" xml:space="preserve">
<g id="Frames-24px">
	<rect fill="none" width="24" height="24.001"/>
	<rect fill="none" width="24" height="24.001"/>
</g>
<g id="Outline">
	<g>
		<g>
			<path fill="#757575" d="M12.001,18.002c-0.392,0-0.748-0.229-0.91-0.586c-0.683-1.5-4.09-9.104-4.09-11.414c0-2.757,2.243-5,5-5
				s5,2.243,5,5c0,2.31-3.406,9.914-4.09,11.414C12.75,17.774,12.394,18.002,12.001,18.002z M12.001,3.002c-1.654,0-3,1.346-3,3
				c0,1.183,1.593,5.261,3,8.527c1.408-3.267,3-7.345,3-8.527C15.001,4.348,13.656,3.002,12.001,3.002z"/>
		</g>
		<g>
			<circle fill="#757575" cx="12.001" cy="6.002" r="1.5"/>
		</g>
		<g>
			<path fill="#757575" d="M19.485,21.002H4.518c-0.673,0-1.296-0.335-1.669-0.898c-0.373-0.566-0.435-1.272-0.168-1.891
				l2.142-4.998c0.314-0.736,1.036-1.212,1.838-1.212h0.824v2H6.661l-2.143,5h14.967l-2.143-5h-0.857v-2h0.857
				c0.802,0,1.523,0.476,1.838,1.213l2.142,4.999c0.266,0.617,0.204,1.323-0.168,1.888C20.782,20.667,20.158,21.002,19.485,21.002z"
				/>
		</g>
	</g>
</g>
</svg>
