<?xml version="1.0" encoding="utf-8"?>
<!-- Generator: Adobe Illustrator 16.0.0, SVG Export Plug-In . SVG Version: 6.00 Build 0)  -->
<!DOCTYPE svg PUBLIC "-//W3C//DTD SVG 1.1//EN" "http://www.w3.org/Graphics/SVG/1.1/DTD/svg11.dtd">
<svg version="1.1" xmlns="http://www.w3.org/2000/svg" xmlns:xlink="http://www.w3.org/1999/xlink" x="0px" y="0px" width="24px"
	 height="24.001px" viewBox="0 0 24 24.001" enable-background="new 0 0 24 24.001" xml:space="preserve">
<g id="Frames-24px">
	<rect fill="none" width="24" height="24.001"/>
	<rect fill="none" width="24" height="24.001"/>
</g>
<g id="Outline">
	<g>
		<g>
			<path fill="#757575" d="M12.001,6.002c-1.654,0-3-1.346-3-3s1.346-3,3-3s3,1.346,3,3S13.655,6.002,12.001,6.002z M12.001,2.002
				c-0.551,0-1,0.449-1,1c0,0.552,0.449,1,1,1s1-0.448,1-1C13.001,2.451,12.552,2.002,12.001,2.002z"/>
		</g>
		<g>
			<path fill="#757575" d="M14.001,20.002h-4c-0.552,0-1-0.448-1-1v-4h-1c-0.552,0-1-0.448-1-1v-2c0-2.757,2.243-5,5-5s5,2.243,5,5
				v2c0,0.552-0.448,1-1,1h-1v4C15.001,19.555,14.553,20.002,14.001,20.002z M11.001,18.002h2v-4c0-0.552,0.448-1,1-1h1v-1
				c0-1.654-1.346-3-3-3s-3,1.346-3,3v1h1c0.552,0,1,0.448,1,1V18.002z"/>
		</g>
		<g>
			<path fill="#757575" d="M12.001,24.002c-4.816,0-10-1.251-10-4c0-0.969,0.667-2.317,3.841-3.232l0.555,1.922
				c-1.979,0.571-2.396,1.208-2.396,1.31c0,0.515,2.75,2,8,2s8-1.485,8-2c0-0.096-0.389-0.704-2.239-1.264l0.58-1.914
				c3.024,0.915,3.659,2.233,3.659,3.177C22.001,22.751,16.817,24.002,12.001,24.002z"/>
		</g>
	</g>
</g>
</svg>
