<?xml version="1.0" encoding="utf-8"?>
<!-- Generator: Adobe Illustrator 16.0.0, SVG Export Plug-In . SVG Version: 6.00 Build 0)  -->
<!DOCTYPE svg PUBLIC "-//W3C//DTD SVG 1.1//EN" "http://www.w3.org/Graphics/SVG/1.1/DTD/svg11.dtd">
<svg version="1.1" xmlns="http://www.w3.org/2000/svg" xmlns:xlink="http://www.w3.org/1999/xlink" x="0px" y="0px" width="24px"
	 height="24.001px" viewBox="0 0 24 24.001" enable-background="new 0 0 24 24.001" xml:space="preserve">
<g id="Frames-24px">
	<rect fill="none" width="24" height="24.001"/>
	<rect fill="none" width="24" height="24.001"/>
</g>
<g id="Outline">
	<g>
		<path fill="#757575" d="M12,2.001c-4.411,0-8,3.589-8,8c0,4.41,4.644,9.44,8,12.318c3.354-2.876,8-7.906,8-12.318
			C20,5.59,16.412,2.001,12,2.001z M12,19.656c-2.13-1.997-6-6.316-6-9.655c0-3.309,2.691-6,6-6s6,2.691,6,6
			C18,13.339,14.13,17.658,12,19.656z"/>
		<path fill="#757575" d="M12,6.001c-2.206,0-4,1.794-4,4v2h1v1c0,0.553,0.447,1,1,1h4c0.553,0,1-0.447,1-1v-1h1v-2
			C16,7.795,14.206,6.001,12,6.001z M10,11.001c-0.553,0-1-0.447-1-1s0.447-1,1-1s1,0.447,1,1S10.553,11.001,10,11.001z M14,11.001
			c-0.553,0-1-0.447-1-1s0.447-1,1-1s1,0.447,1,1S14.553,11.001,14,11.001z"/>
	</g>
</g>
</svg>
