<?xml version="1.0" encoding="utf-8"?>
<!-- Generator: Adobe Illustrator 16.0.0, SVG Export Plug-In . SVG Version: 6.00 Build 0)  -->
<!DOCTYPE svg PUBLIC "-//W3C//DTD SVG 1.1//EN" "http://www.w3.org/Graphics/SVG/1.1/DTD/svg11.dtd">
<svg version="1.1" xmlns="http://www.w3.org/2000/svg" xmlns:xlink="http://www.w3.org/1999/xlink" x="0px" y="0px" width="24px"
	 height="24px" viewBox="0 0 24 24" enable-background="new 0 0 24 24" xml:space="preserve">
<g id="Frames-24px">
	<rect fill="none" width="24" height="24"/>
</g>
<g id="Solid">
	<g>
		<circle fill="#757575" cx="7" cy="10" r="2"/>
		<path fill="#757575" d="M20,5H4C2.897,5,2,5.898,2,7v6c0,1.104,0.897,2,2,2h9v-2H4V7h16l-0.001,2H22V7C22,5.898,21.103,5,20,5z"/>
		<path fill="#757575" d="M21,14v-0.5c0-1.378-1.122-2.5-2.5-2.5S16,12.122,16,13.5V14c-0.552,0-1,0.447-1,1v5c0,0.552,0.448,1,1,1
			h5c0.552,0,1-0.448,1-1v-5C22,14.448,21.552,14,21,14z M18,13.5c0-0.276,0.224-0.5,0.5-0.5s0.5,0.224,0.5,0.5V14h-1V13.5z M20,19
			h-3v-3h3V19z"/>
		<circle fill="#757575" cx="12" cy="10" r="2"/>
	</g>
</g>
</svg>
