<?xml version="1.0" encoding="utf-8"?>
<!-- Generator: Adobe Illustrator 16.0.0, SVG Export Plug-In . SVG Version: 6.00 Build 0)  -->
<!DOCTYPE svg PUBLIC "-//W3C//DTD SVG 1.1//EN" "http://www.w3.org/Graphics/SVG/1.1/DTD/svg11.dtd">
<svg version="1.1" xmlns="http://www.w3.org/2000/svg" xmlns:xlink="http://www.w3.org/1999/xlink" x="0px" y="0px" width="24px"
	 height="24px" viewBox="0 0 24 24" enable-background="new 0 0 24 24" xml:space="preserve">
<g id="Frames-24px">
	<rect fill="none" width="24" height="24"/>
</g>
<g id="Outline">
	<g>
		<g>
			<path fill="#757575" d="M12,11.125l4.338-2.602C15.983,8.202,15.517,8,15,8H9C8.483,8,8.017,8.202,7.662,8.523L12,11.125z"/>
			<path fill="#757575" d="M12.386,12.644C12.267,12.715,12.134,12.75,12,12.75s-0.267-0.035-0.386-0.106L7.012,9.882
				C7.01,9.922,7,9.96,7,10v4c0,1.104,0.896,2,2,2h6c1.104,0,2-0.896,2-2v-4c0-0.04-0.01-0.078-0.012-0.118L12.386,12.644z"/>
		</g>
		<path fill="#757575" d="M20.768,14c-0.913,4.002-4.494,7-8.768,7c-4.055,0-7.489-2.696-8.611-6.389L6,12H0v6l1.827-1.827
			C3.475,20.174,7.412,23,12,23c5.382,0,9.865-3.888,10.809-9H20.768z"/>
		<path fill="#757575" d="M22.173,7.827C20.525,3.827,16.588,1,12,1C6.618,1,2.135,4.888,1.191,10h2.041C4.145,5.998,7.726,3,12,3
			c4.055,0,7.489,2.696,8.611,6.39L18,12h6V6L22.173,7.827z"/>
	</g>
</g>
</svg>
