<?xml version="1.0" encoding="utf-8"?>
<!-- Generator: Adobe Illustrator 16.0.0, SVG Export Plug-In . SVG Version: 6.00 Build 0)  -->
<!DOCTYPE svg PUBLIC "-//W3C//DTD SVG 1.1//EN" "http://www.w3.org/Graphics/SVG/1.1/DTD/svg11.dtd">
<svg version="1.1" xmlns="http://www.w3.org/2000/svg" xmlns:xlink="http://www.w3.org/1999/xlink" x="0px" y="0px"
	 width="24.001px" height="24.001px" viewBox="0 0 24.001 24.001" enable-background="new 0 0 24.001 24.001" xml:space="preserve">
<g id="Frames-24px">
	<rect fill="none" width="24.001" height="24.001"/>
</g>
<g id="Outline">
	<g>
		<path fill="#757575" d="M20.708,22.294l-6.785-6.785c1.322-1.144,2.078-2.757,2.078-4.508c0-2.238-1.946-5.222-2.168-5.555
			c-0.166-0.249-0.436-0.411-0.733-0.44c-0.301-0.028-0.594,0.076-0.806,0.288l-1.293,1.292V1c0-0.421-0.264-0.797-0.66-0.94
			C9.946-0.082,9.502,0.037,9.233,0.361C9.019,0.617,4.001,6.688,4.001,11c0,1.423,0.526,2.813,1.482,3.914h0
			C6.633,16.24,8.279,17,10.001,17c0.746,0,1.47-0.157,2.158-0.427l7.135,7.135L20.708,22.294z M6.994,13.604
			C6.541,13.082,6.001,12.207,6.001,11c0-2.012,1.571-4.852,3-6.972V9c0,0.404,0.244,0.768,0.617,0.924
			c0.375,0.154,0.804,0.069,1.09-0.217l2.094-2.094c0.561,1.022,1.199,2.423,1.199,3.387c0,1.272-0.598,2.442-1.642,3.21
			C10.704,15.429,8.33,15.145,6.994,13.604"/>
		<path fill="#757575" d="M10.001,11c-1.057,0-2.034,0.333-2.843,0.895c0.149,0.448,0.378,0.806,0.591,1.054
			c0.184,0.212,0.403,0.38,0.637,0.531C8.854,13.179,9.405,13,10.001,13c0.603,0,1.162,0.182,1.632,0.489
			c0.609-0.392,1.002-0.943,1.211-1.594C12.036,11.334,11.058,11,10.001,11z"/>
	</g>
</g>
</svg>
