<?xml version="1.0" encoding="utf-8"?>
<!-- Generator: Adobe Illustrator 16.0.0, SVG Export Plug-In . SVG Version: 6.00 Build 0)  -->
<!DOCTYPE svg PUBLIC "-//W3C//DTD SVG 1.1//EN" "http://www.w3.org/Graphics/SVG/1.1/DTD/svg11.dtd">
<svg version="1.1" xmlns="http://www.w3.org/2000/svg" xmlns:xlink="http://www.w3.org/1999/xlink" x="0px" y="0px" width="24px"
	 height="24px" viewBox="0 0 24 24" enable-background="new 0 0 24 24" xml:space="preserve">
<g id="Frames-24px">
	<rect fill="none" width="24" height="24"/>
</g>
<g id="Outline">
	<g>
		<path fill="#757575" d="M14.001,8V4c0-1.103-0.897-2-2-2h-8c-1.103,0-2,0.897-2,2v16c0,1.103,0.897,2,2,2h8c1.103,0,2-0.897,2-2
			v-4h-10V8H14.001z M12.001,4v2h-8V4H12.001z M12.001,18v2h-8v-2H12.001z"/>
		<path fill="#757575" d="M16.001,2.131v7.909c-0.162-0.025-0.329-0.04-0.5-0.04c-1.381,0-2.5,0.896-2.5,2s1.119,2,2.5,2
			s2.5-0.896,2.5-2V5.869l1.445,0.962l1.109-1.664L16.001,2.131z"/>
	</g>
</g>
</svg>
