<?xml version="1.0" encoding="utf-8"?>
<!-- Generator: Adobe Illustrator 16.0.0, SVG Export Plug-In . SVG Version: 6.00 Build 0)  -->
<!DOCTYPE svg PUBLIC "-//W3C//DTD SVG 1.1//EN" "http://www.w3.org/Graphics/SVG/1.1/DTD/svg11.dtd">
<svg version="1.1" xmlns="http://www.w3.org/2000/svg" xmlns:xlink="http://www.w3.org/1999/xlink" x="0px" y="0px" width="24px"
	 height="24px" viewBox="0 0 24 24" enable-background="new 0 0 24 24" xml:space="preserve">
<g id="Frames-24px">
	<rect fill="none" width="24" height="24"/>
</g>
<g id="Outline">
	<g>
		<path fill="#757575" d="M8,13.286V8h5.286l2-2H8V4h8v1.286l1.895-1.895C17.636,2.587,16.89,2,16,2H8C6.897,2,6,2.897,6,4v11.286
			L8,13.286z"/>
		<path fill="#757575" d="M21.293,2.823L2.822,21.293l1.414,1.414l1.924-1.923C6.466,21.498,7.175,22,8,22h8c1.103,0,2-0.897,2-2
			V8.943l4.707-4.707L21.293,2.823z M16,10.943l0,5.057h-5.058L16,10.943z M8,20v-1.057L8.943,18h7.058l0,2H8z"/>
	</g>
</g>
</svg>
