<?xml version="1.0" encoding="utf-8"?>
<!-- Generator: Adobe Illustrator 16.0.0, SVG Export Plug-In . SVG Version: 6.00 Build 0)  -->
<!DOCTYPE svg PUBLIC "-//W3C//DTD SVG 1.1//EN" "http://www.w3.org/Graphics/SVG/1.1/DTD/svg11.dtd">
<svg version="1.1" xmlns="http://www.w3.org/2000/svg" xmlns:xlink="http://www.w3.org/1999/xlink" x="0px" y="0px" width="24px"
	 height="24px" viewBox="0 0 24 24" enable-background="new 0 0 24 24" xml:space="preserve">
<g id="Frames-24px">
	<rect fill="none" width="24" height="24"/>
</g>
<g id="Outline">
	<g>
		<path fill="#757575" d="M6,16V8h10V4c0-1.103-0.897-2-2-2H6C4.897,2,4,2.897,4,4v16c0,1.103,0.897,2,2,2h8c1.103,0,2-0.897,2-2v-4
			H6z M14,4v2H6V4H14z M6,20v-2h8v2H6z"/>
		<polygon fill="#757575" points="10.75,9.532 9.25,11.532 14.221,15.261 20.978,6.779 19.022,5.221 13.779,11.804 		"/>
	</g>
</g>
</svg>
