<?xml version="1.0" encoding="utf-8"?>
<!-- Generator: Adobe Illustrator 16.0.0, SVG Export Plug-In . SVG Version: 6.00 Build 0)  -->
<!DOCTYPE svg PUBLIC "-//W3C//DTD SVG 1.1//EN" "http://www.w3.org/Graphics/SVG/1.1/DTD/svg11.dtd">
<svg version="1.1" xmlns="http://www.w3.org/2000/svg" xmlns:xlink="http://www.w3.org/1999/xlink" x="0px" y="0px" width="24px"
	 height="24px" viewBox="0 0 24 24" enable-background="new 0 0 24 24" xml:space="preserve">
<g id="Frames-24px">
	<rect fill="none" width="24" height="24"/>
</g>
<g id="Outline">
	<g>
		<path fill="#757575" d="M21.001,13.28V9.002h-2v4h-1v-6c0-1.103-0.897-2-2-2h-1v-2h-6v2h-1c-1.103,0-2,0.897-2,2v6h-1v-4h-2v4.278
			c-0.595,0.347-1,0.984-1,1.722v4c0,0.553,0.448,1,1,1h1c0,1.104,0.896,2,2,2s2-0.896,2-2h8c0,1.104,0.896,2,2,2s2-0.896,2-2h1
			c0.552,0,1-0.447,1-1v-4C22.001,14.265,21.596,13.627,21.001,13.28z M16.001,7.002v3h-8v-3H16.001z M4.001,18.002v-3h2v3H4.001z
			 M8.001,18.002v-6h8v6H8.001z M20.001,18.002h-2v-3h2V18.002z"/>
		<rect x="9.001" y="13.002" fill="#757575" width="2" height="4"/>
		<rect x="13.001" y="13.002" fill="#757575" width="2" height="4"/>
	</g>
</g>
</svg>
