<?xml version="1.0" encoding="utf-8"?>
<!-- Generator: Adobe Illustrator 16.0.0, SVG Export Plug-In . SVG Version: 6.00 Build 0)  -->
<!DOCTYPE svg PUBLIC "-//W3C//DTD SVG 1.1//EN" "http://www.w3.org/Graphics/SVG/1.1/DTD/svg11.dtd">
<svg version="1.1" xmlns="http://www.w3.org/2000/svg" xmlns:xlink="http://www.w3.org/1999/xlink" x="0px" y="0px" width="24px"
	 height="24px" viewBox="0 0 24 24" enable-background="new 0 0 24 24" xml:space="preserve">
<g id="Frames-24px">
	<rect fill="none" width="24" height="24"/>
</g>
<g id="Solid">
	<path fill="#757575" d="M19.561,3.172c-0.275-0.186-0.624-0.224-0.932-0.101l-10,4C8.249,7.224,8,7.592,8,8v6.352
		C7.543,14.133,7.039,14,6.5,14C4.57,14,3,15.57,3,17.5S4.57,21,6.5,21s3.5-1.57,3.5-3.5V8.678l8-3.2v5.874
		C17.543,11.133,17.039,11,16.5,11c-1.93,0-3.5,1.57-3.5,3.5s1.57,3.5,3.5,3.5s3.5-1.57,3.5-3.5V4
		C20,3.668,19.835,3.358,19.561,3.172z M6.5,19C5.673,19,5,18.327,5,17.5S5.673,16,6.5,16S8,16.673,8,17.5S7.327,19,6.5,19z
		 M16.5,16c-0.827,0-1.5-0.673-1.5-1.5s0.673-1.5,1.5-1.5s1.5,0.673,1.5,1.5S17.327,16,16.5,16z"/>
</g>
</svg>
