<?xml version="1.0" encoding="utf-8"?>
<!-- Generator: Adobe Illustrator 16.0.0, SVG Export Plug-In . SVG Version: 6.00 Build 0)  -->
<!DOCTYPE svg PUBLIC "-//W3C//DTD SVG 1.1//EN" "http://www.w3.org/Graphics/SVG/1.1/DTD/svg11.dtd">
<svg version="1.1" xmlns="http://www.w3.org/2000/svg" xmlns:xlink="http://www.w3.org/1999/xlink" x="0px" y="0px" width="24px"
	 height="24px" viewBox="0 0 24 24" enable-background="new 0 0 24 24" xml:space="preserve">
<g id="Frames-24px">
	<rect fill="none" width="24" height="24"/>
</g>
<g id="Outline">
	<g>
		<path fill="#757575" d="M18.811,15.416C18.623,15.155,18.321,15,18,15h-5v-1.179C13.313,13.933,13.648,14,14,14
			c1.654,0,3-1.345,3-3c0-0.684-0.255-1.274-0.562-1.735C17.207,8.762,18,8.002,18,7c0-1.711-1.472-3.097-3.169-2.995
			C14.418,2.838,13.305,2,12,2S9.581,2.838,9.169,4.005C7.474,3.905,6,5.289,6,7c0,1,0.793,1.761,1.563,2.264
			C7.255,9.726,7,10.315,7,11c0,1.655,1.346,3,3,3c0.352,0,0.687-0.067,1-0.179V15H6c-0.321,0-0.623,0.155-0.811,0.416
			c-0.188,0.261-0.239,0.595-0.138,0.9l2,6C7.187,22.725,7.569,23,8,23h8c0.431,0,0.813-0.275,0.949-0.684l2-6
			C19.05,16.011,18.999,15.677,18.811,15.416z M10,12c-0.551,0-1-0.449-1-1c0-0.517,0.573-1.063,0.768-1.21
			c0.292-0.214,0.445-0.569,0.401-0.928c-0.043-0.36-0.279-0.668-0.614-0.804C8.845,7.766,8.073,7.228,8,7
			c0-0.728,0.836-1.258,1.512-0.851c0.331,0.2,0.746,0.177,1.068-0.037s0.49-0.609,0.435-0.991C11.009,5.081,11,5.042,11,5
			c0-0.551,0.449-1,1-1s1,0.449,1,1c0,0.042-0.009,0.081-0.019,0.151c-0.055,0.382,0.115,0.762,0.437,0.975
			C13.74,6.34,14.155,6.35,14.486,6.15c0.683-0.412,1.513,0.132,1.517,0.821c-0.075,0.257-0.847,0.795-1.557,1.085
			c-0.333,0.136-0.565,0.443-0.612,0.8c-0.046,0.357,0.105,0.714,0.393,0.93C14.427,9.937,15,10.483,15,11c0,0.551-0.449,1-1,1
			s-1-0.449-1-1c0-0.552-0.448-1-1-1s-1,0.448-1,1C11,11.551,10.551,12,10,12z M15.279,21H8.72l-1.333-4h9.226L15.279,21z"/>
		<circle fill="#757575" cx="12" cy="8" r="2"/>
	</g>
</g>
</svg>
