<?xml version="1.0" encoding="utf-8"?>
<!-- Generator: Adobe Illustrator 16.0.0, SVG Export Plug-In . SVG Version: 6.00 Build 0)  -->
<!DOCTYPE svg PUBLIC "-//W3C//DTD SVG 1.1//EN" "http://www.w3.org/Graphics/SVG/1.1/DTD/svg11.dtd">
<svg version="1.1" xmlns="http://www.w3.org/2000/svg" xmlns:xlink="http://www.w3.org/1999/xlink" x="0px" y="0px" width="24px"
	 height="24px" viewBox="0 0 24 24" enable-background="new 0 0 24 24" xml:space="preserve">
<g id="Frames-24px">
	<rect fill="none" width="24" height="24"/>
</g>
<g id="Outline">
	<g>
		<path fill="#757575" d="M7.271,12.53c0.992,0,1.933-0.428,2.583-1.177c0.6-0.689,0.894-1.572,0.83-2.483
			c-0.064-0.912-0.48-1.744-1.17-2.343C8.189,5.376,3.953,4.968,2.345,4.79c0.216,1,1.047,5.481,2.685,6.903
			C5.652,12.232,6.448,12.53,7.271,12.53z M8.202,8.036c0.584,0.507,0.664,1.404,0.142,2.006c-0.493,0.567-1.435,0.634-2.003,0.141
			c-0.479-0.417-1.006-1.766-1.385-3.05C6.441,7.379,7.854,7.734,8.202,8.036z"/>
		<path fill="#757575" d="M13.316,10.932c0.626,0.429,1.363,0.664,2.135,0.664c1.035,0,2.002-0.409,2.724-1.15
			c1.358-1.394,2.102-6.096,2.401-7.868c-1,0.157-6.149,0.821-7.848,2.566c-0.708,0.727-1.091,1.687-1.077,2.702
			c0.007,0.515,0.117,1.011,0.316,1.468C11.355,10.191,11,11.162,11,12.071V15H6c-0.321,0-0.623,0.155-0.811,0.416
			c-0.188,0.261-0.239,0.595-0.138,0.9l2,6C7.187,22.725,7.569,23,8,23h8c0.431,0,0.813-0.275,0.949-0.684l2-6
			c0.102-0.305,0.05-0.64-0.138-0.9C18.623,15.155,18.321,15,18,15h-5v-2.929C13,11.718,13.118,11.324,13.316,10.932z M15.279,21
			H8.72l-1.333-4h9.226L15.279,21z M14.161,6.54c0.56-0.575,2.334-1.137,3.935-1.498c-0.392,1.805-0.935,3.578-1.354,4.008
			c-0.698,0.718-1.838,0.725-2.546,0.035C13.484,8.393,13.469,7.25,14.161,6.54z"/>
	</g>
</g>
</svg>
