<?xml version="1.0" encoding="utf-8"?>
<!-- Generator: Adobe Illustrator 16.0.0, SVG Export Plug-In . SVG Version: 6.00 Build 0)  -->
<!DOCTYPE svg PUBLIC "-//W3C//DTD SVG 1.1//EN" "http://www.w3.org/Graphics/SVG/1.1/DTD/svg11.dtd">
<svg version="1.1" xmlns="http://www.w3.org/2000/svg" xmlns:xlink="http://www.w3.org/1999/xlink" x="0px" y="0px" width="24px"
	 height="24px" viewBox="0 0 24 24" enable-background="new 0 0 24 24" xml:space="preserve">
<g id="Frames-24px">
	<rect fill="none" width="24" height="24"/>
</g>
<g id="Outline">
	<g>
		<path fill="#757575" d="M12,1C5.935,1,1,5.935,1,12c0,6.066,4.935,11,11,11s11-4.934,11-11C23,5.935,18.065,1,12,1z M12,21
			c-4.962,0-9-4.037-9-9s4.038-9,9-9s9,4.037,9,9S16.962,21,12,21z"/>
		<path fill="#757575" d="M14,9H9.414l2-2L10,5.586L5.586,10L10,14.414L11.414,13l-2-2H14c1.103,0,2,0.898,2,2c0,1.103-0.897,2-2,2
			h-1v2h1c2.206,0,4-1.794,4-4S16.206,9,14,9z"/>
	</g>
</g>
</svg>
