<?xml version="1.0" encoding="utf-8"?>
<!-- Generator: Adobe Illustrator 16.0.0, SVG Export Plug-In . SVG Version: 6.00 Build 0)  -->
<!DOCTYPE svg PUBLIC "-//W3C//DTD SVG 1.1//EN" "http://www.w3.org/Graphics/SVG/1.1/DTD/svg11.dtd">
<svg version="1.1" xmlns="http://www.w3.org/2000/svg" xmlns:xlink="http://www.w3.org/1999/xlink" x="0px" y="0px" width="24px"
	 height="24px" viewBox="0 0 24 24" enable-background="new 0 0 24 24" xml:space="preserve">
<g id="Frames-24px">
	<rect fill="none" width="24" height="24"/>
</g>
<g id="Outline">
	<g>
		<path fill="#757575" d="M1,12c0,5.515,4.486,10,10,10v-2c-1.061,0-2.073-0.212-3-0.589V16h3v-2H8v-4h3V8H8V4.589
			C8.927,4.212,9.939,4,11,4V2C5.486,2,1,6.486,1,12z M6,18.235C5.23,17.617,4.581,16.858,4.083,16H6V18.235z M6,14H3.263
			C3.098,13.359,3,12.691,3,12c0-0.691,0.098-1.359,0.263-2H6V14z M6,5.765V8H4.083C4.581,7.142,5.23,6.383,6,5.765z"/>
		<path fill="#757575" d="M20,5c0-1.654-1.346-3-3-3s-3,1.346-3,3s1.346,3,3,3S20,6.654,20,5z M17,6c-0.551,0-1-0.449-1-1
			c0-0.551,0.449-1,1-1s1,0.449,1,1C18,5.551,17.551,6,17,6z"/>
		<path fill="#757575" d="M17,8c-2.757,0-5,2.243-5,5v3c0,0.552,0.448,1,1,1h1v4c0,0.552,0.448,1,1,1h4c0.552,0,1-0.448,1-1v-4h1
			c0.552,0,1-0.448,1-1v-3C22,10.243,19.757,8,17,8z M20,15h-1c-0.552,0-1,0.448-1,1v4h-2v-4c0-0.552-0.448-1-1-1h-1v-2
			c0-1.654,1.346-3,3-3s3,1.346,3,3V15z"/>
	</g>
</g>
</svg>
