<?xml version="1.0" encoding="utf-8"?>
<!-- Generator: Adobe Illustrator 16.0.0, SVG Export Plug-In . SVG Version: 6.00 Build 0)  -->
<!DOCTYPE svg PUBLIC "-//W3C//DTD SVG 1.1//EN" "http://www.w3.org/Graphics/SVG/1.1/DTD/svg11.dtd">
<svg version="1.1" xmlns="http://www.w3.org/2000/svg" xmlns:xlink="http://www.w3.org/1999/xlink" x="0px" y="0px" width="24px"
	 height="24px" viewBox="0 0 24 24" enable-background="new 0 0 24 24" xml:space="preserve">
<g id="Frames-24px">
	<rect fill="none" width="24" height="24"/>
</g>
<g id="Outline">
	<g>
		<path fill="#757575" d="M15,7c0.395,0,0.779-0.077,1.136-0.225C16.88,7.547,17.909,8,19,8c2.206,0,4-1.794,4-4
			c0-2.206-1.794-4-4-4c-1.09,0-2.12,0.453-2.864,1.225C15.779,1.077,15.394,1,15,1c-1.654,0-3,1.346-3,3S13.345,7,15,7z M15,3
			c0.256,0,0.501,0.1,0.689,0.281c0.224,0.216,0.537,0.313,0.843,0.268c0.307-0.046,0.576-0.233,0.726-0.505
			C17.614,2.4,18.281,2,19,2c1.103,0,2,0.896,2,2c0,1.103-0.897,2-2,2c-0.718,0-1.386-0.4-1.742-1.044
			c-0.174-0.315-0.508-0.517-0.875-0.517c-0.257,0-0.506,0.099-0.693,0.279C15.5,4.9,15.256,5,15,5c-0.551,0-1-0.449-1-1
			C14,3.449,14.448,3,15,3z"/>
		<path fill="#757575" d="M17.948,9.684C17.812,9.275,17.43,9,17,9H7C6.569,9,6.187,9.275,6.051,9.684l-4,12
			c-0.102,0.306-0.05,0.64,0.138,0.901C2.376,22.846,2.678,23,3,23h18c0.321,0,0.623-0.154,0.811-0.416
			c0.188-0.261,0.239-0.595,0.138-0.901L17.948,9.684z M4.387,21L7.72,11h8.559l3.333,10H4.387z"/>
		<circle fill="#757575" cx="12" cy="16" r="1"/>
		<path fill="#757575" d="M11.355,14.105l-0.646-1.893C9.088,12.766,8,14.288,8,16h2C10,15.144,10.544,14.383,11.355,14.105z"/>
		<path fill="#757575" d="M10.491,17.313l-1.508,1.314C9.743,19.5,10.842,20,12,20c1.142,0,2.232-0.489,2.991-1.343l-1.494-1.33
			C12.731,18.188,11.246,18.182,10.491,17.313z"/>
		<path fill="#757575" d="M13.334,12.229l-0.668,1.885C13.464,14.396,14,15.154,14,16h2C16,14.31,14.929,12.794,13.334,12.229z"/>
	</g>
</g>
</svg>
