<?xml version="1.0" encoding="utf-8"?>
<!-- Generator: Adobe Illustrator 16.0.0, SVG Export Plug-In . SVG Version: 6.00 Build 0)  -->
<!DOCTYPE svg PUBLIC "-//W3C//DTD SVG 1.1//EN" "http://www.w3.org/Graphics/SVG/1.1/DTD/svg11.dtd">
<svg version="1.1" xmlns="http://www.w3.org/2000/svg" xmlns:xlink="http://www.w3.org/1999/xlink" x="0px" y="0px" width="24px"
	 height="24px" viewBox="0 0 24 24" enable-background="new 0 0 24 24" xml:space="preserve">
<g id="Frames-24px">
	<rect fill="none" width="24" height="24"/>
</g>
<g id="Outline">
	<g>
		<g>
			<path fill="#757575" d="M12,15c-2.757,0-5-2.243-5-5s2.243-5,5-5s5,2.243,5,5h-2c0-1.654-1.346-3-3-3s-3,1.346-3,3s1.346,3,3,3
				V15z"/>
		</g>
		<g>
			<path fill="#757575" d="M16,15h-3v-4h4v1.829c1.164-0.414,2-1.525,2-2.829V8h2v2C21,12.757,18.757,15,16,15z"/>
		</g>
		<g>
			<path fill="#757575" d="M20,24H4v-2c0-3.533,3.29-6,8-6s8,2.467,8,6V24z M6,22h12c0-2.355-2.467-4-6-4S6,19.645,6,22z"/>
		</g>
	</g>
</g>
</svg>
