<?xml version="1.0" encoding="utf-8"?>
<!-- Generator: Adobe Illustrator 16.0.0, SVG Export Plug-In . SVG Version: 6.00 Build 0)  -->
<!DOCTYPE svg PUBLIC "-//W3C//DTD SVG 1.1//EN" "http://www.w3.org/Graphics/SVG/1.1/DTD/svg11.dtd">
<svg version="1.1" xmlns="http://www.w3.org/2000/svg" xmlns:xlink="http://www.w3.org/1999/xlink" x="0px" y="0px" width="24px"
	 height="24px" viewBox="0 0 24 24" enable-background="new 0 0 24 24" xml:space="preserve">
<g id="Frames-24px">
	<rect fill="none" width="24" height="24"/>
</g>
<g id="Solid">
	<path fill="#757575" d="M20.998,15h-2v-1c0-1.654-1.345-3-2.998-3h-3V9h2c0.552,0,1-0.448,1-1V3c0-0.552-0.448-1-1-1H9
		C8.448,2,8,2.448,8,3v5c0,0.552,0.448,1,1,1h2v2H8c-1.654,0-3,1.346-3,3v1H3c-0.552,0-1,0.448-1,1v5c0,0.552,0.448,1,1,1h6
		c0.552,0,1-0.448,1-1v-5c0-0.552-0.448-1-1-1H7v-1c0-0.551,0.449-1,1-1h8c0.55,0,0.998,0.449,0.998,1v1H15c-0.552,0-1,0.448-1,1v5
		c0,0.552,0.448,1,1,1h5.998c0.552,0,1-0.448,1-1v-5C21.998,15.448,21.55,15,20.998,15z M10,7V4h4v3H10z M8,20H4v-3h4V20z
		 M19.998,20H16v-3h3.998V20z"/>
</g>
</svg>
