<?xml version="1.0" encoding="utf-8"?>
<!-- Generator: Adobe Illustrator 16.0.0, SVG Export Plug-In . SVG Version: 6.00 Build 0)  -->
<!DOCTYPE svg PUBLIC "-//W3C//DTD SVG 1.1//EN" "http://www.w3.org/Graphics/SVG/1.1/DTD/svg11.dtd">
<svg version="1.1" xmlns="http://www.w3.org/2000/svg" xmlns:xlink="http://www.w3.org/1999/xlink" x="0px" y="0px" width="24px"
	 height="24px" viewBox="0 0 24 24" enable-background="new 0 0 24 24" xml:space="preserve">
<g id="Frames-24px">
	<rect fill="none" width="24" height="24"/>
</g>
<g id="Solid">
	<path fill="#757575" d="M23.924,6.617C23.769,6.244,23.404,6,23,6H12.5L9.8,2.4C9.611,2.148,9.315,2,9,2H5
		C4.696,2,4.409,2.139,4.219,2.375l-4,5c-0.24,0.302-0.287,0.712-0.121,1.058S0.616,9,1,9h4v4c0,0.174,0.045,0.345,0.132,0.496l4,7
		C9.31,20.808,9.641,21,10,21h9c0.425,0,0.803-0.269,0.944-0.668c0.14-0.4,0.013-0.847-0.319-1.112l-4.127-3.302l8.21-8.21
		C23.993,7.421,24.079,6.991,23.924,6.617z M10.68,6.907L7,10.586V4h1.5L10.68,6.907z M3.081,7L5,4.602V7H3.081z M16.149,19h-3.735
		l1.66-1.66L16.149,19z M10.219,18.367l-2.972-5.2L12.414,8h8.172L10.219,18.367z"/>
</g>
</svg>
