<?xml version="1.0" encoding="utf-8"?>
<!-- Generator: Adobe Illustrator 16.0.0, SVG Export Plug-In . SVG Version: 6.00 Build 0)  -->
<!DOCTYPE svg PUBLIC "-//W3C//DTD SVG 1.1//EN" "http://www.w3.org/Graphics/SVG/1.1/DTD/svg11.dtd">
<svg version="1.1" xmlns="http://www.w3.org/2000/svg" xmlns:xlink="http://www.w3.org/1999/xlink" x="0px" y="0px" width="24px"
	 height="24px" viewBox="0 0 24 24" enable-background="new 0 0 24 24" xml:space="preserve">
<g id="Frames-24px">
	<rect fill="none" width="24" height="24"/>
</g>
<g id="Solid">
	<path fill="#757575" d="M22,5.07c0-0.802-0.312-1.555-0.878-2.121c-1.133-1.134-3.11-1.134-4.243,0L6.67,13.158
		c-0.931,0.068-1.839,0.425-2.519,1.105c-1.416,1.415-1.356,2.606-1.309,3.564c0.041,0.823,0.07,1.417-0.923,2.411L0.477,21.68
		C2.293,21.911,2.721,22,3.721,22c0,0,0,0,0,0c1.496,0,4.276-0.271,6.085-2.08c0.692-0.691,1.082-1.595,1.146-2.561L21.121,7.191
		C21.688,6.625,22,5.872,22,5.07z M8.393,18.506C7.35,19.549,5.738,19.88,4.528,19.97c0.379-0.877,0.342-1.63,0.312-2.241
		c-0.087-1.759,1.083-2.637,2.139-2.637c0.534,0,1.036,0.208,1.414,0.586C9.176,16.459,9.177,17.721,8.393,18.506z M19.707,5.777
		l-9.293,9.293c-0.17-0.289-0.364-0.563-0.607-0.807c-0.243-0.243-0.523-0.433-0.815-0.598l9.301-9.302
		c0.377-0.377,1.036-0.377,1.414,0C19.896,4.552,20,4.804,20,5.07S19.896,5.588,19.707,5.777z"/>
</g>
</svg>
