<?xml version="1.0" encoding="utf-8"?>
<!-- Generator: Adobe Illustrator 16.0.0, SVG Export Plug-In . SVG Version: 6.00 Build 0)  -->
<!DOCTYPE svg PUBLIC "-//W3C//DTD SVG 1.1//EN" "http://www.w3.org/Graphics/SVG/1.1/DTD/svg11.dtd">
<svg version="1.1" xmlns="http://www.w3.org/2000/svg" xmlns:xlink="http://www.w3.org/1999/xlink" x="0px" y="0px" width="24px"
	 height="24px" viewBox="0 0 24 24" enable-background="new 0 0 24 24" xml:space="preserve">
<g id="Frames-24px">
	<rect fill="none" width="24" height="24"/>
</g>
<g id="Outline">
	<path fill="#757575" d="M22.398,11.082c-5.171-2.243-8.935-3.921-11.692-5.15c-5.377-2.398-6.823-3.042-7.83-3.042
		c-0.864,0-1.289,0.524-1.429,0.695C0.918,4.235,0.854,5.156,1.285,5.873L4.961,12l-3.675,6.125
		c-0.432,0.718-0.367,1.638,0.162,2.29c0.14,0.173,0.565,0.698,1.43,0.698h0c1.006,0,2.446-0.643,7.799-3.031
		c2.76-1.231,6.532-2.914,11.722-5.165C22.764,12.758,23,12.398,23,11.999C23,11.602,22.764,11.24,22.398,11.082z M3.083,4.914
		c0.8,0.164,2.929,1.114,6.808,2.843c1.91,0.852,4.312,1.922,7.317,3.241H6.693h0L3.083,4.914z M9.862,16.255
		c-3.942,1.759-6.069,2.708-6.827,2.84l3.658-6.097h10.516C14.188,14.327,11.776,15.402,9.862,16.255z"/>
</g>
</svg>
