<?xml version="1.0" encoding="utf-8"?>
<!-- Generator: Adobe Illustrator 16.0.0, SVG Export Plug-In . SVG Version: 6.00 Build 0)  -->
<!DOCTYPE svg PUBLIC "-//W3C//DTD SVG 1.1//EN" "http://www.w3.org/Graphics/SVG/1.1/DTD/svg11.dtd">
<svg version="1.1" xmlns="http://www.w3.org/2000/svg" xmlns:xlink="http://www.w3.org/1999/xlink" x="0px" y="0px" width="24px"
	 height="24px" viewBox="0 0 24 24" enable-background="new 0 0 24 24" xml:space="preserve">
<g id="Frames-24px">
	<rect fill="none" width="24" height="24"/>
</g>
<g id="Solid">
	<g>
		<path fill="#757575" d="M19,8.001h-5v2h4v9h-2v2H5v-11h3v-2H4c-0.552,0-1,0.448-1,1v13c0,0.552,0.448,1,1,1h13
			c0.265,0,0.52-0.105,0.707-0.293l2-2C19.895,20.521,20,20.266,20,20.001v-11C20,8.449,19.552,8.001,19,8.001z"/>
		<rect x="7" y="12.001" fill="#757575" width="9" height="2"/>
		<rect x="7" y="16.001" fill="#757575" width="9" height="2"/>
		<path fill="#757575" d="M10,6.816v3.185c0,0.553,0.447,1,1,1s1-0.447,1-1V6.816C13.163,6.403,14.001,5.306,14,4
			c0-1.657-1.343-2.999-3-2.999S8.001,2.343,8.001,4C8,5.306,8.838,6.403,10,6.816z"/>
	</g>
</g>
</svg>
