<?xml version="1.0" encoding="utf-8"?>
<!-- Generator: Adobe Illustrator 16.0.0, SVG Export Plug-In . SVG Version: 6.00 Build 0)  -->
<!DOCTYPE svg PUBLIC "-//W3C//DTD SVG 1.1//EN" "http://www.w3.org/Graphics/SVG/1.1/DTD/svg11.dtd">
<svg version="1.1" xmlns="http://www.w3.org/2000/svg" xmlns:xlink="http://www.w3.org/1999/xlink" x="0px" y="0px" width="24px"
	 height="24px" viewBox="0 0 24 24" enable-background="new 0 0 24 24" xml:space="preserve">
<g id="Frames-24px">
	<rect fill="none" width="24" height="24"/>
</g>
<g id="Solid">
	<g>
		<path fill="#757575" d="M8,4.5C8,3.672,7.328,3,6.5,3S5,3.672,5,4.5V5h3V4.5z"/>
		<polygon fill="#757575" points="8,15 8,6 5,6 5,15 6.5,18 		"/>
		<path fill="#757575" d="M21,7H10v2h5v10H3V7C1.897,7,1,7.898,1,9v10c0,1.103,0.897,2,2,2h18c1.103,0,2-0.897,2-2V9
			C23,7.898,22.103,7,21,7z M17,9h4l0,4h-4V9z M17,19v-4h4.001l0,4H17z"/>
	</g>
</g>
</svg>
