<?xml version="1.0" encoding="utf-8"?>
<!-- Generator: Adobe Illustrator 16.0.0, SVG Export Plug-In . SVG Version: 6.00 Build 0)  -->
<!DOCTYPE svg PUBLIC "-//W3C//DTD SVG 1.1//EN" "http://www.w3.org/Graphics/SVG/1.1/DTD/svg11.dtd">
<svg version="1.1" xmlns="http://www.w3.org/2000/svg" xmlns:xlink="http://www.w3.org/1999/xlink" x="0px" y="0px" width="24px"
	 height="24px" viewBox="0 0 24 24" enable-background="new 0 0 24 24" xml:space="preserve">
<g id="Frames-24px">
	<rect fill="none" width="24" height="24"/>
</g>
<g id="Outline">
	<path fill="#757575" d="M20.821,3.18c-0.761-0.76-1.771-1.178-2.847-1.178c-1.074,0-2.086,0.418-2.846,1.179L3.72,14.59
		c-0.128,0.128-0.22,0.289-0.263,0.464l-1.427,5.705c-0.084,0.34,0.016,0.702,0.264,0.948c0.247,0.249,0.608,0.349,0.949,0.264
		l5.705-1.427c0.175-0.043,0.336-0.135,0.464-0.263L20.82,8.872c0.76-0.76,1.178-1.772,1.179-2.846c0-1.076-0.418-2.087-1.179-2.847
		L20.821,3.18z M9.077,16.338l7.471-7.471l0.727,0.725l-7.955,7.955L9.077,16.338z M7.663,14.923l-1.209-0.241l7.956-7.955
		l0.725,0.726L7.663,14.923z M5.166,16.464l1.976,0.395l0.396,1.977l-3.163,0.791L5.166,16.464z M15.823,5.313l0.72-0.718
		c0.766-0.764,2.1-0.764,2.864,0l-0.002-0.001c0.765,0.765,0.765,2.099,0,2.864l-0.718,0.72L15.823,5.313z"/>
</g>
</svg>
