<?xml version="1.0" encoding="utf-8"?>
<!-- Generator: Adobe Illustrator 16.0.0, SVG Export Plug-In . SVG Version: 6.00 Build 0)  -->
<!DOCTYPE svg PUBLIC "-//W3C//DTD SVG 1.1//EN" "http://www.w3.org/Graphics/SVG/1.1/DTD/svg11.dtd">
<svg version="1.1" xmlns="http://www.w3.org/2000/svg" xmlns:xlink="http://www.w3.org/1999/xlink" x="0px" y="0px" width="24px"
	 height="24px" viewBox="0 0 24 24" enable-background="new 0 0 24 24" xml:space="preserve">
<g id="Frames-24px">
	<rect fill="none" width="24" height="24"/>
</g>
<g id="Outline">
	<g>
		<polygon fill="#757575" points="20,10 15.414,10 21.707,3.707 20.293,2.293 14,8.586 14,4 12,4 12,12 20,12 		"/>
		<path fill="#757575" d="M18,15h-4c-1.077,0-1.958,0.855-1.999,1.922c-2.542-0.404-4.473-2.341-4.909-4.925
			C8.152,11.95,9,11.073,9,10V6c0-1.103-0.897-2-2-2H3C1.897,4,1,4.897,1,6v5c0,6.617,5.383,12,12,12h5c1.103,0,2-0.897,2-2v-4
			C20,15.897,19.103,15,18,15z M13,21C7.486,21,3,16.515,3,11V6h4v4H6c-0.268,0-0.525,0.107-0.713,0.298
			C5.099,10.49,4.996,10.748,5,11.016C5.072,15.567,8.512,19,13,19c0.552,0,1-0.448,1-1v-1h4l0.001,4H13z"/>
	</g>
</g>
</svg>
