<?xml version="1.0" encoding="utf-8"?>
<!-- Generator: Adobe Illustrator 16.0.0, SVG Export Plug-In . SVG Version: 6.00 Build 0)  -->
<!DOCTYPE svg PUBLIC "-//W3C//DTD SVG 1.1//EN" "http://www.w3.org/Graphics/SVG/1.1/DTD/svg11.dtd">
<svg version="1.1" xmlns="http://www.w3.org/2000/svg" xmlns:xlink="http://www.w3.org/1999/xlink" x="0px" y="0px" width="24px"
	 height="24px" viewBox="0 0 24 24" enable-background="new 0 0 24 24" xml:space="preserve">
<g id="Frames-24px">
	<rect fill="none" width="24" height="24"/>
</g>
<g id="Solid">
	<g>
		<path fill="#757575" d="M20,5.002H4c-1.103,0-2,0.897-2,2v10c0,1.102,0.897,2,2,2h16c1.103,0,2-0.898,2-2v-10
			C22,5.899,21.103,5.002,20,5.002z M4,17.002v-10h16l0.001,10H4z"/>
		<path fill="#757575" d="M12,13.002c-1.841,0-3,1.159-3,3h6C15,14.161,13.841,13.002,12,13.002z"/>
		<circle fill="#757575" cx="12" cy="10.002" r="2"/>
	</g>
</g>
</svg>
