<?xml version="1.0" encoding="utf-8"?>
<!-- Generator: Adobe Illustrator 16.0.0, SVG Export Plug-In . SVG Version: 6.00 Build 0)  -->
<!DOCTYPE svg PUBLIC "-//W3C//DTD SVG 1.1//EN" "http://www.w3.org/Graphics/SVG/1.1/DTD/svg11.dtd">
<svg version="1.1" xmlns="http://www.w3.org/2000/svg" xmlns:xlink="http://www.w3.org/1999/xlink" x="0px" y="0px" width="24px"
	 height="24px" viewBox="0 0 24 24" enable-background="new 0 0 24 24" xml:space="preserve">
<g id="Frames-24px">
	<rect fill="none" width="24" height="24"/>
</g>
<g id="Solid">
	<g>
		<polygon fill="#757575" points="14.887,10.046 13.735,8.199 12,11 19,11 16.646,7.226 		"/>
		<path fill="#757575" d="M7,5.002H5v11c0,1.102,0.897,2,2,2h10v-2H7V5.002z"/>
		<path fill="#757575" d="M3,9.002H1v11c0,1.102,0.897,2,2,2h10v-2H3V9.002z"/>
		<path fill="#757575" d="M20,2.002h-9c-1.103,0-2,0.897-2,2v8c0,1.102,0.897,2,2,2h9c1.103,0,2-0.898,2-2v-8
			C22,2.899,21.103,2.002,20,2.002z M11,12.002v-8h9l0.001,8H11z"/>
	</g>
</g>
</svg>
