<?xml version="1.0" encoding="utf-8"?>
<!-- Generator: Adobe Illustrator 16.0.0, SVG Export Plug-In . SVG Version: 6.00 Build 0)  -->
<!DOCTYPE svg PUBLIC "-//W3C//DTD SVG 1.1//EN" "http://www.w3.org/Graphics/SVG/1.1/DTD/svg11.dtd">
<svg version="1.1" xmlns="http://www.w3.org/2000/svg" xmlns:xlink="http://www.w3.org/1999/xlink" x="0px" y="0px" width="24px"
	 height="24px" viewBox="0 0 24 24" enable-background="new 0 0 24 24" xml:space="preserve">
<g id="Frames-24px">
	<rect fill="none" width="24" height="24"/>
</g>
<g id="Outline">
	<g>
		<path fill="#757575" d="M22.895,11.553l-3-6C19.725,5.214,19.379,5,19,5h-1V3c0-0.552-0.448-1-1-1h-3c-0.552,0-1,0.448-1,1v2h-2V3
			c0-0.552-0.448-1-1-1H7C6.448,2,6,2.448,6,3v2H5C4.621,5,4.275,5.214,4.105,5.553l-3,6c-0.155,0.31-0.138,0.678,0.044,0.973
			C1.332,12.821,1.653,13,2,13h2v8c0,0.552,0.448,1,1,1h14c0.552,0,1-0.448,1-1v-8h2c0.347,0,0.668-0.179,0.851-0.474
			C23.033,12.231,23.049,11.863,22.895,11.553z M15,4h1v1h-1V4z M8,4h1v1H8V4z M14,20v-2h-4v2H6v-7h12v7H14z M3.618,11l2-4h12.764
			l2,4H3.618z"/>
		<rect x="7" y="14" fill="#757575" width="3" height="3"/>
		<rect x="14" y="14" fill="#757575" width="3" height="3"/>
	</g>
</g>
</svg>
