<?xml version="1.0" encoding="utf-8"?>
<!-- Generator: Adobe Illustrator 16.0.0, SVG Export Plug-In . SVG Version: 6.00 Build 0)  -->
<!DOCTYPE svg PUBLIC "-//W3C//DTD SVG 1.1//EN" "http://www.w3.org/Graphics/SVG/1.1/DTD/svg11.dtd">
<svg version="1.1" xmlns="http://www.w3.org/2000/svg" xmlns:xlink="http://www.w3.org/1999/xlink" x="0px" y="0px" width="24px"
	 height="24.001px" viewBox="0 0 24 24.001" enable-background="new 0 0 24 24.001" xml:space="preserve">
<g id="Frames-24px">
	<rect fill="none" width="24" height="24.001"/>
</g>
<g id="Outline">
	<path fill="#757575" d="M21.999,14h-2V9c0-0.552-0.448-1-1-1h-5V3c0-0.552-0.448-1-1-1h-11c-0.552,0-1,0.448-1,1v18
		c0,0.552,0.448,1,1,1h3.998c0.552,0,1-0.448,1-1v-1.499C6.997,19.225,7.222,19,7.498,19s0.501,0.225,0.501,0.501V21
		c0,0.552,0.448,1,1,1h4c0.552,0,1-0.448,1-1v-1.5c0-0.275,0.224-0.5,0.5-0.5s0.5,0.225,0.5,0.5V21c0,0.552,0.448,1,1,1h6
		c0.552,0,1-0.448,1-1v-6C22.999,14.448,22.551,14,21.999,14z M17.999,10v4h-1v-0.5c0-1.378-1.122-2.5-2.5-2.5s-2.5,1.122-2.5,2.5
		V14h-2v-0.499C9.999,12.122,8.877,11,7.498,11s-2.501,1.122-2.501,2.501V14H2.999v-4h2.998c0.552,0,1-0.448,1-1V7.501
		C6.997,7.225,7.222,7,7.498,7s0.501,0.225,0.501,0.501V9c0,0.552,0.448,1,1,1H17.999z M2.999,4h9v4h-2V7.501
		C9.999,6.122,8.877,5,7.498,5S4.997,6.122,4.997,7.501V8H2.999V4z M20.999,20h-4v-0.5c0-1.378-1.122-2.5-2.5-2.5
		s-2.5,1.122-2.5,2.5V20h-2v-0.499C9.999,18.122,8.877,17,7.498,17s-2.501,1.122-2.501,2.501V20H2.999v-4h2.998c0.552,0,1-0.448,1-1
		v-1.499C6.997,13.225,7.222,13,7.498,13s0.501,0.225,0.501,0.501V15c0,0.552,0.448,1,1,1h4c0.552,0,1-0.448,1-1v-1.5
		c0-0.275,0.224-0.5,0.5-0.5s0.5,0.225,0.5,0.5V15c0,0.552,0.448,1,1,1h5V20z"/>
</g>
</svg>
