<?xml version="1.0" encoding="utf-8"?>
<!-- Generator: Adobe Illustrator 16.0.0, SVG Export Plug-In . SVG Version: 6.00 Build 0)  -->
<!DOCTYPE svg PUBLIC "-//W3C//DTD SVG 1.1//EN" "http://www.w3.org/Graphics/SVG/1.1/DTD/svg11.dtd">
<svg version="1.1" xmlns="http://www.w3.org/2000/svg" xmlns:xlink="http://www.w3.org/1999/xlink" x="0px" y="0px" width="24px"
	 height="24.001px" viewBox="0 0 24 24.001" enable-background="new 0 0 24 24.001" xml:space="preserve">
<g id="Frames-24px">
	<rect fill="none" width="24" height="24.001"/>
</g>
<g id="Outline">
	<path fill="#757575" d="M22.447,9.106l-10-5c-0.281-0.14-0.613-0.14-0.895,0l-10,5C1.214,9.275,1,9.622,1,10v2c0,0.552,0.448,1,1,1
		h1v8c0,0.552,0.448,1,1,1h16c0.552,0,1-0.448,1-1v-8h1c0.552,0,1-0.448,1-1v-2C23,9.622,22.786,9.275,22.447,9.106z M15,14H9v-1h6
		V14z M9,16h6v1H9V16z M9,19h6v1H9V19z M21,11h-1c-0.552,0-1,0.448-1,1v8h-2v-8c0-0.552-0.448-1-1-1H8c-0.552,0-1,0.448-1,1v8H5v-8
		c0-0.552-0.448-1-1-1H3V10.62l9-4.5l9,4.5V11z"/>
</g>
</svg>
