<?xml version="1.0" encoding="utf-8"?>
<!-- Generator: Adobe Illustrator 16.0.0, SVG Export Plug-In . SVG Version: 6.00 Build 0)  -->
<!DOCTYPE svg PUBLIC "-//W3C//DTD SVG 1.1//EN" "http://www.w3.org/Graphics/SVG/1.1/DTD/svg11.dtd">
<svg version="1.1" xmlns="http://www.w3.org/2000/svg" xmlns:xlink="http://www.w3.org/1999/xlink" x="0px" y="0px" width="24px"
	 height="24.001px" viewBox="0 0 24 24.001" enable-background="new 0 0 24 24.001" xml:space="preserve">
<g id="Frames-24px">
	<rect fill="none" width="24" height="24.001"/>
</g>
<g id="Outline">
	<g>
		<path fill="#757575" d="M21,13.001h-6v-2.632c1.283-0.662,2-1.821,2-3.368c0-2.6-3.688-5.304-4.428-5.82
			c-0.344-0.24-0.801-0.24-1.145,0C10.688,1.697,7,4.402,7,7.001c0,1.546,0.717,2.706,2,3.368v2.632H3c-0.552,0-1,0.448-1,1v7
			c0,0.551,0.448,1,1,1h7c0.552,0,1-0.449,1-1v-1.586l0.999-1l1.002,1l0.001,1.586c0,0.551,0.448,1,1,1H21c0.552,0,1-0.449,1-1v-7
			C22,13.449,21.552,13.001,21,13.001z M12,3.245c1.396,1.091,3,2.739,3,3.756c0,0.494,0,2-3,2s-3-1.506-3-2
			C9,5.984,10.604,4.336,12,3.245z M11,11.001h2v2h-2V11.001z M20,20.001h-4.999L15,19c0-0.264-0.106-0.519-0.293-0.707l-2.002-2
			c-0.188-0.187-0.441-0.292-0.707-0.292h0c-0.265,0-0.52,0.105-0.707,0.292l-1.998,2C9.105,18.482,9,18.736,9,19.001v1H4v-5h16
			V20.001z"/>
		<rect x="16" y="16.001" fill="#757575" width="2" height="2"/>
		<rect x="6" y="16.001" fill="#757575" width="2" height="2"/>
		<rect x="3" y="9.001" fill="#757575" width="2" height="3"/>
		<rect x="19" y="9.001" fill="#757575" width="2" height="3"/>
	</g>
</g>
</svg>
