<?xml version="1.0" encoding="utf-8"?>
<!-- Generator: Adobe Illustrator 16.0.0, SVG Export Plug-In . SVG Version: 6.00 Build 0)  -->
<!DOCTYPE svg PUBLIC "-//W3C//DTD SVG 1.1//EN" "http://www.w3.org/Graphics/SVG/1.1/DTD/svg11.dtd">
<svg version="1.1" xmlns="http://www.w3.org/2000/svg" xmlns:xlink="http://www.w3.org/1999/xlink" x="0px" y="0px" width="24px"
	 height="24px" viewBox="0 0 24 24" enable-background="new 0 0 24 24" xml:space="preserve">
<g id="Frames-24px">
	<rect fill="none" width="24" height="24"/>
</g>
<g id="Outline">
	<path fill="#757575" d="M20,15h-3.77c-0.322-0.954-0.625-1.955-0.908-3H17v-2h-2.181C14.511,8.685,14.235,7.319,14,5.917V5
		c0-0.155-0.036-0.309-0.105-0.447l-1-2c-0.339-0.677-1.45-0.677-1.789,0l-1,2C10.036,4.691,10,4.845,10,5v0.917
		C9.764,7.319,9.488,8.685,9.181,10H7v2h1.678c-0.283,1.045-0.586,2.046-0.908,3H4v2h3.042c-0.866,2.199-1.829,4.05-2.842,5.4
		c-0.228,0.303-0.264,0.708-0.095,1.047S4.621,24,5,24h5c0.552,0,1-0.448,1-1v-2h2v2c0,0.552,0.448,1,1,1h5
		c0.379,0,0.725-0.214,0.895-0.553s0.133-0.744-0.095-1.047c-1.012-1.351-1.975-3.201-2.842-5.4H20V15z M12,6
		c0,0.413,0.671,3.566,0.769,4H11.23C11.329,9.566,12,6.413,12,6z M10.746,12h2.508c0.25,0.968,0.539,1.978,0.865,3H9.88
		C10.207,13.978,10.495,12.968,10.746,12z M17.132,22H15v-1c0-1.102-0.897-2-2-2h-2c-1.103,0-2,0.898-2,2v1H6.867
		c0.908-1.521,1.676-3.245,2.326-5h5.614C15.457,18.755,16.224,20.479,17.132,22z"/>
</g>
</svg>
