<?xml version="1.0" encoding="utf-8"?>
<!-- Generator: Adobe Illustrator 16.0.0, SVG Export Plug-In . SVG Version: 6.00 Build 0)  -->
<!DOCTYPE svg PUBLIC "-//W3C//DTD SVG 1.1//EN" "http://www.w3.org/Graphics/SVG/1.1/DTD/svg11.dtd">
<svg version="1.1" xmlns="http://www.w3.org/2000/svg" xmlns:xlink="http://www.w3.org/1999/xlink" x="0px" y="0px" width="24px"
	 height="24.001px" viewBox="0 0 24 24.001" enable-background="new 0 0 24 24.001" xml:space="preserve">
<g id="Frames-24px">
	<rect y="0" fill="none" width="24" height="24.001"/>
</g>
<g id="Outline">
	<path fill="#757575" d="M18,11.001c0.334,0,0.646-0.167,0.832-0.445l1.703-2.555H22v-2h-7v-2c0-1.654-1.346-3-3-3s-3,1.346-3,3v2H2
		v2h1.465l1.703,2.555C5.354,10.834,5.666,11.001,6,11.001h2v8H7c-0.431,0-0.813,0.275-0.949,0.684l-1,3
		c-0.102,0.305-0.05,0.64,0.138,0.901c0.188,0.261,0.49,0.415,0.811,0.415h12c0.321,0,0.623-0.154,0.811-0.415
		c0.188-0.261,0.239-0.595,0.138-0.901l-1-3c-0.136-0.409-0.518-0.684-0.949-0.684h-1v-8H18z M17.465,9.001h-1.886l0.875-1h1.678
		L17.465,9.001z M11,4.001c0-0.552,0.449-1,1-1s1,0.448,1,1v2h-2V4.001z M6.536,9.001l-0.667-1h7.928L10,12.34v-2.339
		c0-0.552-0.448-1-1-1H6.536z M16.613,22.001H7.388l0.333-1h8.559L16.613,22.001z M10,19.001v-3.624l4-4.572v8.196H10z"/>
</g>
</svg>
