<?xml version="1.0" encoding="utf-8"?>
<!-- Generator: Adobe Illustrator 16.0.0, SVG Export Plug-In . SVG Version: 6.00 Build 0)  -->
<!DOCTYPE svg PUBLIC "-//W3C//DTD SVG 1.1//EN" "http://www.w3.org/Graphics/SVG/1.1/DTD/svg11.dtd">
<svg version="1.1" xmlns="http://www.w3.org/2000/svg" xmlns:xlink="http://www.w3.org/1999/xlink" x="0px" y="0px" width="24px"
	 height="24.001px" viewBox="0 0 24 24.001" enable-background="new 0 0 24 24.001" xml:space="preserve">
<g id="Frames-24px">
	<rect fill="none" width="24" height="24.001"/>
</g>
<g id="Outline">
	<path fill="#757575" d="M21.8,6.402l-3-4C18.611,2.15,18.315,2.001,18,2.001H6c-0.315,0-0.611,0.149-0.8,0.401l-3,4
		C1.973,6.705,1.936,7.11,2.105,7.448C2.275,7.787,2.621,8.001,3,8.001h2v9H3v2h2v3c0,0.552,0.448,1,1,1h12c0.552,0,1-0.448,1-1v-3
		h2v-2h-2v-9h2c0.379,0,0.725-0.214,0.895-0.553C22.064,7.11,22.027,6.705,21.8,6.402z M17,21.001H7v-2h10V21.001z M17,17.001H7v-9
		h4v2H9c-0.308,0-0.599,0.142-0.788,0.385c-0.189,0.242-0.257,0.56-0.182,0.858l1,4c0.111,0.445,0.511,0.758,0.97,0.758h4
		c0.459,0,0.859-0.312,0.97-0.758l1-4c0.075-0.298,0.007-0.615-0.182-0.858c-0.189-0.243-0.48-0.385-0.788-0.385h-2v-2h4V17.001z
		 M13.719,12.001l-0.5,2h-2.438l-0.5-2H13.719z M5,6.001l1.5-2h11l1.5,2H5z"/>
</g>
</svg>
