<?xml version="1.0" encoding="utf-8"?>
<!-- Generator: Adobe Illustrator 16.0.0, SVG Export Plug-In . SVG Version: 6.00 Build 0)  -->
<!DOCTYPE svg PUBLIC "-//W3C//DTD SVG 1.1//EN" "http://www.w3.org/Graphics/SVG/1.1/DTD/svg11.dtd">
<svg version="1.1" xmlns="http://www.w3.org/2000/svg" xmlns:xlink="http://www.w3.org/1999/xlink" x="0px" y="0px" width="24px"
	 height="24px" viewBox="0 0 24 24" enable-background="new 0 0 24 24" xml:space="preserve">
<g id="Frames-24px">
	<rect fill="none" width="24" height="24"/>
</g>
<g id="Outline">
	<g>
		<path fill="#757575" d="M7,10c0,2.757,2.243,5,5,5s5-2.243,5-5V9.236l2.41-4.821L12,1.946l-7.41,2.47L7,9.236V10z M12,13
			c-1.654,0-3-1.346-3-3h6C15,11.654,13.654,13,12,13z M12,4.055l4.59,1.529L15.382,8H8.618L7.41,5.584L12,4.055z"/>
		<circle fill="#757575" cx="12" cy="6" r="1"/>
		<path fill="#757575" d="M12,16c-4.71,0-8,2.467-8,6v2h16v-2C20,18.467,16.71,16,12,16z M11,18.051V22H6
			C6,19.875,8.012,18.333,11,18.051z M13,22v-3.949c2.988,0.282,5,1.824,5,3.949H13z"/>
	</g>
</g>
</svg>
