<?xml version="1.0" encoding="utf-8"?>
<!-- Generator: Adobe Illustrator 16.0.0, SVG Export Plug-In . SVG Version: 6.00 Build 0)  -->
<!DOCTYPE svg PUBLIC "-//W3C//DTD SVG 1.1//EN" "http://www.w3.org/Graphics/SVG/1.1/DTD/svg11.dtd">
<svg version="1.1" xmlns="http://www.w3.org/2000/svg" xmlns:xlink="http://www.w3.org/1999/xlink" x="0px" y="0px"
	 width="24.001px" height="24.001px" viewBox="0 0 24.001 24.001" enable-background="new 0 0 24.001 24.001" xml:space="preserve">
<g id="Frames-24px">
	<rect fill="none" width="24.001" height="24.001"/>
</g>
<g id="Outline">
	<path fill="#757575" d="M21.599,7.199l-4-3c-0.173-0.13-0.384-0.2-0.6-0.2h-1.586l-0.707-0.707
		c-0.188-0.188-0.442-0.293-0.707-0.293h-4c-0.265,0-0.52,0.105-0.707,0.293L8.585,3.999H6.999c-0.216,0-0.427,0.07-0.6,0.2l-4,3
		c-0.387,0.29-0.51,0.815-0.294,1.247l2,4c0.248,0.494,0.847,0.696,1.342,0.447l0.553-0.276v6.382c0,0.552,0.448,1,1,1h10
		c0.552,0,1-0.448,1-1v-6.382l0.553,0.276c0.496,0.248,1.095,0.046,1.342-0.447l2-4C22.109,8.015,21.986,7.489,21.599,7.199z
		 M13.585,4.999l-1.586,1.586l-1.586-1.586H13.585z M18.552,10.657l-1.105-0.553c-0.31-0.154-0.678-0.138-0.973,0.044
		c-0.294,0.183-0.474,0.504-0.474,0.851v7h-8v-7c0-0.347-0.18-0.668-0.474-0.851C7.229,9.966,6.862,9.95,6.552,10.104l-1.105,0.553
		l-1.18-2.359l3.066-2.299h1.252l2.414,2.414v3.586h2V8.413l2.414-2.414h1.252l3.066,2.299L18.552,10.657z"/>
</g>
</svg>
