<?xml version="1.0" encoding="utf-8"?>
<!-- Generator: Adobe Illustrator 16.0.0, SVG Export Plug-In . SVG Version: 6.00 Build 0)  -->
<!DOCTYPE svg PUBLIC "-//W3C//DTD SVG 1.1//EN" "http://www.w3.org/Graphics/SVG/1.1/DTD/svg11.dtd">
<svg version="1.1" xmlns="http://www.w3.org/2000/svg" xmlns:xlink="http://www.w3.org/1999/xlink" x="0px" y="0px" width="24px"
	 height="24px" viewBox="0 0 24 24" enable-background="new 0 0 24 24" xml:space="preserve">
<g id="Frames-24px">
	<rect fill="none" width="24" height="24"/>
</g>
<g id="Outline">
	<path fill="#757575" d="M20.707,2.292c-0.244-0.244-0.598-0.344-0.933-0.266c-0.176,0.04-4.346,1.021-8.226,2.985
		C11.212,5.182,11,5.526,11,5.903v1.672l-0.772-0.796C9.88,6.421,9.319,6.374,8.916,6.671c-0.578,0.426-1.052,0.827-1.45,1.225
		c-3.805,3.805-3.689,7.07-2.323,8.962L2,20v3l4.782-4.781c0.64,0.311,1.353,0.494,2.117,0.494c1.381,0,3.579-0.551,6.206-3.178
		c3.894-3.894,5.791-11.969,5.87-12.31C21.052,2.889,20.951,2.536,20.707,2.292z M13.69,14.12c-2.143,2.143-3.789,2.593-4.792,2.593
		c-0.749,0-1.419-0.257-1.887-0.724c-1.109-1.111-1.286-3.526,1.867-6.679c0.161-0.16,0.34-0.324,0.539-0.492l1.864,1.92
		c0.284,0.292,0.717,0.383,1.093,0.23C12.753,10.816,13,10.45,13,10.042V6.526c2.055-0.982,4.171-1.688,5.579-2.104
		C17.84,6.915,16.193,11.617,13.69,14.12z"/>
</g>
</svg>
