<?xml version="1.0" encoding="utf-8"?>
<!-- Generator: Adobe Illustrator 16.0.0, SVG Export Plug-In . SVG Version: 6.00 Build 0)  -->
<!DOCTYPE svg PUBLIC "-//W3C//DTD SVG 1.1//EN" "http://www.w3.org/Graphics/SVG/1.1/DTD/svg11.dtd">
<svg version="1.1" xmlns="http://www.w3.org/2000/svg" xmlns:xlink="http://www.w3.org/1999/xlink" x="0px" y="0px" width="24px"
	 height="24px" viewBox="0 0 24 24" enable-background="new 0 0 24 24" xml:space="preserve">
<g id="Frames-24px">
	<rect fill="none" width="24" height="24"/>
</g>
<g id="Solid">
	<g>
		<path fill="#757575" d="M12,2C6.486,2,2,6.486,2,12c0,5.515,4.486,10,10,10s10-4.485,10-10C22,6.486,17.514,2,12,2z M12,20
			c-4.411,0-8-3.589-8-8s3.589-8,8-8s8,3.589,8,8S16.411,20,12,20z"/>
		<polygon fill="#757575" points="14.293,8.293 12,10.586 9.707,8.293 8.293,9.707 10.586,12 8.293,14.293 9.707,15.707 12,13.414 
			14.293,15.707 15.707,14.293 13.414,12 15.707,9.707 		"/>
	</g>
</g>
</svg>
