<?xml version="1.0" encoding="utf-8"?>
<!-- Generator: Adobe Illustrator 16.0.0, SVG Export Plug-In . SVG Version: 6.00 Build 0)  -->
<!DOCTYPE svg PUBLIC "-//W3C//DTD SVG 1.1//EN" "http://www.w3.org/Graphics/SVG/1.1/DTD/svg11.dtd">
<svg version="1.1" xmlns="http://www.w3.org/2000/svg" xmlns:xlink="http://www.w3.org/1999/xlink" x="0px" y="0px" width="24px"
	 height="24px" viewBox="0 0 24 24" enable-background="new 0 0 24 24" xml:space="preserve">
<g id="Frames-24px">
	<rect fill="none" width="24" height="24"/>
</g>
<g id="Outline">
	<g>
		<path fill="#757575" d="M18.78,2.375C18.59,2.138,18.303,2,18,2H6C5.697,2,5.41,2.138,5.22,2.375
			C5.03,2.611,4.958,2.921,5.024,3.217l2,9l1.952-0.434L7.247,4H10.2L11,8h2l0.8-4h2.954l-1.729,7.783l1.952,0.434l2-9
			C19.042,2.921,18.97,2.611,18.78,2.375z"/>
		<g>
			<path fill="#757575" d="M16,22c-0.152,0-0.306-0.035-0.447-0.105L12,20.119l-3.553,1.775c-0.35,0.175-0.769,0.13-1.073-0.114
				c-0.305-0.245-0.439-0.645-0.345-1.022l0.893-3.571l-1.754-2.632c-0.205-0.307-0.224-0.701-0.05-1.026
				C6.292,13.203,6.631,13,7,13h2.382l1.724-3.447c0.339-0.677,1.45-0.677,1.789,0L14.618,13H17c0.369,0,0.708,0.203,0.882,0.528
				c0.174,0.325,0.155,0.719-0.05,1.026l-1.754,2.632l0.893,3.571c0.095,0.378-0.04,0.778-0.345,1.022
				C16.445,21.925,16.223,22,16,22z M12,18c0.153,0,0.307,0.035,0.447,0.106l2.055,1.027l-0.473-1.891
				c-0.068-0.273-0.018-0.563,0.138-0.797L15.131,15H14c-0.379,0-0.725-0.214-0.895-0.553L12,12.236l-1.105,2.211
				C10.725,14.786,10.379,15,10,15H8.869l0.963,1.445c0.156,0.234,0.207,0.524,0.138,0.797l-0.473,1.891l2.055-1.027
				C11.693,18.035,11.847,18,12,18z"/>
		</g>
	</g>
</g>
</svg>
