<?xml version="1.0" encoding="utf-8"?>
<!-- Generator: Adobe Illustrator 16.0.0, SVG Export Plug-In . SVG Version: 6.00 Build 0)  -->
<!DOCTYPE svg PUBLIC "-//W3C//DTD SVG 1.1//EN" "http://www.w3.org/Graphics/SVG/1.1/DTD/svg11.dtd">
<svg version="1.1" xmlns="http://www.w3.org/2000/svg" xmlns:xlink="http://www.w3.org/1999/xlink" x="0px" y="0px" width="24px"
	 height="24px" viewBox="0 0 24 24" enable-background="new 0 0 24 24" xml:space="preserve">
<g id="Frames-24px">
	<rect fill="none" width="24" height="24"/>
</g>
<g id="Outline">
	<path fill="#757575" d="M21,11h-5V7c0-0.552-0.448-1-1-1H9C8.448,6,8,6.448,8,7v3H3c-0.552,0-1,0.448-1,1v7c0,0.552,0.448,1,1,1h6
		h6h6c0.552,0,1-0.448,1-1v-6C22,11.448,21.552,11,21,11z M4,12h4v5H4V12z M10,8h4v9h-4V8z M20,17h-4v-4h4V17z"/>
</g>
</svg>
