<?xml version="1.0" encoding="utf-8"?>
<!-- Generator: Adobe Illustrator 16.0.0, SVG Export Plug-In . SVG Version: 6.00 Build 0)  -->
<!DOCTYPE svg PUBLIC "-//W3C//DTD SVG 1.1//EN" "http://www.w3.org/Graphics/SVG/1.1/DTD/svg11.dtd">
<svg version="1.1" xmlns="http://www.w3.org/2000/svg" xmlns:xlink="http://www.w3.org/1999/xlink" x="0px" y="0px" width="24px"
	 height="24px" viewBox="0 0 24 24" enable-background="new 0 0 24 24" xml:space="preserve">
<g id="Frames-24px">
	<rect fill="none" width="24" height="24"/>
</g>
<g id="Outline">
	<path fill="#757575" d="M20,8h-3.115c0.451-0.234,0.879-0.521,1.236-0.879c1.169-1.169,1.169-3.072,0-4.242
		c-1.134-1.133-3.108-1.133-4.242,0C12.243,4.516,12.02,7.597,12,7.943c-0.02-0.346-0.243-3.427-1.879-5.063
		c-1.134-1.133-3.11-1.132-4.242,0C5.312,3.446,5,4.199,5,5s0.312,1.555,0.878,2.121C6.236,7.479,6.663,7.765,7.115,8H4
		c-1.103,0-2,0.898-2,2v3c0,0.552,0.448,1,1,1v6c0,1.103,0.897,2,2,2h14c1.103,0,2-0.897,2-2v-6c0.552,0,1-0.448,1-1v-3
		C22,8.898,21.103,8,20,8z M8,20H5v-6h3V20z M8,12H4v-2h4V12z M7.293,5.707C7.104,5.518,7,5.267,7,5
		c0-0.266,0.104-0.518,0.293-0.707C7.482,4.104,7.732,4.001,8,4.001c0.268,0,0.519,0.104,0.708,0.293
		c0.59,0.589,0.934,1.648,1.118,2.53C8.945,6.639,7.88,6.294,7.293,5.707z M14,20h-4v-6h4V20z M14,12h-4v-2h4V12z M15.293,4.294
		c0.189-0.189,0.44-0.293,0.707-0.293s0.518,0.104,0.707,0.292c0.39,0.391,0.39,1.025,0,1.414c-0.59,0.592-1.649,0.936-2.532,1.121
		C14.358,5.943,14.703,4.884,15.293,4.294z M19,20h-3v-6h3V20z M20,12h-4v-2h4V12z"/>
</g>
</svg>
