<?xml version="1.0" encoding="utf-8"?>
<!-- Generator: Adobe Illustrator 16.0.0, SVG Export Plug-In . SVG Version: 6.00 Build 0)  -->
<!DOCTYPE svg PUBLIC "-//W3C//DTD SVG 1.1//EN" "http://www.w3.org/Graphics/SVG/1.1/DTD/svg11.dtd">
<svg version="1.1" xmlns="http://www.w3.org/2000/svg" xmlns:xlink="http://www.w3.org/1999/xlink" x="0px" y="0px" width="24px"
	 height="24px" viewBox="0 0 24 24" enable-background="new 0 0 24 24" xml:space="preserve">
<g id="Frames-24px">
	<rect fill="none" width="24" height="24"/>
</g>
<g id="Outline">
	<path fill="#757575" d="M20.308,3.695c-1.289-1.291-3.995,0.088-6.21,1.629C13.435,5.116,12.73,5.002,12,5.002c-3.86,0-7,3.14-7,7
		c0,0.73,0.113,1.434,0.322,2.097c-1.542,2.217-2.919,4.922-1.63,6.211c0.338,0.339,0.791,0.508,1.354,0.508
		c1.537,0,3.605-1.269,4.868-2.146c0.66,0.208,1.357,0.33,2.086,0.33c3.86,0,7-3.14,7-7c0-0.728-0.121-1.426-0.33-2.086
		C19.817,8.264,21.731,5.117,20.308,3.695z M12.101,16.992c0.851-0.712,1.709-1.497,2.551-2.338
		c0.842-0.842,1.626-1.701,2.338-2.551C16.936,14.778,14.776,16.938,12.101,16.992z M17.937,8.313
		c-0.002-0.004-0.004-0.008-0.006-0.011c-1.194,1.825-2.545,3.498-4.34,5.292c-1.562,1.561-3.2,2.97-5.292,4.34
		c0.004,0.002,0.008,0.003,0.011,0.005c-0.595,0.377-3.072,1.796-3.558,1.312c-0.176-0.177-0.101-1.319,1.313-3.554
		c0.284,0.455,0.612,0.878,0.989,1.255c0.543-0.338,1.116-0.737,1.701-1.177C7.69,14.857,7,13.516,7,12.002c0-2.757,2.243-5,5-5
		c1.513,0,2.855,0.69,3.773,1.756c0.44-0.586,0.839-1.158,1.176-1.702c-0.377-0.377-0.8-0.705-1.254-0.988
		c2.233-1.414,3.377-1.49,3.552-1.313C19.731,5.238,18.313,7.718,17.937,8.313z"/>
</g>
</svg>
