<?xml version="1.0" encoding="utf-8"?>
<!-- Generator: Adobe Illustrator 16.0.0, SVG Export Plug-In . SVG Version: 6.00 Build 0)  -->
<!DOCTYPE svg PUBLIC "-//W3C//DTD SVG 1.1//EN" "http://www.w3.org/Graphics/SVG/1.1/DTD/svg11.dtd">
<svg version="1.1" xmlns="http://www.w3.org/2000/svg" xmlns:xlink="http://www.w3.org/1999/xlink" x="0px" y="0px" width="24px"
	 height="24.002px" viewBox="0 0 24 24.002" enable-background="new 0 0 24 24.002" xml:space="preserve">
<g id="Frames-24px">
	<rect fill="none" width="24" height="24.002"/>
</g>
<g id="Outline">
	<g>
		<path fill="#757575" d="M13.999,7.001c-0.735,0-1.452,0.332-2,0.846c-0.548-0.514-1.265-0.846-2-0.846c-2.393,0-4,1.607-4,3.999
			c0,3.467,4.924,6.521,5.485,6.857C11.643,17.953,11.821,18,11.999,18s0.356-0.047,0.515-0.143
			c0.562-0.337,5.485-3.391,5.485-6.857C17.999,8.608,16.392,7.001,13.999,7.001z M11.999,15.811c-1.422-0.965-4-3.072-4-4.811
			c0-0.601,0.195-1.999,2-1.999c0.449,0,1,0.551,1,0.999c0,0.552,0.448,1,1,1s1-0.448,1-1c0-0.448,0.551-0.999,1-0.999
			c1.805,0,2,1.398,2,1.999C15.999,12.738,13.421,14.846,11.999,15.811z"/>
		<path fill="#757575" d="M23.999,11h-2.051c-0.47-4.717-4.232-8.478-8.949-8.948V0h-2v2.052C6.282,2.522,2.52,6.283,2.05,11h-2.051
			v2H2.05c0.47,4.717,4.232,8.479,8.949,8.949V24h2v-2.051c4.717-0.471,8.479-4.232,8.949-8.949h2.051V11z M12.999,19.931V19h-2
			v0.931C7.388,19.478,4.522,16.612,4.068,13h0.931v-2H4.068c0.454-3.611,3.319-6.477,6.931-6.93V5h2V4.07
			C16.61,4.523,19.476,7.389,19.93,11h-0.931v2h0.931C19.476,16.612,16.611,19.478,12.999,19.931z"/>
	</g>
</g>
</svg>
