<?xml version="1.0" encoding="utf-8"?>
<!-- Generator: Adobe Illustrator 16.0.0, SVG Export Plug-In . SVG Version: 6.00 Build 0)  -->
<!DOCTYPE svg PUBLIC "-//W3C//DTD SVG 1.1//EN" "http://www.w3.org/Graphics/SVG/1.1/DTD/svg11.dtd">
<svg version="1.1" xmlns="http://www.w3.org/2000/svg" xmlns:xlink="http://www.w3.org/1999/xlink" x="0px" y="0px" width="24px"
	 height="24px" viewBox="0 0 24 24" enable-background="new 0 0 24 24" xml:space="preserve">
<g id="Frames-24px">
	<rect fill="none" width="24" height="24"/>
</g>
<g id="Outline">
	<g>
		<path fill="#757575" d="M13.499,2c-0.828,0-1.5,0.672-1.5,1.5c0-0.828-0.672-1.5-1.5-1.5s-1.5,0.672-1.5,1.5c0,1.5,3,4.5,3,4.5
			s3-3,3-4.5C14.999,2.672,14.327,2,13.499,2z"/>
		<path fill="#757575" d="M21.999,7c0-1.654-1.346-3-3-3s-3,1.346-3,3s1.346,3,3,3S21.999,8.654,21.999,7z M18.999,8
			c-0.551,0-1-0.449-1-1c0-0.551,0.449-1,1-1s1,0.449,1,1C19.999,7.551,19.55,8,18.999,8z"/>
		<path fill="#757575" d="M18.999,10c-2.757,0-5,2.243-5,5v3c0,0.552,0.448,1,1,1h1v4c0,0.552,0.448,1,1,1h4c0.552,0,1-0.448,1-1v-4
			h1c0.552,0,1-0.448,1-1v-3C23.999,12.243,21.756,10,18.999,10z M21.999,17h-1c-0.552,0-1,0.448-1,1v4h-2v-4c0-0.552-0.448-1-1-1
			h-1v-2c0-1.654,1.346-3,3-3s3,1.346,3,3V17z"/>
		<path fill="#757575" d="M7.999,8c0-1.654-1.346-3-3-3s-3,1.346-3,3s1.346,3,3,3S7.999,9.654,7.999,8z M4.999,9
			c-0.551,0-1-0.449-1-1c0-0.551,0.449-1,1-1s1,0.449,1,1C5.999,8.551,5.55,9,4.999,9z"/>
		<path fill="#757575" d="M8.454,13.801C8.125,12.179,6.671,11,4.999,11s-3.125,1.179-3.442,2.746
			c-0.635,2.414-0.362,1.345-1.528,6.011c-0.074,0.295-0.009,0.608,0.175,0.85S0.673,20.993,0.978,21c0,0,0.744,0.016,1.332,0.018
			c0.191,0.573,0.479,1.465,0.736,2.283C3.176,23.717,3.563,24,3.999,24h2c0.437,0,0.823-0.283,0.954-0.699
			c0.258-0.818,0.545-1.709,0.737-2.283C8.276,21.016,9.021,21,9.021,21c0.304-0.007,0.589-0.151,0.773-0.393
			s0.249-0.554,0.175-0.85C8.839,15.234,9.032,15.984,8.454,13.801z M6.998,19c-0.734,0-0.783,0-1.732,3H4.732
			c-0.911-2.88-0.995-3-1.651-3c-0.077,0-0.575,0.002-0.806,0c0,0,0.637-2.533,1.229-4.801C3.643,13.516,4.286,13,4.999,13
			s1.356,0.516,1.507,1.254C7.063,16.368,7.723,19,7.723,19C7.493,19.002,7.057,19,6.998,19z"/>
	</g>
</g>
</svg>
