<?xml version="1.0" encoding="utf-8"?>
<!-- Generator: Adobe Illustrator 16.0.0, SVG Export Plug-In . SVG Version: 6.00 Build 0)  -->
<!DOCTYPE svg PUBLIC "-//W3C//DTD SVG 1.1//EN" "http://www.w3.org/Graphics/SVG/1.1/DTD/svg11.dtd">
<svg version="1.1" xmlns="http://www.w3.org/2000/svg" xmlns:xlink="http://www.w3.org/1999/xlink" x="0px" y="0px"
	 width="24.001px" height="24px" viewBox="0 0 24.001 24" enable-background="new 0 0 24.001 24" xml:space="preserve">
<g id="Frames-24px">
	<rect fill="none" width="24.001" height="24"/>
</g>
<g id="Outline">
	<path fill="#757575" d="M21.707,11.293l-3-3l-1.414,1.414L18.586,11H5.414l4.964-4.964c2.004,0.183,3.683,1.774,4.331,3.964h2.061
		c-0.78-3.445-3.515-6-6.77-6C8.897,4,8,3.103,8,2H6c0,1.511,0.853,2.813,2.092,3.494l-5.799,5.799
		c-0.391,0.391-0.391,1.023,0,1.414l5.799,5.8C6.853,19.187,6,20.489,6,22h2c0-1.104,0.897-2,2-2c3.255,0,5.989-2.555,6.77-6h-2.061
		c-0.648,2.188-2.326,3.781-4.331,3.964L5.414,13h13.172l-1.293,1.293l1.414,1.414l3-3C22.098,12.316,22.098,11.684,21.707,11.293z"
		/>
</g>
</svg>
