<?xml version="1.0" encoding="utf-8"?>
<!-- Generator: Adobe Illustrator 16.0.0, SVG Export Plug-In . SVG Version: 6.00 Build 0)  -->
<!DOCTYPE svg PUBLIC "-//W3C//DTD SVG 1.1//EN" "http://www.w3.org/Graphics/SVG/1.1/DTD/svg11.dtd">
<svg version="1.1" xmlns="http://www.w3.org/2000/svg" xmlns:xlink="http://www.w3.org/1999/xlink" x="0px" y="0px" width="24px"
	 height="24px" viewBox="0 0 24 24" enable-background="new 0 0 24 24" xml:space="preserve">
<g id="Frames-24px">
	<rect fill="none" width="24" height="24"/>
</g>
<g id="Outline">
	<path fill="#757575" d="M19,13.546c-1.561,0-2.901,0.907-3.56,2.215l-2.099-3.226c1.65-2.645,3.747-6.051,6.497-10.444L18.162,1
		L12,10.472L5.838,1L4.162,2.091c2.75,4.393,4.847,7.799,6.497,10.444L8.56,15.761C7.901,14.453,6.561,13.546,5,13.546
		c-2.206,0-4,1.794-4,4c0,2.205,1.794,4,4,4c2.213,0,3.125-0.769,7-6.878c3.875,6.109,4.787,6.878,7,6.878c2.206,0,4-1.795,4-4
		C23,15.34,21.206,13.546,19,13.546z M6.414,18.96C6.036,19.338,5.534,19.546,5,19.546c-1.103,0-2-0.898-2-2c0-1.103,0.897-2,2-2
		s2,0.897,2,2C7,18.082,6.792,18.582,6.414,18.96z M19,19.546c-0.534,0-1.036-0.208-1.414-0.586C17.208,18.582,17,18.082,17,17.546
		c0-1.103,0.897-2,2-2s2,0.897,2,2C21,18.648,20.103,19.546,19,19.546z"/>
</g>
</svg>
