<?xml version="1.0" encoding="utf-8"?>
<!-- Generator: Adobe Illustrator 16.0.0, SVG Export Plug-In . SVG Version: 6.00 Build 0)  -->
<!DOCTYPE svg PUBLIC "-//W3C//DTD SVG 1.1//EN" "http://www.w3.org/Graphics/SVG/1.1/DTD/svg11.dtd">
<svg version="1.1" xmlns="http://www.w3.org/2000/svg" xmlns:xlink="http://www.w3.org/1999/xlink" x="0px" y="0px" width="24px"
	 height="24px" viewBox="0 0 24 24" enable-background="new 0 0 24 24" xml:space="preserve">
<g id="Frames-24px">
	<rect fill="none" width="24" height="24"/>
</g>
<g id="Solid">
	<path fill="#757575" d="M20,8h-4V4c0-1.102-0.897-2-2-2H4C2.897,2,2,2.898,2,4v10c0,1.103,0.897,2,2,2h4v4c0,1.103,0.897,2,2,2h10
		c1.103,0,2-0.897,2-2V10C22,8.898,21.103,8,20,8z M4,4h10l0.001,10H4V4z M20,20H10v-4h4c1.103,0,2-0.897,2-2v-4h4V20z"/>
</g>
</svg>
