<?xml version="1.0" encoding="utf-8"?>
<!-- Generator: Adobe Illustrator 16.0.0, SVG Export Plug-In . SVG Version: 6.00 Build 0)  -->
<!DOCTYPE svg PUBLIC "-//W3C//DTD SVG 1.1//EN" "http://www.w3.org/Graphics/SVG/1.1/DTD/svg11.dtd">
<svg version="1.1" xmlns="http://www.w3.org/2000/svg" xmlns:xlink="http://www.w3.org/1999/xlink" x="0px" y="0px" width="24px"
	 height="24px" viewBox="0 0 24 24" enable-background="new 0 0 24 24" xml:space="preserve">
<g id="Frames-24px">
	<rect fill="none" width="24" height="24"/>
</g>
<g id="Solid">
	<g>
		<path fill="#757575" d="M11,17.898C10.385,17.961,9.722,18,9,18c-4.547,0-7-1.418-7-2v-1.4C3.736,15.522,6.374,16,9,16
			c0.671,0,1.343-0.031,2-0.093v-2.008C10.385,13.961,9.722,14,9,14c-4.547,0-7-1.418-7-2v-1.4C3.736,11.522,6.374,12,9,12
			c1.375,0,2.75-0.134,4-0.392V9.569C11.934,9.823,10.6,10,9,10c-4.547,0-7-1.418-7-2V6.6C3.736,7.522,6.374,8,9,8
			s5.264-0.478,7-1.4V9h2V4c0-2.626-4.527-4-9-4S0,1.374,0,4v12c0,2.626,4.527,4,9,4c0.671,0,1.342-0.035,2-0.096V17.898z M9,2
			c4.547,0,7,1.419,7,2c0,0.582-2.453,2-7,2S2,4.582,2,4C2,3.419,4.453,2,9,2z"/>
		<g>
			<path fill="#757575" d="M18,13c1.103,0,2,0.897,2,2h2c0-2.206-1.794-4-4-4s-4,1.794-4,4h2C16,13.897,16.897,13,18,13z"/>
			<path fill="#757575" d="M24,18v-2h-3h-6h-3v2h2v1h-2v2h2c0,0.334,0.167,0.646,0.445,0.832l3,2C17.613,23.944,17.807,24,18,24
				s0.387-0.056,0.555-0.168l3-2C21.833,21.646,22,21.334,22,21h2v-2h-2v-1H24z M20,20.465l-2,1.333l-2-1.333V18h4V20.465z"/>
		</g>
	</g>
</g>
</svg>
