<?xml version="1.0" encoding="utf-8"?>
<!-- Generator: Adobe Illustrator 16.0.0, SVG Export Plug-In . SVG Version: 6.00 Build 0)  -->
<!DOCTYPE svg PUBLIC "-//W3C//DTD SVG 1.1//EN" "http://www.w3.org/Graphics/SVG/1.1/DTD/svg11.dtd">
<svg version="1.1" xmlns="http://www.w3.org/2000/svg" xmlns:xlink="http://www.w3.org/1999/xlink" x="0px" y="0px" width="24px"
	 height="24px" viewBox="0 0 24 24" enable-background="new 0 0 24 24" xml:space="preserve">
<g id="Frames-24px">
	<rect fill="none" width="24" height="24"/>
</g>
<g id="Solid">
	<g>
		<path fill="#757575" d="M18,15V4c0-2.626-4.527-4-9-4S0,1.374,0,4v12c0,2.626,4.527,4,9,4c2.161,0,4.33-0.323,6-0.952v-2.169
			C13.885,17.44,11.856,18,9,18c-4.547,0-7-1.418-7-2v-1.4C3.736,15.522,6.374,16,9,16s5.264-0.478,7-1.4V15H18z M9,2
			c4.547,0,7,1.419,7,2c0,0.582-2.453,2-7,2S2,4.582,2,4C2,3.419,4.453,2,9,2z M2,6.6C3.736,7.522,6.374,8,9,8s5.264-0.478,7-1.4V8
			c0,0.582-2.453,2-7,2S2,8.582,2,8V6.6z M2,12v-1.4C3.736,11.522,6.374,12,9,12s5.264-0.478,7-1.4V12c0,0.582-2.453,2-7,2
			S2,12.582,2,12z"/>
		<polygon fill="#757575" points="23.707,17.707 22.293,16.293 20,18.586 17.707,16.293 16.293,17.707 18.586,20 16.293,22.293 
			17.707,23.707 20,21.414 22.293,23.707 23.707,22.293 21.414,20 		"/>
	</g>
</g>
</svg>
