<?xml version="1.0" encoding="utf-8"?>
<!-- Generator: Adobe Illustrator 16.0.0, SVG Export Plug-In . SVG Version: 6.00 Build 0)  -->
<!DOCTYPE svg PUBLIC "-//W3C//DTD SVG 1.1//EN" "http://www.w3.org/Graphics/SVG/1.1/DTD/svg11.dtd">
<svg version="1.1" xmlns="http://www.w3.org/2000/svg" xmlns:xlink="http://www.w3.org/1999/xlink" x="0px" y="0px" width="24px"
	 height="24px" viewBox="0 0 24 24" enable-background="new 0 0 24 24" xml:space="preserve">
<g id="Frames-24px">
	<rect fill="none" width="24" height="24"/>
</g>
<g id="Solid">
	<g>
		<path fill="#757575" d="M14,17.286C12.824,17.682,11.149,18,9,18c-4.547,0-7-1.418-7-2v-1.4C3.736,15.522,6.374,16,9,16
			s5.264-0.478,7-1.4V16h2V4c0-2.626-4.527-4-9-4S0,1.374,0,4v12c0,2.626,4.527,4,9,4c1.751,0,3.507-0.214,5-0.628V17.286z M9,2
			c4.547,0,7,1.419,7,2c0,0.582-2.453,2-7,2S2,4.582,2,4C2,3.419,4.453,2,9,2z M2,6.6C3.736,7.522,6.374,8,9,8s5.264-0.478,7-1.4V8
			c0,0.582-2.453,2-7,2S2,8.582,2,8V6.6z M2,10.6C3.736,11.522,6.374,12,9,12s5.264-0.478,7-1.4V12c0,0.582-2.453,2-7,2
			s-7-1.418-7-2V10.6z"/>
		<g>
			<g>
				<g>
					<rect x="17" y="19" fill="#757575" width="6" height="2"/>
				</g>
			</g>
		</g>
	</g>
</g>
</svg>
