<?xml version="1.0" encoding="utf-8"?>
<!-- Generator: Adobe Illustrator 16.0.0, SVG Export Plug-In . SVG Version: 6.00 Build 0)  -->
<!DOCTYPE svg PUBLIC "-//W3C//DTD SVG 1.1//EN" "http://www.w3.org/Graphics/SVG/1.1/DTD/svg11.dtd">
<svg version="1.1" xmlns="http://www.w3.org/2000/svg" xmlns:xlink="http://www.w3.org/1999/xlink" x="0px" y="0px" width="24px"
	 height="24px" viewBox="0 0 24 24" enable-background="new 0 0 24 24" xml:space="preserve">
<g id="Frames-24px">
	<rect fill="none" width="24" height="24"/>
</g>
<g id="Outline">
	<g>
		<g>
			<path fill="#757575" d="M18.01,24h-12v-2c0-2.85,2.58-5,6.001-5c3.42,0,5.999,2.15,5.999,5V24z M8.01,22h8
				c0-1.738-1.682-3-3.999-3C9.692,19,8.01,20.262,8.01,22z"/>
		</g>
		<path fill="#757575" d="M8.477,15.68c-1.374-1.765-1.27-4.314,0.351-5.936c0.85-0.851,1.98-1.318,3.182-1.318
			c1.202,0,2.333,0.468,3.183,1.318c1.62,1.621,1.724,4.17,0.351,5.935c0.646,0.265,1.238,0.6,1.767,1
			c1.796-2.536,1.566-6.078-0.704-8.349c-1.228-1.228-2.86-1.904-4.597-1.904c-1.736,0-3.369,0.676-4.596,1.904
			c-2.27,2.271-2.5,5.813-0.704,8.349C7.238,16.279,7.831,15.944,8.477,15.68z"/>
		<path fill="#757575" d="M5.581,17.745c-2.311-3.13-2.059-7.57,0.773-10.402c3.119-3.119,8.194-3.119,11.313,0
			c2.832,2.833,3.083,7.273,0.772,10.402c0.464,0.545,0.834,1.157,1.099,1.819c3.424-3.923,3.279-9.899-0.458-13.637
			c-3.898-3.898-10.243-3.898-14.142,0c-3.736,3.737-3.882,9.713-0.458,13.636C4.746,18.9,5.117,18.29,5.581,17.745z"/>
		<g>
			<path fill="#757575" d="M12.01,16c-1.654,0-3-1.346-3-3s1.346-3,3-3s3,1.346,3,3S13.664,16,12.01,16z M12.01,12
				c-0.551,0-1,0.449-1,1c0,0.551,0.449,1,1,1s1-0.449,1-1C13.01,12.449,12.561,12,12.01,12z"/>
		</g>
	</g>
</g>
</svg>
