<?xml version="1.0" encoding="utf-8"?>
<!-- Generator: Adobe Illustrator 16.0.0, SVG Export Plug-In . SVG Version: 6.00 Build 0)  -->
<!DOCTYPE svg PUBLIC "-//W3C//DTD SVG 1.1//EN" "http://www.w3.org/Graphics/SVG/1.1/DTD/svg11.dtd">
<svg version="1.1" xmlns="http://www.w3.org/2000/svg" xmlns:xlink="http://www.w3.org/1999/xlink" x="0px" y="0px" width="24px"
	 height="24px" viewBox="0 0 24 24" enable-background="new 0 0 24 24" xml:space="preserve">
<g id="Frames-24px">
	<rect fill="none" width="24" height="24"/>
</g>
<g id="Outline">
	<path fill="#757575" d="M20,3v1.199L4,7.754V7H2v8h2v-0.753l1,0.222V18c0,0.459,0.313,0.859,0.757,0.971l4,1
		C9.837,19.991,9.919,20,10,20c0.31,0,0.608-0.144,0.8-0.4l2.47-3.293L20,17.802V19h2V3H20z M9.598,17.869L7,17.219v-2.306
		l4.127,0.917L9.598,17.869z M4,12.198V9.803l16-3.556v9.507L4,12.198z"/>
</g>
</svg>
