<?xml version="1.0" encoding="utf-8"?>
<!-- Generator: Adobe Illustrator 16.0.0, SVG Export Plug-In . SVG Version: 6.00 Build 0)  -->
<!DOCTYPE svg PUBLIC "-//W3C//DTD SVG 1.1//EN" "http://www.w3.org/Graphics/SVG/1.1/DTD/svg11.dtd">
<svg version="1.1" xmlns="http://www.w3.org/2000/svg" xmlns:xlink="http://www.w3.org/1999/xlink" x="0px" y="0px" width="24px"
	 height="24px" viewBox="0 0 24 24" enable-background="new 0 0 24 24" xml:space="preserve">
<g id="Frames-24px">
	<rect fill="none" width="24" height="24"/>
</g>
<g id="Solid">
	<g>
		<path fill="#757575" d="M22,10h-3.42l-3.712-6.497l-1.736,0.992L16.277,10H7.723l3.145-5.504L9.132,3.504L5.42,10H2v2h1.198
			l1.826,8.217C5.125,20.675,5.531,21,6,21h12c0.469,0,0.875-0.326,0.976-0.783L20.802,12H22V10z M17.198,19H6.802l-1.556-7h13.507
			L17.198,19z"/>
		<rect x="11" y="13" fill="#757575" width="2" height="5"/>
		<rect x="14" y="13" fill="#757575" width="2" height="5"/>
		<rect x="8" y="13" fill="#757575" width="2" height="5"/>
	</g>
</g>
</svg>
