<?xml version="1.0" encoding="utf-8"?>
<!-- Generator: Adobe Illustrator 16.0.0, SVG Export Plug-In . SVG Version: 6.00 Build 0)  -->
<!DOCTYPE svg PUBLIC "-//W3C//DTD SVG 1.1//EN" "http://www.w3.org/Graphics/SVG/1.1/DTD/svg11.dtd">
<svg version="1.1" xmlns="http://www.w3.org/2000/svg" xmlns:xlink="http://www.w3.org/1999/xlink" x="0px" y="0px" width="24px"
	 height="24px" viewBox="0 0 24 24" enable-background="new 0 0 24 24" xml:space="preserve">
<g id="Frames-24px">
	<rect fill="none" width="24" height="24"/>
</g>
<g id="Solid">
	<g>
		<path fill="#757575" d="M17.691,14l1.111-5H20V7h-3.42l-3.712-6.497l-1.736,0.992L14.277,7H5.723l3.145-5.504L7.132,0.504L3.42,7
			H0v2h1.198l1.826,8.217C3.125,17.675,3.531,18,4,18h9v-2H4.802L3.247,9h13.507l-1.111,5H17.691z"/>
		<polygon fill="#757575" points="24,19 21,19 21,16 19,16 19,19 16,19 16,21 19,21 19,24 21,24 21,21 24,21 		"/>
	</g>
</g>
</svg>
