<?xml version="1.0" encoding="utf-8"?>
<!-- Generator: Adobe Illustrator 16.0.0, SVG Export Plug-In . SVG Version: 6.00 Build 0)  -->
<!DOCTYPE svg PUBLIC "-//W3C//DTD SVG 1.1//EN" "http://www.w3.org/Graphics/SVG/1.1/DTD/svg11.dtd">
<svg version="1.1" xmlns="http://www.w3.org/2000/svg" xmlns:xlink="http://www.w3.org/1999/xlink" x="0px" y="0px" width="24px"
	 height="24.002px" viewBox="0 0 24 24.002" enable-background="new 0 0 24 24.002" xml:space="preserve">
<g id="Frames-24px">
	<rect y="0" fill="none" width="24" height="24.002"/>
</g>
<g id="Outline">
	<g>
		<path fill="#757575" d="M21.999,6c0-1.655-1.346-3-3-3s-3,1.345-3,3c0,1.654,1.346,3,3,3S21.999,7.654,21.999,6z M18.999,7
			c-0.551,0-1-0.449-1-1c0-0.551,0.449-1,1-1s1,0.449,1,1C19.999,6.551,19.55,7,18.999,7z"/>
		<path fill="#757575" d="M18.999,9c-2.757,0-5,2.243-5,5v2c0,0.551,0.448,1,1,1h1v4c0,0.551,0.448,1,1,1h4c0.552,0,1-0.449,1-1v-4
			h1c0.552,0,1-0.449,1-1v-2C23.999,11.243,21.756,9,18.999,9z M21.999,15h-1c-0.552,0-1,0.448-1,1v4h-2v-4c0-0.552-0.448-1-1-1h-1
			v-1c0-1.655,1.346-3,3-3s3,1.345,3,3V15z"/>
		<rect x="10.999" y="2" fill="#757575" width="2" height="20"/>
		<path fill="#757575" d="M7.999,6c0-1.655-1.346-3-3-3s-3,1.345-3,3c0,1.654,1.346,3,3,3S7.999,7.654,7.999,6z M4.999,7
			c-0.551,0-1-0.449-1-1c0-0.551,0.449-1,1-1s1,0.449,1,1C5.999,6.551,5.55,7,4.999,7z"/>
		<path fill="#757575" d="M8.454,11.801C8.125,10.178,6.671,9,4.999,9s-3.125,1.178-3.442,2.746
			c-0.652,2.482-0.342,1.267-1.528,6.011c-0.074,0.295-0.009,0.608,0.175,0.85S0.673,18.993,0.978,19c0,0,0.745,0.015,1.332,0.018
			c0.191,0.573,0.478,1.465,0.736,2.283C3.176,21.717,3.563,22,3.999,22h2c0.437,0,0.823-0.283,0.954-0.699
			c0.258-0.818,0.545-1.71,0.736-2.283C8.276,19.015,9.021,19,9.021,19c0.304-0.007,0.589-0.152,0.773-0.394s0.249-0.555,0.175-0.85
			C8.84,13.24,9.05,14.051,8.454,11.801z M6.998,17c-0.734,0-0.784,0-1.732,3H4.732c-0.911-2.881-0.994-3-1.652-3
			c-0.078,0-0.576,0.019-0.806,0.018l0.243-0.972c0.453-1.816,0.453-1.816,0.721-2.832l0.265-1.015C3.643,11.515,4.286,11,4.999,11
			s1.356,0.515,1.507,1.254l0.252,0.96c0.268,1.016,0.268,1.016,0.721,2.832l0.243,0.972C7.494,17.02,7.056,17,6.998,17z"/>
	</g>
</g>
</svg>
