<?xml version="1.0" encoding="utf-8"?>
<!-- Generator: Adobe Illustrator 16.0.0, SVG Export Plug-In . SVG Version: 6.00 Build 0)  -->
<!DOCTYPE svg PUBLIC "-//W3C//DTD SVG 1.1//EN" "http://www.w3.org/Graphics/SVG/1.1/DTD/svg11.dtd">
<svg version="1.1" xmlns="http://www.w3.org/2000/svg" xmlns:xlink="http://www.w3.org/1999/xlink" x="0px" y="0px" width="24px"
	 height="24px" viewBox="0 0 24 24" enable-background="new 0 0 24 24" xml:space="preserve">
<g id="Frames-24px">
	<rect fill="none" width="24" height="24"/>
</g>
<g id="Outline">
	<g>
		<path fill="#757575" d="M17.537,6.239L15.754,0H8.246L6.463,6.239C4.948,7.696,4,9.737,4,12s0.948,4.304,2.463,5.761L8.246,24
			h7.509l1.783-6.239C19.052,16.304,20,14.263,20,12S19.052,7.696,17.537,6.239z M9.754,2h4.491l0.738,2.583
			C14.061,4.21,13.055,4,12,4S9.939,4.21,9.016,4.583L9.754,2z M14.246,22H9.754l-0.738-2.583C9.939,19.79,10.945,20,12,20
			s2.061-0.21,2.984-0.583L14.246,22z M11.999,17.998c-3.313,0-6-2.686-6-6c0-3.312,2.687-6,6-6s6,2.688,6,6
			C17.999,15.312,15.313,17.998,11.999,17.998z"/>
		<polygon fill="#757575" points="9,15 12,9 15,15 12,13 		"/>
	</g>
</g>
</svg>
