<?xml version="1.0" encoding="utf-8"?>
<!-- Generator: Adobe Illustrator 16.0.0, SVG Export Plug-In . SVG Version: 6.00 Build 0)  -->
<!DOCTYPE svg PUBLIC "-//W3C//DTD SVG 1.1//EN" "http://www.w3.org/Graphics/SVG/1.1/DTD/svg11.dtd">
<svg version="1.1" xmlns="http://www.w3.org/2000/svg" xmlns:xlink="http://www.w3.org/1999/xlink" x="0px" y="0px" width="24px"
	 height="24px" viewBox="0 0 24 24" enable-background="new 0 0 24 24" xml:space="preserve">
<g id="Frames-24px">
	<rect fill="none" width="24" height="24"/>
</g>
<g id="Solid">
	<g>
		<path fill="#757575" d="M15.6,7H14.2v0.735c-0.798,0.163-1.4,0.869-1.4,1.715c0,0.964,0.785,1.75,1.75,1.75h0.7
			c0.192,0,0.35,0.158,0.35,0.35c0,0.193-0.157,0.351-0.35,0.351H12.8v1.4h1.4V14H15.6v-0.735c0.798-0.163,1.4-0.87,1.4-1.715
			c0-0.965-0.785-1.75-1.75-1.75h-0.7c-0.192,0-0.35-0.158-0.35-0.35c0-0.194,0.157-0.351,0.35-0.351H17V7.7h-1.4V7z"/>
		<path fill="#757575" d="M11.2,11.55c0-0.965-0.785-1.75-1.75-1.75h-0.7c-0.193,0-0.35-0.158-0.35-0.35
			C8.4,9.257,8.557,9.1,8.75,9.1h2.45V7.7H9.8V7H8.4v0.735C7.603,7.898,7,8.604,7,9.451c0,0.964,0.785,1.75,1.75,1.75h0.7
			c0.192,0,0.35,0.158,0.35,0.35c0,0.193-0.157,0.351-0.35,0.351H7v1.4h1.4V14H9.8v-0.735C10.598,13.103,11.2,12.396,11.2,11.55z"/>
		<path fill="#757575" d="M12,2C6.486,2,2,6.486,2,12c0,5.515,4.486,10,10,10s10-4.485,10-10C22,6.486,17.514,2,12,2z M12,20
			c-4.411,0-8-3.589-8-8s3.589-8,8-8s8,3.589,8,8S16.411,20,12,20z"/>
		<rect x="10" y="15" fill="#757575" width="4" height="2"/>
	</g>
</g>
</svg>
