<?xml version="1.0" encoding="utf-8"?>
<!-- Generator: Adobe Illustrator 16.0.0, SVG Export Plug-In . SVG Version: 6.00 Build 0)  -->
<!DOCTYPE svg PUBLIC "-//W3C//DTD SVG 1.1//EN" "http://www.w3.org/Graphics/SVG/1.1/DTD/svg11.dtd">
<svg version="1.1" xmlns="http://www.w3.org/2000/svg" xmlns:xlink="http://www.w3.org/1999/xlink" x="0px" y="0px" width="24px"
	 height="24px" viewBox="0 0 24 24" enable-background="new 0 0 24 24" xml:space="preserve">
<g id="Frames-24px">
	<rect fill="none" width="24" height="24"/>
</g>
<g id="Outline">
	<path fill="#757575" d="M15.936,13.228c-0.378,0.038-0.74,0.102-1.089,0.178c0.657-0.428,1.339-0.95,1.976-1.587
		c2.343-2.344,3.182-5.304,3.182-5.304s-2.96,0.839-5.304,3.182c-0.692,0.692-1.25,1.437-1.696,2.145V3c0-0.552-0.448-1-1-1h-5
		c-0.552,0-1,0.448-1,1v18c0,0.552,0.448,1,1,1h5c0.552,0,1-0.448,1-1v-5.491c0.881,0.18,1.985,0.31,3.18,0.19
		C18.912,15.424,21,13.966,21,13.966S18.664,12.954,15.936,13.228z M11.004,14h-3V9h3V14z M11.004,4v3h-3V4H11.004z M8.004,20v-4h3
		v4H8.004z"/>
</g>
</svg>
