<?xml version="1.0" encoding="utf-8"?>
<!-- Generator: Adobe Illustrator 16.0.0, SVG Export Plug-In . SVG Version: 6.00 Build 0)  -->
<!DOCTYPE svg PUBLIC "-//W3C//DTD SVG 1.1//EN" "http://www.w3.org/Graphics/SVG/1.1/DTD/svg11.dtd">
<svg version="1.1" xmlns="http://www.w3.org/2000/svg" xmlns:xlink="http://www.w3.org/1999/xlink" x="0px" y="0px" width="24px"
	 height="24px" viewBox="0 0 24 24" enable-background="new 0 0 24 24" xml:space="preserve">
<g id="Frames-24px">
	<rect fill="none" width="24" height="24"/>
</g>
<g id="Outline">
	<path fill="#757575" d="M20.028,7.476c-0.099,0.002-2.101,0.046-4.063,0.733c-1.055-2.643-3.1-4.784-3.215-4.904l-0.719-0.743
		l-0.719,0.743c-0.116,0.12-2.16,2.261-3.215,4.904C6.134,7.522,4.134,7.478,4.034,7.476L3,7.458l0.017,1.034
		c0.003,0.184,0.1,4.525,2.307,6.733c1.227,1.227,2.782,1.526,4.007,1.526c0.467,0,0.88-0.044,1.215-0.096
		c0.181,0.139,0.341,0.25,0.485,0.346V22h2v-4.998c0.144-0.096,0.304-0.207,0.485-0.346c0.334,0.052,0.748,0.096,1.215,0.096
		c1.225,0,2.78-0.3,4.008-1.526c2.207-2.208,2.303-6.55,2.306-6.733l0.017-1.034L20.028,7.476z M12.034,5.524
		c1.069,1.333,2.553,3.617,2.553,5.587c0,2.095-1.704,3.553-2.556,4.15c-0.852-0.598-2.556-2.055-2.556-4.15
		C9.475,9.018,11.07,6.721,12.034,5.524z M5.107,9.566c0.683,0.086,1.589,0.255,2.452,0.575c-0.049,0.323-0.084,0.646-0.084,0.97
		c0,1.444,0.516,2.642,1.178,3.591c-0.661-0.091-1.361-0.337-1.915-0.89C5.729,12.802,5.279,10.898,5.107,9.566z M17.324,13.811
		c-0.556,0.557-1.256,0.803-1.917,0.895c0.664-0.95,1.18-2.148,1.18-3.594c0-0.323-0.035-0.646-0.083-0.967
		c0.861-0.317,1.767-0.49,2.451-0.576C18.782,10.899,18.332,12.802,17.324,13.811z"/>
</g>
</svg>
