<?xml version="1.0" encoding="utf-8"?>
<!-- Generator: Adobe Illustrator 16.0.0, SVG Export Plug-In . SVG Version: 6.00 Build 0)  -->
<!DOCTYPE svg PUBLIC "-//W3C//DTD SVG 1.1//EN" "http://www.w3.org/Graphics/SVG/1.1/DTD/svg11.dtd">
<svg version="1.1" xmlns="http://www.w3.org/2000/svg" xmlns:xlink="http://www.w3.org/1999/xlink" x="0px" y="0px" width="24px"
	 height="24.001px" viewBox="0 0 24 24.001" enable-background="new 0 0 24 24.001" xml:space="preserve">
<g id="Frames-24px">
	<rect fill="none" width="24" height="24.001"/>
</g>
<g id="Outline">
	<g>
		<path fill="#757575" d="M2.999,12c0,1.104,0.896,2,2,2s2-0.896,2-2c0-1.5-2-4-2-4S2.999,10.5,2.999,12z"/>
		<path fill="#757575" d="M14.999,7.102V4h3V2H8.585L6.292,4.293l1.414,1.414L9.416,4h3.583v3.102c-2.279,0.464-4,2.484-4,4.898v8
			c0,0.552,0.448,1,1,1h8c0.552,0,1-0.448,1-1v-8C18.999,9.586,17.278,7.566,14.999,7.102z M16.999,19h-6v-7c0-1.654,1.346-3,3-3
			s3,1.346,3,3V19z"/>
	</g>
</g>
</svg>
