<?xml version="1.0" encoding="utf-8"?>
<!-- Generator: Adobe Illustrator 16.0.0, SVG Export Plug-In . SVG Version: 6.00 Build 0)  -->
<!DOCTYPE svg PUBLIC "-//W3C//DTD SVG 1.1//EN" "http://www.w3.org/Graphics/SVG/1.1/DTD/svg11.dtd">
<svg version="1.1" xmlns="http://www.w3.org/2000/svg" xmlns:xlink="http://www.w3.org/1999/xlink" x="0px" y="0px" width="24px"
	 height="24px" viewBox="0 0 24 24" enable-background="new 0 0 24 24" xml:space="preserve">
<g id="Frames-24px">
	<rect fill="none" width="24" height="24"/>
</g>
<g id="Solid">
	<g>
		<path fill="#757575" d="M11.764,4.152c-0.739-0.306-1.615-0.131-2.178,0.434L6.479,9H4c-1.103,0-2,0.898-2,2v4
			c0,1.103,0.897,2,2,2h2.479l2.995,4.28C9.89,21.776,10.433,22,11,22c0.263,0,0.521-0.051,0.764-0.151
			C12.515,21.54,13,20.813,13,20V6C13,5.187,12.515,4.462,11.764,4.152z M7.521,15H4v-4h3.521L11,6.027l0.001,13.948L7.521,15z"/>
		<polygon fill="#757575" points="23,12 20,12 20,9 18,9 18,12 15,12 15,14 18,14 18,17 20,17 20,14 23,14 		"/>
	</g>
</g>
</svg>
