<?xml version="1.0" encoding="utf-8"?>
<!-- Generator: Adobe Illustrator 16.0.0, SVG Export Plug-In . SVG Version: 6.00 Build 0)  -->
<!DOCTYPE svg PUBLIC "-//W3C//DTD SVG 1.1//EN" "http://www.w3.org/Graphics/SVG/1.1/DTD/svg11.dtd">
<svg version="1.1" xmlns="http://www.w3.org/2000/svg" xmlns:xlink="http://www.w3.org/1999/xlink" x="0px" y="0px" width="24px"
	 height="24px" viewBox="0 0 24 24" enable-background="new 0 0 24 24" xml:space="preserve">
<g id="Frames-24px">
	<rect fill="none" width="24" height="24"/>
</g>
<g id="Outline">
	<path fill="#757575" d="M23,4H1C0.447,4,0,4.448,0,5v14c0,0.552,0.448,1,1,1h22c0.552,0,1-0.448,1-1V5C24,4.448,23.552,4,23,4z
		 M12,14c-1.103,0-2-0.897-2-2c0-1.104,0.897-2,2-2s2,0.896,2,2C14,13.103,13.103,14,12,14z M2,10h2v4H2V10z M2,16h4V8H2V6h9v2.142
		c-1.72,0.448-3,2-3,3.858s1.28,3.41,3,3.858V18H2V16z M22,14h-2v-4h2V14z M18,8v8h4v2h-9v-2.142c1.72-0.448,3-2,3-3.858
		s-1.28-3.41-3-3.858V6h9v2H18z"/>
</g>
</svg>
