<?xml version="1.0" encoding="utf-8"?>
<!-- Generator: Adobe Illustrator 16.0.0, SVG Export Plug-In . SVG Version: 6.00 Build 0)  -->
<!DOCTYPE svg PUBLIC "-//W3C//DTD SVG 1.1//EN" "http://www.w3.org/Graphics/SVG/1.1/DTD/svg11.dtd">
<svg version="1.1" xmlns="http://www.w3.org/2000/svg" xmlns:xlink="http://www.w3.org/1999/xlink" x="0px" y="0px" width="24px"
	 height="24px" viewBox="0 0 24 24" enable-background="new 0 0 24 24" xml:space="preserve">
<g id="Frames-24px">
	<rect fill="none" width="24" height="24"/>
</g>
<g id="Outline">
	<path fill="#757575" d="M12,2C6.485,2,2,6.486,2,12c0,5.514,4.486,10,10,10s10-4.486,10-10C22,6.486,17.514,2,12,2z M18.628,16.475
		c-0.829-0.993-1.364-2.191-1.548-3.475h2.851C19.77,14.274,19.316,15.458,18.628,16.475z M4.069,13h2.85
		c-0.186,1.279-0.721,2.48-1.548,3.474C4.683,15.458,4.229,14.274,4.069,13z M5.372,7.525C6.2,8.518,6.735,9.716,6.919,11H4.069
		C4.229,9.726,4.683,8.542,5.372,7.525z M13,11V4.069c1.636,0.206,3.116,0.906,4.292,1.947C16.049,7.408,15.262,9.143,15.056,11H13z
		 M11,11H8.944C8.738,9.14,7.95,7.408,6.707,6.018C7.883,4.976,9.363,4.275,11,4.069V11z M8.941,13H11v6.931
		c-1.633-0.205-3.111-0.904-4.287-1.942C7.953,16.597,8.734,14.853,8.941,13z M13,13h2.055c0.206,1.86,0.994,3.591,2.237,4.983
		c-1.176,1.042-2.656,1.743-4.292,1.948V13z M17.08,11c0.185-1.281,0.72-2.48,1.548-3.474C19.316,8.542,19.77,9.726,19.93,11H17.08z
		"/>
</g>
</svg>
