<?xml version="1.0" encoding="utf-8"?>
<!-- Generator: Adobe Illustrator 16.0.0, SVG Export Plug-In . SVG Version: 6.00 Build 0)  -->
<!DOCTYPE svg PUBLIC "-//W3C//DTD SVG 1.1//EN" "http://www.w3.org/Graphics/SVG/1.1/DTD/svg11.dtd">
<svg version="1.1" xmlns="http://www.w3.org/2000/svg" xmlns:xlink="http://www.w3.org/1999/xlink" x="0px" y="0px" width="24px"
	 height="24px" viewBox="0 0 24 24" enable-background="new 0 0 24 24" xml:space="preserve">
<g id="Frames-24px">
	<rect fill="none" width="24" height="24"/>
</g>
<g id="Outline">
	<path fill="#757575" d="M22,13c0-5.467-4.472-10.003-9.992-10.003C6.568,2.997,2,7.415,2,13c0,5.476,4.486,10,9.991,10
		c0.002,0,0.005,0,0.008,0h0C17.342,23,22,18.642,22,13z M11.625,20.975c3.289-1.557,5.667-4.24,6.801-6.997
		c0.46,0.364,0.872,0.783,1.254,1.229C18.708,18.604,15.503,21.154,11.625,20.975z M7.088,19.3c4-0.737,6.941-3.469,8.179-6.951
		c0.939,0.276,1.246,0.442,1.876,0.791c-1.18,3.156-4.212,6.172-8.186,7.248C8.249,20.099,7.628,19.724,7.088,19.3z M5.121,8.938
		c-0.066,3.293,1.022,6.26,2.816,8.609c-0.713,0.226-1.449,0.366-2.199,0.415C3.615,15.271,3.493,11.657,5.121,8.938z M8.8,5.673
		c-1.243,3.821-0.276,7.625,2.066,10.338c-0.662,0.519-1.007,0.703-1.491,0.952c-2.186-2.67-3.259-6.257-2.531-10.067
		C7.454,6.379,8.109,5.976,8.8,5.673z M18.782,8.776c-2.926-1.49-5.984-1.835-8.898-1.262c0.134-0.826,0.381-1.625,0.73-2.383
		C13.993,4.554,17.118,6.103,18.782,8.776z M9.932,10.827C9.818,10.259,9.76,9.676,9.755,9.085c3.329-0.78,6.967-0.186,10.015,2.04
		c0.173,0.72,0.248,1.446,0.212,2.238C17.11,10.695,13.33,9.925,9.932,10.827z M11.965,14.992c-0.697-0.817-1.239-1.736-1.612-2.723
		c1.13-0.295,2.292-0.375,3.435-0.235C13.368,13.14,12.75,14.138,11.965,14.992z"/>
</g>
</svg>
