<?xml version="1.0" encoding="utf-8"?>
<!-- Generator: Adobe Illustrator 16.0.0, SVG Export Plug-In . SVG Version: 6.00 Build 0)  -->
<!DOCTYPE svg PUBLIC "-//W3C//DTD SVG 1.1//EN" "http://www.w3.org/Graphics/SVG/1.1/DTD/svg11.dtd">
<svg version="1.1" xmlns="http://www.w3.org/2000/svg" xmlns:xlink="http://www.w3.org/1999/xlink" x="0px" y="0px" width="24px"
	 height="24.002px" viewBox="0 0 24 24.002" enable-background="new 0 0 24 24.002" xml:space="preserve">
<g id="Frames-24px">
	<rect fill="none" width="24" height="24.002"/>
</g>
<g id="Outline">
	<g>
		<path fill="#757575" d="M14.999,10c-1.511,0-2.907,0.485-4.052,1.303C10.408,10.088,9.999,9.271,9.999,8V7V4c0-1.654-1.346-3-3-3
			s-3,1.346-3,3v3v1c0,1.179-0.355,1.972-0.805,2.976c-0.56,1.25-1.195,2.667-1.195,5.024c0,4.309,2.199,8,4,8h2
			c0.988,0,1.795-0.929,2.338-1.793C11.576,23.317,13.207,24,14.999,24c3.86,0,7-3.14,7-7C21.999,13.14,18.858,10,14.999,10z
			 M5.999,4c0-0.551,0.449-1,1-1s1,0.449,1,1v3h-2V4z M7.911,22H6.083c-0.533-0.298-2.085-2.557-2.085-6
			c0-1.93,0.496-3.035,1.02-4.206C5.394,10.956,5.778,10.098,5.931,9h2.136c0.152,1.098,0.537,1.957,0.912,2.794
			c0.146,0.325,0.29,0.665,0.426,1.016c-0.879,1.17-1.406,2.618-1.406,4.19c0,1.298,0.361,2.509,0.979,3.552
			C8.5,21.505,8.062,21.907,7.911,22z M14.999,22c-2.757,0-5-2.243-5-5s2.243-5,5-5s5,2.243,5,5S17.755,22,14.999,22z"/>
		<circle fill="#757575" cx="14.999" cy="17" r="1"/>
		<circle fill="#757575" cx="16.999" cy="15" r="1"/>
		<circle fill="#757575" cx="12.999" cy="15" r="1"/>
	</g>
</g>
</svg>
