<?xml version="1.0" encoding="utf-8"?>
<!-- Generator: Adobe Illustrator 16.0.0, SVG Export Plug-In . SVG Version: 6.00 Build 0)  -->
<!DOCTYPE svg PUBLIC "-//W3C//DTD SVG 1.1//EN" "http://www.w3.org/Graphics/SVG/1.1/DTD/svg11.dtd">
<svg version="1.1" xmlns="http://www.w3.org/2000/svg" xmlns:xlink="http://www.w3.org/1999/xlink" x="0px" y="0px" width="24px"
	 height="24.001px" viewBox="0 0 24 24.001" enable-background="new 0 0 24 24.001" xml:space="preserve">
<g id="Frames-24px">
	<rect fill="none" width="24" height="24.001"/>
</g>
<g id="Outline">
	<g>
		<path fill="#757575" d="M12.999,8V5c0-0.552-0.448-1-1-1h-6C5.665,4,5.353,4.167,5.167,4.445l-2,3
			c-0.205,0.307-0.224,0.701-0.05,1.026C3.292,8.797,3.63,9,3.999,9h1v1.586l-2.707,2.707C2.104,13.48,1.999,13.735,1.999,14v7
			c0,0.552,0.448,1,1,1h9c0.552,0,1-0.448,1-1v-7c0-0.265-0.105-0.52-0.293-0.707l-2.707-2.707V9h1v1
			c0,0.266,0.105,0.52,0.293,0.707l3,3l1.414-1.414l-2.707-2.707V8z M6.534,6h4.465v1H5.868L6.534,6z M8.292,11.707l2.707,2.708V20
			h-7v-5.586l2.707-2.708C6.894,11.52,6.999,11.266,6.999,11V9h1v2C7.999,11.266,8.104,11.52,8.292,11.707z"/>
		<circle fill="#757575" cx="14.999" cy="6" r="1"/>
		<circle fill="#757575" cx="16.999" cy="4" r="1"/>
		<circle fill="#757575" cx="19.999" cy="2" r="1"/>
		<circle fill="#757575" cx="19.999" cy="6" r="1"/>
		<circle fill="#757575" cx="19.999" cy="10" r="1"/>
		<circle fill="#757575" cx="16.999" cy="8" r="1"/>
	</g>
</g>
</svg>
