<?xml version="1.0" encoding="utf-8"?>
<!-- Generator: Adobe Illustrator 16.0.0, SVG Export Plug-In . SVG Version: 6.00 Build 0)  -->
<!DOCTYPE svg PUBLIC "-//W3C//DTD SVG 1.1//EN" "http://www.w3.org/Graphics/SVG/1.1/DTD/svg11.dtd">
<svg version="1.1" xmlns="http://www.w3.org/2000/svg" xmlns:xlink="http://www.w3.org/1999/xlink" x="0px" y="0px" width="24px"
	 height="24px" viewBox="0 0 24 24" enable-background="new 0 0 24 24" xml:space="preserve">
<g id="Frames-24px">
	<rect fill="none" width="24" height="24"/>
</g>
<g id="Outline">
	<path fill="#757575" d="M20,15.002c-0.082,0-0.16,0.015-0.24,0.024L16.551,9.25C16.828,8.907,17,8.477,17,8.002
		c0-1.104-0.896-2-2-2c-0.589,0-1.113,0.259-1.479,0.664L5.993,3.928C5.953,2.859,5.079,2.002,4,2.002c-1.104,0-2,0.896-2,2
		s0.896,2,2,2c0.589,0,1.113-0.259,1.479-0.664l7.529,2.738c0.006,0.162,0.034,0.317,0.076,0.467l-6.087,4.735
		C6.702,13.107,6.364,13.002,6,13.002c-1.104,0-2,0.896-2,2s0.896,2,2,2c0.277,0,0.541-0.057,0.781-0.158l2.377,2.377
		C9.057,19.461,9,19.725,9,20.002c0,1.104,0.896,2,2,2c1.061,0,1.92-0.828,1.987-1.872l5.5-1.833
		c0.367,0.428,0.905,0.705,1.513,0.705c1.104,0,2-0.896,2-2S21.104,15.002,20,15.002z M11,18.002c-0.277,0-0.541,0.057-0.781,0.158
		l-2.377-2.377C7.943,15.543,8,15.279,8,15.002c0-0.188-0.034-0.367-0.083-0.541l6.087-4.734c0.294,0.17,0.632,0.275,0.996,0.275
		c0.082,0,0.16-0.015,0.24-0.024l3.209,5.776c-0.251,0.312-0.409,0.696-0.436,1.12l-5.5,1.833
		C12.146,18.279,11.608,18.002,11,18.002z"/>
</g>
</svg>
