<?xml version="1.0" encoding="utf-8"?>
<!-- Generator: Adobe Illustrator 16.0.0, SVG Export Plug-In . SVG Version: 6.00 Build 0)  -->
<!DOCTYPE svg PUBLIC "-//W3C//DTD SVG 1.1//EN" "http://www.w3.org/Graphics/SVG/1.1/DTD/svg11.dtd">
<svg version="1.1" xmlns="http://www.w3.org/2000/svg" xmlns:xlink="http://www.w3.org/1999/xlink" x="0px" y="0px" width="24px"
	 height="24px" viewBox="0 0 24 24" enable-background="new 0 0 24 24" xml:space="preserve">
<g id="Frames-24px">
	<rect fill="none" width="24" height="24"/>
</g>
<g id="Outline">
	<g>
		<g>
			<path fill="#757575" d="M17,19H7c-3.86,0-7-3.14-7-7c0-3.86,3.14-7,7-7h10c3.86,0,7,3.14,7,7C24,15.86,20.86,19,17,19z M7,7
				c-2.757,0-5,2.243-5,5s2.243,5,5,5h10c2.757,0,5-2.243,5-5s-2.243-5-5-5H7z"/>
		</g>
		<g>
			<circle fill="#757575" cx="17" cy="12" r="3"/>
		</g>
	</g>
</g>
</svg>
