<?xml version="1.0" encoding="utf-8"?>
<!-- Generator: Adobe Illustrator 16.0.0, SVG Export Plug-In . SVG Version: 6.00 Build 0)  -->
<!DOCTYPE svg PUBLIC "-//W3C//DTD SVG 1.1//EN" "http://www.w3.org/Graphics/SVG/1.1/DTD/svg11.dtd">
<svg version="1.1" xmlns="http://www.w3.org/2000/svg" xmlns:xlink="http://www.w3.org/1999/xlink" x="0px" y="0px" width="24px"
	 height="24px" viewBox="0 0 24 24" enable-background="new 0 0 24 24" xml:space="preserve">
<g id="Frames-24px">
	<rect fill="none" width="24" height="24"/>
</g>
<g id="Outline">
	<g>
		<path fill="#757575" d="M19.573,16.058l-1.742-2.613C17.646,13.167,17.333,13,16.999,13h-0.323l-0.4-1h3.723v1h2V9h-2v1h-4.523
			l-0.548-1.372C14.775,8.249,14.408,8,13.999,8h-5C8.59,8,8.223,8.249,8.07,8.628L6.322,13H5.999c-0.431,0-0.813,0.275-0.949,0.684
			l-0.797,2.392C2.403,16.427,0.999,18.049,0.999,20c0,2.205,1.794,4,4,4h14c2.206,0,4-1.795,4-4
			C22.999,17.99,21.505,16.339,19.573,16.058z M17.13,16H6.386l0.333-1h9.744L17.13,16z M9.676,10h3.646l1.2,3H8.476L9.676,10z
			 M18.999,22h-14c-1.103,0-2-0.898-2-2c0-1.104,0.897-2,2-2h14c1.103,0,2,0.896,2,2C20.999,21.102,20.102,22,18.999,22z"/>
		<circle fill="#757575" cx="6.999" cy="20" r="1.25"/>
		<circle fill="#757575" cx="11.999" cy="20" r="1.25"/>
		<circle fill="#757575" cx="16.999" cy="20" r="1.25"/>
	</g>
</g>
</svg>
