<?xml version="1.0" encoding="utf-8"?>
<!-- Generator: Adobe Illustrator 16.0.0, SVG Export Plug-In . SVG Version: 6.00 Build 0)  -->
<!DOCTYPE svg PUBLIC "-//W3C//DTD SVG 1.1//EN" "http://www.w3.org/Graphics/SVG/1.1/DTD/svg11.dtd">
<svg version="1.1" xmlns="http://www.w3.org/2000/svg" xmlns:xlink="http://www.w3.org/1999/xlink" x="0px" y="0px" width="24px"
	 height="24px" viewBox="0 0 24 24" enable-background="new 0 0 24 24" xml:space="preserve">
<g id="Frames-24px">
	<rect fill="none" width="24" height="24"/>
</g>
<g id="Outline">
	<g>
		<path fill="#757575" d="M15,13.08V11h-2v2h-2v-2H9v2.08c-3.387,0.487-6,3.4-6,6.92v3h18v-3C21,16.48,18.387,13.567,15,13.08z
			 M10,19c0-1.103,0.897-2,2-2s2,0.897,2,2c0,1.103-0.897,2-2,2S10,20.103,10,19z M19,21h-3.557C15.788,20.409,16,19.731,16,19
			c0-2.206-1.794-4-4-4s-4,1.794-4,4c0,0.731,0.212,1.409,0.557,2H5v-1c0-2.757,2.243-5,5-5h2h2c2.757,0,5,2.243,5,5V21z"/>
		<path fill="#757575" d="M21.899,6.758l-2.828-2.829c-3.899-3.899-10.243-3.899-14.143,0L2.101,6.758
			c-0.378,0.378-0.586,0.88-0.586,1.415c0,0.534,0.208,1.036,0.586,1.414l2.121,2.121c0.378,0.378,0.88,0.586,1.414,0.586
			s1.036-0.208,1.414-0.586l2.122-2.121c0.378-0.378,0.586-0.88,0.586-1.414c0-0.535-0.208-1.037-0.586-1.415L7.099,4.686
			c2.875-2.234,6.928-2.234,9.803,0l-2.074,2.073c-0.777,0.779-0.777,2.047,0.001,2.827l2.121,2.121
			c0.378,0.378,0.88,0.586,1.415,0.586s1.037-0.208,1.415-0.586l2.121-2.121C22.679,8.807,22.679,7.538,21.899,6.758z M3.515,8.172
			L5.636,6.05l2.122,2.123l-2.122,2.121L3.515,8.172z M18.365,10.293l-2.123-2.121l2.122-2.122l2.121,2.122L18.365,10.293z"/>
	</g>
</g>
</svg>
