<?xml version="1.0" encoding="utf-8"?>
<!-- Generator: Adobe Illustrator 16.0.0, SVG Export Plug-In . SVG Version: 6.00 Build 0)  -->
<!DOCTYPE svg PUBLIC "-//W3C//DTD SVG 1.1//EN" "http://www.w3.org/Graphics/SVG/1.1/DTD/svg11.dtd">
<svg version="1.1" xmlns="http://www.w3.org/2000/svg" xmlns:xlink="http://www.w3.org/1999/xlink" x="0px" y="0px" width="24px"
	 height="24.001px" viewBox="0 0 24 24.001" enable-background="new 0 0 24 24.001" xml:space="preserve">
<g id="Frames-24px">
	<rect y="0" fill="none" width="24" height="24.001"/>
</g>
<g id="Outline">
	<path fill="#757575" d="M21.949,19.685l-1-3c-0.136-0.408-0.518-0.684-0.949-0.684h-1v-7h1c0.552,0,1-0.448,1-1v-2
		c0-0.417-0.259-0.79-0.649-0.937l-8-3c-0.227-0.085-0.476-0.085-0.702,0l-8,3C3.259,5.211,3,5.585,3,6.001v2c0,0.552,0.448,1,1,1h1
		v7H4c-0.431,0-0.813,0.276-0.949,0.684l-1,3c-0.102,0.305-0.05,0.641,0.138,0.902S2.679,21.001,3,21.001h18
		c0.321,0,0.623-0.154,0.811-0.415S22.051,19.99,21.949,19.685z M17,16.001h-2v-7h2V16.001z M13,9.001v7h-2v-7H13z M5,6.695l7-2.625
		l7,2.625v0.306H5V6.695z M7,9.001h2v7H7V9.001z M4.388,19.001l0.333-1H19.28l0.333,1H4.388z"/>
</g>
</svg>
