<?xml version="1.0" encoding="utf-8"?>
<!-- Generator: Adobe Illustrator 16.0.0, SVG Export Plug-In . SVG Version: 6.00 Build 0)  -->
<!DOCTYPE svg PUBLIC "-//W3C//DTD SVG 1.1//EN" "http://www.w3.org/Graphics/SVG/1.1/DTD/svg11.dtd">
<svg version="1.1" xmlns="http://www.w3.org/2000/svg" xmlns:xlink="http://www.w3.org/1999/xlink" x="0px" y="0px"
	 width="24.001px" height="24.001px" viewBox="0 0 24.001 24.001" enable-background="new 0 0 24.001 24.001" xml:space="preserve">
<g id="Frames-24px">
	<rect fill="none" width="24.001" height="24.001"/>
</g>
<g id="Outline">
	<g>
		<path fill="#757575" d="M20.287,14.128l1.42-1.421c0.391-0.39,0.391-1.023,0-1.413l-1.42-1.42l1.545-2.319
			c0.205-0.307,0.224-0.702,0.05-1.026C21.708,6.204,21.369,6,21,6h-7.189C13.16,4.258,10.843,3,8,3C4.636,3,2,4.757,2,7v10
			c0,2.243,2.636,4,6,4c2.843,0,5.16-1.257,5.811-3H21c0.369,0,0.708-0.203,0.882-0.528c0.174-0.326,0.155-0.72-0.05-1.026
			L20.287,14.128z M8,5c2.29,0,4,1.056,4,2s-1.71,2-4,2S4,7.945,4,7S5.71,5,8,5z M8,19c-2.29,0-4-1.056-4-2v-7
			c1.055,0.623,2.448,1,4,1s2.945-0.377,4-1v7C12,17.945,10.29,19,8,19z M18.168,14.555L19.131,16H14V8h5.131l-0.963,1.445
			c-0.265,0.397-0.212,0.925,0.125,1.261L19.586,12l-1.293,1.293C17.956,13.63,17.903,14.159,18.168,14.555z"/>
		<circle fill="#757575" cx="8" cy="7" r="1"/>
	</g>
</g>
</svg>
