<?xml version="1.0" encoding="utf-8"?>
<!-- Generator: Adobe Illustrator 16.0.0, SVG Export Plug-In . SVG Version: 6.00 Build 0)  -->
<!DOCTYPE svg PUBLIC "-//W3C//DTD SVG 1.1//EN" "http://www.w3.org/Graphics/SVG/1.1/DTD/svg11.dtd">
<svg version="1.1" xmlns="http://www.w3.org/2000/svg" xmlns:xlink="http://www.w3.org/1999/xlink" x="0px" y="0px" width="24px"
	 height="24px" viewBox="0 0 24 24" enable-background="new 0 0 24 24" xml:space="preserve">
<g id="Frames-24px">
	<rect fill="none" width="24" height="24"/>
</g>
<g id="Outline">
	<g>
		<polygon fill="#757575" points="18.001,8.002 13.235,8.002 11.902,6.002 13.235,4.002 15.001,4.002 15.001,2.002 9.001,2.002 
			9.001,4.002 11.433,4.002 10.1,6.002 11.433,8.002 6.001,8.002 6.001,10.002 18.001,10.002 		"/>
		<path fill="#757575" d="M21.001,18.002v-6c0-0.552-0.448-1-1-1h-17c-0.552,0-1,0.448-1,1v6c0,0.553,0.448,1,1,1h1.185
			c-0.112,0.314-0.185,0.647-0.185,1c0,0.771,0.301,1.468,0.78,2h-2.78v2h19v-2h-2.78c0.479-0.532,0.78-1.229,0.78-2
			c0-0.353-0.072-0.686-0.185-1h1.185C20.553,19.002,21.001,18.555,21.001,18.002z M8.001,20.002c0,0.551-0.449,1-1,1s-1-0.449-1-1
			c0-0.551,0.449-1,1-1S8.001,19.451,8.001,20.002z M9.221,22.002c0.479-0.532,0.78-1.229,0.78-2c0-0.353-0.072-0.686-0.185-1h3.369
			c-0.112,0.314-0.185,0.647-0.185,1c0,0.771,0.301,1.468,0.78,2H9.221z M17.001,20.002c0,0.551-0.449,1-1,1s-1-0.449-1-1
			c0-0.551,0.449-1,1-1S17.001,19.451,17.001,20.002z M19.001,17.002h-15v-4h15V17.002z"/>
		<rect x="7.001" y="14.002" fill="#757575" width="3" height="2"/>
		<rect x="13.001" y="14.002" fill="#757575" width="3" height="2"/>
	</g>
</g>
</svg>
