<?xml version="1.0" encoding="utf-8"?>
<!-- Generator: Adobe Illustrator 16.0.0, SVG Export Plug-In . SVG Version: 6.00 Build 0)  -->
<!DOCTYPE svg PUBLIC "-//W3C//DTD SVG 1.1//EN" "http://www.w3.org/Graphics/SVG/1.1/DTD/svg11.dtd">
<svg version="1.1" xmlns="http://www.w3.org/2000/svg" xmlns:xlink="http://www.w3.org/1999/xlink" x="0px" y="0px" width="24px"
	 height="24px" viewBox="0 0 24 24" enable-background="new 0 0 24 24" xml:space="preserve">
<g id="Frames-24px">
	<rect fill="none" width="24" height="24"/>
	<rect fill="none" width="24" height="24"/>
</g>
<g id="Outline">
	<g>
		<path fill="#757575" d="M18.736,14H15v-2h-2v2H9v-4h2V8H9V4.263C9.641,4.098,10.308,4,11,4V2C5.485,2,1,6.486,1,12s4.485,10,10,10
			c5.514,0,10-4.486,10-10h-2C19,12.691,18.902,13.359,18.736,14z M7,5.083V8H4.082C4.784,6.791,5.791,5.784,7,5.083z M3.263,10H7v4
			H3.263C3.097,13.359,3,12.691,3,12C3,11.309,3.097,10.641,3.263,10z M4.082,16H7v2.918C5.791,18.216,4.784,17.209,4.082,16z
			 M9,19.737V16h4v3.737C12.359,19.903,11.691,20,11,20C10.308,20,9.641,19.903,9,19.737z M15,18.918V16h2.917
			C17.216,17.209,16.208,18.216,15,18.918z"/>
		<path fill="#757575" d="M22.912,3.52c-0.223-0.491-0.795-0.724-1.297-0.522L18.81,4.247l-3.321-2.103l-1.607,0.832L17,5h0.116
			l-2.431,1.082l-2.102-0.938L11,6.056l4,2.005l2.199-1.014L15.676,11l1.797-0.934l2.191-4.004l2.732-1.202
			C22.911,4.636,23.141,4.034,22.912,3.52z"/>
	</g>
</g>
</svg>
