<?xml version="1.0" encoding="utf-8"?>
<!-- Generator: Adobe Illustrator 16.0.0, SVG Export Plug-In . SVG Version: 6.00 Build 0)  -->
<!DOCTYPE svg PUBLIC "-//W3C//DTD SVG 1.1//EN" "http://www.w3.org/Graphics/SVG/1.1/DTD/svg11.dtd">
<svg version="1.1" xmlns="http://www.w3.org/2000/svg" xmlns:xlink="http://www.w3.org/1999/xlink" x="0px" y="0px" width="24px"
	 height="24.001px" viewBox="0 0 24 24.001" enable-background="new 0 0 24 24.001" xml:space="preserve">
<g id="Frames-24px">
	<rect fill="none" width="24" height="24.001"/>
	<rect fill="none" width="24" height="24.001"/>
</g>
<g id="Outline">
	<g>
		<path fill="#757575" d="M16,9h-3V5h3V3H8v2h3v4H8c-1.103,0-2,0.896-2,2v9c0,1.103,0.897,2,2,2v1h2v-1h4v1h2v-1
			c1.103,0,2-0.897,2-2v-9C18,9.896,17.103,9,16,9z M8,20v-9h8l0.001,9H8z"/>
		<polygon fill="#757575" points="10,14 12,14 12,15 14,15 14,12 10,12 		"/>
	</g>
</g>
</svg>
