<?xml version="1.0" encoding="utf-8"?>
<!-- Generator: Adobe Illustrator 16.0.0, SVG Export Plug-In . SVG Version: 6.00 Build 0)  -->
<!DOCTYPE svg PUBLIC "-//W3C//DTD SVG 1.1//EN" "http://www.w3.org/Graphics/SVG/1.1/DTD/svg11.dtd">
<svg version="1.1" xmlns="http://www.w3.org/2000/svg" xmlns:xlink="http://www.w3.org/1999/xlink" x="0px" y="0px" width="24px"
	 height="24.001px" viewBox="0 0 24 24.001" enable-background="new 0 0 24 24.001" xml:space="preserve">
<g id="Frames-24px">
	<rect fill="none" width="24" height="24.001"/>
	<rect fill="none" width="24" height="24.001"/>
</g>
<g id="Outline">
	<path fill="#757575" d="M22,18c-2.708,0-5.057,0.239-7.077,0.599l-1.424-4.613c0.708-1.07,1.739-1.87,2.973-2.244
		c1.346-0.409,2.815-0.278,4.081,0.356c0.341,0.17,0.75,0.134,1.053-0.097c0.506-0.385,0.432-0.845,0.275-1.377
		c-1.463-4.818-6.269-7.92-11.495-6.887L10.074,2.71c-0.16-0.529-0.718-0.827-1.247-0.667C8.298,2.203,8,2.762,8.16,3.291
		l0.305,1.006c-5.313,2.208-7.302,8.329-5.596,12.507c0.151,0.368,0.512,0.621,0.925,0.621c0.358,0,0.69-0.192,0.869-0.506
		c0.707-1.242,1.842-2.153,3.196-2.563c1.228-0.373,2.551-0.275,3.728,0.22l1.37,4.436C7.062,20.435,5.139,22.409,3.149,24H23v-6H22
		z M7.278,12.441c-1.111,0.336-2.114,0.92-2.946,1.699C4.05,10.482,6.334,6.98,9.987,5.871c3.685-1.12,7.484,0.563,9.287,3.733
		c-1.128-0.187-2.285-0.109-3.384,0.224c-1.567,0.477-2.914,1.437-3.871,2.743C10.501,12.019,8.827,11.971,7.278,12.441z M21,22
		H10.086c2.367-0.919,5.976-1.874,10.914-1.989V22z"/>
</g>
</svg>
