<?xml version="1.0" encoding="utf-8"?>
<!-- Generator: Adobe Illustrator 16.0.0, SVG Export Plug-In . SVG Version: 6.00 Build 0)  -->
<!DOCTYPE svg PUBLIC "-//W3C//DTD SVG 1.1//EN" "http://www.w3.org/Graphics/SVG/1.1/DTD/svg11.dtd">
<svg version="1.1" xmlns="http://www.w3.org/2000/svg" xmlns:xlink="http://www.w3.org/1999/xlink" x="0px" y="0px" width="24px"
	 height="24.001px" viewBox="0 0 24 24.001" enable-background="new 0 0 24 24.001" xml:space="preserve">
<g id="Frames-24px">
	<rect fill="none" width="24" height="24.001"/>
</g>
<g id="Outline">
	<path fill="#757575" d="M21.853,20.479L13.671,7.091l2.182-3.569l-1.707-1.043L12.5,5.173l-1.646-2.695L9.146,3.522l2.182,3.569
		L3.146,20.479c-0.188,0.309-0.196,0.695-0.019,1.011C3.304,21.805,3.638,22,4,22h17c0.362,0,0.695-0.195,0.872-0.511
		C22.049,21.174,22.042,20.787,21.853,20.479z M11,20v-1.5c0-0.827,0.673-1.5,1.5-1.5s1.5,0.673,1.5,1.5V20H11z M16,20v-1.5
		c0-1.931-1.57-3.5-3.5-3.5S9,16.569,9,18.5V20H5.783L12.5,9.009L19.216,20H16z"/>
</g>
</svg>
