<?xml version="1.0" encoding="utf-8"?>
<!-- Generator: Adobe Illustrator 16.0.0, SVG Export Plug-In . SVG Version: 6.00 Build 0)  -->
<!DOCTYPE svg PUBLIC "-//W3C//DTD SVG 1.1//EN" "http://www.w3.org/Graphics/SVG/1.1/DTD/svg11.dtd">
<svg version="1.1" xmlns="http://www.w3.org/2000/svg" xmlns:xlink="http://www.w3.org/1999/xlink" x="0px" y="0px" width="24px"
	 height="24.001px" viewBox="0 0 24 24.001" enable-background="new 0 0 24 24.001" xml:space="preserve">
<g id="Frames-24px">
	<rect fill="none" width="24" height="24.001"/>
	<rect fill="none" width="24" height="24.001"/>
</g>
<g id="Outline">
	<g>
		<path fill="#757575" d="M6,2.001c-1.65,0-3.032,1.238-3.214,2.878L1.007,20.89c-0.041,0.365,0.121,0.722,0.422,0.931
			c0.301,0.21,0.691,0.239,1.019,0.075L6,20.119l3.553,1.777c0.326,0.163,0.717,0.136,1.019-0.075
			c0.301-0.209,0.462-0.566,0.422-0.931L9.215,4.879C9.032,3.239,7.65,2.001,6,2.001z M5,5.001c0-0.551,0.449-1,1-1s1,0.449,1,1v3
			c0,0.552-0.449,1-1,1s-1-0.448-1-1V5.001z M6.448,18.106c-0.281-0.141-0.613-0.141-0.895,0l-2.356,1.179l0.99-8.91
			C4.693,10.762,5.316,11.001,6,11.001s1.308-0.239,1.813-0.625l0.99,8.91L6.448,18.106z"/>
		<path fill="#757575" d="M22.572,2.182c-0.301-0.21-0.691-0.239-1.019-0.075L18,3.883l-3.553-1.776
			c-0.328-0.164-0.718-0.135-1.019,0.075c-0.301,0.209-0.462,0.566-0.422,0.93l1.779,16.013c0.183,1.64,1.564,2.877,3.214,2.877
			s3.032-1.237,3.214-2.877l1.779-16.013C23.035,2.748,22.873,2.39,22.572,2.182z M17.553,5.896c0.281,0.14,0.613,0.14,0.895,0
			l2.356-1.178l-0.99,8.909c-0.505-0.387-1.129-0.626-1.813-0.626s-1.308,0.239-1.813,0.626l-0.99-8.909L17.553,5.896z M17,19.001
			v-3c0-0.551,0.449-1,1-1s1,0.449,1,1v3c0,0.552-0.449,1-1,1S17,19.553,17,19.001z"/>
	</g>
</g>
</svg>
