<?xml version="1.0" encoding="utf-8"?>
<!-- Generator: Adobe Illustrator 16.0.0, SVG Export Plug-In . SVG Version: 6.00 Build 0)  -->
<!DOCTYPE svg PUBLIC "-//W3C//DTD SVG 1.1//EN" "http://www.w3.org/Graphics/SVG/1.1/DTD/svg11.dtd">
<svg version="1.1" xmlns="http://www.w3.org/2000/svg" xmlns:xlink="http://www.w3.org/1999/xlink" x="0px" y="0px"
	 width="24.001px" height="24.001px" viewBox="0 0 24.001 24.001" enable-background="new 0 0 24.001 24.001" xml:space="preserve">
<g id="Frames-24px">
	<rect fill="none" width="24.001" height="24.001"/>
</g>
<g id="Outline">
	<g>
		<path fill="#757575" d="M20.001,12h-16c-0.552,0-1,0.449-1,1v8c0,0.552,0.448,1,1,1h16c0.552,0,1-0.448,1-1v-8
			C21.001,12.449,20.553,12,20.001,12z M8.001,14h8v3h-8V14z M19.001,20h-14v-6h1v4c0,0.552,0.448,1,1,1h10c0.552,0,1-0.448,1-1v-4
			h1V20z"/>
		<rect x="11.001" y="2" fill="#757575" width="2" height="3"/>
		
			<rect x="3.587" y="4.001" transform="matrix(0.7071 0.7071 -0.7071 0.7071 5.0006 -2.0716)" fill="#757575" width="2.828" height="1.999"/>
		
			<rect x="18.001" y="3.586" transform="matrix(0.7074 0.7069 -0.7069 0.7074 9.0953 -11.9677)" fill="#757575" width="1.999" height="2.828"/>
		<path fill="#757575" d="M4.001,11.002h2c0-0.551,0.449-1,1-1c0.296,0,0.516,0.136,0.647,0.25c0.244,0.21,0.573,0.29,0.887,0.214
			c0.313-0.075,0.57-0.296,0.691-0.594c0.463-1.135,1.552-1.869,2.774-1.869s2.311,0.734,2.774,1.869
			c0.122,0.298,0.379,0.519,0.691,0.594c0.313,0.076,0.643-0.004,0.887-0.214c0.132-0.113,0.352-0.25,0.647-0.25
			c0.551,0,1,0.449,1,1h2c0-1.654-1.346-3-3-3c-0.307,0-0.61,0.049-0.9,0.141c-0.921-1.327-2.436-2.141-4.1-2.141
			s-3.179,0.814-4.1,2.141c-0.29-0.092-0.593-0.141-0.9-0.141C5.347,8.002,4.001,9.348,4.001,11.002z"/>
		<circle fill="#757575" cx="12.001" cy="15.5" r="1"/>
	</g>
</g>
</svg>
