<?xml version="1.0" encoding="utf-8"?>
<!-- Generator: Adobe Illustrator 16.0.0, SVG Export Plug-In . SVG Version: 6.00 Build 0)  -->
<!DOCTYPE svg PUBLIC "-//W3C//DTD SVG 1.1//EN" "http://www.w3.org/Graphics/SVG/1.1/DTD/svg11.dtd">
<svg version="1.1" xmlns="http://www.w3.org/2000/svg" xmlns:xlink="http://www.w3.org/1999/xlink" x="0px" y="0px" width="24px"
	 height="24px" viewBox="0 0 24 24" enable-background="new 0 0 24 24" xml:space="preserve">
<g id="Frames-24px">
	<rect fill="none" width="24" height="24"/>
</g>
<g id="Solid">
	<g>
		<path fill="#757575" d="M22,5c0-1.654-1.346-3-3-3s-3,1.346-3,3s1.346,3,3,3S22,6.654,22,5z M19,6c-0.551,0-1-0.449-1-1
			c0-0.551,0.449-1,1-1s1,0.449,1,1C20,5.551,19.551,6,19,6z"/>
		<path fill="#757575" d="M19,8c-2.757,0-5,2.243-5,5v3c0,0.552,0.448,1,1,1h1v4c0,0.552,0.448,1,1,1h4c0.552,0,1-0.448,1-1v-4h1
			c0.552,0,1-0.448,1-1v-3C24,10.243,21.757,8,19,8z M22,15h-1c-0.552,0-1,0.448-1,1v4h-2v-4c0-0.552-0.448-1-1-1h-1v-2
			c0-1.654,1.346-3,3-3s3,1.346,3,3V15z"/>
		<path fill="#757575" d="M6,16c0.552,0,1-0.448,1-1V9c0-0.552-0.448-1-1-1H1C0.448,8,0,8.448,0,9v6c0,0.552,0.448,1,1,1H6z M2,10h3
			v4H2V10z"/>
		<circle fill="#757575" cx="10" cy="20" r="2"/>
		<path fill="#757575" d="M9.003,5.917L8.08,17H1v2h6.184c0.415-1.162,1.514-2,2.816-2c0.029,0,0.057,0.008,0.086,0.009L10.92,7H13
			V5h-3C9.48,5,9.047,5.398,9.003,5.917z"/>
	</g>
</g>
</svg>
