<?xml version="1.0" encoding="utf-8"?>
<!-- Generator: Adobe Illustrator 16.0.0, SVG Export Plug-In . SVG Version: 6.00 Build 0)  -->
<!DOCTYPE svg PUBLIC "-//W3C//DTD SVG 1.1//EN" "http://www.w3.org/Graphics/SVG/1.1/DTD/svg11.dtd">
<svg version="1.1" xmlns="http://www.w3.org/2000/svg" xmlns:xlink="http://www.w3.org/1999/xlink" x="0px" y="0px" width="24px"
	 height="24px" viewBox="0 0 24 24" enable-background="new 0 0 24 24" xml:space="preserve">
<g id="Frames-24px">
	<rect fill="none" width="24" height="24"/>
</g>
<g id="Solid">
	<path fill="#757575" d="M21.691,11.57C20.658,7.44,17.16,4.47,13,4.055V2h-2v2.055C6.84,4.47,3.342,7.44,2.309,11.57
		c-0.093,0.372,0.035,0.766,0.331,1.011s0.705,0.3,1.055,0.142c2.354-1.073,5.102-0.903,7.302,0.367v6.41c0,1.379,1.122,2.5,2.5,2.5
		s2.5-1.121,2.5-2.5V19h-2v0.5c0,0.276-0.224,0.5-0.5,0.5s-0.5-0.224-0.5-0.5v-6.405c2.201-1.274,4.954-1.447,7.31-0.372
		c0.349,0.159,0.759,0.104,1.055-0.142S21.784,11.942,21.691,11.57z M12,11.34C10.483,10.462,8.768,10,7,10
		c-0.69,0-1.372,0.071-2.04,0.212C6.327,7.661,9.001,6,12,6s5.673,1.661,7.04,4.212C16.663,9.711,14.109,10.119,12,11.34z"/>
</g>
</svg>
