<?xml version="1.0" encoding="utf-8"?>
<!-- Generator: Adobe Illustrator 16.0.0, SVG Export Plug-In . SVG Version: 6.00 Build 0)  -->
<!DOCTYPE svg PUBLIC "-//W3C//DTD SVG 1.1//EN" "http://www.w3.org/Graphics/SVG/1.1/DTD/svg11.dtd">
<svg version="1.1" xmlns="http://www.w3.org/2000/svg" xmlns:xlink="http://www.w3.org/1999/xlink" x="0px" y="0px"
	 width="24.001px" height="24.001px" viewBox="0 0 24.001 24.001" enable-background="new 0 0 24.001 24.001" xml:space="preserve">
<g id="Frames-24px">
	<rect fill="none" width="24.001" height="24.001"/>
</g>
<g id="Outline">
	<path fill="#757575" d="M17.999,15.999c0-0.663,0.347-1.165,0.785-1.799c0.542-0.783,1.215-1.757,1.215-3.201
		c0-1.243-1.003-3.328-3-3.867V1.999h-2v5.706c-0.276,0.378-1.132,1.294-3,1.294c-1.877,0-2.732-0.924-3-1.292V1.999h-2v5.133
		c-1.997,0.539-3,2.624-3,3.867c0,1.444,0.673,2.418,1.215,3.201c0.438,0.634,0.785,1.136,0.785,1.799
		c0,0.188-0.107,0.481-0.243,0.853c-0.301,0.824-0.757,2.068-0.757,4.147c0,0.552,0.448,1,1,1h12c0.552,0,1-0.448,1-1
		c0-2.079-0.456-3.323-0.757-4.147C18.106,16.48,17.999,16.188,17.999,15.999z M17.139,13.063c-0.534,0.773-1.14,1.649-1.14,2.937
		c0,0.544,0.177,1.027,0.365,1.54c0.223,0.609,0.489,1.336,0.592,2.46H7.042c0.103-1.124,0.369-1.851,0.592-2.46
		c0.188-0.513,0.365-0.996,0.365-1.54c0-1.287-0.606-2.164-1.14-2.937c-0.48-0.694-0.86-1.243-0.86-2.063
		c0-0.423,0.464-1.646,1.524-1.938c0.623,0.757,1.992,1.938,4.476,1.938s3.853-1.181,4.476-1.938
		c1.06,0.291,1.524,1.515,1.524,1.938C17.999,11.819,17.62,12.368,17.139,13.063z"/>
</g>
</svg>
