<?xml version="1.0" encoding="utf-8"?>
<!-- Generator: Adobe Illustrator 16.0.0, SVG Export Plug-In . SVG Version: 6.00 Build 0)  -->
<!DOCTYPE svg PUBLIC "-//W3C//DTD SVG 1.1//EN" "http://www.w3.org/Graphics/SVG/1.1/DTD/svg11.dtd">
<svg version="1.1" xmlns="http://www.w3.org/2000/svg" xmlns:xlink="http://www.w3.org/1999/xlink" x="0px" y="0px"
	 width="24.001px" height="24.001px" viewBox="0 0 24.001 24.001" enable-background="new 0 0 24.001 24.001" xml:space="preserve">
<g id="Frames-24px">
	<rect fill="none" width="24.001" height="24.001"/>
</g>
<g id="Outline">
	<g>
		<path fill="#757575" d="M20.999,7.999h-18c-0.552,0-1,0.448-1,1v6c0,0.552,0.448,1,1,1c4.29,0,6.036,3.311,6.105,3.447
			c0.169,0.339,0.516,0.553,0.895,0.553h4c0.379,0,0.725-0.214,0.895-0.553c0.017-0.034,1.773-3.447,6.105-3.447
			c0.552,0,1-0.448,1-1v-6C21.999,8.447,21.551,7.999,20.999,7.999z M14.999,12.999c0,1.243-1.012,3.673-1.63,5h-2.741
			c-0.718-1.535-1.629-3.861-1.629-5c0-1.877,0.924-2.732,1.292-3h3.414C14.083,10.275,14.999,11.131,14.999,12.999z M3.999,14.048
			V9.999h3.724c-0.408,0.738-0.724,1.719-0.724,3c0,0.601,0.147,1.329,0.36,2.078C6.44,14.577,5.334,14.181,3.999,14.048z
			 M19.999,14.048c-1.334,0.133-2.441,0.529-3.36,1.029c0.213-0.749,0.36-1.477,0.36-2.078c0-1.281-0.316-2.262-0.724-3h3.724
			V14.048z"/>
		<rect x="1.999" y="4.999" fill="#757575" width="20" height="2"/>
	</g>
</g>
</svg>
