<?xml version="1.0" encoding="utf-8"?>
<!-- Generator: Adobe Illustrator 16.0.0, SVG Export Plug-In . SVG Version: 6.00 Build 0)  -->
<!DOCTYPE svg PUBLIC "-//W3C//DTD SVG 1.1//EN" "http://www.w3.org/Graphics/SVG/1.1/DTD/svg11.dtd">
<svg version="1.1" xmlns="http://www.w3.org/2000/svg" xmlns:xlink="http://www.w3.org/1999/xlink" x="0px" y="0px" width="24px"
	 height="24px" viewBox="0 0 24 24" enable-background="new 0 0 24 24" xml:space="preserve">
<g id="Frames-24px">
	<rect fill="none" width="24" height="24"/>
</g>
<g id="Outline">
	<g>
		<g>
			<g>
				<path fill="#757575" d="M8,16c-2.206,0-4-1.794-4-4s1.794-4,4-4s4,1.794,4,4S10.206,16,8,16z M8,10c-1.103,0-2,0.896-2,2
					c0,1.103,0.897,2,2,2s2-0.897,2-2C10,10.896,9.103,10,8,10z"/>
			</g>
			<g>
				<path fill="#757575" d="M16,24H0v-1c0-3.533,3.29-6,8-6s8,2.467,8,6V24z M2.159,22h11.683c-0.598-1.808-2.833-3-5.841-3
					S2.757,20.192,2.159,22z"/>
			</g>
		</g>
		<g>
			<g>
				<g>
					<rect x="15" y="6.994" fill="#757575" width="6" height="2"/>
				</g>
			</g>
		</g>
	</g>
</g>
</svg>
