<?xml version="1.0" encoding="utf-8"?>
<!-- Generator: Adobe Illustrator 16.0.0, SVG Export Plug-In . SVG Version: 6.00 Build 0)  -->
<!DOCTYPE svg PUBLIC "-//W3C//DTD SVG 1.1//EN" "http://www.w3.org/Graphics/SVG/1.1/DTD/svg11.dtd">
<svg version="1.1" xmlns="http://www.w3.org/2000/svg" xmlns:xlink="http://www.w3.org/1999/xlink" x="0px" y="0px" width="24px"
	 height="24px" viewBox="0 0 24 24" enable-background="new 0 0 24 24" xml:space="preserve">
<g id="Frames-24px">
	<rect fill="none" width="24" height="24"/>
</g>
<g id="Outline">
	<g>
		<g>
			<path fill="#757575" d="M12,8c-1.654,0-3-1.346-3-3s1.346-3,3-3s3,1.346,3,3S13.654,8,12,8z M12,4c-0.551,0-1,0.449-1,1
				c0,0.551,0.449,1,1,1s1-0.449,1-1C13,4.449,12.551,4,12,4z"/>
		</g>
		<g>
			<path fill="#757575" d="M14,22h-4c-0.552,0-1-0.448-1-1v-4H8c-0.552,0-1-0.448-1-1v-3c0-2.757,2.243-5,5-5s5,2.243,5,5v3
				c0,0.552-0.448,1-1,1h-1v4C15,21.552,14.552,22,14,22z M11,20h2v-4c0-0.552,0.448-1,1-1h1v-2c0-1.654-1.346-3-3-3s-3,1.346-3,3v2
				h1c0.552,0,1,0.448,1,1V20z"/>
		</g>
	</g>
</g>
</svg>
