<?xml version="1.0" encoding="utf-8"?>
<!-- Generator: Adobe Illustrator 16.0.0, SVG Export Plug-In . SVG Version: 6.00 Build 0)  -->
<!DOCTYPE svg PUBLIC "-//W3C//DTD SVG 1.1//EN" "http://www.w3.org/Graphics/SVG/1.1/DTD/svg11.dtd">
<svg version="1.1" xmlns="http://www.w3.org/2000/svg" xmlns:xlink="http://www.w3.org/1999/xlink" x="0px" y="0px" width="24px"
	 height="24px" viewBox="0 0 24 24" enable-background="new 0 0 24 24" xml:space="preserve">
<g id="Frames-24px">
	<rect fill="none" width="24" height="24"/>
</g>
<g id="Solid">
	<path fill="#757575" d="M20,16.184V7.816C21.162,7.402,22,6.302,22,5c0-1.654-1.346-3-3-3c-1.302,0-2.401,0.838-2.816,2H7.815
		C7.401,2.838,6.302,2,5,2C3.346,2,2,3.346,2,5c0,1.302,0.838,2.402,2,2.815v8.369C2.838,16.599,2,17.699,2,19c0,1.654,1.346,3,3,3
		c1.302,0,2.401-0.838,2.815-2h8.369c0.414,1.162,1.514,2,2.815,2c1.654,0,3-1.346,3-3C22,17.699,21.162,16.599,20,16.184z M19,4
		c0.552,0,1,0.448,1,1c0,0.552-0.448,1-1,1s-1-0.448-1-1C18,4.448,18.448,4,19,4z M5,4c0.552,0,1,0.448,1,1c0,0.552-0.448,1-1,1
		S4,5.552,4,5C4,4.448,4.448,4,5,4z M5,20c-0.552,0-1-0.448-1-1c0-0.552,0.448-1,1-1s1,0.448,1,1C6,19.552,5.552,20,5,20z
		 M16.184,18H7.815C7.514,17.153,6.847,16.486,6,16.184V7.816C6.847,7.514,7.514,6.847,7.815,6h8.369
		C16.486,6.847,17.153,7.514,18,7.815v8.369C17.153,16.486,16.486,17.153,16.184,18z M19,20c-0.552,0-1-0.448-1-1
		c0-0.552,0.448-1,1-1s1,0.448,1,1C20,19.552,19.552,20,19,20z"/>
</g>
</svg>
