<?xml version="1.0" encoding="utf-8"?>
<!-- Generator: Adobe Illustrator 16.0.0, SVG Export Plug-In . SVG Version: 6.00 Build 0)  -->
<!DOCTYPE svg PUBLIC "-//W3C//DTD SVG 1.1//EN" "http://www.w3.org/Graphics/SVG/1.1/DTD/svg11.dtd">
<svg version="1.1" xmlns="http://www.w3.org/2000/svg" xmlns:xlink="http://www.w3.org/1999/xlink" x="0px" y="0px" width="24px"
	 height="24px" viewBox="0 0 24 24" enable-background="new 0 0 24 24" xml:space="preserve">
<g id="Frames-24px">
	<rect fill="none" width="24" height="24"/>
</g>
<g id="Solid">
	<path fill="#757575" d="M20,2h-4c-1.103,0-2,0.898-2,2v4c0,0.178,0.031,0.347,0.075,0.511l-5.563,5.563C8.347,14.031,8.178,14,8,14
		H4c-1.103,0-2,0.898-2,2v4c0,1.103,0.897,2,2,2h4c1.103,0,2-0.897,2-2v-4c0-0.177-0.031-0.347-0.075-0.511l5.563-5.563
		C15.653,9.969,15.822,10,16,10h4c1.103,0,2-0.897,2-2V4C22,2.898,21.103,2,20,2z M4,20v-4h4l0.001,4H4z M16,8V4h4l0.001,4H16z"/>
</g>
</svg>
