<?xml version="1.0" encoding="utf-8"?>
<!-- Generator: Adobe Illustrator 16.0.0, SVG Export Plug-In . SVG Version: 6.00 Build 0)  -->
<!DOCTYPE svg PUBLIC "-//W3C//DTD SVG 1.1//EN" "http://www.w3.org/Graphics/SVG/1.1/DTD/svg11.dtd">
<svg version="1.1" xmlns="http://www.w3.org/2000/svg" xmlns:xlink="http://www.w3.org/1999/xlink" x="0px" y="0px" width="24px"
	 height="24px" viewBox="0 0 24 24" enable-background="new 0 0 24 24" xml:space="preserve">
<g id="Frames-24px">
	<rect fill="none" width="24" height="24"/>
</g>
<g id="Solid">
	<path fill="#757575" d="M20.333,16h-0.813l-5.665-8.092C14.518,7.687,15,7.069,15,6.333V3.667C15,2.748,14.252,2,13.333,2h-2.666
		C9.748,2,9,2.748,9,3.667v2.667c0,0.735,0.482,1.354,1.144,1.574L4.479,16H3.667C2.748,16,2,16.748,2,17.667v2.667
		C2,21.252,2.748,22,3.667,22h2.666C7.252,22,8,21.252,8,20.333V20h8v0.333C16,21.252,16.748,22,17.667,22h2.666
		C21.252,22,22,21.252,22,20.333v-2.667C22,16.748,21.252,16,20.333,16z M11,4h2v2h-2V4z M6,20H4v-2h2V20z M8,18v-0.333
		c0-0.735-0.482-1.354-1.144-1.574L12,8.744l5.144,7.349C16.482,16.313,16,16.931,16,17.667V18H8z M20,20h-2v-2h2V20z"/>
</g>
</svg>
