<?xml version="1.0" encoding="utf-8"?>
<!-- Generator: Adobe Illustrator 16.0.0, SVG Export Plug-In . SVG Version: 6.00 Build 0)  -->
<!DOCTYPE svg PUBLIC "-//W3C//DTD SVG 1.1//EN" "http://www.w3.org/Graphics/SVG/1.1/DTD/svg11.dtd">
<svg version="1.1" xmlns="http://www.w3.org/2000/svg" xmlns:xlink="http://www.w3.org/1999/xlink" x="0px" y="0px" width="24px"
	 height="24px" viewBox="0 0 24 24" enable-background="new 0 0 24 24" xml:space="preserve">
<g id="Frames-24px">
	<rect fill="none" width="24" height="24"/>
</g>
<g id="Solid">
	<path fill="#757575" d="M23,9h-1.485C20.536,5.902,18.098,3.464,15,2.485V1c0-0.552-0.448-1-1-1h-4C9.448,0,9,0.448,9,1v1.492
		C5.903,3.471,3.465,5.904,2.485,9H1c-0.552,0-1,0.448-1,1v4c0,0.552,0.448,1,1,1h1.485c0.98,3.096,3.418,5.529,6.515,6.508V23
		c0,0.552,0.448,1,1,1h4c0.552,0,1-0.448,1-1v-1.485c3.098-0.979,5.536-3.417,6.515-6.515H23c0.552,0,1-0.448,1-1v-4
		C24,9.448,23.552,9,23,9z M11,2h2v2h-2V2z M2,11h2v2H2V11z M13,22h-2v-2h2V22z M15,19.404V19c0-0.552-0.448-1-1-1h-4
		c-0.552,0-1,0.448-1,1v0.413C7.002,18.599,5.408,17,4.596,15H5c0.552,0,1-0.448,1-1v-4c0-0.552-0.448-1-1-1H4.596
		C5.408,7,7.002,5.401,9,4.587V5c0,0.552,0.448,1,1,1h4c0.552,0,1-0.448,1-1V4.596C16.998,5.408,18.592,7.002,19.404,9H19
		c-0.552,0-1,0.448-1,1v4c0,0.552,0.448,1,1,1h0.404C18.592,16.998,16.998,18.592,15,19.404z M22,13h-2v-2h2V13z"/>
</g>
</svg>
