<?xml version="1.0" encoding="utf-8"?>
<!-- Generator: Adobe Illustrator 16.0.0, SVG Export Plug-In . SVG Version: 6.00 Build 0)  -->
<!DOCTYPE svg PUBLIC "-//W3C//DTD SVG 1.1//EN" "http://www.w3.org/Graphics/SVG/1.1/DTD/svg11.dtd">
<svg version="1.1" xmlns="http://www.w3.org/2000/svg" xmlns:xlink="http://www.w3.org/1999/xlink" x="0px" y="0px" width="24px"
	 height="24px" viewBox="0 0 24 24" enable-background="new 0 0 24 24" xml:space="preserve">
<g id="Frames-24px">
	<rect fill="none" width="24" height="24"/>
</g>
<g id="Solid">
	<g>
		<path fill="#757575" d="M18.879,5.249c-0.668-0.328-1.518-0.242-2.107,0.217L10.4,10.422C9.91,10.804,9.629,11.379,9.629,12
			s0.281,1.196,0.772,1.578l6.372,4.957c0.595,0.462,1.409,0.558,2.107,0.217C19.56,18.418,20,17.713,20,16.955v-9.91
			C20,6.287,19.56,5.582,18.879,5.249z M18,16.956l-6.371-4.955L18,7.045L18,16.956z"/>
		<path fill="#757575" d="M14.625,4.781L13.375,3.22l-10,8C3.138,11.409,3,11.696,3,12s0.138,0.592,0.375,0.781l10,8l1.249-1.562
			L5.601,12L14.625,4.781z"/>
	</g>
</g>
</svg>
