<?xml version="1.0" encoding="utf-8"?>
<!-- Generator: Adobe Illustrator 16.0.0, SVG Export Plug-In . SVG Version: 6.00 Build 0)  -->
<!DOCTYPE svg PUBLIC "-//W3C//DTD SVG 1.1//EN" "http://www.w3.org/Graphics/SVG/1.1/DTD/svg11.dtd">
<svg version="1.1" xmlns="http://www.w3.org/2000/svg" xmlns:xlink="http://www.w3.org/1999/xlink" x="0px" y="0px" width="24px"
	 height="24px" viewBox="0 0 24 24" enable-background="new 0 0 24 24" xml:space="preserve">
<g id="Frames-24px">
	<rect fill="none" width="24" height="24"/>
</g>
<g id="Outline">
	<path fill="#757575" d="M20.526,8.15c-0.295-0.183-0.664-0.199-0.973-0.044L17,9.382V8c0-1.103-0.897-2-2-2H6C4.897,6,4,6.897,4,8
		v8c0,1.103,0.897,2,2,2h9c1.103,0,2-0.897,2-2v-1.381l2.553,1.275C19.694,15.965,19.847,16,20,16c0.183,0,0.365-0.05,0.526-0.149
		C20.82,15.668,21,15.347,21,15V9C21,8.653,20.82,8.332,20.526,8.15z M14.997,16H6V8h9L14.997,16z M19,13.382l-2-1v-0.763l2-1
		V13.382z"/>
</g>
</svg>
