<?xml version="1.0" encoding="utf-8"?>
<!-- Generator: Adobe Illustrator 16.0.0, SVG Export Plug-In . SVG Version: 6.00 Build 0)  -->
<!DOCTYPE svg PUBLIC "-//W3C//DTD SVG 1.1//EN" "http://www.w3.org/Graphics/SVG/1.1/DTD/svg11.dtd">
<svg version="1.1" xmlns="http://www.w3.org/2000/svg" xmlns:xlink="http://www.w3.org/1999/xlink" x="0px" y="0px" width="24px"
	 height="24px" viewBox="0 0 24 24" enable-background="new 0 0 24 24" xml:space="preserve">
<g id="Frames-24px">
	<rect fill="none" width="24" height="24"/>
</g>
<g id="Outline">
	<g>
		<path fill="#757575" d="M16,18H4V8h8V6H4V4h8V2H4C2.897,2,2,2.897,2,4v18c0,1.103,0.897,2,2,2h12c1.103,0,2-0.897,2-2V9h-2V18z
			 M4,22v-2h12v2H4z"/>
		<path fill="#757575" d="M7,17h6c0-1.841-1.159-3-3-3S7,15.159,7,17z"/>
		<circle fill="#757575" cx="10" cy="11" r="2"/>
		<path fill="#757575" d="M20,3V2c0-0.553-0.448-1-1-1h-4c-0.552,0-1,0.447-1,1v4c0,0.553,0.448,1,1,1h4c0.552,0,1-0.447,1-1V5l3,1
			V2L20,3z"/>
	</g>
</g>
</svg>
