<?xml version="1.0" encoding="utf-8"?>
<!-- Generator: Adobe Illustrator 16.0.0, SVG Export Plug-In . SVG Version: 6.00 Build 0)  -->
<!DOCTYPE svg PUBLIC "-//W3C//DTD SVG 1.1//EN" "http://www.w3.org/Graphics/SVG/1.1/DTD/svg11.dtd">
<svg version="1.1" xmlns="http://www.w3.org/2000/svg" xmlns:xlink="http://www.w3.org/1999/xlink" x="0px" y="0px" width="24px"
	 height="24px" viewBox="0 0 24 24" enable-background="new 0 0 24 24" xml:space="preserve">
<g id="Frames-24px">
	<rect fill="none" width="24" height="24"/>
</g>
<g id="Solid">
	<g>
		<path fill="#757575" d="M19,15H5c-1.103,0-2,0.896-2,2v2c0,1.103,0.897,2,2,2h14c1.103,0,2-0.897,2-2v-2
			C21,15.896,20.103,15,19,15z M5,19v-2h14l0.001,2H5z"/>
		<path fill="#757575" d="M7.045,13h9.91c0.758,0,1.463-0.439,1.796-1.12S19,10.372,18.535,9.771L13.578,3.4
			c-0.764-0.979-2.392-0.981-3.157,0.002l-4.956,6.37c-0.465,0.6-0.55,1.427-0.217,2.107S6.287,13,7.045,13z M12,4.629L16.955,11
			H7.044L12,4.629z"/>
	</g>
</g>
</svg>
