<?xml version="1.0" encoding="utf-8"?>
<!-- Generator: Adobe Illustrator 16.0.0, SVG Export Plug-In . SVG Version: 6.00 Build 0)  -->
<!DOCTYPE svg PUBLIC "-//W3C//DTD SVG 1.1//EN" "http://www.w3.org/Graphics/SVG/1.1/DTD/svg11.dtd">
<svg version="1.1" xmlns="http://www.w3.org/2000/svg" xmlns:xlink="http://www.w3.org/1999/xlink" x="0px" y="0px" width="24px"
	 height="24px" viewBox="0 0 24 24" enable-background="new 0 0 24 24" xml:space="preserve">
<g id="Frames-24px">
	<rect fill="none" width="24" height="24"/>
</g>
<g id="Solid">
	<g>
		<path fill="#757575" d="M20.526,13.15c-0.295-0.181-0.664-0.199-0.973-0.044L17,14.382V14c0-1.104-0.897-2-2-2H7
			c-1.103,0-2,0.896-2,2v6c0,1.103,0.897,2,2,2h8c1.103,0,2-0.897,2-2v-0.381l2.553,1.275C19.694,20.965,19.847,21,20,21
			c0.183,0,0.365-0.049,0.526-0.149C20.82,20.669,21,20.347,21,20v-6C21,13.653,20.82,13.332,20.526,13.15z M7,20v-6h8l0.001,6H7z
			 M19,18.382l-2-1v-0.763l2-1V18.382z"/>
		<path fill="#757575" d="M10,7c0-2.205-1.794-4-4-4S2,4.795,2,7c0,2.206,1.794,4,4,4S10,9.206,10,7z M4,7c0-1.104,0.897-2,2-2
			s2,0.896,2,2c0,1.103-0.897,2-2,2S4,8.103,4,7z"/>
		<path fill="#757575" d="M15,11c2.206,0,4-1.794,4-4c0-2.205-1.794-4-4-4s-4,1.795-4,4C11,9.206,12.794,11,15,11z M15,5
			c1.103,0,2,0.896,2,2c0,1.103-0.897,2-2,2s-2-0.897-2-2C13,5.896,13.897,5,15,5z"/>
	</g>
</g>
</svg>
