<?xml version="1.0" encoding="utf-8"?>
<!-- Generator: Adobe Illustrator 16.0.0, SVG Export Plug-In . SVG Version: 6.00 Build 0)  -->
<!DOCTYPE svg PUBLIC "-//W3C//DTD SVG 1.1//EN" "http://www.w3.org/Graphics/SVG/1.1/DTD/svg11.dtd">
<svg version="1.1" xmlns="http://www.w3.org/2000/svg" xmlns:xlink="http://www.w3.org/1999/xlink" x="0px" y="0px" width="24px"
	 height="24px" viewBox="0 0 24 24" enable-background="new 0 0 24 24" xml:space="preserve">
<g id="Frames-24px">
	<rect fill="none" width="24" height="24"/>
</g>
<g id="Solid">
	<g>
		<polygon fill="#757575" points="11,14 14,12 11,10 		"/>
		<path fill="#757575" d="M21,3H3C1.897,3,1,3.896,1,5v14c0,1.103,0.897,2,2,2h18c1.103,0,2-0.897,2-2V5C23,3.896,22.103,3,21,3z
			 M3,19V5h18l0.001,14H3z"/>
		<path fill="#757575" d="M12,6c-3.309,0-6,2.691-6,6c0,3.309,2.691,6,6,6s6-2.691,6-6C18,8.691,15.309,6,12,6z M12,16
			c-2.206,0-4-1.794-4-4c0-2.205,1.794-4,4-4s4,1.795,4,4C16,14.206,14.206,16,12,16z"/>
	</g>
</g>
</svg>
