<?xml version="1.0" encoding="utf-8"?>
<!-- Generator: Adobe Illustrator 16.0.0, SVG Export Plug-In . SVG Version: 6.00 Build 0)  -->
<!DOCTYPE svg PUBLIC "-//W3C//DTD SVG 1.1//EN" "http://www.w3.org/Graphics/SVG/1.1/DTD/svg11.dtd">
<svg version="1.1" xmlns="http://www.w3.org/2000/svg" xmlns:xlink="http://www.w3.org/1999/xlink" x="0px" y="0px" width="24px"
	 height="24px" viewBox="0 0 24 24" enable-background="new 0 0 24 24" xml:space="preserve">
<g id="Frames-24px">
	<rect fill="none" width="24" height="24"/>
</g>
<g id="Solid">
	<g>
		<path fill="#757575" d="M12.599,10.422L6.228,5.466C5.639,5.008,4.788,4.922,4.121,5.249C3.44,5.582,3,6.287,3,7.045v9.91
			c0,0.758,0.44,1.463,1.121,1.797c0.692,0.338,1.506,0.25,2.107-0.217l6.372-4.957c0.49-0.382,0.771-0.957,0.771-1.578
			S13.09,10.804,12.599,10.422z M5,16.955l0-9.91L11.372,12L5,16.955z"/>
		<path fill="#757575" d="M20,3h-2c-1.103,0-2,0.896-2,2v14c0,1.103,0.897,2,2,2h2c1.103,0,2-0.897,2-2V5C22,3.896,21.103,3,20,3z
			 M18,19V5h2l0.001,14H18z"/>
	</g>
</g>
</svg>
