<?xml version="1.0" encoding="utf-8"?>
<!-- Generator: Adobe Illustrator 16.0.0, SVG Export Plug-In . SVG Version: 6.00 Build 0)  -->
<!DOCTYPE svg PUBLIC "-//W3C//DTD SVG 1.1//EN" "http://www.w3.org/Graphics/SVG/1.1/DTD/svg11.dtd">
<svg version="1.1" xmlns="http://www.w3.org/2000/svg" xmlns:xlink="http://www.w3.org/1999/xlink" x="0px" y="0px" width="24px"
	 height="24.001px" viewBox="0 0 24 24.001" enable-background="new 0 0 24 24.001" xml:space="preserve">
<g id="Frames-24px">
	<rect y="0" fill="none" width="24" height="24.001"/>
</g>
<g id="Outline">
	<g>
		<g>
			<path fill="#757575" d="M20,23.001H4c-0.425,0-0.803-0.268-0.943-0.669c-0.141-0.401-0.013-0.846,0.318-1.112
				C5.608,19.432,8,16.907,8,16.001c0-0.552,0.448-1,1-1h6c0.552,0,1,0.448,1,1c0,0.909,2.391,3.433,4.625,5.219
				c0.332,0.266,0.459,0.711,0.319,1.112C20.803,22.732,20.425,23.001,20,23.001z M6.67,21.001h10.66
				c-1.242-1.178-2.603-2.679-3.117-4H9.787C9.273,18.322,7.912,19.823,6.67,21.001z"/>
		</g>
		<g>
			<path fill="#757575" d="M15,14.001h-2v-4c0-0.552,0.448-1,1-1h4c0.551,0,1-0.448,1-1c0-0.552-0.449-1-1-1h-2.551
				c-0.497,0-0.919-0.365-0.99-0.857C14.283,4.922,13.226,4.001,12,4.001S9.717,4.922,9.541,6.143
				C9.47,6.636,9.048,7.001,8.551,7.001H6c-0.551,0-1,0.448-1,1c0,0.552,0.449,1,1,1h4c0.552,0,1,0.448,1,1v4H9v-3H6
				c-1.654,0-3-1.345-3-3c0-1.654,1.346-3,3-3h1.773c0.625-1.759,2.312-3,4.227-3s3.602,1.241,4.227,3H18c1.654,0,3,1.346,3,3
				c0,1.655-1.346,3-3,3h-3V14.001z"/>
		</g>
	</g>
</g>
</svg>
