<?xml version="1.0" encoding="utf-8"?>
<!-- Generator: Adobe Illustrator 16.0.0, SVG Export Plug-In . SVG Version: 6.00 Build 0)  -->
<!DOCTYPE svg PUBLIC "-//W3C//DTD SVG 1.1//EN" "http://www.w3.org/Graphics/SVG/1.1/DTD/svg11.dtd">
<svg version="1.1" xmlns="http://www.w3.org/2000/svg" xmlns:xlink="http://www.w3.org/1999/xlink" x="0px" y="0px" width="24px"
	 height="24px" viewBox="0 0 24 24" enable-background="new 0 0 24 24" xml:space="preserve">
<g id="Frames-24px">
	<rect fill="none" width="24" height="24"/>
</g>
<g id="Outline">
	<g>
		<path fill="#757575" d="M18,3H6C4.346,3,3,4.346,3,6v13c0,1.103,0.897,2,2,2h14c1.103,0,2-0.897,2-2V6C21,4.346,19.654,3,18,3z
			 M19,6v1h-3V5h2C18.551,5,19,5.448,19,6z M10,7V5h4v2H10z M6,5h2v2H5V6C5,5.448,5.449,5,6,5z M5,19V9h14v10H5z"/>
		<path fill="#757575" d="M16.526,10.15c-0.295-0.183-0.664-0.199-0.973-0.044l-2.895,1.447l0.895,1.789L15,12.619V18h2v-7
			C17,10.653,16.82,10.332,16.526,10.15z"/>
		<polygon fill="#757575" points="10,11 8,11 8,13 6,13 6,15 8,15 8,17 10,17 10,15 12,15 12,13 10,13 		"/>
	</g>
</g>
</svg>
