<?xml version="1.0" encoding="utf-8"?>
<!-- Generator: Adobe Illustrator 16.0.0, SVG Export Plug-In . SVG Version: 6.00 Build 0)  -->
<!DOCTYPE svg PUBLIC "-//W3C//DTD SVG 1.1//EN" "http://www.w3.org/Graphics/SVG/1.1/DTD/svg11.dtd">
<svg version="1.1" xmlns="http://www.w3.org/2000/svg" xmlns:xlink="http://www.w3.org/1999/xlink" x="0px" y="0px" width="24px"
	 height="24px" viewBox="0 0 24 24" enable-background="new 0 0 24 24" xml:space="preserve">
<g id="Frames-24px">
	<rect fill="none" width="24" height="24"/>
</g>
<g id="Solid">
	<g>
		<path fill="#757575" d="M21,10h-1V8c0-1.103-0.897-2-2-2h-0.382l-1.724-3.447c-0.232-0.465-0.783-0.674-1.266-0.481L4.807,6H4
			C2.897,6,2,6.897,2,8v12c0,1.103,0.897,2,2,2h14c1.103,0,2-0.897,2-2v-2h1c0.552,0,1-0.448,1-1v-6C22,10.448,21.552,10,21,10z
			 M14.517,4.271L15.382,6h-5.189L14.517,4.271z M17.997,20H4V8h14l0,2h-3c-0.265,0-0.52,0.105-0.707,0.293l-3,3
			c-0.391,0.39-0.391,1.023,0,1.414l3,3C14.48,17.895,14.735,18,15,18h2.998L17.997,20z M20,16h-4.586l-2-2l2-2H20V16z"/>
		<circle fill="#757575" cx="16" cy="14" r="1"/>
	</g>
</g>
</svg>
