<?xml version="1.0" encoding="utf-8"?>
<!-- Generator: Adobe Illustrator 16.0.0, SVG Export Plug-In . SVG Version: 6.00 Build 0)  -->
<!DOCTYPE svg PUBLIC "-//W3C//DTD SVG 1.1//EN" "http://www.w3.org/Graphics/SVG/1.1/DTD/svg11.dtd">
<svg version="1.1" xmlns="http://www.w3.org/2000/svg" xmlns:xlink="http://www.w3.org/1999/xlink" x="0px" y="0px" width="24px"
	 height="24px" viewBox="0 0 24 24" enable-background="new 0 0 24 24" xml:space="preserve">
<g id="Frames-24px">
	<rect fill="none" width="24" height="24"/>
</g>
<g id="Solid">
	<g>
		<path fill="#757575" d="M23.263,5.036l-11-3c-0.173-0.047-0.354-0.047-0.526,0l-11,3C0.302,5.154,0,5.549,0,6v2
			c0,0.552,0.448,1,1,1v13h2V9h18v13h2V9c0.552,0,1-0.448,1-1V6C24,5.549,23.698,5.154,23.263,5.036z M2,6.764l10-2.727l10,2.727V7
			H2V6.764z"/>
		<path fill="#757575" d="M18,15h-2v-4c0-0.552-0.448-1-1-1H9c-0.552,0-1,0.448-1,1v4H6c-0.552,0-1,0.448-1,1v5c0,0.552,0.448,1,1,1
			h12c0.552,0,1-0.448,1-1v-5C19,15.448,18.552,15,18,15z M10,12h1v2h2v-2h1v3h-4V12z M7,17h1v2h2v-2h1v3H7V17z M17,20h-4v-3h1v2h2
			v-2h1V20z"/>
	</g>
</g>
</svg>
