<?xml version="1.0" encoding="utf-8"?>
<!-- Generator: Adobe Illustrator 16.0.0, SVG Export Plug-In . SVG Version: 6.00 Build 0)  -->
<!DOCTYPE svg PUBLIC "-//W3C//DTD SVG 1.1//EN" "http://www.w3.org/Graphics/SVG/1.1/DTD/svg11.dtd">
<svg version="1.1" xmlns="http://www.w3.org/2000/svg" xmlns:xlink="http://www.w3.org/1999/xlink" x="0px" y="0px" width="24px"
	 height="24px" viewBox="0 0 24 24" enable-background="new 0 0 24 24" xml:space="preserve">
<g id="Frames-24px">
	<rect fill="none" width="24" height="24"/>
</g>
<g id="Outline">
	<g>
		<path fill="#757575" d="M20.879,17.41C18.299,19.09,15.27,20,12.16,20s-6.14-0.91-8.72-2.59L2,18.85C4.98,20.89,8.53,22,12.16,22
			s7.18-1.11,10.16-3.15L20.879,17.41z"/>
		<path fill="#757575" d="M12.32,18c3.309,0,6-2.691,6-6c0-3.026-4.686-8.959-5.22-9.625l-0.78-0.974l-0.78,0.974
			C11.005,3.041,6.32,8.974,6.32,12C6.32,15.309,9.011,18,12.32,18z M12.32,4.635c1.792,2.392,4,5.841,4,7.365c0,2.206-1.794,4-4,4
			s-4-1.794-4-4C8.32,10.478,10.528,7.028,12.32,4.635z"/>
		<path fill="#757575" d="M15.07,12h-1.5c0,0.69-0.561,1.25-1.25,1.25v1.5C13.836,14.75,15.07,13.517,15.07,12z"/>
	</g>
</g>
</svg>
