<?xml version="1.0" encoding="utf-8"?>
<!-- Generator: Adobe Illustrator 16.0.0, SVG Export Plug-In . SVG Version: 6.00 Build 0)  -->
<!DOCTYPE svg PUBLIC "-//W3C//DTD SVG 1.1//EN" "http://www.w3.org/Graphics/SVG/1.1/DTD/svg11.dtd">
<svg version="1.1" xmlns="http://www.w3.org/2000/svg" xmlns:xlink="http://www.w3.org/1999/xlink" x="0px" y="0px" width="24px"
	 height="24.001px" viewBox="0 0 24 24.001" enable-background="new 0 0 24 24.001" xml:space="preserve">
<g id="Frames-24px">
	<rect fill="none" width="24" height="24.001"/>
</g>
<g id="Outline">
	<path fill="#757575" d="M17,14.001v-6c0.421,0,0.797-0.263,0.94-0.659c0.143-0.396,0.023-0.84-0.3-1.108l-6-5
		c-0.371-0.31-0.909-0.31-1.28,0l-6,5c-0.323,0.268-0.443,0.712-0.3,1.108C4.203,7.738,4.579,8.001,5,8.001v6H3v2h3.802l-1.455,8
		h3.698L11,21.487l1.955,2.514h3.698l-1.455-8H19v-2H17z M11,3.303l3.238,2.698H7.762L11,3.303z M7.646,22.543l0.791-4.352
		l1.296,1.667L7.646,22.543z M9.267,16.001h3.466L11,18.229L9.267,16.001z M12.267,19.858l1.296-1.667l0.791,4.352L12.267,19.858z
		 M15,14.001H7v-6h8V14.001z"/>
</g>
</svg>
