<?xml version="1.0" encoding="utf-8"?>
<!-- Generator: Adobe Illustrator 16.0.0, SVG Export Plug-In . SVG Version: 6.00 Build 0)  -->
<!DOCTYPE svg PUBLIC "-//W3C//DTD SVG 1.1//EN" "http://www.w3.org/Graphics/SVG/1.1/DTD/svg11.dtd">
<svg version="1.1" xmlns="http://www.w3.org/2000/svg" xmlns:xlink="http://www.w3.org/1999/xlink" x="0px" y="0px" width="24px"
	 height="24px" viewBox="0 0 24 24" enable-background="new 0 0 24 24" xml:space="preserve">
<g id="Frames-24px">
	<rect fill="none" width="24" height="24"/>
</g>
<g id="Solid">
	<path fill="#757575" d="M21,2H3C1.897,2,1,2.898,1,4v16c0,1.104,0.897,2,2,2h18c1.103,0,2-0.896,2-2V4C23,2.898,22.103,2,21,2z
		 M21,6h-8V4h8L21,6z M8,6V4h3v2H8z M6,4v2H3V4H6z M3,20V8h17.999l-0.002,12H3z"/>
</g>
</svg>
