<?xml version="1.0" encoding="utf-8"?>
<!-- Generator: Adobe Illustrator 16.0.0, SVG Export Plug-In . SVG Version: 6.00 Build 0)  -->
<!DOCTYPE svg PUBLIC "-//W3C//DTD SVG 1.1//EN" "http://www.w3.org/Graphics/SVG/1.1/DTD/svg11.dtd">
<svg version="1.1" xmlns="http://www.w3.org/2000/svg" xmlns:xlink="http://www.w3.org/1999/xlink" x="0px" y="0px" width="24px"
	 height="24px" viewBox="0 0 24 24" enable-background="new 0 0 24 24" xml:space="preserve">
<g id="Frames-24px">
	<rect fill="none" width="24" height="24"/>
</g>
<g id="Outline">
	<g>
		<circle fill="#757575" cx="12.002" cy="12.004" r="2"/>
		<path fill="#757575" d="M21.417,5.418c0.781-0.781,0.781-2.047,0-2.828s-2.047-0.781-2.828,0c-0.522,0.522-0.687,1.26-0.511,1.925
			l-1.033,1.034c-1.438-0.975-3.174-1.545-5.042-1.545S8.399,4.574,6.96,5.549L5.927,4.515C6.104,3.85,5.939,3.112,5.417,2.59
			c-0.781-0.781-2.047-0.781-2.828,0s-0.781,2.047,0,2.828C3.111,5.94,3.848,6.104,4.513,5.929l0.928,0.927
			c-1.508,1.61-2.439,3.768-2.439,6.147v7c0,1.656,1.343,3,3,3s3-1.344,3-3c0,1.656,1.343,3,3,3s3-1.344,3-3c0,1.656,1.343,3,3,3
			s3-1.344,3-3v-7c0-2.38-0.931-4.537-2.439-6.147l0.928-0.927C20.157,6.104,20.894,5.94,21.417,5.418z M12.002,16.004
			c-2.209,0-4-1.791-4-4s1.791-4,4-4s4,1.791,4,4S14.211,16.004,12.002,16.004z"/>
	</g>
</g>
</svg>
