<?xml version="1.0" encoding="utf-8"?>
<!-- Generator: Adobe Illustrator 16.0.0, SVG Export Plug-In . SVG Version: 6.00 Build 0)  -->
<!DOCTYPE svg PUBLIC "-//W3C//DTD SVG 1.1//EN" "http://www.w3.org/Graphics/SVG/1.1/DTD/svg11.dtd">
<svg version="1.1" xmlns="http://www.w3.org/2000/svg" xmlns:xlink="http://www.w3.org/1999/xlink" x="0px" y="0px" width="24px"
	 height="24px" viewBox="0 0 24 24" enable-background="new 0 0 24 24" xml:space="preserve">
<g id="Frames-24px">
	<rect fill="none" width="24" height="24"/>
</g>
<g id="Solid">
	<g>
		<path fill="#757575" d="M19,10H5c-0.552,0-1,0.448-1,1v7h2v-6h1v6c0,0.552,0.448,1,1,1h1v3h2v-3h2v3h2v-3h1c0.552,0,1-0.448,1-1
			v-6h1v6h2v-7C20,10.448,19.552,10,19,10z"/>
		<path fill="#757575" d="M7,8c0,0.552,0.448,1,1,1h8c0.552,0,1-0.448,1-1c0-1.017-0.309-1.962-0.833-2.752l1.54-1.54l-1.414-1.415
			l-1.54,1.54C13.962,3.31,13.018,3,12,3s-1.962,0.31-2.753,0.833l-1.54-1.54L6.293,3.708l1.54,1.54C7.309,6.038,7,6.983,7,8z"/>
	</g>
</g>
</svg>
