<?xml version="1.0" encoding="utf-8"?>
<!-- Generator: Adobe Illustrator 16.0.0, SVG Export Plug-In . SVG Version: 6.00 Build 0)  -->
<!DOCTYPE svg PUBLIC "-//W3C//DTD SVG 1.1//EN" "http://www.w3.org/Graphics/SVG/1.1/DTD/svg11.dtd">
<svg version="1.1" xmlns="http://www.w3.org/2000/svg" xmlns:xlink="http://www.w3.org/1999/xlink" x="0px" y="0px" width="24px"
	 height="24px" viewBox="0 0 24 24" enable-background="new 0 0 24 24" xml:space="preserve">
<g id="Frames-24px">
	<rect fill="none" width="24" height="24"/>
</g>
<g id="Solid">
	<path fill="#757575" d="M12,1.5C6.21,1.5,1.5,6.21,1.5,12c0,5.79,4.71,10.5,10.5,10.5c2.141,0,4.193-0.632,5.936-1.829
		l-1.698-2.474C14.997,19.05,13.532,19.5,12,19.5c-4.136,0-7.5-3.364-7.5-7.5c0-4.135,3.364-7.5,7.5-7.5s7.5,3.365,7.5,7.5v0.783
		c0,0.642-0.143,1.717-1.1,1.717h-0.399c-0.292-0.011-0.882-0.582-0.901-0.869V12h0c0-2.813-2.288-5.1-5.1-5.1
		C9.188,6.9,6.9,9.188,6.9,12S9.188,17.1,12,17.1c1.171,0,2.239-0.414,3.101-1.08C15.853,16.887,16.926,17.5,18,17.5h0.4
		c2.414,0,4.1-1.94,4.1-4.717V12C22.5,6.21,17.79,1.5,12,1.5z M12,14.1C10.842,14.1,9.9,13.158,9.9,12c0-1.157,0.942-2.1,2.099-2.1
		c1.158,0,2.1,0.942,2.1,2.1C14.1,13.158,13.158,14.1,12,14.1z"/>
</g>
</svg>
