<?xml version="1.0" encoding="utf-8"?>
<!-- Generator: Adobe Illustrator 16.0.0, SVG Export Plug-In . SVG Version: 6.00 Build 0)  -->
<!DOCTYPE svg PUBLIC "-//W3C//DTD SVG 1.1//EN" "http://www.w3.org/Graphics/SVG/1.1/DTD/svg11.dtd">
<svg version="1.1" xmlns="http://www.w3.org/2000/svg" xmlns:xlink="http://www.w3.org/1999/xlink" x="0px" y="0px" width="24px"
	 height="24px" viewBox="0 0 24 24" enable-background="new 0 0 24 24" xml:space="preserve">
<g id="Frames-24px">
	<rect fill="none" width="24" height="24"/>
</g>
<g id="Solid">
	<g>
		<path fill="#757575" d="M20.754,21.107l-0.172-0.015C20.516,21.092,14,21.057,14,18v-1h4c0.552,0,1-0.448,1-1c0-0.552-0.448-1-1-1
			H6c-0.552,0-1,0.448-1,1c0,0.552,0.448,1,1,1h4v1c0,3.049-6.516,3.186-6.582,3.186L3.25,21.2c-0.798,0.136-1.31,0.76-1.244,1.519
			C2.071,23.473,2.687,24,3.504,24h16.992c1.295,0,1.474-0.911,1.498-1.19C22.064,22.002,21.507,21.239,20.754,21.107z"/>
		<path fill="#757575" d="M5,12h5v2h4v-2h5c2.206,0,4-1.794,4-4s-1.794-4-4-4c-1.231,0-2.321,0.571-3.056,1.45
			C15.673,3.506,14.017,2,12,2S8.327,3.506,8.056,5.45C7.321,4.571,6.231,4,5,4C2.794,4,1,5.794,1,8S2.794,12,5,12z"/>
	</g>
</g>
</svg>
