<?xml version="1.0" encoding="utf-8"?>
<!-- Generator: Adobe Illustrator 16.0.0, SVG Export Plug-In . SVG Version: 6.00 Build 0)  -->
<!DOCTYPE svg PUBLIC "-//W3C//DTD SVG 1.1//EN" "http://www.w3.org/Graphics/SVG/1.1/DTD/svg11.dtd">
<svg version="1.1" xmlns="http://www.w3.org/2000/svg" xmlns:xlink="http://www.w3.org/1999/xlink" x="0px" y="0px" width="24px"
	 height="24.002px" viewBox="0 0 24 24.002" enable-background="new 0 0 24 24.002" xml:space="preserve">
<g id="Frames-24px">
	<rect fill="none" width="24" height="24.002"/>
</g>
<g id="Outline">
	<g>
		<path fill="#757575" d="M14.564,16.962l4.006,1.752c0.403-1.285,0.704-2.616,0.935-3.948L14.564,16.962z"/>
		<circle fill="#757575" cx="11.984" cy="9.5" r="1.5"/>
		<path fill="#757575" d="M4.523,14.751C5.952,23.051,8.441,24,12.015,24c2.946,0,4.639-0.898,5.839-3.416L4.523,14.751z"/>
		<path fill="#757575" d="M12.083,15.876l7.748-3.443C20.106,9.848,20.02,8.078,20.015,8c0-4.636-3.365-8-8-8
			c-4.636,0-8,3.364-7.999,7.946C4.01,8.059,3.924,9.839,4.2,12.427L12.083,15.876z M12.015,3c2.761,0,5,2.238,5,5
			c0,2.761-2.239,5-5,5s-5-2.239-5-5C7.015,5.238,9.254,3,12.015,3z"/>
	</g>
</g>
</svg>
