<?xml version="1.0" encoding="utf-8"?>
<!-- Generator: Adobe Illustrator 16.0.0, SVG Export Plug-In . SVG Version: 6.00 Build 0)  -->
<!DOCTYPE svg PUBLIC "-//W3C//DTD SVG 1.1//EN" "http://www.w3.org/Graphics/SVG/1.1/DTD/svg11.dtd">
<svg version="1.1" xmlns="http://www.w3.org/2000/svg" xmlns:xlink="http://www.w3.org/1999/xlink" x="0px" y="0px" width="24px"
	 height="24px" viewBox="0 0 24 24" enable-background="new 0 0 24 24" xml:space="preserve">
<g id="Frames-24px">
	<rect fill="none" width="24" height="24"/>
</g>
<g id="Solid">
	<path fill="#757575" d="M18,5h-2V3c0-0.552-0.448-1-1-1H9C8.448,2,8,2.448,8,3v2H6C5.448,5,5,5.448,5,6v14c0,1.103,0.897,2,2,2h10
		c1.103,0,2-0.897,2-2V6C19,5.448,18.552,5,18,5z M17,10H7V7h2c0.552,0,1-0.448,1-1V4h4v2c0,0.552,0.448,1,1,1h2V10z"/>
</g>
</svg>
