<?xml version="1.0" encoding="utf-8"?>
<!-- Generator: Adobe Illustrator 16.0.0, SVG Export Plug-In . SVG Version: 6.00 Build 0)  -->
<!DOCTYPE svg PUBLIC "-//W3C//DTD SVG 1.1//EN" "http://www.w3.org/Graphics/SVG/1.1/DTD/svg11.dtd">
<svg version="1.1" xmlns="http://www.w3.org/2000/svg" xmlns:xlink="http://www.w3.org/1999/xlink" x="0px" y="0px" width="24px"
	 height="24.001px" viewBox="0 0 24 24.001" enable-background="new 0 0 24 24.001" xml:space="preserve">
<g id="Frames-24px">
	<rect fill="none" width="24" height="24.001"/>
</g>
<g id="Outline">
	<g>
		<path fill="#757575" d="M22.001,9.502c0,2.486-2.015,4.5-4.5,4.5s-4.5-2.014-4.5-4.5c0-2.485,4.5-8.5,4.5-8.5
			S22.001,7.017,22.001,9.502z"/>
		<path fill="#757575" d="M19.001,18.002h-8.586l0.293-0.293c0.391-0.39,0.391-1.023,0-1.414l-1-1
			c-0.283-0.283-0.707-0.369-1.079-0.222l-3.628,1.451v6.477h11c0.265,0,0.52-0.105,0.707-0.293l3-3
			c0.286-0.286,0.372-0.716,0.217-1.09C19.771,18.246,19.406,18.002,19.001,18.002z"/>
		<path fill="#757575" d="M3.001,15.002h-2c-0.552,0-1,0.448-1,1v7c0,0.553,0.448,1,1,1h2c0.552,0,1-0.447,1-1v-7
			C4.001,15.449,3.554,15.002,3.001,15.002z"/>
	</g>
</g>
</svg>
