<?xml version="1.0" encoding="utf-8"?>
<!-- Generator: Adobe Illustrator 16.0.0, SVG Export Plug-In . SVG Version: 6.00 Build 0)  -->
<!DOCTYPE svg PUBLIC "-//W3C//DTD SVG 1.1//EN" "http://www.w3.org/Graphics/SVG/1.1/DTD/svg11.dtd">
<svg version="1.1" xmlns="http://www.w3.org/2000/svg" xmlns:xlink="http://www.w3.org/1999/xlink" x="0px" y="0px" width="24px"
	 height="24px" viewBox="0 0 24 24" enable-background="new 0 0 24 24" xml:space="preserve">
<g id="Frames-24px">
	<rect fill="none" width="24" height="24"/>
</g>
<g id="Solid">
	<g>
		<path fill="#757575" d="M11,11.004h1.5c0.276,0,0.5-0.224,0.5-0.5c0-0.277-0.224-0.5-0.5-0.5H11V11.004z"/>
		<path fill="#757575" d="M12,0.004c-6.617,0-12,5.383-12,12c0,6.616,5.383,11.999,12,11.999s12-5.383,12-11.999
			C24,5.387,18.617,0.004,12,0.004z M20.647,7.004H17.58l-2.597-4.546C17.391,3.213,19.402,4.859,20.647,7.004z M15,13.504
			c0,1.207-0.86,2.217-2,2.449v1.051h-2v-1H9v-8h2v-1h2v1.051c1.14,0.233,2,1.242,2,2.449c0,0.564-0.195,1.08-0.513,1.5
			C14.805,12.423,15,12.939,15,13.504z M11.568,2.027C11.712,2.02,11.854,2.004,12,2.004s0.288,0.016,0.432,0.022l1.943,3.399
			C13.633,5.158,12.835,5.004,12,5.004s-1.633,0.153-2.375,0.421L11.568,2.027z M9.017,2.459L6.42,7.004H3.353
			C4.598,4.859,6.609,3.213,9.017,2.459z M2,12.004c0-1.046,0.163-2.053,0.461-3h3.222C5.25,9.914,5,10.929,5,12.004
			s0.25,2.089,0.683,3H2.461C2.163,14.057,2,13.049,2,12.004z M3.354,17.004H6.42l2.597,4.544
			C6.609,20.794,4.598,19.148,3.354,17.004z M12.432,21.981c-0.144,0.007-0.286,0.022-0.432,0.022s-0.288-0.016-0.432-0.022
			l-1.943-3.399c0.743,0.268,1.54,0.423,2.375,0.423s1.632-0.154,2.375-0.423L12.432,21.981z M14.983,21.548l2.597-4.544h3.066
			C19.402,19.148,17.391,20.794,14.983,21.548z M18.317,15.004c0.433-0.911,0.683-1.925,0.683-3s-0.25-2.09-0.683-3h3.222
			c0.298,0.947,0.461,1.954,0.461,3c0,1.044-0.163,2.052-0.461,3H18.317z"/>
		<path fill="#757575" d="M12.5,13.004H11v1h1.5c0.276,0,0.5-0.224,0.5-0.5C13,13.228,12.776,13.004,12.5,13.004z"/>
	</g>
</g>
</svg>
