<?xml version="1.0" encoding="utf-8"?>
<!-- Generator: Adobe Illustrator 16.0.0, SVG Export Plug-In . SVG Version: 6.00 Build 0)  -->
<!DOCTYPE svg PUBLIC "-//W3C//DTD SVG 1.1//EN" "http://www.w3.org/Graphics/SVG/1.1/DTD/svg11.dtd">
<svg version="1.1" xmlns="http://www.w3.org/2000/svg" xmlns:xlink="http://www.w3.org/1999/xlink" x="0px" y="0px" width="24px"
	 height="24px" viewBox="0 0 24 24" enable-background="new 0 0 24 24" xml:space="preserve">
<g id="Frames-24px">
	<rect fill="none" width="24" height="24"/>
</g>
<g id="Solid">
	<g>
		<path fill="#757575" d="M12.5,15H11v1h1.5c0.276,0,0.5-0.223,0.5-0.5C13,15.224,12.776,15,12.5,15z"/>
		<path fill="#757575" d="M11,13h1.5c0.276,0,0.5-0.223,0.5-0.5c0-0.276-0.224-0.5-0.5-0.5H11V13z"/>
		<path fill="#757575" d="M22,7.002v-2c0-1.102-0.897-2-2-2H4c-1.103,0-2,0.898-2,2v2H22z M8,4.002c0.552,0,1,0.449,1,1
			c0,0.552-0.448,1-1,1s-1-0.448-1-1C7,4.451,7.448,4.002,8,4.002z M5,4.002c0.552,0,1,0.449,1,1c0,0.552-0.448,1-1,1s-1-0.448-1-1
			C4,4.451,4.448,4.002,5,4.002z"/>
		<path fill="#757575" d="M2,8.002v11c0,1.103,0.897,2,2,2h16c1.103,0,2-0.897,2-2v-11H2z M15,15.5c0,1.207-0.86,2.217-2,2.449V19
			h-2v-1H9v-8h2V9h2v1.051c1.14,0.232,2,1.242,2,2.449c0,0.564-0.195,1.081-0.513,1.5C14.805,14.418,15,14.936,15,15.5z"/>
	</g>
</g>
</svg>
