<?xml version="1.0" encoding="utf-8"?>
<!-- Generator: Adobe Illustrator 16.0.0, SVG Export Plug-In . SVG Version: 6.00 Build 0)  -->
<!DOCTYPE svg PUBLIC "-//W3C//DTD SVG 1.1//EN" "http://www.w3.org/Graphics/SVG/1.1/DTD/svg11.dtd">
<svg version="1.1" xmlns="http://www.w3.org/2000/svg" xmlns:xlink="http://www.w3.org/1999/xlink" x="0px" y="0px" width="24px"
	 height="24px" viewBox="0 0 24 24" enable-background="new 0 0 24 24" xml:space="preserve">
<g id="Frames-24px">
	<rect fill="none" width="24" height="24"/>
</g>
<g id="Solid">
	<g>
		<path fill="#757575" d="M23.243,16.033c-0.082-0.021-0.162-0.013-0.243-0.013V3.003c0-0.551-0.448-1-1-1H2c-0.552,0-1,0.449-1,1
			v13c0,0-0.161,0.009-0.243,0.03c-0.536,0.133-0.861,0.677-0.728,1.212l0.757,3.031C1.033,21.261,1.985,22.003,3,22.003h18
			c1.015,0,1.967-0.742,2.213-1.726l0.757-3.031C24.104,16.71,23.778,16.167,23.243,16.033z M3,4.003h18v12h-7c-0.552,0-1,0.449-1,1
			h-2c0-0.551-0.448-1-1-1H3V4.003z M21.272,19.791C21.25,19.878,21.09,20.003,21,20.003H3c-0.09,0-0.25-0.125-0.272-0.212
			l-0.447-1.788H9c0,0.552,0.448,1,1,1h4c0.552,0,1-0.448,1-1h6.719L21.272,19.791z"/>
		<path fill="#757575" d="M11,14.003H9v-8h2v-1H5c-0.552,0-1,0.449-1,1v8c0,0.552,0.448,1,1,1h6V14.003z"/>
		<path fill="#757575" d="M12.5,11.003H11v1h1.5c0.276,0,0.5-0.224,0.5-0.5C13,11.228,12.776,11.003,12.5,11.003z"/>
		<path fill="#757575" d="M15,8.503c0,0.566-0.195,1.082-0.513,1.5c0.317,0.419,0.513,0.935,0.513,1.5c0,1.208-0.86,2.217-2,2.449
			v1.051h6c0.552,0,1-0.448,1-1v-8c0-0.551-0.448-1-1-1h-6v1.051C14.14,6.286,15,7.296,15,8.503z"/>
		<path fill="#757575" d="M11,9.003h1.5c0.276,0,0.5-0.224,0.5-0.5c0-0.275-0.224-0.5-0.5-0.5H11V9.003z"/>
	</g>
</g>
</svg>
