<?xml version="1.0" encoding="utf-8"?>
<!-- Generator: Adobe Illustrator 16.0.0, SVG Export Plug-In . SVG Version: 6.00 Build 0)  -->
<!DOCTYPE svg PUBLIC "-//W3C//DTD SVG 1.1//EN" "http://www.w3.org/Graphics/SVG/1.1/DTD/svg11.dtd">
<svg version="1.1" xmlns="http://www.w3.org/2000/svg" xmlns:xlink="http://www.w3.org/1999/xlink" x="0px" y="0px" width="24px"
	 height="24px" viewBox="0 0 24 24" enable-background="new 0 0 24 24" xml:space="preserve">
<g id="Frames-24px">
	<rect fill="none" width="24" height="24"/>
</g>
<g id="Solid">
	<g>
		<path fill="#757575" d="M15.832,0.446C15.646,0.168,15.335,0,15,0h-4v6h8.535L15.832,0.446z"/>
		<path fill="#757575" d="M9,0H5C4.666,0,4.354,0.168,4.168,0.446L0.465,6H9V0z"/>
		<path fill="#757575" d="M19,13.998c0.342,0,0.674,0.035,1,0.09V8H0v11c0,0.552,0.448,1,1,1h12c0,0,0-0.001,0-0.002
			C13,16.684,15.687,13.998,19,13.998z"/>
		<polygon fill="#757575" points="22.293,16.291 18,20.584 15.707,18.291 14.293,19.705 18,23.412 23.707,17.705 		"/>
	</g>
</g>
</svg>
