<?xml version="1.0" encoding="utf-8"?>
<!-- Generator: Adobe Illustrator 16.0.0, SVG Export Plug-In . SVG Version: 6.00 Build 0)  -->
<!DOCTYPE svg PUBLIC "-//W3C//DTD SVG 1.1//EN" "http://www.w3.org/Graphics/SVG/1.1/DTD/svg11.dtd">
<svg version="1.1" xmlns="http://www.w3.org/2000/svg" xmlns:xlink="http://www.w3.org/1999/xlink" x="0px" y="0px" width="24px"
	 height="24px" viewBox="0 0 24 24" enable-background="new 0 0 24 24" xml:space="preserve">
<g id="Frames-24px">
	<rect fill="none" width="24" height="24"/>
</g>
<g id="Solid">
	<g>
		<path fill="#757575" d="M15.832,0.446C15.646,0.168,15.334,0,15,0h-4v6h8.535L15.832,0.446z"/>
		<path fill="#757575" d="M9,0H5C4.666,0,4.354,0.168,4.168,0.446L0.465,6H9V0z"/>
		<path fill="#757575" d="M20,8H0v11c0,0.552,0.448,1,1,1h13c0,0,0-0.001,0-0.002c0-3.314,2.687-6,6-6V8z"/>
		<polygon fill="#757575" points="21,18.998 21,15.998 19,15.998 19,18.998 16,18.998 16,20.998 19,20.998 19,23.998 21,23.998 
			21,20.998 24,20.998 24,18.998 		"/>
	</g>
</g>
</svg>
