<?xml version="1.0" encoding="utf-8"?>
<!-- Generator: Adobe Illustrator 16.0.0, SVG Export Plug-In . SVG Version: 6.00 Build 0)  -->
<!DOCTYPE svg PUBLIC "-//W3C//DTD SVG 1.1//EN" "http://www.w3.org/Graphics/SVG/1.1/DTD/svg11.dtd">
<svg version="1.1" xmlns="http://www.w3.org/2000/svg" xmlns:xlink="http://www.w3.org/1999/xlink" x="0px" y="0px" width="24px"
	 height="24.001px" viewBox="0 0 24 24.001" enable-background="new 0 0 24 24.001" xml:space="preserve">
<g id="Frames-24px">
	<rect fill="none" width="24" height="24.001"/>
</g>
<g id="Outline">
	<g>
		<path fill="#757575" d="M10.003,7.504c0-1.934-1.566-3.5-3.5-3.5c-1.933,0-3.5,1.566-3.5,3.5v2.5h7V7.504z"/>
		<rect x="3.003" y="11.004" fill="#757575" width="7" height="4"/>
		<path fill="#757575" d="M22.003,20.004V13.57c0-0.351-0.185-0.677-0.485-0.858l-4-2.401c-0.317-0.189-0.712-0.189-1.029,0
			l-4,2.401c-0.301,0.181-0.485,0.507-0.485,0.858v6.434h-2v-4h-7v4h-3v2h24v-2H22.003z M15.003,20.004v-4h4v4H15.003z"/>
	</g>
</g>
</svg>
