<?xml version="1.0" encoding="utf-8"?>
<!-- Generator: Adobe Illustrator 16.0.0, SVG Export Plug-In . SVG Version: 6.00 Build 0)  -->
<!DOCTYPE svg PUBLIC "-//W3C//DTD SVG 1.1//EN" "http://www.w3.org/Graphics/SVG/1.1/DTD/svg11.dtd">
<svg version="1.1" xmlns="http://www.w3.org/2000/svg" xmlns:xlink="http://www.w3.org/1999/xlink" x="0px" y="0px" width="24px"
	 height="24.001px" viewBox="0 0 24 24.001" enable-background="new 0 0 24 24.001" xml:space="preserve">
<g id="Frames-24px">
	<rect y="0" fill="none" width="24" height="24.001"/>
</g>
<g id="Outline">
	<g>
		<path fill="#757575" d="M13.004,3.094v-2.09h-2v2.09c-2.836,0.477-5,2.938-5,5.91h12C18.004,6.032,15.841,3.571,13.004,3.094z"/>
		<path fill="#757575" d="M22.004,16.004h-3v-4c0-0.552-0.448-1-1-1h-12c-0.552,0-1,0.448-1,1v4h-3c-0.552,0-1,0.448-1,1v4
			c0,0.553,0.448,1,1,1h20c0.552,0,1-0.447,1-1v-4C23.004,16.452,22.557,16.004,22.004,16.004z M5.004,20.004h-2v-2h2V20.004z
			 M9.004,20.004h-2v-2h2V20.004z M9.004,15.004h-2v-2h2V15.004z M13.004,20.004h-2v-2h2V20.004z M13.004,15.004h-2v-2h2V15.004z
			 M17.004,20.004h-2v-2h2V20.004z M17.004,15.004h-2v-2h2V15.004z M21.004,20.004h-2v-2h2V20.004z"/>
	</g>
</g>
</svg>
