<?xml version="1.0" encoding="utf-8"?>
<!-- Generator: Adobe Illustrator 16.0.0, SVG Export Plug-In . SVG Version: 6.00 Build 0)  -->
<!DOCTYPE svg PUBLIC "-//W3C//DTD SVG 1.1//EN" "http://www.w3.org/Graphics/SVG/1.1/DTD/svg11.dtd">
<svg version="1.1" xmlns="http://www.w3.org/2000/svg" xmlns:xlink="http://www.w3.org/1999/xlink" x="0px" y="0px" width="24px"
	 height="24px" viewBox="0 0 24 24" enable-background="new 0 0 24 24" xml:space="preserve">
<g id="Frames-24px">
	<rect fill="none" width="24" height="24"/>
</g>
<g id="Outline">
	<g>
		<path fill="#757575" d="M18.003,3.006h-12c-1.104,0-2,0.896-2,2v16c0,1.104,0.896,2,2,2s2-0.896,2-2h8c0,1.104,0.896,2,2,2
			s2-0.896,2-2v-16C20.003,3.901,19.108,3.006,18.003,3.006z M6.003,7.006h12v7h-12V7.006z M7.503,19.006
			c-0.828,0-1.5-0.672-1.5-1.5s0.672-1.5,1.5-1.5s1.5,0.672,1.5,1.5S8.332,19.006,7.503,19.006z M15.003,17.506
			c0-0.828,0.672-1.5,1.5-1.5s1.5,0.672,1.5,1.5s-0.672,1.5-1.5,1.5S15.003,18.334,15.003,17.506z"/>
		<rect x="21.003" y="8.006" fill="#757575" width="2" height="4"/>
		<rect x="1.003" y="8.006" fill="#757575" width="2" height="4"/>
	</g>
</g>
</svg>
