<?xml version="1.0" encoding="utf-8"?>
<!-- Generator: Adobe Illustrator 16.0.0, SVG Export Plug-In . SVG Version: 6.00 Build 0)  -->
<!DOCTYPE svg PUBLIC "-//W3C//DTD SVG 1.1//EN" "http://www.w3.org/Graphics/SVG/1.1/DTD/svg11.dtd">
<svg version="1.1" xmlns="http://www.w3.org/2000/svg" xmlns:xlink="http://www.w3.org/1999/xlink" x="0px" y="0px" width="24px"
	 height="24px" viewBox="0 0 24 24" enable-background="new 0 0 24 24" xml:space="preserve">
<g id="Frames-24px">
	<rect fill="none" width="24" height="24"/>
</g>
<g id="Solid">
	<path fill="#757575" d="M21,3h-2V1h-2v5h-2V3H9V1H7v5H5V3H3C1.897,3,1,3.898,1,5v15c0,1.103,0.897,2,2,2h18c1.103,0,2-0.897,2-2V5
		C23,3.898,22.103,3,21,3z M8,19H4v-4h4V19z M8,13H4V9h4V13z M14,19h-4v-4h4V19z M14,13h-4V9h4V13z M20,13h-4V9h4V13z"/>
</g>
</svg>
