<?xml version="1.0" encoding="utf-8"?>
<!-- Generator: Adobe Illustrator 16.0.0, SVG Export Plug-In . SVG Version: 6.00 Build 0)  -->
<!DOCTYPE svg PUBLIC "-//W3C//DTD SVG 1.1//EN" "http://www.w3.org/Graphics/SVG/1.1/DTD/svg11.dtd">
<svg version="1.1" xmlns="http://www.w3.org/2000/svg" xmlns:xlink="http://www.w3.org/1999/xlink" x="0px" y="0px" width="24px"
	 height="24px" viewBox="0 0 24 24" enable-background="new 0 0 24 24" xml:space="preserve">
<g id="Frames-24px">
	<rect fill="none" width="24" height="24"/>
</g>
<g id="Solid">
	<g>
		<circle fill="#757575" cx="12" cy="12.003" r="2"/>
		<path fill="#757575" d="M20,2.003H4c-1.104,0-2,0.896-2,2v16c0,1.104,0.896,2,2,2h16c1.104,0,2-0.896,2-2v-16
			C22,2.899,21.104,2.003,20,2.003z M4,6.003c0-1.103,0.897-2,2-2h4v2H6v4H4V6.003z M10,20.003H6c-1.103,0-2-0.897-2-2v-4h2v4h4
			V20.003z M13,18.003h-2v-2.142c-1.399-0.364-2.494-1.459-2.858-2.858H6v-2h2.142C8.506,9.604,9.601,8.51,11,8.146V6.003h2v2.142
			c1.399,0.364,2.494,1.459,2.858,2.858H18v2h-2.142c-0.364,1.399-1.459,2.494-2.858,2.858V18.003z M20,18.003c0,1.103-0.897,2-2,2
			h-4v-2h4v-4h2V18.003z M20,10.003h-2v-4h-4v-2h4c1.103,0,2,0.897,2,2V10.003z"/>
	</g>
</g>
</svg>
