<?xml version="1.0" encoding="utf-8"?>
<!-- Generator: Adobe Illustrator 16.0.0, SVG Export Plug-In . SVG Version: 6.00 Build 0)  -->
<!DOCTYPE svg PUBLIC "-//W3C//DTD SVG 1.1//EN" "http://www.w3.org/Graphics/SVG/1.1/DTD/svg11.dtd">
<svg version="1.1" xmlns="http://www.w3.org/2000/svg" xmlns:xlink="http://www.w3.org/1999/xlink" x="0px" y="0px" width="24px"
	 height="24.001px" viewBox="0 0 24 24.001" enable-background="new 0 0 24 24.001" xml:space="preserve">
<g id="Frames-24px">
	<rect fill="none" width="24" height="24.001"/>
</g>
<g id="Outline">
	<g>
		<path fill="#757575" d="M8.004,11.004l-0.364,2h8.728l-0.364-2c1.104,0,2-0.895,2-2v-4h-2v2h-3v-2h-2v2h-3v-2h-2v4
			C6.004,10.108,6.899,11.004,8.004,11.004z"/>
		<path fill="#757575" d="M1.004,14.004v3h1v4c0,0.553,0.448,1,1,1h7v-2c0-1.103,0.896-2,2-2s2,0.897,2,2v2h7c0.552,0,1-0.447,1-1
			v-4h1v-3H1.004z"/>
	</g>
</g>
</svg>
