<?xml version="1.0" encoding="utf-8"?>
<!-- Generator: Adobe Illustrator 16.0.0, SVG Export Plug-In . SVG Version: 6.00 Build 0)  -->
<!DOCTYPE svg PUBLIC "-//W3C//DTD SVG 1.1//EN" "http://www.w3.org/Graphics/SVG/1.1/DTD/svg11.dtd">
<svg version="1.1" xmlns="http://www.w3.org/2000/svg" xmlns:xlink="http://www.w3.org/1999/xlink" x="0px" y="0px" width="24px"
	 height="24.001px" viewBox="0 0 24 24.001" enable-background="new 0 0 24 24.001" xml:space="preserve">
<g id="Frames-24px">
	<rect fill="none" width="24" height="24.001"/>
</g>
<g id="Outline">
	<path fill="#757575" d="M20.003,13.004c0-4.43-3.359-11-8-11s-8,6.57-8,11c0,4.169,1.857,5.805,7,5.982v1.018h-3v2h8v-2h-3v-1.018
		C18.146,18.809,20.003,17.173,20.003,13.004z M12.003,13.004c2,0,4,1,4,2c0,0-2,1-4,1s-4-1-4-1
		C8.003,14.004,10.003,13.004,12.003,13.004z"/>
</g>
</svg>
