<?xml version="1.0" encoding="utf-8"?>
<!-- Generator: Adobe Illustrator 16.0.0, SVG Export Plug-In . SVG Version: 6.00 Build 0)  -->
<!DOCTYPE svg PUBLIC "-//W3C//DTD SVG 1.1//EN" "http://www.w3.org/Graphics/SVG/1.1/DTD/svg11.dtd">
<svg version="1.1" xmlns="http://www.w3.org/2000/svg" xmlns:xlink="http://www.w3.org/1999/xlink" x="0px" y="0px" width="24px"
	 height="24px" viewBox="0 0 24 24" enable-background="new 0 0 24 24" xml:space="preserve">
<g id="Frames-24px">
	<rect fill="none" width="24" height="24"/>
</g>
<g id="Solid">
	<path fill="#757575" d="M20,2H4C2.896,2,2,2.896,2,4v12c0,1.104,0.896,2,2,2h1v4l4-4h11c1.104,0,2-0.896,2-2V4
		C22,2.896,21.104,2,20,2z M15,5.75c0.689,0,1.25,0.56,1.25,1.25S15.689,8.25,15,8.25S13.75,7.69,13.75,7S14.311,5.75,15,5.75z
		 M9,5.75c0.689,0,1.25,0.56,1.25,1.25S9.689,8.25,9,8.25S7.75,7.69,7.75,7S8.311,5.75,9,5.75z M12,14c-2.05,0-3.806-1.236-4.578-3
		h9.156C15.806,12.764,14.05,14,12,14z"/>
</g>
</svg>
