<?xml version="1.0" encoding="utf-8"?>
<!-- Generator: Adobe Illustrator 16.0.0, SVG Export Plug-In . SVG Version: 6.00 Build 0)  -->
<!DOCTYPE svg PUBLIC "-//W3C//DTD SVG 1.1//EN" "http://www.w3.org/Graphics/SVG/1.1/DTD/svg11.dtd">
<svg version="1.1" xmlns="http://www.w3.org/2000/svg" xmlns:xlink="http://www.w3.org/1999/xlink" x="0px" y="0px" width="24px"
	 height="24px" viewBox="0 0 24 24" enable-background="new 0 0 24 24" xml:space="preserve">
<g id="Frames-24px">
	<rect fill="none" width="24" height="24"/>
</g>
<g id="Solid">
	<g>
		<path fill="#757575" d="M15,7H2C0.897,7,0,7.897,0,9v9c0,1.103,0.897,2,2,2h1v4l5.333-4H15c1.103,0,2-0.897,2-2V9
			C17,7.897,16.103,7,15,7z"/>
		<polygon fill="#757575" points="21,3 21,0 19,0 19,3 16,3 16,5 19,5 19,8 21,8 21,5 24,5 24,3 		"/>
	</g>
</g>
</svg>
