<?xml version="1.0" encoding="utf-8"?>
<!-- Generator: Adobe Illustrator 16.0.0, SVG Export Plug-In . SVG Version: 6.00 Build 0)  -->
<!DOCTYPE svg PUBLIC "-//W3C//DTD SVG 1.1//EN" "http://www.w3.org/Graphics/SVG/1.1/DTD/svg11.dtd">
<svg version="1.1" xmlns="http://www.w3.org/2000/svg" xmlns:xlink="http://www.w3.org/1999/xlink" x="0px" y="0px" width="24px"
	 height="24px" viewBox="0 0 24 24" enable-background="new 0 0 24 24" xml:space="preserve">
<g id="Frames-24px">
	<rect fill="none" width="24" height="24"/>
</g>
<g id="Solid">
	<g>
		<g>
			<path fill="#757575" d="M21,17v-3c0-1.103-0.897-2-2-2H5c-1.103,0-2,0.897-2,2v3H21z M16.5,13.5c0.552,0,1,0.448,1,1
				c0,0.553-0.448,1-1,1s-1-0.447-1-1C15.5,13.948,15.948,13.5,16.5,13.5z M13.5,13.5c0.552,0,1,0.448,1,1c0,0.553-0.448,1-1,1
				s-1-0.447-1-1C12.5,13.948,12.948,13.5,13.5,13.5z"/>
			<path fill="#757575" d="M21,19H3v3c0,1.103,0.897,2,2,2h14c1.103,0,2-0.897,2-2V19z M13.5,22.5c-0.552,0-1-0.447-1-1
				c0-0.552,0.448-1,1-1s1,0.448,1,1C14.5,22.053,14.052,22.5,13.5,22.5z M16.5,22.5c-0.552,0-1-0.447-1-1c0-0.552,0.448-1,1-1
				s1,0.448,1,1C17.5,22.053,17.052,22.5,16.5,22.5z"/>
		</g>
		<path fill="#757575" d="M14.1,0c-1.634,0-3.092,0.816-3.986,2.106c1.115,0.365,1.949,1.491,2.157,1.98
			c-0.014,0.011-0.819,0.593-0.849,0.614C10.375,3.182,9.475,2.857,8.5,2.857C6.57,2.857,5,4.46,5,6.429C5,8.398,6.57,10,8.5,10h5.6
			c2.702,0,4.9-2.243,4.9-5C19,2.243,16.802,0,14.1,0z"/>
	</g>
</g>
</svg>
