<?xml version="1.0" encoding="utf-8"?>
<!-- Generator: Adobe Illustrator 16.0.0, SVG Export Plug-In . SVG Version: 6.00 Build 0)  -->
<!DOCTYPE svg PUBLIC "-//W3C//DTD SVG 1.1//EN" "http://www.w3.org/Graphics/SVG/1.1/DTD/svg11.dtd">
<svg version="1.1" xmlns="http://www.w3.org/2000/svg" xmlns:xlink="http://www.w3.org/1999/xlink" x="0px" y="0px"
	 width="24.001px" height="24.001px" viewBox="0 0 24.001 24.001" enable-background="new 0 0 24.001 24.001" xml:space="preserve">
<g id="Frames-24px">
	<rect fill="none" width="24.001" height="24.001"/>
</g>
<g id="Outline">
	<path fill="#757575" d="M22.003,13.002c0-4.364-2.199-6.613-2.293-6.707c-0.188-0.188-0.442-0.293-0.707-0.293h-2.586l2.293-2.293
		l-1.414-1.414l-3.707,3.707H4.003v2h14.534c0.475,0.637,1.466,2.289,1.466,5c0,1.036-0.71,1.996-1.518,2.742
		c0.146-2.487-0.443-5.117-1.775-6.449c-0.188-0.188-0.442-0.293-0.707-0.293h-13c-0.404,0-0.769,0.244-0.924,0.617
		c-0.155,0.374-0.069,0.804,0.217,1.09l1.432,1.433c-1.047,1.883-1.897,5.297,0.475,8.461c0.188,0.252,0.485,0.399,0.8,0.399h11
		c0.265,0,0.52-0.105,0.707-0.293c0.521-0.521,0.921-1.246,1.216-2.076C19.097,17.938,22.003,15.921,22.003,13.002z M15.543,11.002
		c0.5,0.696,0.801,1.804,0.909,3H5.078c0.309-0.816,0.687-1.347,0.726-1.399c0.299-0.398,0.259-0.956-0.093-1.308l-0.293-0.293
		H15.543z"/>
</g>
</svg>
