<?xml version="1.0" encoding="utf-8"?>
<!-- Generator: Adobe Illustrator 16.0.0, SVG Export Plug-In . SVG Version: 6.00 Build 0)  -->
<!DOCTYPE svg PUBLIC "-//W3C//DTD SVG 1.1//EN" "http://www.w3.org/Graphics/SVG/1.1/DTD/svg11.dtd">
<svg version="1.1" xmlns="http://www.w3.org/2000/svg" xmlns:xlink="http://www.w3.org/1999/xlink" x="0px" y="0px" width="24px"
	 height="24px" viewBox="0 0 24 24" enable-background="new 0 0 24 24" xml:space="preserve">
<g id="Frames-24px">
	<rect fill="none" width="24" height="24"/>
</g>
<g id="Solid">
	<g>
		<path fill="#757575" d="M12,10C6.486,10,2,14.486,2,20c0,0.552,0.448,1,1,1h18c0.552,0,1-0.448,1-1C22,14.486,17.514,10,12,10z"/>
		<path fill="#757575" d="M12,9c3.109,0,6.091,1.336,8.181,3.667l1.489-1.335c-1.701-1.897-3.908-3.219-6.316-3.868
			C15.749,7.097,16,6.58,16,6c0-1.105-0.896-2-2-2s-2,0.895-2,2c0,0.372,0.108,0.717,0.286,1.015C12.19,7.013,12.096,7,12,7
			s-0.19,0.013-0.286,0.015C11.892,6.717,12,6.372,12,6c0-1.105-0.896-2-2-2S8,4.895,8,6c0,0.58,0.251,1.097,0.646,1.464
			C6.238,8.113,4.031,9.435,2.33,11.332l1.489,1.335C5.909,10.336,8.891,9,12,9z"/>
	</g>
</g>
</svg>
