<?xml version="1.0" encoding="utf-8"?>
<!-- Generator: Adobe Illustrator 16.0.0, SVG Export Plug-In . SVG Version: 6.00 Build 0)  -->
<!DOCTYPE svg PUBLIC "-//W3C//DTD SVG 1.1//EN" "http://www.w3.org/Graphics/SVG/1.1/DTD/svg11.dtd">
<svg version="1.1" xmlns="http://www.w3.org/2000/svg" xmlns:xlink="http://www.w3.org/1999/xlink" x="0px" y="0px" width="24px"
	 height="24px" viewBox="0 0 24 24" enable-background="new 0 0 24 24" xml:space="preserve">
<g id="Frames-24px">
	<rect fill="none" width="24" height="24"/>
</g>
<g id="Solid">
	<g>
		<polygon fill="#757575" points="16.742,1.972 14,4.871 14,16.515 22.555,7.469 		"/>
		<path fill="#757575" d="M10,2H4C2.897,2,2,2.898,2,4v16c0,1.103,0.897,2,2,2h6c1.103,0,2-0.897,2-2V4C12,2.898,11.103,2,10,2z
			 M4,20V4h6l0.001,16H4z"/>
		<rect x="5" y="6" fill="#757575" width="4" height="4"/>
		<rect x="5" y="12" fill="#757575" width="4" height="4"/>
		<circle fill="#757575" cx="7" cy="18" r="1"/>
		<polygon fill="#757575" points="22.518,12.938 18.312,13.412 14,17.971 14,20.942 23.283,19.896 		"/>
	</g>
</g>
</svg>
