<?xml version="1.0" encoding="utf-8"?>
<!-- Generator: Adobe Illustrator 16.0.0, SVG Export Plug-In . SVG Version: 6.00 Build 0)  -->
<!DOCTYPE svg PUBLIC "-//W3C//DTD SVG 1.1//EN" "http://www.w3.org/Graphics/SVG/1.1/DTD/svg11.dtd">
<svg version="1.1" xmlns="http://www.w3.org/2000/svg" xmlns:xlink="http://www.w3.org/1999/xlink" x="0px" y="0px" width="24px"
	 height="24px" viewBox="0 0 24 24" enable-background="new 0 0 24 24" xml:space="preserve">
<g id="Frames-24px">
	<rect fill="none" width="24" height="24"/>
</g>
<g id="Solid">
	<g>
		<path fill="#757575" d="M20,16H4c-1.104,0-2,0.896-2,2v2c0,1.104,0.896,2,2,2h16c1.104,0,2-0.896,2-2v-2
			C22,16.896,21.104,16,20,16z M18,20c-0.552,0-1-0.448-1-1c0-0.552,0.448-1,1-1s1,0.448,1,1C19,19.552,18.552,20,18,20z"/>
		<g>
			<rect x="7.5" y="5.5" fill="#757575" width="9" height="6"/>
			<path fill="#757575" d="M18,2H6C4.897,2,4,2.897,4,4v9c0,1.103,0.897,2,2,2h12c1.103,0,2-0.897,2-2V4C20,2.897,19.103,2,18,2z
				 M17.5,12c0,0.276-0.224,0.5-0.5,0.5H7c-0.276,0-0.5-0.224-0.5-0.5V5c0-0.276,0.224-0.5,0.5-0.5h10c0.276,0,0.5,0.224,0.5,0.5V12
				z"/>
		</g>
	</g>
</g>
</svg>
