<?xml version="1.0" encoding="utf-8"?>
<!-- Generator: Adobe Illustrator 16.0.0, SVG Export Plug-In . SVG Version: 6.00 Build 0)  -->
<!DOCTYPE svg PUBLIC "-//W3C//DTD SVG 1.1//EN" "http://www.w3.org/Graphics/SVG/1.1/DTD/svg11.dtd">
<svg version="1.1" xmlns="http://www.w3.org/2000/svg" xmlns:xlink="http://www.w3.org/1999/xlink" x="0px" y="0px" width="24px"
	 height="24px" viewBox="0 0 24 24" enable-background="new 0 0 24 24" xml:space="preserve">
<g id="Frames-24px">
	<rect fill="none" width="24" height="24"/>
</g>
<g id="Solid">
	<g>
		<path fill="#757575" d="M11,5.32L9.625,4.219C9.447,4.077,9.227,4,9,4H3C2.448,4,2,4.448,2,5v13c0,0.552,0.448,1,1,1h5.649
			L11,20.85V5.32z"/>
		<path fill="#757575" d="M20,4h-6c-0.227,0-0.447,0.077-0.625,0.219L12,5.32V20.85L14.351,19H20c0.552,0,1-0.448,1-1V5
			C21,4.448,20.552,4,20,4z"/>
	</g>
</g>
</svg>
