<?xml version="1.0" encoding="utf-8"?>
<!-- Generator: Adobe Illustrator 16.0.0, SVG Export Plug-In . SVG Version: 6.00 Build 0)  -->
<!DOCTYPE svg PUBLIC "-//W3C//DTD SVG 1.1//EN" "http://www.w3.org/Graphics/SVG/1.1/DTD/svg11.dtd">
<svg version="1.1" xmlns="http://www.w3.org/2000/svg" xmlns:xlink="http://www.w3.org/1999/xlink" x="0px" y="0px" width="24px"
	 height="24.001px" viewBox="0 0 24 24.001" enable-background="new 0 0 24 24.001" xml:space="preserve">
<g id="Frames-24px">
	<rect fill="none" width="24" height="24.001"/>
</g>
<g id="Outline">
	<g>
		<path fill="#757575" d="M20.503,9.504c-1.93,0-3.5,1.57-3.5,3.5h-9c0-1.93-1.57-3.5-3.5-3.5s-3.5,1.57-3.5,3.5v4
			c0,1.102,0.897,2,2,2v1h2v-1h15v1h2v-1c1.103,0,2-0.898,2-2v-4C24.003,11.074,22.433,9.504,20.503,9.504z"/>
		<path fill="#757575" d="M20.503,8.504c0.155,0,0.303,0.03,0.454,0.045c-0.233-2.542-2.353-4.545-4.954-4.545h-3v8h3.112
			C16.572,10.001,18.366,8.504,20.503,8.504z"/>
		<path fill="#757575" d="M8.892,12.004h3.111v-8h-3c-2.601,0-4.721,2.004-4.954,4.545c0.151-0.015,0.299-0.045,0.454-0.045
			C6.641,8.504,8.436,10.001,8.892,12.004z"/>
	</g>
</g>
</svg>
