<?xml version="1.0" encoding="utf-8"?>
<!-- Generator: Adobe Illustrator 16.0.0, SVG Export Plug-In . SVG Version: 6.00 Build 0)  -->
<!DOCTYPE svg PUBLIC "-//W3C//DTD SVG 1.1//EN" "http://www.w3.org/Graphics/SVG/1.1/DTD/svg11.dtd">
<svg version="1.1" xmlns="http://www.w3.org/2000/svg" xmlns:xlink="http://www.w3.org/1999/xlink" x="0px" y="0px" width="24px"
	 height="24px" viewBox="0 0 24 24" enable-background="new 0 0 24 24" xml:space="preserve">
<g id="Frames-24px">
	<rect fill="none" width="24" height="24"/>
</g>
<g id="Outline">
	<g>
		<path fill="#757575" d="M8.966,9.427l2.181-0.814c1.006,1.659,3.05,2.418,4.918,1.72c2.191-0.819,4.832-4.791,6.011-6.63
			C20.044,3.192,16.972,2.47,14.76,2.47c-3.029,0-4.526,2.523-4.139,4.739L8.442,8.022L8.966,9.427z M14.76,3.97
			c1.479,0,3.623,0.414,4.89,0.691c-1.065,1.511-2.879,3.808-4.109,4.267c-1.06,0.395-2.261-0.006-2.938-0.858l3.661-1.366
			L15.74,5.3l-3.668,1.368C11.997,5.449,12.785,3.97,14.76,3.97z"/>
		<path fill="#757575" d="M21.002,13.002h-15v-3.5c0-0.314-0.148-0.611-0.4-0.8l-2-1.5C3.299,6.975,2.894,6.938,2.555,7.108
			S2.002,7.623,2.002,8.002v14c0,0.553,0.448,1,1,1h18c0.552,0,1-0.447,1-1v-8C22.002,13.45,21.554,13.002,21.002,13.002z
			 M10.002,21.002h-3v-2h3V21.002z M10.002,17.002h-3v-2h3V17.002z M15.002,21.002h-3v-2h3V21.002z M15.002,17.002h-3v-2h3V17.002z
			 M20.002,21.002h-3v-2h3V21.002z M20.002,17.002h-3v-2h3V17.002z"/>
	</g>
</g>
</svg>
