<?xml version="1.0" encoding="utf-8"?>
<!-- Generator: Adobe Illustrator 16.0.0, SVG Export Plug-In . SVG Version: 6.00 Build 0)  -->
<!DOCTYPE svg PUBLIC "-//W3C//DTD SVG 1.1//EN" "http://www.w3.org/Graphics/SVG/1.1/DTD/svg11.dtd">
<svg version="1.1" xmlns="http://www.w3.org/2000/svg" xmlns:xlink="http://www.w3.org/1999/xlink" x="0px" y="0px" width="24px"
	 height="24px" viewBox="0 0 24 24" enable-background="new 0 0 24 24" xml:space="preserve">
<g id="Frames-24px">
	<rect fill="none" width="24" height="24"/>
</g>
<g id="Solid">
	<g>
		<polygon fill="#757575" points="15.293,3.293 13,5.586 13,1 11,1 11,5.586 8.707,3.293 7.293,4.707 12,9.414 16.707,4.707 		"/>
		<g>
			<path fill="#757575" d="M12,16.823l8.965-5.564C20.678,11.1,20.352,11,20,11H4c-0.352,0-0.678,0.1-0.965,0.259L12,16.823z"/>
			<path fill="#757575" d="M12.527,18.85C12.366,18.95,12.183,19,12,19s-0.366-0.05-0.527-0.15l-9.47-5.876
				C2.003,12.982,2,12.991,2,13v9c0,1.103,0.897,2,2,2h16c1.103,0,2-0.897,2-2v-9c0-0.009-0.003-0.018-0.003-0.027L12.527,18.85z"/>
		</g>
	</g>
</g>
</svg>
