<?xml version="1.0" encoding="utf-8"?>
<!-- Generator: Adobe Illustrator 16.0.0, SVG Export Plug-In . SVG Version: 6.00 Build 0)  -->
<!DOCTYPE svg PUBLIC "-//W3C//DTD SVG 1.1//EN" "http://www.w3.org/Graphics/SVG/1.1/DTD/svg11.dtd">
<svg version="1.1" xmlns="http://www.w3.org/2000/svg" xmlns:xlink="http://www.w3.org/1999/xlink" x="0px" y="0px" width="24px"
	 height="24px" viewBox="0 0 24 24" enable-background="new 0 0 24 24" xml:space="preserve">
<g id="Frames-24px">
	<rect fill="none" width="24" height="24"/>
</g>
<g id="Solid">
	<g>
		<g>
			<path fill="#757575" d="M15.771,13.679l-7.189,5.135C8.407,18.938,8.204,19,8,19s-0.407-0.063-0.581-0.186l-7.365-5.26
				C0.021,13.698,0,13.847,0,14v8c0,1.103,0.897,2,2,2h12c1.103,0,2-0.897,2-2v-8c0-0.092-0.015-0.181-0.027-0.27
				C15.905,13.714,15.837,13.698,15.771,13.679z"/>
			<path fill="#757575" d="M8,16.771l5.67-4.05c-0.335-0.217-0.651-0.458-0.949-0.721H2c-0.194,0-0.378,0.037-0.555,0.088L8,16.771z
				"/>
		</g>
		<path fill="#757575" d="M18-0.015c-3.309,0-6,2.692-6,6c0,3.307,2.691,6,6,6s6-2.693,6-6C24,2.677,21.309-0.015,18-0.015z
			 M21,6.985h-4v-5h2v3h2V6.985z"/>
	</g>
</g>
</svg>
