<?xml version="1.0" encoding="utf-8"?>
<!-- Generator: Adobe Illustrator 16.0.0, SVG Export Plug-In . SVG Version: 6.00 Build 0)  -->
<!DOCTYPE svg PUBLIC "-//W3C//DTD SVG 1.1//EN" "http://www.w3.org/Graphics/SVG/1.1/DTD/svg11.dtd">
<svg version="1.1" xmlns="http://www.w3.org/2000/svg" xmlns:xlink="http://www.w3.org/1999/xlink" x="0px" y="0px"
	 width="24.001px" height="24.001px" viewBox="0 0 24.001 24.001" enable-background="new 0 0 24.001 24.001" xml:space="preserve">
<g id="Frames-24px">
	<rect fill="none" width="24.001" height="24.001"/>
</g>
<g id="Outline">
	<g>
		<polygon fill="#757575" points="5.003,14.002 7.003,14.002 7.003,15.002 9.003,15.002 9.003,14.002 10.003,14.002 10.003,11.002 
			2.003,11.002 2.003,13.002 5.003,13.002 		"/>
		<path fill="#757575" d="M21.003,3.002h-15c-0.552,0-1,0.448-1,1v5c0,0.552,0.448,1,1,1h5v9h-9v2h20v-17
			C22.003,3.45,21.556,3.002,21.003,3.002z M8.503,8.002c-0.828,0-1.5-0.672-1.5-1.5s0.672-1.5,1.5-1.5s1.5,0.672,1.5,1.5
			S9.332,8.002,8.503,8.002z M20.003,19.002h-3v-5c0-1.104,0.896-2,2-2h1V19.002z M20.003,8.002h-4v-1h4V8.002z M20.003,6.002h-4v-1
			h4V6.002z"/>
	</g>
</g>
</svg>
