<?xml version="1.0" encoding="utf-8"?>
<!-- Generator: Adobe Illustrator 16.0.0, SVG Export Plug-In . SVG Version: 6.00 Build 0)  -->
<!DOCTYPE svg PUBLIC "-//W3C//DTD SVG 1.1//EN" "http://www.w3.org/Graphics/SVG/1.1/DTD/svg11.dtd">
<svg version="1.1" xmlns="http://www.w3.org/2000/svg" xmlns:xlink="http://www.w3.org/1999/xlink" x="0px" y="0px" width="24px"
	 height="24px" viewBox="0 0 24 24" enable-background="new 0 0 24 24" xml:space="preserve">
<g id="Frames-24px">
	<rect fill="none" width="24" height="24"/>
</g>
<g id="Solid">
	<g>
		<polygon fill="#757575" points="13.252,15.003 14.882,12.037 13.162,9.016 13.184,9.003 10.748,9.003 9.118,11.971 10.838,14.992 
			10.816,15.003 		"/>
		<path fill="#757575" d="M12.302,2.02c-0.101-0.004-0.2-0.016-0.302-0.016c-2.7,0-5.148,1.081-6.949,2.824l2.906,5.104L12.302,2.02
			z"/>
		<path fill="#757575" d="M20.647,7.003c-1.34-2.307-3.572-4.027-6.225-4.691l-2.576,4.691H20.647z"/>
		<path fill="#757575" d="M21.539,9.003h-6.083l4.862,8.539C21.379,15.956,22,14.051,22,12.003C22,10.958,21.837,9.951,21.539,9.003
			z"/>
		<path fill="#757575" d="M3.681,6.465C2.621,8.051,2,9.956,2,12.003c0,1.045,0.163,2.053,0.461,3h6.083L3.681,6.465z"/>
		<path fill="#757575" d="M11.698,21.988c0.101,0.003,0.2,0.015,0.302,0.015c2.7,0,5.148-1.08,6.949-2.824l-2.906-5.103
			L11.698,21.988z"/>
		<path fill="#757575" d="M3.353,17.003c1.34,2.308,3.572,4.027,6.225,4.691l2.576-4.691H3.353z"/>
	</g>
</g>
</svg>
