<?xml version="1.0" encoding="utf-8"?>
<!-- Generator: Adobe Illustrator 16.0.0, SVG Export Plug-In . SVG Version: 6.00 Build 0)  -->
<!DOCTYPE svg PUBLIC "-//W3C//DTD SVG 1.1//EN" "http://www.w3.org/Graphics/SVG/1.1/DTD/svg11.dtd">
<svg version="1.1" xmlns="http://www.w3.org/2000/svg" xmlns:xlink="http://www.w3.org/1999/xlink" x="0px" y="0px" width="24px"
	 height="24px" viewBox="0 0 24 24" enable-background="new 0 0 24 24" xml:space="preserve">
<g id="Frames-24px">
	<rect fill="none" width="24" height="24"/>
</g>
<g id="Solid">
	<g>
		<path fill="#757575" d="M15.535,16.551l-0.509-0.172L12,18.733l-3.026-2.354l-0.509,0.172C5.669,17.492,4,19.529,4,22v2h16v-2
			C20,19.529,18.331,17.492,15.535,16.551z"/>
		<path fill="#757575" d="M5,11v2h3c0.912,1.226,2.359,2,4,2s3.088-0.774,4-2h3v-2C19,1,5,1,5,11z M12,13
			c-1.279,0-2.365-0.808-2.796-1.938c0.046-0.029,0.098-0.052,0.143-0.082C10.652,10.102,11.713,8.708,12,7
			c0.285,1.697,1.339,3.096,2.653,3.98c0.045,0.03,0.097,0.053,0.143,0.082C14.366,12.192,13.279,13,12,13z"/>
	</g>
</g>
</svg>
