<?xml version="1.0" encoding="utf-8"?>
<!-- Generator: Adobe Illustrator 16.0.0, SVG Export Plug-In . SVG Version: 6.00 Build 0)  -->
<!DOCTYPE svg PUBLIC "-//W3C//DTD SVG 1.1//EN" "http://www.w3.org/Graphics/SVG/1.1/DTD/svg11.dtd">
<svg version="1.1" xmlns="http://www.w3.org/2000/svg" xmlns:xlink="http://www.w3.org/1999/xlink" x="0px" y="0px" width="24px"
	 height="24px" viewBox="0 0 24 24" enable-background="new 0 0 24 24" xml:space="preserve">
<g id="Frames-24px">
	<rect fill="none" width="24" height="24"/>
</g>
<g id="Outline">
	<g>
		<rect x="15" y="8" fill="#757575" width="4" height="2"/>
		<rect x="15" y="12" fill="#757575" width="4" height="2"/>
		<polygon fill="#757575" points="12,6 19,6 19,4 10,4 10,3 11,3 11,1 7,1 7,3 8,3 8,4 4,4 4,8 12,8 		"/>
		<polygon fill="#757575" points="19,22 19,16 12,16 12,14 4,14 4,18 8,18 8,20 7,20 7,22 11,22 11,20 10,20 10,18 15,18 15,22 
			13,22 13,24 21,24 21,22 		"/>
	</g>
</g>
</svg>
