<?xml version="1.0" encoding="utf-8"?>
<!-- Generator: Adobe Illustrator 16.0.0, SVG Export Plug-In . SVG Version: 6.00 Build 0)  -->
<!DOCTYPE svg PUBLIC "-//W3C//DTD SVG 1.1//EN" "http://www.w3.org/Graphics/SVG/1.1/DTD/svg11.dtd">
<svg version="1.1" xmlns="http://www.w3.org/2000/svg" xmlns:xlink="http://www.w3.org/1999/xlink" x="0px" y="0px" width="24px"
	 height="24px" viewBox="0 0 24 24" enable-background="new 0 0 24 24" xml:space="preserve">
<g id="Frames-24px">
	<rect fill="none" width="24" height="24"/>
</g>
<g id="Outline">
	<path fill="#757575" d="M16.414,1H5C3.897,1,3,1.898,3,3v18c0,1.103,0.897,2,2,2h14c1.103,0,2-0.897,2-2V5.586L16.414,1z M11.5,19
		C9.015,19,7,16.986,7,14.5c0-1.956,1.256-3.604,3-4.225V16h5.725C15.104,17.744,13.457,19,11.5,19z M12,14V9c2.762,0,5,2.238,5,5
		H12z M15,7V2l5,5H15z"/>
</g>
</svg>
