<?xml version="1.0" encoding="utf-8"?>
<!-- Generator: Adobe Illustrator 16.0.0, SVG Export Plug-In . SVG Version: 6.00 Build 0)  -->
<!DOCTYPE svg PUBLIC "-//W3C//DTD SVG 1.1//EN" "http://www.w3.org/Graphics/SVG/1.1/DTD/svg11.dtd">
<svg version="1.1" xmlns="http://www.w3.org/2000/svg" xmlns:xlink="http://www.w3.org/1999/xlink" x="0px" y="0px"
	 width="24.001px" height="24px" viewBox="0 0 24.001 24" enable-background="new 0 0 24.001 24" xml:space="preserve">
<g id="Frames-24px">
	<rect fill="none" width="24.001" height="24"/>
</g>
<g id="Outline">
	<g>
		<path fill="#757575" d="M11.002,6.002h1v-2h-0.837L5.319,2.053L4.686,3.951l2.88,0.96c-2.125,1.203-3.563,3.48-3.563,6.091v7h2v-7
			C6.002,8.245,8.246,6.002,11.002,6.002z"/>
		<path fill="#757575" d="M19.636,2.229c-0.232-0.189-0.536-0.267-0.83-0.207l-5,1c-0.467,0.094-0.804,0.504-0.804,0.98v2
			c0,0.477,0.336,0.888,0.804,0.98l5,1c0.284,0.058,0.592-0.012,0.83-0.207c0.232-0.189,0.366-0.474,0.366-0.773v-4
			C20.002,2.702,19.868,2.418,19.636,2.229z"/>
		<path fill="#757575" d="M11.002,7.002c-2.206,0-4,1.794-4,4v10c0,0.552,0.448,1,1,1h6c0.552,0,1-0.448,1-1v-10
			C15.002,8.796,13.208,7.002,11.002,7.002z M14.002,18.002h-3v-6h3V18.002z"/>
	</g>
</g>
</svg>
