<?xml version="1.0" encoding="utf-8"?>
<!-- Generator: Adobe Illustrator 16.0.0, SVG Export Plug-In . SVG Version: 6.00 Build 0)  -->
<!DOCTYPE svg PUBLIC "-//W3C//DTD SVG 1.1//EN" "http://www.w3.org/Graphics/SVG/1.1/DTD/svg11.dtd">
<svg version="1.1" xmlns="http://www.w3.org/2000/svg" xmlns:xlink="http://www.w3.org/1999/xlink" x="0px" y="0px"
	 width="24.001px" height="24.001px" viewBox="0 0 24.001 24.001" enable-background="new 0 0 24.001 24.001" xml:space="preserve">
<g id="Frames-24px">
	<rect fill="none" width="24.001" height="24.001"/>
</g>
<g id="Outline">
	<g>
		<path fill="#757575" d="M17.003,10.002c1.654,0,3-1.345,3-3c0-1.275-1.522-3.619-2.177-4.568c-0.374-0.541-1.272-0.541-1.646,0
			c-0.654,0.949-2.177,3.293-2.177,4.568C14.003,8.657,15.349,10.002,17.003,10.002z M17.003,4.856c0.576,0.971,0.991,1.841,1,2.146
			c0,0.552-0.449,1-1,1s-1-0.448-1-0.999C16.012,6.699,16.428,5.828,17.003,4.856z"/>
		<g>
			<path fill="#757575" d="M10.003,13.002h10v-2h-9v-9h-5c-1.103,0-2,0.898-2,2v5c0,1.102,0.897,2,2,2h4V13.002z"/>
			<path fill="#757575" d="M10.003,14.002v6c0,1.102,0.897,2,2,2h6c1.103,0,2-0.898,2-2v-6H10.003z"/>
		</g>
	</g>
</g>
</svg>
