<?xml version="1.0" encoding="utf-8"?>
<!-- Generator: Adobe Illustrator 16.0.0, SVG Export Plug-In . SVG Version: 6.00 Build 0)  -->
<!DOCTYPE svg PUBLIC "-//W3C//DTD SVG 1.1//EN" "http://www.w3.org/Graphics/SVG/1.1/DTD/svg11.dtd">
<svg version="1.1" xmlns="http://www.w3.org/2000/svg" xmlns:xlink="http://www.w3.org/1999/xlink" x="0px" y="0px" width="24px"
	 height="24px" viewBox="0 0 24 24" enable-background="new 0 0 24 24" xml:space="preserve">
<g id="Frames-24px">
	<rect fill="none" width="24" height="24"/>
</g>
<g id="Outline">
	<path fill="#757575" d="M20,7h-8l-1.447-1.894C10.214,4.428,9.521,4,8.764,4H3C2.447,4,2,4.447,2,5v14c0,1.104,0.896,2,2,2h16
		c1.104,0,2-0.896,2-2V9C22,7.896,21.104,7,20,7z M15.535,16.121l-1.414,1.414L12,15.414l-2.121,2.121l-1.414-1.414L10.586,14
		l-2.121-2.121l1.414-1.414L12,12.586l2.121-2.121l1.414,1.414L13.414,14L15.535,16.121z"/>
</g>
</svg>
