<?xml version="1.0" encoding="utf-8"?>
<!-- Generator: Adobe Illustrator 16.0.0, SVG Export Plug-In . SVG Version: 6.00 Build 0)  -->
<!DOCTYPE svg PUBLIC "-//W3C//DTD SVG 1.1//EN" "http://www.w3.org/Graphics/SVG/1.1/DTD/svg11.dtd">
<svg version="1.1" xmlns="http://www.w3.org/2000/svg" xmlns:xlink="http://www.w3.org/1999/xlink" x="0px" y="0px"
	 width="24.001px" height="24px" viewBox="0 0 24.001 24" enable-background="new 0 0 24.001 24" xml:space="preserve">
<g id="Frames-24px">
	<rect fill="none" width="24.001" height="24"/>
</g>
<g id="Outline">
	<g>
		<path fill="#757575" d="M11.071,21.372C11.224,21.751,11.591,22,12,22s0.776-0.249,0.929-0.628L16.677,12H7.323L11.071,21.372z"/>
		<path fill="#757575" d="M12,2C8.687,2,6,4.687,6,8v1c0,1.104,0.896,2,2,2s2-0.896,2-2c0,1.104,0.896,2,2,2s2-0.896,2-2
			c0,1.104,0.896,2,2,2s2-0.896,2-2V8C18,4.687,15.313,2,12,2z"/>
	</g>
</g>
</svg>
