<?xml version="1.0" encoding="utf-8"?>
<!-- Generator: Adobe Illustrator 16.0.0, SVG Export Plug-In . SVG Version: 6.00 Build 0)  -->
<!DOCTYPE svg PUBLIC "-//W3C//DTD SVG 1.1//EN" "http://www.w3.org/Graphics/SVG/1.1/DTD/svg11.dtd">
<svg version="1.1" xmlns="http://www.w3.org/2000/svg" xmlns:xlink="http://www.w3.org/1999/xlink" x="0px" y="0px" width="24px"
	 height="24.001px" viewBox="0 0 24 24.001" enable-background="new 0 0 24 24.001" xml:space="preserve">
<g id="Frames-24px">
	<rect fill="none" width="24" height="24.001"/>
</g>
<g id="Outline">
	<g>
		<path fill="#757575" d="M6.001,24.001h12c1.103,0,2-0.897,2-2h-16C4.001,23.104,4.898,24.001,6.001,24.001z"/>
		<path fill="#757575" d="M18.001,7.001c0.775,0,1.418,0.067,1.959,0.191c-0.407-4.033-3.821-7.191-7.959-7.191
			S4.449,3.159,4.042,7.192c0.542-0.124,1.184-0.191,1.959-0.191H18.001z M14.751,3.501c0.414,0,0.75,0.336,0.75,0.75
			s-0.336,0.75-0.75,0.75s-0.75-0.336-0.75-0.75S14.337,3.501,14.751,3.501z M12.001,2.001c0.414,0,0.75,0.336,0.75,0.75
			s-0.336,0.75-0.75,0.75s-0.75-0.336-0.75-0.75S11.587,2.001,12.001,2.001z M9.251,3.501c0.414,0,0.75,0.336,0.75,0.75
			s-0.336,0.75-0.75,0.75s-0.75-0.336-0.75-0.75S8.837,3.501,9.251,3.501z"/>
		<path fill="#757575" d="M20.187,12.397c-0.664,0.385-1.433,0.604-2.186,0.604c-0.755,0-1.468-0.238-2.059-0.674
			c-0.745,0.441-1.695,0.674-2.441,0.674c-0.523,0-1.031-0.118-1.5-0.345c-0.468,0.227-0.977,0.345-1.5,0.345
			c-0.745,0-1.695-0.232-2.441-0.674c-0.59,0.436-1.304,0.674-2.059,0.674c-0.752,0-1.522-0.219-2.186-0.604
			c-0.492,0.365-0.814,0.945-0.814,1.604c0,1.104,0.896,2,2,2h14c1.104,0,2-0.896,2-2C21.001,13.343,20.679,12.763,20.187,12.397z"
			/>
		<path fill="#757575" d="M6.001,12.001c0.822,0,1.545-0.402,2-1.014c0.456,0.611,1.679,1.014,2.5,1.014
			c0.565,0,1.081-0.195,1.5-0.512c0.419,0.316,0.935,0.512,1.5,0.512c0.822,0,2.045-0.402,2.5-1.014
			c0.456,0.611,1.179,1.014,2,1.014c1.381,0,3-1,3-2.5c0-0.5-1-1.5-2-1.5c-0.821,0-13.178,0-14,0c-1,0-2,1-2,1.5
			C3.001,11.001,4.621,12.001,6.001,12.001z"/>
		<path fill="#757575" d="M19.001,17.001h-0.009c0,0.26-0.092,0.517-0.284,0.707l-2,2c-0.195,0.195-0.451,0.293-0.707,0.293
			s-0.512-0.098-0.707-0.293l-2-2c-0.191-0.19-0.283-0.447-0.284-0.707H5.001c-1.104,0-2,0.896-2,2s0.896,2,2,2h14
			c1.104,0,2-0.896,2-2S20.106,17.001,19.001,17.001z"/>
	</g>
</g>
</svg>
