<?xml version="1.0" encoding="utf-8"?>
<!-- Generator: Adobe Illustrator 16.0.0, SVG Export Plug-In . SVG Version: 6.00 Build 0)  -->
<!DOCTYPE svg PUBLIC "-//W3C//DTD SVG 1.1//EN" "http://www.w3.org/Graphics/SVG/1.1/DTD/svg11.dtd">
<svg version="1.1" xmlns="http://www.w3.org/2000/svg" xmlns:xlink="http://www.w3.org/1999/xlink" x="0px" y="0px" width="24px"
	 height="24.001px" viewBox="0 0 24 24.001" enable-background="new 0 0 24 24.001" xml:space="preserve">
<g id="Frames-24px">
	<rect fill="none" width="24" height="24.001"/>
</g>
<g id="Outline">
	<g>
		<path fill="#757575" d="M20.708,2.294c-0.287-0.286-0.716-0.372-1.09-0.217c-0.374,0.155-0.617,0.52-0.617,0.924v19h2v-6h2
			c0.552,0,1-0.448,1-1C24.001,5.694,20.843,2.429,20.708,2.294z M21.001,14.001V7.244c0.487,1.6,0.908,3.808,0.987,6.757H21.001z"
			/>
		<path fill="#757575" d="M8.001,6.001v-4h-2v4c0,0.737-0.405,1.375-1,1.723V2.001h-2v5.723c-0.595-0.348-1-0.985-1-1.723v-4h-2v4
			c0,1.858,1.28,3.41,3,3.858v12.142h2V9.859C6.722,9.411,8.001,7.859,8.001,6.001z"/>
		<path fill="#757575" d="M12.001,9.001c-3.309,0-6,2.691-6,6s2.691,6,6,6s6-2.691,6-6S15.31,9.001,12.001,9.001z M12.001,18.001
			c0,0-3-2-3-3.5c0-0.828,0.672-1.5,1.5-1.5s1.5,0.672,1.5,1.5c0-0.828,0.672-1.5,1.5-1.5s1.5,0.672,1.5,1.5
			C15.001,16.001,12.001,18.001,12.001,18.001z"/>
	</g>
</g>
</svg>
