<?xml version="1.0" encoding="utf-8"?>
<!-- Generator: Adobe Illustrator 16.0.0, SVG Export Plug-In . SVG Version: 6.00 Build 0)  -->
<!DOCTYPE svg PUBLIC "-//W3C//DTD SVG 1.1//EN" "http://www.w3.org/Graphics/SVG/1.1/DTD/svg11.dtd">
<svg version="1.1" xmlns="http://www.w3.org/2000/svg" xmlns:xlink="http://www.w3.org/1999/xlink" x="0px" y="0px"
	 width="24.001px" height="24.001px" viewBox="0 0 24.001 24.001" enable-background="new 0 0 24.001 24.001" xml:space="preserve">
<g id="Frames-24px">
	<rect fill="none" width="24.001" height="24.001"/>
</g>
<g id="Outline">
	<g>
		<path fill="#757575" d="M18.002,2.002c-2.206,0-4,1.794-4,4h5V9.86c1.72-0.448,3-2,3-3.858
			C22.002,3.796,20.208,2.002,18.002,2.002z"/>
		<path fill="#757575" d="M17.002,7.002h-14c-0.404,0-0.769,0.244-0.924,0.617c-0.155,0.374-0.069,0.804,0.217,1.09l6.707,6.707
			v4.586h-3v2h8v-2h-3v-4.586l6.707-6.707c0.286-0.286,0.372-0.716,0.217-1.09C17.771,7.246,17.407,7.002,17.002,7.002z"/>
		<path fill="#757575" d="M5.588,6.002h2.828L5.709,3.295C5.522,3.107,5.268,3.002,5.002,3.002h-3v2h2.586L5.588,6.002z"/>
	</g>
</g>
</svg>
