<?xml version="1.0" encoding="utf-8"?>
<!-- Generator: Adobe Illustrator 16.0.0, SVG Export Plug-In . SVG Version: 6.00 Build 0)  -->
<!DOCTYPE svg PUBLIC "-//W3C//DTD SVG 1.1//EN" "http://www.w3.org/Graphics/SVG/1.1/DTD/svg11.dtd">
<svg version="1.1" xmlns="http://www.w3.org/2000/svg" xmlns:xlink="http://www.w3.org/1999/xlink" x="0px" y="0px" width="24px"
	 height="24px" viewBox="0 0 24 24" enable-background="new 0 0 24 24" xml:space="preserve">
<g id="Frames-24px">
	<rect fill="none" width="24" height="24"/>
</g>
<g id="Solid">
	<g>
		<path fill="#757575" d="M7,12.001h10c0.314,0,0.609-0.147,0.798-0.398c0.189-0.25,0.25-0.575,0.163-0.876l-2-7
			C15.839,3.298,15.446,3.001,15,3.001H9c-0.446,0-0.839,0.297-0.961,0.726l-2,7c-0.086,0.301-0.026,0.625,0.163,0.876
			C6.391,11.854,6.686,12.001,7,12.001z M9.857,6.001h2.286l-0.857,3H9L9.857,6.001z"/>
		<path fill="#757575" d="M9.961,13.728C9.839,13.298,9.446,13.001,9,13.001H3c-0.446,0-0.839,0.297-0.961,0.726l-2,7
			c-0.086,0.301-0.026,0.625,0.163,0.876C0.391,21.854,0.686,22.001,1,22.001h10c0.314,0,0.609-0.147,0.798-0.398
			c0.189-0.25,0.25-0.575,0.163-0.876L9.961,13.728z M6.143,19.001H3.857l0.857-3H7L6.143,19.001z"/>
		<path fill="#757575" d="M23.961,20.728l-2-7c-0.123-0.429-0.515-0.726-0.961-0.726h-6c-0.446,0-0.839,0.297-0.961,0.726l-2,7
			c-0.086,0.301-0.026,0.625,0.163,0.876c0.189,0.251,0.484,0.398,0.798,0.398h10c0.314,0,0.609-0.147,0.798-0.398
			C23.987,21.353,24.048,21.028,23.961,20.728z M18.286,19.001H16l0.857-3h2.286L18.286,19.001z"/>
	</g>
</g>
</svg>
