<?xml version="1.0" encoding="utf-8"?>
<!-- Generator: Adobe Illustrator 16.0.0, SVG Export Plug-In . SVG Version: 6.00 Build 0)  -->
<!DOCTYPE svg PUBLIC "-//W3C//DTD SVG 1.1//EN" "http://www.w3.org/Graphics/SVG/1.1/DTD/svg11.dtd">
<svg version="1.1" xmlns="http://www.w3.org/2000/svg" xmlns:xlink="http://www.w3.org/1999/xlink" x="0px" y="0px" width="24px"
	 height="24px" viewBox="0 0 24 24" enable-background="new 0 0 24 24" xml:space="preserve">
<g id="Frames-24px">
	<rect fill="none" width="24" height="24"/>
</g>
<g id="Solid">
	<g>
		<path fill="#757575" d="M22.447,7.11l-10-5c-0.281-0.141-0.613-0.141-0.895,0l-10,5C1.351,7.211,1.197,7.385,1.107,7.573
			C1.046,7.695,1,7.902,1,8.005v5.765c0,0.552,0.448,1,1,1s1-0.448,1-1V9.172l9.015,3.756l10.357-3.994
			c0.365-0.146,0.611-0.493,0.627-0.887C23.016,7.653,22.799,7.287,22.447,7.11z"/>
		<path fill="#757575" d="M12,15.005c-0.131,0-0.262-0.026-0.385-0.077L5,12.171v3.014c0,0.378,0.214,0.725,0.553,0.894
			c1.715,0.858,3.482,1.919,6.447,1.919c2.963,0,4.735-1.063,6.447-1.919C18.786,15.911,19,15.564,19,15.186v-2.801l-6.641,2.554
			C12.243,14.983,12.122,15.005,12,15.005z"/>
		<path fill="#757575" d="M2,16.005c-0.552,0-1,0.448-1,1v2c0,0.552,0.448,1,1,1s1-0.448,1-1v-2C3,16.453,2.552,16.005,2,16.005z"/>
	</g>
</g>
</svg>
