<?xml version="1.0" encoding="utf-8"?>
<!-- Generator: Adobe Illustrator 16.0.0, SVG Export Plug-In . SVG Version: 6.00 Build 0)  -->
<!DOCTYPE svg PUBLIC "-//W3C//DTD SVG 1.1//EN" "http://www.w3.org/Graphics/SVG/1.1/DTD/svg11.dtd">
<svg version="1.1" xmlns="http://www.w3.org/2000/svg" xmlns:xlink="http://www.w3.org/1999/xlink" x="0px" y="0px" width="24px"
	 height="24.001px" viewBox="0 0 24 24.001" enable-background="new 0 0 24 24.001" xml:space="preserve">
<g id="Frames-24px">
	<rect y="0" fill="none" width="24" height="24.001"/>
</g>
<g id="Outline">
	<g>
		<path fill="#757575" d="M18.003,2.003h-12c-2.209,0-4,1.792-4,4c0,2.209,1.791,4,4,4s4-1.791,4-4c0-0.732-0.211-1.41-0.555-2
			h5.109c-0.343,0.59-0.555,1.268-0.555,2c0,2.209,1.791,4,4,4s4-1.791,4-4C22.003,3.795,20.212,2.003,18.003,2.003z M8.003,6.003
			c0,1.105-0.896,2-2,2s-2-0.895-2-2c0-1.104,0.896-2,2-2S8.003,4.899,8.003,6.003z M18.003,8.003c-1.104,0-2-0.895-2-2
			c0-1.104,0.896-2,2-2s2,0.896,2,2C20.003,7.108,19.108,8.003,18.003,8.003z"/>
		<polygon fill="#757575" points="8.003,22.003 10.003,22.003 10.003,15.003 11.003,15.003 11.003,22.003 13.003,22.003 
			13.003,15.003 14.003,15.003 14.003,22.003 16.003,22.003 16.003,13.003 8.003,13.003 		"/>
		<rect x="8.003" y="10.003" fill="#757575" width="8" height="2"/>
	</g>
</g>
</svg>
