<?xml version="1.0" encoding="utf-8"?>
<!-- Generator: Adobe Illustrator 16.0.0, SVG Export Plug-In . SVG Version: 6.00 Build 0)  -->
<!DOCTYPE svg PUBLIC "-//W3C//DTD SVG 1.1//EN" "http://www.w3.org/Graphics/SVG/1.1/DTD/svg11.dtd">
<svg version="1.1" xmlns="http://www.w3.org/2000/svg" xmlns:xlink="http://www.w3.org/1999/xlink" x="0px" y="0px" width="24px"
	 height="24.002px" viewBox="0 0 24 24.002" enable-background="new 0 0 24 24.002" xml:space="preserve">
<g id="Frames-24px">
	<rect fill="none" width="24" height="24.002"/>
</g>
<g id="Outline">
	<g>
		<path fill="#757575" d="M12.002,9.002c0,0.552,0.448,1,1,1h5c0.552,0,1-0.448,1-1v-8c0-0.551-0.448-1-1-1h-5c-0.552,0-1,0.449-1,1
			v3h-10v2h10V9.002z"/>
		<g>
			<path fill="#757575" d="M9.002,12.002h-6c-0.369,0-0.708,0.204-0.882,0.529c-0.174,0.324-0.155,0.719,0.05,1.026l2,3
				c0.153,0.23,0.395,0.386,0.667,0.432l4.165,0.694V12.002z"/>
			<path fill="#757575" d="M21.374,15.932c0.379-0.153,0.628-0.52,0.628-0.929v-3c0-0.551-0.448-1-1-1h-10c-0.552,0-1,0.449-1,1
				v6.382l-3.447,1.724c-0.339,0.169-0.553,0.516-0.553,0.894v2c0,0.552,0.448,1,1,1h14c0.552,0,1-0.448,1-1v-2
				c0-0.409-0.249-0.776-0.628-0.928l-4.372-1.749v-0.646L21.374,15.932z"/>
		</g>
	</g>
</g>
</svg>
