<?xml version="1.0" encoding="utf-8"?>
<!-- Generator: Adobe Illustrator 16.0.0, SVG Export Plug-In . SVG Version: 6.00 Build 0)  -->
<!DOCTYPE svg PUBLIC "-//W3C//DTD SVG 1.1//EN" "http://www.w3.org/Graphics/SVG/1.1/DTD/svg11.dtd">
<svg version="1.1" xmlns="http://www.w3.org/2000/svg" xmlns:xlink="http://www.w3.org/1999/xlink" x="0px" y="0px" width="24px"
	 height="24px" viewBox="0 0 24 24" enable-background="new 0 0 24 24" xml:space="preserve">
<g id="Frames-24px">
	<rect fill="none" width="24" height="24"/>
</g>
<g id="Solid">
	<g>
		<g>
			<path fill="#757575" d="M4.882,4.852L3.353,3.563C5.26,1.298,8.05,0,11.006,0c2.95,0,5.734,1.293,7.64,3.547l-1.527,1.291
				C15.593,3.035,13.366,2,11.006,2C8.641,2,6.409,3.04,4.882,4.852z"/>
		</g>
		<g>
			<path fill="#757575" d="M14.208,7.602C13.444,6.584,12.277,6,11.006,6c-1.27,0-2.437,0.583-3.2,1.602l-1.6-1.202
				C7.334,4.897,9.128,4,11.006,4c1.907,0,3.657,0.875,4.802,2.402L14.208,7.602z"/>
		</g>
		<path fill="#757575" d="M15.993,20.416l-3.414-3.414l2.217-2.217l1.197,0.599v-4.45C15.957,9.863,15.08,9.002,14,9.002H8
			c-1.103,0-2,0.897-2,2v10c0,1.103,0.897,2,2,2h6c1.08,0,1.957-0.861,1.993-1.933V20.416z M10.993,19.252
			c-0.69,0-1.25-0.56-1.25-1.25s0.56-1.25,1.25-1.25s1.25,0.56,1.25,1.25S11.684,19.252,10.993,19.252z M10.993,15.252
			c-0.69,0-1.25-0.56-1.25-1.25s0.56-1.25,1.25-1.25s1.25,0.56,1.25,1.25S11.684,15.252,10.993,15.252z"/>
		<g>
			<polygon fill="#757575" points="16.993,11.002 19.993,14.002 19.993,19.002 21.993,24.002 16.993,24.002 16.993,20.002 
				13.993,17.002 14.993,16.002 16.993,17.002 			"/>
		</g>
	</g>
</g>
</svg>
