<?xml version="1.0" encoding="utf-8"?>
<!-- Generator: Adobe Illustrator 16.0.0, SVG Export Plug-In . SVG Version: 6.00 Build 0)  -->
<!DOCTYPE svg PUBLIC "-//W3C//DTD SVG 1.1//EN" "http://www.w3.org/Graphics/SVG/1.1/DTD/svg11.dtd">
<svg version="1.1" xmlns="http://www.w3.org/2000/svg" xmlns:xlink="http://www.w3.org/1999/xlink" x="0px" y="0px" width="24px"
	 height="24.001px" viewBox="0 0 24 24.001" enable-background="new 0 0 24 24.001" xml:space="preserve">
<g id="Frames-24px">
	<rect fill="none" width="24" height="24.001"/>
</g>
<g id="Outline">
	<g>
		<path fill="#757575" d="M19.997,12.933c0,0.022,0.002,0.043,0.002,0.066v3c0,0-4,2-8,2s-8-2-8-2v-3
			c0-0.022,0.002-0.043,0.002-0.066c-1.261,0.836-2.002,1.89-2.002,3.066c0,2.851,4.299,5,10,5s10-2.149,10-5
			C21.999,14.823,21.258,13.769,19.997,12.933z"/>
		<path fill="#757575" d="M12.999,12.416l4.068-5.424c-1-1.089-2.372-1.749-4.068-1.934V12.416z"/>
		<path fill="#757575" d="M10.999,5.058C9.302,5.242,7.931,5.902,6.931,6.991l4.068,5.424V5.058z"/>
		<path fill="#757575" d="M5.683,14.948c0.129,0.042,3.19,1.051,6.316,1.051s6.188-1.008,6.316-1.051
			c0.408-0.137,0.684-0.519,0.684-0.949v-1c0-1.885-0.353-3.471-1.021-4.722c-4.51,6.014-3.657,4.875-5.379,7.172
			c-0.142,0.188-0.364,0.3-0.6,0.3s-0.458-0.111-0.6-0.3c-1.729-2.306-0.86-1.147-5.379-7.172c-0.668,1.251-1.021,2.837-1.021,4.722
			v1C4.999,14.43,5.274,14.812,5.683,14.948z"/>
	</g>
</g>
</svg>
