<?xml version="1.0" encoding="utf-8"?>
<!-- Generator: Adobe Illustrator 16.0.0, SVG Export Plug-In . SVG Version: 6.00 Build 0)  -->
<!DOCTYPE svg PUBLIC "-//W3C//DTD SVG 1.1//EN" "http://www.w3.org/Graphics/SVG/1.1/DTD/svg11.dtd">
<svg version="1.1" xmlns="http://www.w3.org/2000/svg" xmlns:xlink="http://www.w3.org/1999/xlink" x="0px" y="0px" width="24px"
	 height="24.001px" viewBox="0 0 24 24.001" enable-background="new 0 0 24 24.001" xml:space="preserve">
<g id="Frames-24px">
	<rect fill="none" width="24" height="24.001"/>
</g>
<g id="Outline">
	<g>
		<path fill="#757575" d="M12.001,2.001c-2.346,0-10,0.217-10,3c0,2.784,7.654,3,10,3s10-0.216,10-3
			C22.001,2.218,14.347,2.001,12.001,2.001z M15.001,6.001h-6c-0.552,0-1-0.447-1-1c0-0.552,0.448-1,1-1h6c0.552,0,1,0.448,1,1
			C16.001,5.554,15.553,6.001,15.001,6.001z"/>
		<path fill="#757575" d="M5.001,9.057v9.944c0,0.266,0.105,0.52,0.293,0.707c1.536,1.536,4.122,2.304,6.708,2.304
			c2.585,0,5.171-0.768,6.707-2.304c0.188-0.188,0.293-0.441,0.293-0.707V9.057c-1.972,0.592-4.384,0.944-7,0.944
			C9.386,10.001,6.973,9.648,5.001,9.057z M17.001,14.621c-1.469,0.574-3.232,0.866-5,0.866s-3.531-0.292-5-0.866V12.43
			c2.631,1.413,7.369,1.414,10,0.002V14.621z"/>
	</g>
</g>
</svg>
