<?xml version="1.0" encoding="utf-8"?>
<!-- Generator: Adobe Illustrator 16.0.0, SVG Export Plug-In . SVG Version: 6.00 Build 0)  -->
<!DOCTYPE svg PUBLIC "-//W3C//DTD SVG 1.1//EN" "http://www.w3.org/Graphics/SVG/1.1/DTD/svg11.dtd">
<svg version="1.1" xmlns="http://www.w3.org/2000/svg" xmlns:xlink="http://www.w3.org/1999/xlink" x="0px" y="0px" width="24px"
	 height="24.001px" viewBox="0 0 24 24.001" enable-background="new 0 0 24 24.001" xml:space="preserve">
<g id="Frames-24px">
	<rect fill="none" width="24" height="24.001"/>
</g>
<g id="Outline">
	<g>
		<path fill="#757575" d="M5.001,8.002v12c0,1.103,0.897,2,2,2h10c1.103,0,2-0.897,2-2v-12H5.001z M16.001,16.002h-3v3h-2v-3h-3v-2
			h3v-3h2v3h3V16.002z"/>
		<path fill="#757575" d="M18.001,2.002h-12c-1.103,0-2,0.897-2,2v3h16v-3C20.001,2.899,19.104,2.002,18.001,2.002z M8.001,6.002h-2
			v-3h2V6.002z M13.001,6.002h-2v-3h2V6.002z M18.001,6.002h-2v-3h2V6.002z"/>
	</g>
</g>
</svg>
