<?xml version="1.0" encoding="utf-8"?>
<!-- Generator: Adobe Illustrator 16.0.0, SVG Export Plug-In . SVG Version: 6.00 Build 0)  -->
<!DOCTYPE svg PUBLIC "-//W3C//DTD SVG 1.1//EN" "http://www.w3.org/Graphics/SVG/1.1/DTD/svg11.dtd">
<svg version="1.1" xmlns="http://www.w3.org/2000/svg" xmlns:xlink="http://www.w3.org/1999/xlink" x="0px" y="0px" width="24px"
	 height="24.001px" viewBox="0 0 24 24.001" enable-background="new 0 0 24 24.001" xml:space="preserve">
<g id="Frames-24px">
	<rect fill="none" width="24" height="24.001"/>
</g>
<g id="Outline">
	<g>
		<path fill="#757575" d="M18.001,11.417l-3.917-3.917l-4,5L7.001,9.417l-1.586,1.585H2.001v9c0,1.103,0.897,2,2,2h16
			c1.103,0,2-0.897,2-2v-11h-1.586L18.001,11.417z M7.001,20.002h-2v-3h2V20.002z M11.001,20.002h-2v-5h2V20.002z M15.002,20.002h-2
			v-3h2V20.002z M19.002,20.002h-2v-5h2V20.002z"/>
		<path fill="#757575" d="M20.001,2.002h-16c-1.103,0-2,0.897-2,2v5h2.586l2.414-2.414l2.917,2.917l4-5l4.083,4.083l1.586-1.586
			h2.414v-3C22.001,2.899,21.104,2.002,20.001,2.002z"/>
	</g>
</g>
</svg>
