<?xml version="1.0" encoding="utf-8"?>
<!-- Generator: Adobe Illustrator 16.0.0, SVG Export Plug-In . SVG Version: 6.00 Build 0)  -->
<!DOCTYPE svg PUBLIC "-//W3C//DTD SVG 1.1//EN" "http://www.w3.org/Graphics/SVG/1.1/DTD/svg11.dtd">
<svg version="1.1" xmlns="http://www.w3.org/2000/svg" xmlns:xlink="http://www.w3.org/1999/xlink" x="0px" y="0px" width="24px"
	 height="24.001px" viewBox="0 0 24 24.001" enable-background="new 0 0 24 24.001" xml:space="preserve">
<g id="Frames-24px">
	<rect fill="none" width="24" height="24.001"/>
</g>
<g id="Outline">
	<g>
		<path fill="#757575" d="M2.76,10.002l3.243-3.243l2.751,2.751l4.469-5.587l4.612,6.918l1.26-0.84h2.62
			c0.173-0.668,0.288-1.337,0.288-2c0-3.533-2.467-6-6-6c-1.594,0-3.071,0.837-4,2.08c-0.929-1.243-2.406-2.08-4-2.08
			c-3.533,0-6,2.467-6,6c0,0.663,0.115,1.332,0.288,2H2.76z"/>
		<path fill="#757575" d="M9.251,18.494l-3.249-3.249l-0.579,0.579c2.591,3.309,5.742,5.794,5.965,5.967
			c0.18,0.141,0.397,0.211,0.614,0.211s0.434-0.07,0.614-0.211c0.149-0.115,1.601-1.26,3.317-2.984l-3.151-4.727L9.251,18.494z"/>
		<polygon fill="#757575" points="19.7,12.002 17.28,13.615 13.076,7.31 8.919,12.505 6.002,9.588 3.588,12.002 1.002,12.002 
			1.002,14.002 4.417,14.002 6.002,12.417 9.085,15.499 12.929,10.695 16.725,16.389 20.305,14.002 23.002,14.002 23.002,12.002 		
			"/>
	</g>
</g>
</svg>
