<?xml version="1.0" encoding="utf-8"?>
<!-- Generator: Adobe Illustrator 16.0.0, SVG Export Plug-In . SVG Version: 6.00 Build 0)  -->
<!DOCTYPE svg PUBLIC "-//W3C//DTD SVG 1.1//EN" "http://www.w3.org/Graphics/SVG/1.1/DTD/svg11.dtd">
<svg version="1.1" xmlns="http://www.w3.org/2000/svg" xmlns:xlink="http://www.w3.org/1999/xlink" x="0px" y="0px" width="24px"
	 height="24.002px" viewBox="0 0 24 24.002" enable-background="new 0 0 24 24.002" xml:space="preserve">
<g id="Frames-24px">
	<rect fill="none" width="24" height="24.002"/>
</g>
<g id="Outline">
	<g>
		<rect x="4.001" y="4.004" fill="#757575" width="12" height="2"/>
		<path fill="#757575" d="M21.001,7.004v2h-10h0v-2h-2v2h-2.5c-2.631,0-4.734,2.258-4.479,4.941
			c0.167,1.754,1.388,3.158,2.979,3.752v2.307h-1c-0.551,0-1-0.449-1-1v-1h-2v1c0,1.654,1.346,3,3,3h12v-2h-3v-2.555
			c1.19-0.693,2-1.969,2-3.445v-0.666l7.165-1.194c0.482-0.08,0.835-0.498,0.835-0.987V7.004H21.001z M5.001,13.004
			c0-1.104,0.896-2,2-2s2,0.896,2,2s-0.896,2-2,2S5.001,14.108,5.001,13.004z M11.001,20.004h-4v-2h4V20.004z"/>
	</g>
</g>
</svg>
