<?xml version="1.0" encoding="utf-8"?>
<!-- Generator: Adobe Illustrator 16.0.0, SVG Export Plug-In . SVG Version: 6.00 Build 0)  -->
<!DOCTYPE svg PUBLIC "-//W3C//DTD SVG 1.1//EN" "http://www.w3.org/Graphics/SVG/1.1/DTD/svg11.dtd">
<svg version="1.1" xmlns="http://www.w3.org/2000/svg" xmlns:xlink="http://www.w3.org/1999/xlink" x="0px" y="0px" width="24px"
	 height="24px" viewBox="0 0 24 24" enable-background="new 0 0 24 24" xml:space="preserve">
<g id="Frames-24px">
	<rect fill="none" width="24" height="24"/>
</g>
<g id="Outline">
	<g>
		<path fill="#757575" d="M20,9.502c0-3.334-2.322-6.156-5.532-7.132c0.845,1.785,1.282,4.465,1.282,7.132
			c0,1.239-0.098,2.478-0.284,3.631l-2.862,6.869h-1.208l-2.862-6.869C8.349,11.979,8.25,10.741,8.25,9.502
			c0-2.667,0.437-5.347,1.282-7.132C6.323,3.346,4,6.168,4,9.502c0,2.818,1.668,5.256,4.12,6.537l1.651,3.963H9l1,3h4l1-3H14.23
			l1.651-3.963C18.332,14.758,20,12.32,20,9.502z"/>
		<path fill="#757575" d="M12,17.002c0.161,0,0.318-0.014,0.477-0.022c0.78-0.804,1.773-3.377,1.773-7.478
			c0-4.1-0.993-6.674-1.773-7.478C12.319,2.016,12.162,2.002,12,2.002s-0.318,0.014-0.477,0.022C10.744,2.828,9.75,5.402,9.75,9.502
			c0,4.1,0.993,6.674,1.773,7.478C11.682,16.988,11.839,17.002,12,17.002z"/>
	</g>
</g>
</svg>
