<?xml version="1.0" encoding="utf-8"?>
<!-- Generator: Adobe Illustrator 16.0.0, SVG Export Plug-In . SVG Version: 6.00 Build 0)  -->
<!DOCTYPE svg PUBLIC "-//W3C//DTD SVG 1.1//EN" "http://www.w3.org/Graphics/SVG/1.1/DTD/svg11.dtd">
<svg version="1.1" xmlns="http://www.w3.org/2000/svg" xmlns:xlink="http://www.w3.org/1999/xlink" x="0px" y="0px" width="24px"
	 height="24.001px" viewBox="0 0 24 24.001" enable-background="new 0 0 24 24.001" xml:space="preserve">
<g id="Frames-24px">
	<rect y="0" fill="none" width="24" height="24.001"/>
</g>
<g id="Outline">
	<g>
		<rect x="3.002" y="9.001" fill="#757575" width="11" height="2"/>
		<path fill="#757575" d="M19.002,2.001h-2c-1.104,0-2,0.896-2,2v8h-12c0,2.762,2.239,5,5,5h3.5l-0.39,3.901
			c-0.028,0.281,0.064,0.562,0.253,0.77c0.19,0.21,0.459,0.329,0.742,0.329h7.895c0.552,0,1-0.447,1-1v-17
			C21.002,2.898,20.106,2.001,19.002,2.001z M18.002,4.001c0.828,0,1.5,0.671,1.5,1.5c0,0.828-0.672,1.5-1.5,1.5s-1.5-0.672-1.5-1.5
			C16.502,4.672,17.174,4.001,18.002,4.001z"/>
	</g>
</g>
</svg>
