<?xml version="1.0" encoding="utf-8"?>
<!-- Generator: Adobe Illustrator 16.0.0, SVG Export Plug-In . SVG Version: 6.00 Build 0)  -->
<!DOCTYPE svg PUBLIC "-//W3C//DTD SVG 1.1//EN" "http://www.w3.org/Graphics/SVG/1.1/DTD/svg11.dtd">
<svg version="1.1" xmlns="http://www.w3.org/2000/svg" xmlns:xlink="http://www.w3.org/1999/xlink" x="0px" y="0px" width="24px"
	 height="24px" viewBox="0 0 24 24" enable-background="new 0 0 24 24" xml:space="preserve">
<g id="Frames-24px">
	<rect fill="none" width="24" height="24"/>
</g>
<g id="Solid">
	<path fill="#757575" d="M5,18.828V21c0,0.552,0.448,1,1,1h12c0.552,0,1-0.448,1-1v-2.172c0-0.79-0.32-1.563-0.879-2.122L13.414,12
		l4.707-4.707C18.688,6.726,19,5.973,19,5.171V3c0-0.552-0.448-1-1-1H6C5.448,2,5,2.448,5,3v2.171c0,0.802,0.312,1.555,0.879,2.121
		L10.586,12l-4.707,4.707C5.32,17.266,5,18.038,5,18.828z M9,5h6l-3,3L9,5z"/>
</g>
</svg>
