<?xml version="1.0" encoding="utf-8"?>
<!-- Generator: Adobe Illustrator 16.0.0, SVG Export Plug-In . SVG Version: 6.00 Build 0)  -->
<!DOCTYPE svg PUBLIC "-//W3C//DTD SVG 1.1//EN" "http://www.w3.org/Graphics/SVG/1.1/DTD/svg11.dtd">
<svg version="1.1" xmlns="http://www.w3.org/2000/svg" xmlns:xlink="http://www.w3.org/1999/xlink" x="0px" y="0px" width="24px"
	 height="24px" viewBox="0 0 24 24" enable-background="new 0 0 24 24" xml:space="preserve">
<g id="Frames-24px">
	<rect fill="none" width="24" height="24"/>
</g>
<g id="Solid">
	<path fill="#757575" d="M22,8h-9V7c0-0.551,0.449-1,1-1h1c1.654,0,3-1.346,3-3V2h-2v1c0,0.551-0.449,1-1,1h-1c-1.654,0-3,1.346-3,3
		v1H2c-1.103,0-2,0.897-2,2v10c0,1.103,0.897,2,2,2h20c1.103,0,2-0.897,2-2V10C24,8.897,23.103,8,22,8z M12,10c0.552,0,1,0.448,1,1
		c0,0.553-0.448,1-1,1s-1-0.447-1-1C11,10.448,11.448,10,12,10z M12,14c0.552,0,1,0.448,1,1c0,0.553-0.448,1-1,1s-1-0.447-1-1
		C11,14.448,11.448,14,12,14z M9,10c0.552,0,1,0.448,1,1c0,0.553-0.448,1-1,1s-1-0.447-1-1C8,10.448,8.448,10,9,10z M9,14
		c0.552,0,1,0.448,1,1c0,0.553-0.448,1-1,1s-1-0.447-1-1C8,14.448,8.448,14,9,14z M6,16c-0.552,0-1-0.447-1-1c0-0.552,0.448-1,1-1
		s1,0.448,1,1C7,15.553,6.552,16,6,16z M6,12c-0.552,0-1-0.447-1-1c0-0.552,0.448-1,1-1s1,0.448,1,1C7,11.553,6.552,12,6,12z M16,20
		H8v-2h8V20z M15,16c-0.552,0-1-0.447-1-1c0-0.552,0.448-1,1-1s1,0.448,1,1C16,15.553,15.552,16,15,16z M15,12c-0.552,0-1-0.447-1-1
		c0-0.552,0.448-1,1-1s1,0.448,1,1C16,11.553,15.552,12,15,12z M18,16c-0.552,0-1-0.447-1-1c0-0.552,0.448-1,1-1s1,0.448,1,1
		C19,15.553,18.552,16,18,16z M18,12c-0.552,0-1-0.447-1-1c0-0.552,0.448-1,1-1s1,0.448,1,1C19,11.553,18.552,12,18,12z"/>
</g>
</svg>
