<?xml version="1.0" encoding="utf-8"?>
<!-- Generator: Adobe Illustrator 16.0.0, SVG Export Plug-In . SVG Version: 6.00 Build 0)  -->
<!DOCTYPE svg PUBLIC "-//W3C//DTD SVG 1.1//EN" "http://www.w3.org/Graphics/SVG/1.1/DTD/svg11.dtd">
<svg version="1.1" xmlns="http://www.w3.org/2000/svg" xmlns:xlink="http://www.w3.org/1999/xlink" x="0px" y="0px" width="24px"
	 height="24px" viewBox="0 0 24 24" enable-background="new 0 0 24 24" xml:space="preserve">
<g id="Frames-24px">
	<rect fill="none" width="24" height="24"/>
</g>
<g id="Solid">
	<g>
		<path fill="#757575" d="M14,5l-2-2l-2,2L7,3v7c0,2.757,2.243,5,5,5s5-2.243,5-5V3L14,5z M12,13c-1.654,0-3-1.346-3-3h6
			C15,11.654,13.654,13,12,13z"/>
		<g>
			<path fill="#757575" d="M12,19.94l3.433-3.433C14.412,16.182,13.259,16,12,16s-2.412,0.182-3.433,0.507L12,19.94z"/>
			<path fill="#757575" d="M7.08,17.141C5.16,18.194,4,19.907,4,22v2h7v-2.939L7.08,17.141z"/>
			<path fill="#757575" d="M16.92,17.141L13,21.061V24h7v-2C20,19.907,18.84,18.194,16.92,17.141z"/>
		</g>
	</g>
</g>
</svg>
