<?xml version="1.0" encoding="utf-8"?>
<!-- Generator: Adobe Illustrator 16.0.0, SVG Export Plug-In . SVG Version: 6.00 Build 0)  -->
<!DOCTYPE svg PUBLIC "-//W3C//DTD SVG 1.1//EN" "http://www.w3.org/Graphics/SVG/1.1/DTD/svg11.dtd">
<svg version="1.1" xmlns="http://www.w3.org/2000/svg" xmlns:xlink="http://www.w3.org/1999/xlink" x="0px" y="0px"
	 width="24.001px" height="24.001px" viewBox="0 0 24.001 24.001" enable-background="new 0 0 24.001 24.001" xml:space="preserve">
<g id="Frames-24px">
	<rect fill="none" width="24.001" height="24.001"/>
</g>
<g id="Outline">
	<g>
		<path fill="#757575" d="M17.001,5h-1.279L14.95,2.684C14.813,2.275,14.432,2,14.001,2h-8C5.57,2,5.188,2.275,5.052,2.684l-1,3
			C3.997,5.848,3.986,6.025,4.021,6.196L5.781,15h2.04l-1.6-8h7.561l-1.6,8h2.04l1.6-8h1.18c0.551,0,1,0.449,1,1v7h2V8
			C20.001,6.345,18.655,5,17.001,5z"/>
		<path fill="#757575" d="M14.415,16H5.587l-1.293,1.292C4.106,17.48,4.001,17.734,4.001,18v3c0,0.552,0.448,1,1,1h10
			c0.552,0,1-0.448,1-1v-3c0-0.266-0.105-0.52-0.293-0.708L14.415,16z M10.001,20.25c-0.69,0-1.25-0.56-1.25-1.25
			s0.56-1.25,1.25-1.25s1.25,0.56,1.25,1.25S10.691,20.25,10.001,20.25z"/>
		<rect x="9.001" y="11" fill="#757575" width="2" height="4"/>
	</g>
</g>
</svg>
