<?xml version="1.0" encoding="utf-8"?>
<!-- Generator: Adobe Illustrator 16.0.0, SVG Export Plug-In . SVG Version: 6.00 Build 0)  -->
<!DOCTYPE svg PUBLIC "-//W3C//DTD SVG 1.1//EN" "http://www.w3.org/Graphics/SVG/1.1/DTD/svg11.dtd">
<svg version="1.1" xmlns="http://www.w3.org/2000/svg" xmlns:xlink="http://www.w3.org/1999/xlink" x="0px" y="0px"
	 width="24.001px" height="24.001px" viewBox="0 0 24.001 24.001" enable-background="new 0 0 24.001 24.001" xml:space="preserve">
<g id="Frames-24px">
	<rect fill="none" width="24.001" height="24.001"/>
</g>
<g id="Outline">
	<g>
		<path fill="#757575" d="M20.003,20.002v-7c0-2.467-1.273-4.684-3.317-5.945c-0.015,0.727-0.212,1.418-0.551,2.042
			c1.166,0.932,1.868,2.35,1.868,3.903v7h-4v2h8v-2H20.003z"/>
		<path fill="#757575" d="M14.302,9.813l0.367-0.372c0.663-0.662,1.027-1.542,1.027-2.477c0-0.936-0.364-1.814-1.025-2.475
			c-0.627-0.627-1.529-0.987-2.474-0.987c-0.946,0-1.848,0.36-2.475,0.987L9.351,4.858C6.898,4.42,4.836,5.133,3.356,6.61
			L2.649,7.315c-0.194,0.196-0.195,0.514,0,0.706l8.486,8.489c0.187,0.186,0.521,0.186,0.707,0l0.708-0.708
			C14,14.352,14.747,12.312,14.302,9.813z"/>
	</g>
</g>
</svg>
