<?xml version="1.0" encoding="utf-8"?>
<!-- Generator: Adobe Illustrator 16.0.0, SVG Export Plug-In . SVG Version: 6.00 Build 0)  -->
<!DOCTYPE svg PUBLIC "-//W3C//DTD SVG 1.1//EN" "http://www.w3.org/Graphics/SVG/1.1/DTD/svg11.dtd">
<svg version="1.1" xmlns="http://www.w3.org/2000/svg" xmlns:xlink="http://www.w3.org/1999/xlink" x="0px" y="0px" width="24px"
	 height="24.001px" viewBox="0 0 24 24.001" enable-background="new 0 0 24 24.001" xml:space="preserve">
<g id="Frames-24px">
	<rect fill="none" width="24" height="24.001"/>
</g>
<g id="Outline">
	<g>
		<rect x="15.003" y="15.003" fill="#757575" width="2" height="3"/>
		<path fill="#757575" d="M14.003,3.003h-1v-1h-2v1h-1c-3.86,0-7,3.141-7,7v3c0,0.404,0.244,0.769,0.617,0.924
			c0.374,0.154,0.804,0.069,1.09-0.217l1.293-1.293l1.293,1.293c0.391,0.391,1.023,0.391,1.414,0l1.293-1.293l1.293,1.293
			c0.391,0.391,1.023,0.391,1.414,0l1.293-1.293l1.293,1.293c0.391,0.391,1.023,0.391,1.414,0l1.293-1.293l1.293,1.293
			c0.191,0.191,0.447,0.293,0.707,0.293c0.129,0,0.259-0.025,0.383-0.076c0.374-0.156,0.617-0.52,0.617-0.924v-3
			C21.003,6.144,17.863,3.003,14.003,3.003z"/>
		<polygon fill="#757575" points="13.003,15.003 11.003,15.003 11.003,20.003 9.003,20.003 9.003,22.003 15.003,22.003 
			15.003,20.003 13.003,20.003 		"/>
	</g>
</g>
</svg>
