<?xml version="1.0" encoding="utf-8"?>
<!-- Generator: Adobe Illustrator 16.0.0, SVG Export Plug-In . SVG Version: 6.00 Build 0)  -->
<!DOCTYPE svg PUBLIC "-//W3C//DTD SVG 1.1//EN" "http://www.w3.org/Graphics/SVG/1.1/DTD/svg11.dtd">
<svg version="1.1" xmlns="http://www.w3.org/2000/svg" xmlns:xlink="http://www.w3.org/1999/xlink" x="0px" y="0px" width="24px"
	 height="24px" viewBox="0 0 24 24" enable-background="new 0 0 24 24" xml:space="preserve">
<g id="Frames-24px">
	<rect fill="none" width="24" height="24"/>
</g>
<g id="Outline">
	<g>
		<path fill="#757575" d="M15.499,9.5c0-1.93-1.57-3.5-3.5-3.5s-3.5,1.57-3.5,3.5s1.57,3.5,3.5,3.5S15.499,11.43,15.499,9.5z"/>
		<path fill="#757575" d="M4.999,13h2V9c0-2.757,2.243-5,5-5s5,2.243,5,5v4h2c1.657,0,3-1.344,3-3c0-1.657-1.343-3-3-3h-0.295
			c-0.863-2.888-3.541-5-6.705-5S6.157,4.112,5.294,7H4.999c-1.657,0-3,1.343-3,3C1.999,11.656,3.342,13,4.999,13z"/>
		<path fill="#757575" d="M11.999,14c-2.215,0-4.149,1.21-5.188,3h10.376C16.148,15.21,14.214,14,11.999,14z"/>
		<rect x="1.999" y="21" fill="#757575" width="20" height="3"/>
		<path fill="#757575" d="M3.999,18c-0.552,0-1,0.448-1,1v1h8v-1c0-0.552-0.448-1-1-1H3.999z"/>
		<path fill="#757575" d="M20.999,19c0-0.552-0.448-1-1-1h-6c-0.552,0-1,0.448-1,1v1h8V19z"/>
	</g>
</g>
</svg>
