<?xml version="1.0" encoding="utf-8"?>
<!-- Generator: Adobe Illustrator 16.0.0, SVG Export Plug-In . SVG Version: 6.00 Build 0)  -->
<!DOCTYPE svg PUBLIC "-//W3C//DTD SVG 1.1//EN" "http://www.w3.org/Graphics/SVG/1.1/DTD/svg11.dtd">
<svg version="1.1" xmlns="http://www.w3.org/2000/svg" xmlns:xlink="http://www.w3.org/1999/xlink" x="0px" y="0px" width="24px"
	 height="24px" viewBox="0 0 24 24" enable-background="new 0 0 24 24" xml:space="preserve">
<g id="Frames-24px">
	<rect fill="none" width="24" height="24"/>
</g>
<g id="Outline">
	<g>
		<path fill="#757575" d="M15.999,2.07C13.61,1.274,12.49,7.45,12.133,10h4.226C17.053,7.792,18.319,2.844,15.999,2.07z"/>
		<path fill="#757575" d="M11.865,10c-0.357-2.55-1.477-8.726-3.866-7.93C5.679,2.844,6.945,7.792,7.639,10H11.865z"/>
		<path fill="#757575" d="M6.999,21c0,0.552,0.448,1,1,1h8c0.552,0,1-0.448,1-1v-3h-10V21z"/>
		<polygon fill="#757575" points="3.999,11 3.999,13 6.999,13 6.999,17 16.999,17 16.999,13 19.999,13 19.999,11 		"/>
	</g>
</g>
</svg>
