<?xml version="1.0" encoding="utf-8"?>
<!-- Generator: Adobe Illustrator 16.0.0, SVG Export Plug-In . SVG Version: 6.00 Build 0)  -->
<!DOCTYPE svg PUBLIC "-//W3C//DTD SVG 1.1//EN" "http://www.w3.org/Graphics/SVG/1.1/DTD/svg11.dtd">
<svg version="1.1" xmlns="http://www.w3.org/2000/svg" xmlns:xlink="http://www.w3.org/1999/xlink" x="0px" y="0px" width="24px"
	 height="24px" viewBox="0 0 24 24" enable-background="new 0 0 24 24" xml:space="preserve">
<g id="Frames-24px">
	<rect fill="none" width="24" height="24"/>
</g>
<g id="Outline">
	<g>
		<polygon fill="#757575" points="14.999,9.268 11.999,4.016 8.999,9.266 8.999,11 14.999,11 		"/>
		<path fill="#757575" d="M3.999,11h3V9c0-0.174,0.045-0.345,0.132-0.496l3.103-5.43L3.399,8.2c-0.252,0.188-0.4,0.485-0.4,0.8v1
			C2.999,10.552,3.447,11,3.999,11z"/>
		<path fill="#757575" d="M16.999,9.002V11h3c0.552,0,1-0.448,1-1V9c0-0.314-0.148-0.611-0.4-0.8l-6.835-5.126l3.103,5.432
			C16.954,8.657,16.999,8.828,16.999,9.002z"/>
		<rect x="10.999" y="12" fill="#757575" width="2" height="10"/>
		<path fill="#757575" d="M20.029,14.757L19.218,18h-3.219c-0.552,0-1,0.448-1,1v3h2v-2h2v2h2v-2.877l0.97-3.88L20.029,14.757z"/>
		<path fill="#757575" d="M7.999,18H4.78l-0.811-3.243l-1.94,0.486l0.97,3.88V22h2v-2h2v2h2v-3C8.999,18.448,8.551,18,7.999,18z"/>
	</g>
</g>
</svg>
