<?xml version="1.0" encoding="utf-8"?>
<!-- Generator: Adobe Illustrator 16.0.0, SVG Export Plug-In . SVG Version: 6.00 Build 0)  -->
<!DOCTYPE svg PUBLIC "-//W3C//DTD SVG 1.1//EN" "http://www.w3.org/Graphics/SVG/1.1/DTD/svg11.dtd">
<svg version="1.1" xmlns="http://www.w3.org/2000/svg" xmlns:xlink="http://www.w3.org/1999/xlink" x="0px" y="0px" width="24px"
	 height="24.001px" viewBox="0 0 24 24.001" enable-background="new 0 0 24 24.001" xml:space="preserve">
<g id="Frames-24px">
	<rect fill="none" width="24" height="24.001"/>
	<rect fill="none" width="24" height="24.001"/>
</g>
<g id="Outline">
	<g>
		<path fill="#757575" d="M12.003,6.004c1.654,0,3-1.346,3-3c0-1.654-1.346-2.999-3-2.999s-3,1.346-3,2.999
			C9.003,4.658,10.349,6.004,12.003,6.004z"/>
		<path fill="#757575" d="M8.003,15.004h1v4c0,0.553,0.448,1,1,1h4c0.552,0,1-0.447,1-1v-4h1c0.552,0,1-0.447,1-1v-2
			c0-2.756-2.243-5-5-5s-5,2.244-5,5v2C7.003,14.557,7.451,15.004,8.003,15.004z"/>
		<path fill="#757575" d="M18.343,16.828l-0.578,1.914c1.849,0.559,2.238,1.166,2.238,1.262c0,0.514-2.75,2-8,2s-8-1.486-8-2
			c0-0.101,0.417-0.738,2.396-1.309l-0.555-1.922c-3.174,0.917-3.841,2.263-3.841,3.231c0,2.748,5.184,4,10,4s10-1.252,10-4
			C22.003,19.06,21.369,17.741,18.343,16.828z"/>
	</g>
</g>
</svg>
