<?xml version="1.0" encoding="utf-8"?>
<!-- Generator: Adobe Illustrator 16.0.0, SVG Export Plug-In . SVG Version: 6.00 Build 0)  -->
<!DOCTYPE svg PUBLIC "-//W3C//DTD SVG 1.1//EN" "http://www.w3.org/Graphics/SVG/1.1/DTD/svg11.dtd">
<svg version="1.1" xmlns="http://www.w3.org/2000/svg" xmlns:xlink="http://www.w3.org/1999/xlink" x="0px" y="0px" width="24px"
	 height="24.001px" viewBox="0 0 24 24.001" enable-background="new 0 0 24 24.001" xml:space="preserve">
<g id="Frames-24px">
	<rect fill="none" width="24" height="24.001"/>
	<rect fill="none" width="24" height="24.001"/>
</g>
<g id="Outline">
	<g>
		<circle fill="#757575" cx="12.004" cy="6.004" r="1.5"/>
		<path fill="#757575" d="M21.901,18.372l-2.441-5c-0.272-0.816-1.037-1.367-1.897-1.367h-2.344c0.936-2.374,1.785-4.847,1.785-6
			c0-2.757-2.243-5-5-5s-5,2.243-5,5c0,1.153,0.85,3.626,1.785,6H6.445c-0.861,0-1.625,0.551-1.897,1.367l-2.442,5
			c-0.203,0.611-0.101,1.281,0.275,1.803c0.376,0.521,0.979,0.83,1.623,0.83h16c0.643,0,1.247-0.309,1.623-0.83
			C22.002,19.653,22.104,18.982,21.901,18.372z M12.004,3.004c1.657,0,3,1.343,3,3c0,1.469-2.445,7.646-3,9
			c-0.558-1.369-3-7.527-3-9C9.004,4.348,10.347,3.004,12.004,3.004z"/>
	</g>
</g>
</svg>
