<?xml version="1.0" encoding="utf-8"?>
<!-- Generator: Adobe Illustrator 16.0.0, SVG Export Plug-In . SVG Version: 6.00 Build 0)  -->
<!DOCTYPE svg PUBLIC "-//W3C//DTD SVG 1.1//EN" "http://www.w3.org/Graphics/SVG/1.1/DTD/svg11.dtd">
<svg version="1.1" xmlns="http://www.w3.org/2000/svg" xmlns:xlink="http://www.w3.org/1999/xlink" x="0px" y="0px" width="24px"
	 height="24.001px" viewBox="0 0 24 24.001" enable-background="new 0 0 24 24.001" xml:space="preserve">
<g id="Frames-24px">
	<rect fill="none" width="24" height="24.001"/>
	<rect fill="none" width="24" height="24.001"/>
</g>
<g id="Outline">
	<path fill="#757575" d="M12.003,2.003c-4.418,0-8,3.582-8,8s8,12,8,12s8-7.582,8-12S16.421,2.003,12.003,2.003z M13.003,14.806
		v1.197h-2v-1.197c-1.138-0.433-2-1.553-2-2.803h2c0,0.495,0.505,1,1,1s1-0.505,1-1c0-0.202-0.563-0.359-1.243-0.529
		c-1.031-0.258-2.757-0.69-2.757-2.471c0-1.25,0.862-2.37,2-2.802V5.003h2v1.198C14.14,6.634,15,7.754,15,9.003h-2
		c0-0.495-0.503-1-0.997-1c-0.495,0-1,0.505-1,1c0,0.203,0.563,0.36,1.243,0.53c1.031,0.258,2.757,0.69,2.757,2.47
		C15.003,13.253,14.142,14.373,13.003,14.806z"/>
</g>
</svg>
