<?xml version="1.0" encoding="utf-8"?>
<!-- Generator: Adobe Illustrator 16.0.0, SVG Export Plug-In . SVG Version: 6.00 Build 0)  -->
<!DOCTYPE svg PUBLIC "-//W3C//DTD SVG 1.1//EN" "http://www.w3.org/Graphics/SVG/1.1/DTD/svg11.dtd">
<svg version="1.1" xmlns="http://www.w3.org/2000/svg" xmlns:xlink="http://www.w3.org/1999/xlink" x="0px" y="0px" width="24px"
	 height="24.001px" viewBox="0 0 24 24.001" enable-background="new 0 0 24 24.001" xml:space="preserve">
<g id="Frames-24px">
	<rect fill="none" width="24" height="24.001"/>
	<rect fill="none" width="24" height="24.001"/>
</g>
<g id="Outline">
	<g>
		<circle fill="#757575" cx="10.003" cy="9.003" r="1"/>
		<circle fill="#757575" cx="14.003" cy="9.003" r="1"/>
		<path fill="#757575" d="M12.003,2.003c-4.418,0-8,3.582-8,8s8,12,8,12s8-7.582,8-12S16.421,2.003,12.003,2.003z M17.003,12.003h-2
			v2c0,0.553-0.447,1-1,1v-2h-1v2h-2v-2h-1v2c-0.553,0-1-0.447-1-1v-2h-2v-2c0-2.761,2.238-5,5-5s5,2.239,5,5V12.003z"/>
	</g>
</g>
</svg>
