<?xml version="1.0" encoding="utf-8"?>
<!-- Generator: Adobe Illustrator 16.0.0, SVG Export Plug-In . SVG Version: 6.00 Build 0)  -->
<!DOCTYPE svg PUBLIC "-//W3C//DTD SVG 1.1//EN" "http://www.w3.org/Graphics/SVG/1.1/DTD/svg11.dtd">
<svg version="1.1" xmlns="http://www.w3.org/2000/svg" xmlns:xlink="http://www.w3.org/1999/xlink" x="0px" y="0px"
	 width="24.001px" height="24.001px" viewBox="0 0 24.001 24.001" enable-background="new 0 0 24.001 24.001" xml:space="preserve">
<g id="Frames-24px">
	<rect fill="none" width="24.001" height="24.001"/>
</g>
<g id="Outline">
	<g>
		
			<rect x="16.004" y="15.76" transform="matrix(0.7071 -0.7071 0.7071 0.7071 -9.164 17.882)" fill="#757575" width="2" height="8.485"/>
		<path fill="#757575" d="M16.003,11.002c0-2.238-1.946-5.221-2.168-5.554c-0.166-0.249-0.436-0.411-0.733-0.44
			c-0.301-0.028-0.594,0.076-0.806,0.288l-1.293,1.292V1.002c0-0.42-0.264-0.796-0.66-0.941C9.949-0.08,9.505,0.039,9.235,0.363
			c-0.214,0.256-5.232,6.327-5.232,10.64c0,1.423,0.526,2.813,1.482,3.914l0,0c1.15,1.326,2.797,2.086,4.518,2.086
			c1.272,0,2.498-0.408,3.544-1.179C15.108,14.673,16.003,12.916,16.003,11.002z M11.635,13.491
			c-0.47-0.309-1.029-0.489-1.632-0.489c-0.596,0-1.147,0.179-1.615,0.48c-0.233-0.15-0.453-0.321-0.637-0.531
			c-0.213-0.248-0.441-0.606-0.591-1.054c0.809-0.562,1.786-0.895,2.843-0.895s2.035,0.333,2.843,0.895
			C12.61,12.633,12.216,13.092,11.635,13.491z"/>
	</g>
</g>
</svg>
