<?xml version="1.0" encoding="utf-8"?>
<!-- Generator: Adobe Illustrator 16.0.0, SVG Export Plug-In . SVG Version: 6.00 Build 0)  -->
<!DOCTYPE svg PUBLIC "-//W3C//DTD SVG 1.1//EN" "http://www.w3.org/Graphics/SVG/1.1/DTD/svg11.dtd">
<svg version="1.1" xmlns="http://www.w3.org/2000/svg" xmlns:xlink="http://www.w3.org/1999/xlink" x="0px" y="0px" width="24px"
	 height="24px" viewBox="0 0 24 24" enable-background="new 0 0 24 24" xml:space="preserve">
<g id="Frames-24px">
	<rect fill="none" width="24" height="24"/>
</g>
<g id="Solid">
	<g>
		<path fill="#757575" d="M12,16v2H4V6h8v2h2V4c0-1.104-0.896-2-2-2H4C2.896,2,2,2.896,2,4v16c0,1.104,0.896,2,2,2h8
			c1.104,0,2-0.896,2-2v-4H12z"/>
		<path fill="#757575" d="M16,1.451v8.26C15.693,9.577,15.356,9.5,15,9.5c-1.38,0-2.5,1.12-2.5,2.5s1.12,2.5,2.5,2.5
			c2.574,0,3-2.5,3-2.5V5.287l1.743,1.218l1.145-1.64L16,1.451z"/>
	</g>
</g>
</svg>
