<?xml version="1.0" encoding="utf-8"?>
<!-- Generator: Adobe Illustrator 16.0.0, SVG Export Plug-In . SVG Version: 6.00 Build 0)  -->
<!DOCTYPE svg PUBLIC "-//W3C//DTD SVG 1.1//EN" "http://www.w3.org/Graphics/SVG/1.1/DTD/svg11.dtd">
<svg version="1.1" xmlns="http://www.w3.org/2000/svg" xmlns:xlink="http://www.w3.org/1999/xlink" x="0px" y="0px" width="24px"
	 height="24px" viewBox="0 0 24 24" enable-background="new 0 0 24 24" xml:space="preserve">
<g id="Frames-24px">
	<rect fill="none" width="24" height="24"/>
</g>
<g id="Solid">
	<g>
		<path fill="#757575" d="M14,17v1H6V6h8v1h2V4c0-1.104-0.896-2-2-2H6C4.896,2,4,2.896,4,4v16c0,1.104,0.896,2,2,2h8
			c1.104,0,2-0.896,2-2v-3H14z"/>
		<polygon fill="#757575" points="19.707,9.707 18.293,8.293 16,10.586 13.707,8.293 12.293,9.707 14.586,12 12.293,14.293 
			13.707,15.707 16,13.414 18.293,15.707 19.707,14.293 17.414,12 		"/>
	</g>
</g>
</svg>
