<?xml version="1.0" encoding="utf-8"?>
<!-- Generator: Adobe Illustrator 16.0.0, SVG Export Plug-In . SVG Version: 6.00 Build 0)  -->
<!DOCTYPE svg PUBLIC "-//W3C//DTD SVG 1.1//EN" "http://www.w3.org/Graphics/SVG/1.1/DTD/svg11.dtd">
<svg version="1.1" xmlns="http://www.w3.org/2000/svg" xmlns:xlink="http://www.w3.org/1999/xlink" x="0px" y="0px" width="24px"
	 height="24px" viewBox="0 0 24 24" enable-background="new 0 0 24 24" xml:space="preserve">
<g id="Frames-24px">
	<rect fill="none" width="24" height="24"/>
</g>
<g id="Outline">
	<path fill="#757575" d="M21.003,13.283V9.006h-2v4h-1v-6c0-1.104-0.896-2-2-2h-1v-2h-6v2h-1c-1.104,0-2,0.896-2,2v6h-1v-4h-2v4.277
		c-0.595,0.347-1,0.984-1,1.723v5h2c0,1.104,0.896,2,2,2s2-0.896,2-2h8c0,1.104,0.896,2,2,2s2-0.896,2-2h2v-5
		C22.003,14.268,21.599,13.63,21.003,13.283z M6.003,17.006c0,0.552-0.448,1-1,1s-1-0.448-1-1s0.448-1,1-1
		S6.003,16.454,6.003,17.006z M11.003,18.006h-2v-5h2V18.006z M15.003,18.006h-2v-5h2V18.006z M8.003,10.006v-2h8v2H8.003z
		 M19.003,18.006c-0.552,0-1-0.448-1-1s0.448-1,1-1s1,0.448,1,1S19.556,18.006,19.003,18.006z"/>
</g>
</svg>
