<?xml version="1.0" encoding="utf-8"?>
<!-- Generator: Adobe Illustrator 16.0.0, SVG Export Plug-In . SVG Version: 6.00 Build 0)  -->
<!DOCTYPE svg PUBLIC "-//W3C//DTD SVG 1.1//EN" "http://www.w3.org/Graphics/SVG/1.1/DTD/svg11.dtd">
<svg version="1.1" xmlns="http://www.w3.org/2000/svg" xmlns:xlink="http://www.w3.org/1999/xlink" x="0px" y="0px" width="24px"
	 height="24.002px" viewBox="0 0 24 24.002" enable-background="new 0 0 24 24.002" xml:space="preserve">
<g id="Frames-24px">
	<rect fill="none" width="24" height="24.002"/>
</g>
<g id="Outline">
	<g>
		<path fill="#757575" d="M5.004,10.008h7c0.552,0,1-0.447,1-1s-0.448-1-1-1h-7c-0.552,0-1,0.447-1,1S4.452,10.008,5.004,10.008z"/>
		<path fill="#757575" d="M17.004,19.008h-0.816c0.414,1.163,1.512,2,2.816,2c1.657,0,3-1.344,3-3c0-0.919-0.422-1.73-1.073-2.281
			C20.591,17.589,18.963,19.008,17.004,19.008z"/>
		<path fill="#757575" d="M7.004,21.008c1.304,0,2.403-0.837,2.816-2H4.188C4.601,20.17,5.7,21.008,7.004,21.008z"/>
		<path fill="#757575" d="M20.004,10.675V7.008c0-1.654-1.346-3-3-3h-2v2h2c0.551,0,1,0.449,1,1v8c0,0.552-0.449,1-1,1h-5v-5h-5
			c-2.761,0-5,2.238-5,5v2h15c1.654,0,3-1.346,3-3v-1.667l2,0.667v-4L20.004,10.675z"/>
	</g>
</g>
</svg>
