<?xml version="1.0" encoding="utf-8"?>
<!-- Generator: Adobe Illustrator 16.0.0, SVG Export Plug-In . SVG Version: 6.00 Build 0)  -->
<!DOCTYPE svg PUBLIC "-//W3C//DTD SVG 1.1//EN" "http://www.w3.org/Graphics/SVG/1.1/DTD/svg11.dtd">
<svg version="1.1" xmlns="http://www.w3.org/2000/svg" xmlns:xlink="http://www.w3.org/1999/xlink" x="0px" y="0px" width="24px"
	 height="24px" viewBox="0 0 24 24" enable-background="new 0 0 24 24" xml:space="preserve">
<g id="Frames-24px">
	<rect fill="none" width="24" height="24"/>
</g>
<g id="Outline">
	<g>
		<path fill="#757575" d="M12.003,13.006c-1.104,0-2,0.896-2,2v6c0,1.104,0.896,2,2,2s2-0.896,2-2v-6
			C14.003,13.901,13.108,13.006,12.003,13.006z"/>
		<path fill="#757575" d="M15.597,6.006h4.406v-2h-4c0-1-2-2-4-2s-4,1-4,2h-4v2H8.41c0.309,0.846,0.813,1.716,1.564,2.302
			c-2.876,0.87-4.971,3.538-4.971,6.698v4c0,0.552,0.448,1,1,1h3v-6c0-1.104,0.896-2,2-2h2c1.104,0,2,0.896,2,2v6h3
			c0.552,0,1-0.448,1-1v-4c0-3.16-2.095-5.829-4.971-6.698C14.785,7.722,15.289,6.852,15.597,6.006z M12.003,4.006
			c0.828,0,1.5,0.672,1.5,1.5c0,0.829-0.672,1.5-1.5,1.5s-1.5-0.671-1.5-1.5C10.503,4.678,11.175,4.006,12.003,4.006z"/>
	</g>
</g>
</svg>
