<?xml version="1.0" encoding="utf-8"?>
<!-- Generator: Adobe Illustrator 16.0.0, SVG Export Plug-In . SVG Version: 6.00 Build 0)  -->
<!DOCTYPE svg PUBLIC "-//W3C//DTD SVG 1.1//EN" "http://www.w3.org/Graphics/SVG/1.1/DTD/svg11.dtd">
<svg version="1.1" xmlns="http://www.w3.org/2000/svg" xmlns:xlink="http://www.w3.org/1999/xlink" x="0px" y="0px" width="24px"
	 height="24px" viewBox="0 0 24 24" enable-background="new 0 0 24 24" xml:space="preserve">
<g id="Frames-24px">
	<rect fill="none" width="24" height="24"/>
</g>
<g id="Solid">
	<path fill="#757575" d="M19.396,3.299c-0.38-0.283-0.872-0.368-1.326-0.234l-10,3C7.435,6.255,7,6.84,7,7.503v7.551
		c-0.165-0.024-0.329-0.051-0.5-0.051c-1.934,0-3.5,1.568-3.5,3.5c0,1.931,1.566,3.5,3.5,3.5s3.5-1.569,3.5-3.5V8.618l7-2.1v6.536
		c-0.165-0.024-0.329-0.051-0.5-0.051c-1.934,0-3.5,1.568-3.5,3.5c0,1.931,1.566,3.5,3.5,3.5s3.5-1.569,3.5-3.5v-12
		C20,4.027,19.775,3.582,19.396,3.299z"/>
</g>
</svg>
