<?xml version="1.0" encoding="utf-8"?>
<!-- Generator: Adobe Illustrator 16.0.0, SVG Export Plug-In . SVG Version: 6.00 Build 0)  -->
<!DOCTYPE svg PUBLIC "-//W3C//DTD SVG 1.1//EN" "http://www.w3.org/Graphics/SVG/1.1/DTD/svg11.dtd">
<svg version="1.1" xmlns="http://www.w3.org/2000/svg" xmlns:xlink="http://www.w3.org/1999/xlink" x="0px" y="0px" width="24px"
	 height="24px" viewBox="0 0 24 24" enable-background="new 0 0 24 24" xml:space="preserve">
<g id="Frames-24px">
	<rect fill="none" width="24" height="24"/>
</g>
<g id="Outline">
	<g>
		<path fill="#757575" d="M9.102,10.699C9.979,9.69,9.87,8.16,8.86,7.283C7.852,6.407,3.618,5.938,3.618,5.938
			s0.851,3.942,2.069,5.001C6.697,11.816,8.226,11.707,9.102,10.699z"/>
		<path fill="#757575" d="M13.002,12.073c0-0.323,0.102-0.694,0.285-1.074c1.379,0.895,3.241,0.725,4.431-0.499
			c1.355-1.391,2.387-7.494,2.387-7.494s-5.791,0.908-7.427,2.588c-1,1.027-1.24,2.507-0.741,3.758
			c-0.63,0.92-0.935,1.896-0.935,2.721v2.929h2V12.073z"/>
		<path fill="#757575" d="M17.676,16.002H6.328c-0.314,0-0.609,0.148-0.798,0.399c-0.189,0.25-0.25,0.574-0.163,0.876l1.429,5
			c0.123,0.429,0.515,0.725,0.961,0.725h8.491c0.447,0,0.839-0.296,0.961-0.725l1.429-5c0.086-0.302,0.026-0.626-0.163-0.876
			C18.286,16.15,17.99,16.002,17.676,16.002z"/>
	</g>
</g>
</svg>
