<?xml version="1.0" encoding="utf-8"?>
<!-- Generator: Adobe Illustrator 16.0.0, SVG Export Plug-In . SVG Version: 6.00 Build 0)  -->
<!DOCTYPE svg PUBLIC "-//W3C//DTD SVG 1.1//EN" "http://www.w3.org/Graphics/SVG/1.1/DTD/svg11.dtd">
<svg version="1.1" xmlns="http://www.w3.org/2000/svg" xmlns:xlink="http://www.w3.org/1999/xlink" x="0px" y="0px" width="24px"
	 height="24px" viewBox="0 0 24 24" enable-background="new 0 0 24 24" xml:space="preserve">
<g id="Frames-24px">
	<rect fill="none" width="24" height="24"/>
</g>
<g id="Outline">
	<g>
		<path fill="#757575" d="M18.475,16.4c-0.189-0.251-0.484-0.399-0.798-0.399H6.328c-0.314,0-0.609,0.148-0.798,0.399
			c-0.189,0.25-0.25,0.574-0.163,0.876l1.429,5c0.123,0.429,0.515,0.725,0.961,0.725h8.491c0.447,0,0.839-0.296,0.961-0.725l1.429-5
			C18.724,16.975,18.664,16.65,18.475,16.4z"/>
		<path fill="#757575" d="M9.18,8.984c0.02,0.057,0.031,0.117,0.054,0.172c-0.723,0.301-1.231,1.013-1.231,1.845
			c0,1.105,0.896,2,2,2c0.366,0,0.705-0.105,1-0.277v2.277h2v-2.277c0.295,0.172,0.634,0.277,1,0.277c1.104,0,2-0.895,2-2
			c0-0.832-0.509-1.544-1.231-1.845c0.022-0.055,0.033-0.115,0.054-0.172c1.266,0.104,2.178-0.882,2.178-1.983c0-1.104-0.896-2-2-2
			c-0.378,0-0.728,0.112-1.029,0.293c0.184-1.28-0.805-2.293-1.971-2.293c-1.159,0-2.155,1.006-1.971,2.293
			C9.73,5.113,9.38,5.002,9.002,5.002c-1.104,0-2,0.896-2,2C7.002,8.101,7.911,9.089,9.18,8.984z M12.002,6.002c1.104,0,2,0.896,2,2
			c0,1.105-0.896,2-2,2s-2-0.895-2-2C10.002,6.898,10.897,6.002,12.002,6.002z"/>
	</g>
</g>
</svg>
