<?xml version="1.0" encoding="utf-8"?>
<!-- Generator: Adobe Illustrator 16.0.0, SVG Export Plug-In . SVG Version: 6.00 Build 0)  -->
<!DOCTYPE svg PUBLIC "-//W3C//DTD SVG 1.1//EN" "http://www.w3.org/Graphics/SVG/1.1/DTD/svg11.dtd">
<svg version="1.1" xmlns="http://www.w3.org/2000/svg" xmlns:xlink="http://www.w3.org/1999/xlink" x="0px" y="0px" width="24px"
	 height="24px" viewBox="0 0 24 24" enable-background="new 0 0 24 24" xml:space="preserve">
<g id="Frames-24px">
	<rect fill="none" width="24" height="24"/>
</g>
<g id="Solid">
	<path fill="#757575" d="M12,1C5.935,1,1,5.935,1,12c0,6.066,4.935,11,11,11s11-4.934,11-11C23,5.935,18.065,1,12,1z M15,14.414
		L13.586,13l2-2H10c-1.103,0-2,0.898-2,2c0,1.103,0.897,2,2,2h1v2h-1c-2.206,0-4-1.794-4-4s1.794-4,4-4h5.586l-2-2L15,5.586
		L19.414,10L15,14.414z"/>
</g>
</svg>
