<?xml version="1.0" encoding="utf-8"?>
<!-- Generator: Adobe Illustrator 16.0.0, SVG Export Plug-In . SVG Version: 6.00 Build 0)  -->
<!DOCTYPE svg PUBLIC "-//W3C//DTD SVG 1.1//EN" "http://www.w3.org/Graphics/SVG/1.1/DTD/svg11.dtd">
<svg version="1.1" xmlns="http://www.w3.org/2000/svg" xmlns:xlink="http://www.w3.org/1999/xlink" x="0px" y="0px" width="24px"
	 height="24px" viewBox="0 0 24 24" enable-background="new 0 0 24 24" xml:space="preserve">
<g id="Frames-24px">
	<rect fill="none" width="24" height="24"/>
</g>
<g id="Solid">
	<g>
		<g>
			<rect x="7" y="10" fill="#757575" width="4" height="4"/>
			<path fill="#757575" d="M5,10H0.202C0.07,10.646,0,11.315,0,12c0,0.686,0.07,1.354,0.202,2H5V10z"/>
			<path fill="#757575" d="M7,8h4V2h-1C8.955,2,7.948,2.163,7,2.461V8z"/>
			<path fill="#757575" d="M7,16v5.54C7.948,21.838,8.955,22,10,22h1v-6H7z"/>
			<path fill="#757575" d="M5,8V3.353C3.166,4.418,1.698,6.044,0.841,8H5z"/>
			<path fill="#757575" d="M5,16H0.841C1.698,17.957,3.166,19.582,5,20.646V16z"/>
		</g>
		<g>
			<circle fill="#757575" cx="17" cy="5" r="3"/>
			<path fill="#757575" d="M17,8c-2.757,0-5,2.243-5,5v3c0,0.552,0.448,1,1,1h1v4c0,0.552,0.448,1,1,1h4c0.552,0,1-0.448,1-1v-4h1
				c0.552,0,1-0.448,1-1v-3C22,10.243,19.757,8,17,8z"/>
		</g>
	</g>
</g>
</svg>
