<?xml version="1.0" encoding="utf-8"?>
<!-- Generator: Adobe Illustrator 16.0.0, SVG Export Plug-In . SVG Version: 6.00 Build 0)  -->
<!DOCTYPE svg PUBLIC "-//W3C//DTD SVG 1.1//EN" "http://www.w3.org/Graphics/SVG/1.1/DTD/svg11.dtd">
<svg version="1.1" xmlns="http://www.w3.org/2000/svg" xmlns:xlink="http://www.w3.org/1999/xlink" x="0px" y="0px" width="24px"
	 height="24px" viewBox="0 0 24 24" enable-background="new 0 0 24 24" xml:space="preserve">
<g id="Frames-24px">
	<rect fill="none" width="24" height="24"/>
</g>
<g id="Outline">
	<g>
		<path fill="#757575" d="M21.002,2.002c-0.538,0-1.024,0.215-1.383,0.561c-0.511-0.926-1.485-1.561-2.617-1.561
			s-2.106,0.635-2.617,1.561c-0.359-0.346-0.845-0.561-1.383-0.561c-1.104,0-2,0.896-2,2s0.896,2,2,2
			c0.538,0,1.024-0.215,1.383-0.561c0.511,0.926,1.485,1.561,2.617,1.561s2.106-0.634,2.617-1.561
			c0.359,0.346,0.846,0.561,1.383,0.561c1.104,0,2-0.896,2-2S22.106,2.002,21.002,2.002z"/>
		<path fill="#757575" d="M17.239,9.666c-0.142-0.398-0.519-0.664-0.941-0.664H7.707c-0.422,0-0.799,0.266-0.942,0.664l-4.285,12
			c-0.109,0.306-0.063,0.646,0.124,0.912s0.492,0.424,0.817,0.424h17.162c0.325,0,0.63-0.158,0.817-0.424s0.234-0.606,0.124-0.912
			L17.239,9.666z M12.002,15.002c0.553,0,1,0.445,1,1c0,0.551-0.447,1-1,1s-1-0.449-1-1C11.002,15.447,11.449,15.002,12.002,15.002z
			 M9.712,11.552l1.15,2.29c-0.79,0.4-1.341,1.21-1.341,2.16h-2.52C7.002,14.072,8.102,12.393,9.712,11.552z M12.002,21.002
			c-1.14,0-2.19-0.38-3.03-1.029l1.58-2.101c0.41,0.31,0.9,0.5,1.45,0.5s1.04-0.19,1.45-0.5l1.58,2.11
			C14.192,20.622,13.142,21.002,12.002,21.002z M14.372,16.002c0-0.95-0.55-1.76-1.351-2.16l1.171-2.33
			c1.659,0.811,2.81,2.52,2.81,4.49H14.372z"/>
	</g>
</g>
</svg>
