<?xml version="1.0" encoding="utf-8"?>
<!-- Generator: Adobe Illustrator 16.0.0, SVG Export Plug-In . SVG Version: 6.00 Build 0)  -->
<!DOCTYPE svg PUBLIC "-//W3C//DTD SVG 1.1//EN" "http://www.w3.org/Graphics/SVG/1.1/DTD/svg11.dtd">
<svg version="1.1" xmlns="http://www.w3.org/2000/svg" xmlns:xlink="http://www.w3.org/1999/xlink" x="0px" y="0px" width="24px"
	 height="24px" viewBox="0 0 24 24" enable-background="new 0 0 24 24" xml:space="preserve">
<g id="Frames-24px">
	<rect fill="none" width="24" height="24"/>
</g>
<g id="Solid">
	<g>
		<path fill="#757575" d="M12,16c-4.71,0-8,2.467-8,6v2h16v-2C20,18.467,16.71,16,12,16z"/>
		<path fill="#757575" d="M19,7v2c0,1.478-0.805,2.771-2,3.463V11h-3v4h1c3.309,0,6-2.691,6-6V7H19z"/>
		<path fill="#757575" d="M12,4C9.243,4,7,6.243,7,9s2.243,5,5,5v-2c-1.654,0-3-1.346-3-3c0-0.502,0.136-0.971,0.356-1.388
			c1.501,0.759,3.099,1.226,4.773,1.353c0.288,0.021,0.579,0.03,0.871,0.033c0,0,0,0.001,0,0.002h2C17,6.243,14.757,4,12,4z"/>
	</g>
</g>
</svg>
