<?xml version="1.0" encoding="utf-8"?>
<!-- Generator: Adobe Illustrator 16.0.0, SVG Export Plug-In . SVG Version: 6.00 Build 0)  -->
<!DOCTYPE svg PUBLIC "-//W3C//DTD SVG 1.1//EN" "http://www.w3.org/Graphics/SVG/1.1/DTD/svg11.dtd">
<svg version="1.1" xmlns="http://www.w3.org/2000/svg" xmlns:xlink="http://www.w3.org/1999/xlink" x="0px" y="0px" width="24px"
	 height="24px" viewBox="0 0 24 24" enable-background="new 0 0 24 24" xml:space="preserve">
<g id="Frames-24px">
	<rect fill="none" width="24" height="24"/>
</g>
<g id="Solid">
	<path fill="#757575" d="M21,15h-2v-1c0-1.654-1.346-3-3-3h-3V9h2c0.552,0,1-0.448,1-1V3c0-0.552-0.448-1-1-1H9C8.448,2,8,2.448,8,3
		v5c0,0.552,0.448,1,1,1h2v2H8c-1.654,0-3,1.346-3,3v1H3c-0.552,0-1,0.448-1,1v5c0,0.552,0.448,1,1,1h6c0.552,0,1-0.448,1-1v-5
		c0-0.552-0.448-1-1-1H7v-1c0-0.551,0.449-1,1-1h8c0.551,0,1,0.449,1,1v1h-2c-0.552,0-1,0.448-1,1v5c0,0.552,0.448,1,1,1h6
		c0.552,0,1-0.448,1-1v-5C22,15.448,21.552,15,21,15z"/>
</g>
</svg>
