<?xml version="1.0" encoding="utf-8"?>
<!-- Generator: Adobe Illustrator 16.0.0, SVG Export Plug-In . SVG Version: 6.00 Build 0)  -->
<!DOCTYPE svg PUBLIC "-//W3C//DTD SVG 1.1//EN" "http://www.w3.org/Graphics/SVG/1.1/DTD/svg11.dtd">
<svg version="1.1" xmlns="http://www.w3.org/2000/svg" xmlns:xlink="http://www.w3.org/1999/xlink" x="0px" y="0px" width="24px"
	 height="24px" viewBox="0 0 24 24" enable-background="new 0 0 24 24" xml:space="preserve">
<g id="Frames-24px">
	<rect fill="none" width="24" height="24"/>
</g>
<g id="Solid">
	<g>
		<path fill="#757575" d="M20.259,3.879c-1.172-1.173-3.07-1.173-4.242,0l-8.753,8.753c1.111-0.074,2.247,0.296,3.096,1.146
			s1.22,1.985,1.146,3.097l8.754-8.755C20.822,7.559,21.138,6.796,21.138,6C21.138,5.204,20.822,4.442,20.259,3.879z"/>
		<path fill="#757575" d="M3.739,15.193C0.956,17.976,4.12,19.405,1,22.526c0,0,5.163,0.656,7.945-2.127
			c1.438-1.438,1.438-3.769,0-5.207C7.507,13.755,5.176,13.755,3.739,15.193z"/>
	</g>
</g>
</svg>
