<?xml version="1.0" encoding="utf-8"?>
<!-- Generator: Adobe Illustrator 16.0.0, SVG Export Plug-In . SVG Version: 6.00 Build 0)  -->
<!DOCTYPE svg PUBLIC "-//W3C//DTD SVG 1.1//EN" "http://www.w3.org/Graphics/SVG/1.1/DTD/svg11.dtd">
<svg version="1.1" xmlns="http://www.w3.org/2000/svg" xmlns:xlink="http://www.w3.org/1999/xlink" x="0px" y="0px" width="24px"
	 height="24px" viewBox="0 0 24 24" enable-background="new 0 0 24 24" xml:space="preserve">
<g id="Frames-24px">
	<rect fill="none" width="24" height="24"/>
</g>
<g id="Solid">
	<g>
		<path fill="#757575" d="M10,6.816V10c0,0.553,0.447,1,1,1s1-0.447,1-1V6.816c1.163-0.413,2.001-1.511,2-2.817
			C14,2.342,12.657,1,11,1S8.001,2.342,8.001,3.999C8,5.305,8.838,6.403,10,6.816z"/>
		<path fill="#757575" d="M19,8h-5v4H8V8H4C3.448,8,3,8.449,3,9v13c0,0.553,0.448,1,1,1h13c0.265,0,0.52-0.105,0.707-0.292l2-2
			C19.895,20.52,20,20.265,20,20V9C20,8.449,19.552,8,19,8z M6,14h10v2H6V14z M14,20H6v-2h8V20z M16,22v-3h3L16,22z"/>
	</g>
</g>
</svg>
