<?xml version="1.0" encoding="utf-8"?>
<!-- Generator: Adobe Illustrator 16.0.0, SVG Export Plug-In . SVG Version: 6.00 Build 0)  -->
<!DOCTYPE svg PUBLIC "-//W3C//DTD SVG 1.1//EN" "http://www.w3.org/Graphics/SVG/1.1/DTD/svg11.dtd">
<svg version="1.1" xmlns="http://www.w3.org/2000/svg" xmlns:xlink="http://www.w3.org/1999/xlink" x="0px" y="0px" width="24px"
	 height="24px" viewBox="0 0 24 24" enable-background="new 0 0 24 24" xml:space="preserve">
<g id="Frames-24px">
	<rect fill="none" width="24" height="24"/>
</g>
<g id="Solid">
	<g>
		<path fill="#757575" d="M20.103,9.589l0.719-0.719c1.57-1.568,1.57-4.124,0-5.692c-1.569-1.57-4.124-1.57-5.692,0l-0.719,0.719
			L20.103,9.589z"/>
		<polygon fill="#757575" points="12.997,5.311 4.092,14.215 7.664,14.923 15.136,7.449 		"/>
		<path fill="#757575" d="M2.295,21.706c0.247,0.248,0.608,0.347,0.949,0.263l4.678-1.17l-0.78-3.941l-3.941-0.781l-1.169,4.678
			C1.947,21.097,2.046,21.457,2.295,21.706z"/>
		<polygon fill="#757575" points="16.55,8.863 9.078,16.337 9.785,19.907 18.689,11.003 		"/>
	</g>
</g>
</svg>
