<?xml version="1.0" encoding="utf-8"?>
<!-- Generator: Adobe Illustrator 16.0.0, SVG Export Plug-In . SVG Version: 6.00 Build 0)  -->
<!DOCTYPE svg PUBLIC "-//W3C//DTD SVG 1.1//EN" "http://www.w3.org/Graphics/SVG/1.1/DTD/svg11.dtd">
<svg version="1.1" xmlns="http://www.w3.org/2000/svg" xmlns:xlink="http://www.w3.org/1999/xlink" x="0px" y="0px" width="24px"
	 height="24px" viewBox="0 0 24 24" enable-background="new 0 0 24 24" xml:space="preserve">
<g id="Frames-24px">
	<rect fill="none" width="24" height="24"/>
</g>
<g id="Solid">
	<g>
		<polygon fill="#757575" points="6,23 8,20 4,20 		"/>
		<rect x="4" y="9" fill="#757575" width="4" height="10"/>
		<path fill="#757575" d="M6,5C4.896,5,4,5.964,4,7.154V8h4V7.154C8,5.964,7.104,5,6,5z"/>
		<polygon fill="#757575" points="11,2 11,4 14,4 14,6 11,6 11,9 14,9 14,11 11,11 11,14 14,14 14,16 11,16 11,19 14,19 14,21 
			11,21 11,23 19,23 19,2 		"/>
	</g>
</g>
</svg>
