<?xml version="1.0" encoding="utf-8"?>
<!-- Generator: Adobe Illustrator 16.0.0, SVG Export Plug-In . SVG Version: 6.00 Build 0)  -->
<!DOCTYPE svg PUBLIC "-//W3C//DTD SVG 1.1//EN" "http://www.w3.org/Graphics/SVG/1.1/DTD/svg11.dtd">
<svg version="1.1" xmlns="http://www.w3.org/2000/svg" xmlns:xlink="http://www.w3.org/1999/xlink" x="0px" y="0px" width="24px"
	 height="24px" viewBox="0 0 24 24" enable-background="new 0 0 24 24" xml:space="preserve">
<g id="Frames-24px">
	<rect fill="none" width="24" height="24"/>
</g>
<g id="Solid">
	<g>
		<path fill="#757575" d="M20,2.003h-9c-1.104,0-2,0.896-2,2v8c0,1.104,0.896,2,2,2h9c1.104,0,2-0.896,2-2v-8
			C22,2.899,21.104,2.003,20,2.003z M11,11.003l1.859-2.983l1.146,1.839l2.641-4.237L20,11.003H11z"/>
		<path fill="#757575" d="M7,5.003H5v11c0,1.103,0.897,2,2,2h10v-2H7V5.003z"/>
		<path fill="#757575" d="M3,9.003H1v11c0,1.103,0.897,2,2,2h10v-2H3V9.003z"/>
	</g>
</g>
</svg>
