<?xml version="1.0" encoding="utf-8"?>
<!-- Generator: Adobe Illustrator 16.0.0, SVG Export Plug-In . SVG Version: 6.00 Build 0)  -->
<!DOCTYPE svg PUBLIC "-//W3C//DTD SVG 1.1//EN" "http://www.w3.org/Graphics/SVG/1.1/DTD/svg11.dtd">
<svg version="1.1" xmlns="http://www.w3.org/2000/svg" xmlns:xlink="http://www.w3.org/1999/xlink" x="0px" y="0px" width="24px"
	 height="24px" viewBox="0 0 24 24" enable-background="new 0 0 24 24" xml:space="preserve">
<g id="Frames-24px">
	<rect fill="none" width="24" height="24"/>
</g>
<g id="Outline">
	<path fill="#757575" d="M21.96,11.159c-0.008-0.031-1.666-4.99-1.676-5.02L20,5.002h-1.993v-3h-3v3h-6v-3h-3v3H4L3.716,6.139
		l-1.671,5c-0.119,0.481-0.006,0.921,0.25,1.257c0.355,0.469,1.124,0.606,1.712,0.606v9h6v-4h4v4h6v-9
		c0.751,0,1.38-0.089,1.775-0.721C21.991,11.947,22.056,11.542,21.96,11.159z M9.007,17.002h-3v-3h3V17.002z M18.007,17.002h-3v-3h3
		V17.002z"/>
</g>
</svg>
