<?xml version="1.0" encoding="utf-8"?>
<!-- Generator: Adobe Illustrator 16.0.0, SVG Export Plug-In . SVG Version: 6.00 Build 0)  -->
<!DOCTYPE svg PUBLIC "-//W3C//DTD SVG 1.1//EN" "http://www.w3.org/Graphics/SVG/1.1/DTD/svg11.dtd">
<svg version="1.1" xmlns="http://www.w3.org/2000/svg" xmlns:xlink="http://www.w3.org/1999/xlink" x="0px" y="0px" width="24px"
	 height="24.001px" viewBox="0 0 24 24.001" enable-background="new 0 0 24 24.001" xml:space="preserve">
<g id="Frames-24px">
	<rect y="0" fill="none" width="24" height="24.001"/>
</g>
<g id="Outline">
	<g>
		<path fill="#757575" d="M14.004,3.004c0-1.105-0.896-2-2-2s-2,0.895-2,2v2h4V3.004z"/>
		<path fill="#757575" d="M9.004,11.943l5.939-5.939H3.004c-0.552,0-1,0.447-1,1c0,0.552,0.448,1,1,1h1.5l0.224,0.447
			C4.897,8.79,5.243,9.004,5.622,9.004h3.382V11.943z"/>
		<path fill="#757575" d="M21.004,6.004h-3.939l-8.061,8.06v5.94H7.337c-0.43,0-0.813,0.275-0.948,0.684l-0.333,1
			c-0.102,0.305-0.05,0.64,0.138,0.9c0.188,0.26,0.49,0.415,0.811,0.415h10c0.321,0,0.623-0.155,0.811-0.415
			c0.188-0.261,0.239-0.595,0.138-0.9l-0.333-1c-0.136-0.409-0.518-0.684-0.948-0.684h-1.667v-11h3.382
			c0.379,0,0.725-0.214,0.895-0.553l0.224-0.447h1.5c0.552,0,1-0.448,1-1C22.004,6.451,21.556,6.004,21.004,6.004z"/>
	</g>
</g>
</svg>
