<?xml version="1.0" encoding="utf-8"?>
<!-- Generator: Adobe Illustrator 16.0.0, SVG Export Plug-In . SVG Version: 6.00 Build 0)  -->
<!DOCTYPE svg PUBLIC "-//W3C//DTD SVG 1.1//EN" "http://www.w3.org/Graphics/SVG/1.1/DTD/svg11.dtd">
<svg version="1.1" xmlns="http://www.w3.org/2000/svg" xmlns:xlink="http://www.w3.org/1999/xlink" x="0px" y="0px" width="24px"
	 height="24.001px" viewBox="0 0 24 24.001" enable-background="new 0 0 24 24.001" xml:space="preserve">
<g id="Frames-24px">
	<rect fill="none" width="24" height="24.001"/>
</g>
<g id="Outline">
	<g>
		<path fill="#757575" d="M22.482,9.719l-10-5.455c-0.298-0.163-0.66-0.163-0.958,0l-10,5.455c-0.321,0.175-0.521,0.511-0.521,0.878
			v1.406c0,0.553,0.448,1,1,1h1v8c0,0.553,0.448,1,1,1h2v-8h12v8h2c0.552,0,1-0.447,1-1v-8h1c0.552,0,1-0.447,1-1v-1.406
			C23.003,10.23,22.803,9.894,22.482,9.719z"/>
		<rect x="8.003" y="16.003" fill="#757575" width="8" height="2"/>
		<rect x="8.003" y="20.003" fill="#757575" width="8" height="2"/>
	</g>
</g>
</svg>
