<?xml version="1.0" encoding="utf-8"?>
<!-- Generator: Adobe Illustrator 16.0.0, SVG Export Plug-In . SVG Version: 6.00 Build 0)  -->
<!DOCTYPE svg PUBLIC "-//W3C//DTD SVG 1.1//EN" "http://www.w3.org/Graphics/SVG/1.1/DTD/svg11.dtd">
<svg version="1.1" xmlns="http://www.w3.org/2000/svg" xmlns:xlink="http://www.w3.org/1999/xlink" x="0px" y="0px" width="24px"
	 height="24px" viewBox="0 0 24 24" enable-background="new 0 0 24 24" xml:space="preserve">
<g id="Frames-24px">
	<rect fill="none" width="24" height="24"/>
</g>
<g id="Outline">
	<g>
		<path fill="#757575" d="M19.989,22.469c-0.929-1.473-1.738-2.969-2.463-4.467h2.477v-2h-16v2H6.48
			c-0.725,1.498-1.535,2.994-2.463,4.467c-0.194,0.308-0.206,0.698-0.03,1.016c0.176,0.32,0.511,0.518,0.875,0.518h3.142
			c0-2.209,0.791-4,3-4h2c2.209,0,3,1.791,3,4c1.181,0,1.959,0,3.142,0c0.364,0,0.699-0.198,0.875-0.518
			C20.195,23.167,20.184,22.777,19.989,22.469z"/>
		<path fill="#757575" d="M13.003,5.002v-2l-1-2l-1,2v2c-0.303,1.258-0.668,2.608-1.083,4h4.165
			C13.671,7.611,13.306,6.26,13.003,5.002z"/>
		<path fill="#757575" d="M10.253,15.002l0.75-3h2l0.75,3h2.43c-0.417-1.013-0.783-2.012-1.127-3h0.948v-2h-8v2h0.948
			c-0.344,0.988-0.711,1.987-1.127,3H10.253z"/>
	</g>
</g>
</svg>
