<?xml version="1.0" encoding="utf-8"?>
<!-- Generator: Adobe Illustrator 16.0.0, SVG Export Plug-In . SVG Version: 6.00 Build 0)  -->
<!DOCTYPE svg PUBLIC "-//W3C//DTD SVG 1.1//EN" "http://www.w3.org/Graphics/SVG/1.1/DTD/svg11.dtd">
<svg version="1.1" xmlns="http://www.w3.org/2000/svg" xmlns:xlink="http://www.w3.org/1999/xlink" x="0px" y="0px" width="24px"
	 height="24.001px" viewBox="0 0 24 24.001" enable-background="new 0 0 24 24.001" xml:space="preserve">
<g id="Frames-24px">
	<rect fill="none" width="24" height="24.001"/>
</g>
<g id="Outline">
	<g>
		<path fill="#757575" d="M3.003,17.004v2h2v2c0,0.552,0.448,1,1,1h12c0.552,0,1-0.448,1-1v-2h2v-2H3.003z"/>
		<path fill="#757575" d="M21.095,5.489l-1.8-3c-0.181-0.301-0.506-0.486-0.857-0.486H5.57c-0.352,0-0.677,0.185-0.857,0.486l-1.8,3
			c-0.186,0.309-0.19,0.694-0.013,1.007c0.177,0.313,0.51,0.507,0.87,0.507h1.234v9h2v-9h4v3h-0.78c-0.3,0-0.583,0.134-0.773,0.366
			c-0.19,0.232-0.266,0.536-0.207,0.83l0.6,3c0.093,0.468,0.504,0.804,0.98,0.804h2.36c0.477,0,0.887-0.336,0.98-0.804l0.6-3
			c0.059-0.294-0.017-0.598-0.207-0.83c-0.19-0.232-0.474-0.366-0.773-0.366h-0.78v-3h4v9h2v-9h1.234c0.36,0,0.693-0.194,0.87-0.507
			C21.285,6.183,21.28,5.798,21.095,5.489z"/>
	</g>
</g>
</svg>
