<?xml version="1.0" encoding="utf-8"?>
<!-- Generator: Adobe Illustrator 16.0.0, SVG Export Plug-In . SVG Version: 6.00 Build 0)  -->
<!DOCTYPE svg PUBLIC "-//W3C//DTD SVG 1.1//EN" "http://www.w3.org/Graphics/SVG/1.1/DTD/svg11.dtd">
<svg version="1.1" xmlns="http://www.w3.org/2000/svg" xmlns:xlink="http://www.w3.org/1999/xlink" x="0px" y="0px" width="24px"
	 height="24.001px" viewBox="0 0 24 24.001" enable-background="new 0 0 24 24.001" xml:space="preserve">
<g id="Frames-24px">
	<rect fill="none" width="24" height="24.001"/>
</g>
<g id="Outline">
	<path fill="#757575" d="M21.71,13.296l-1.707-1.707V7.002h-3v1.586L12.71,4.296c-0.391-0.391-1.023-0.391-1.414,0l-9,9
		c-0.286,0.286-0.372,0.716-0.217,1.09c0.154,0.374,0.52,0.617,0.924,0.617h1v7h3v-5h3v5h10v-7h1c0.404,0,0.77-0.243,0.924-0.617
		C22.082,14.011,21.996,13.582,21.71,13.296z M18.003,18.002h-5v-3h5V18.002z"/>
</g>
</svg>
