<?xml version="1.0" encoding="utf-8"?>
<!-- Generator: Adobe Illustrator 16.0.0, SVG Export Plug-In . SVG Version: 6.00 Build 0)  -->
<!DOCTYPE svg PUBLIC "-//W3C//DTD SVG 1.1//EN" "http://www.w3.org/Graphics/SVG/1.1/DTD/svg11.dtd">
<svg version="1.1" xmlns="http://www.w3.org/2000/svg" xmlns:xlink="http://www.w3.org/1999/xlink" x="0px" y="0px" width="24px"
	 height="24.001px" viewBox="0 0 24 24.001" enable-background="new 0 0 24 24.001" xml:space="preserve">
<g id="Frames-24px">
	<rect fill="none" width="24" height="24.001"/>
</g>
<g id="Outline">
	<g>
		<path fill="#757575" d="M4.001,5.502c0-0.828,0.672-1.5,1.5-1.5s1.5,0.672,1.5,1.5v1.5h2v-1.5c0-0.828,0.672-1.5,1.5-1.5
			s1.5,0.672,1.5,1.5v1.5h2v-4c0-0.552-0.448-1-1-1h-10c-0.552,0-1,0.448-1,1v4h2V5.502z"/>
		<path fill="#757575" d="M4.001,12.502c0-0.828,0.672-1.5,1.5-1.5s1.5,0.672,1.5,1.5v1.5h2v-1.5c0-0.828,0.672-1.5,1.5-1.5
			s1.5,0.672,1.5,1.5v1.5h2v-1.5c0-0.828,0.672-1.5,1.5-1.5s1.5,0.672,1.5,1.5v1.5h2v-4c0-0.552-0.448-1-1-1h-15
			c-0.552,0-1,0.448-1,1v4h2V12.502z"/>
		<path fill="#757575" d="M21.001,16.002h-18c-0.552,0-1,0.448-1,1v4c0,0.553,0.448,1,1,1h1v-1.5c0-0.828,0.672-1.5,1.5-1.5
			s1.5,0.672,1.5,1.5v1.5h2v-1.5c0-0.828,0.672-1.5,1.5-1.5s1.5,0.672,1.5,1.5v1.5h2v-1.5c0-0.828,0.672-1.5,1.5-1.5
			s1.5,0.672,1.5,1.5v1.5h4c0.552,0,1-0.447,1-1v-4C22.001,16.45,21.554,16.002,21.001,16.002z"/>
	</g>
</g>
</svg>
