<?xml version="1.0" encoding="utf-8"?>
<!-- Generator: Adobe Illustrator 16.0.0, SVG Export Plug-In . SVG Version: 6.00 Build 0)  -->
<!DOCTYPE svg PUBLIC "-//W3C//DTD SVG 1.1//EN" "http://www.w3.org/Graphics/SVG/1.1/DTD/svg11.dtd">
<svg version="1.1" xmlns="http://www.w3.org/2000/svg" xmlns:xlink="http://www.w3.org/1999/xlink" x="0px" y="0px" width="24px"
	 height="24.001px" viewBox="0 0 24 24.001" enable-background="new 0 0 24 24.001" xml:space="preserve">
<g id="Frames-24px">
	<rect fill="none" width="24" height="24.001"/>
</g>
<g id="Outline">
	<g>
		<path fill="#757575" d="M20.003,12.503c1.104,0,2-0.895,2-2c0-1.104-2-3-2-3s-2,1.896-2,3
			C18.003,11.608,18.899,12.503,20.003,12.503z"/>
		<path fill="#757575" d="M4.003,12.503c1.104,0,2-0.895,2-2c0-1.104-2-3-2-3s-2,1.896-2,3C2.003,11.608,2.899,12.503,4.003,12.503z
			"/>
		<path fill="#757575" d="M15.003,10.188c0.615-0.477,1-1.178,1-2.185c0-2.209-4-5-4-5s-4,2.791-4,5c0,1.008,0.385,1.708,1,2.185
			v2.815h-7v9h8v-3l2-2l2,2v3h8v-9h-7V10.188z M7.003,20.003h-2v-2c0-0.552,0.448-1,1-1s1,0.448,1,1V20.003z M17.003,18.003
			c0-0.552,0.448-1,1-1s1,0.448,1,1v2h-2V18.003z"/>
	</g>
</g>
</svg>
