<?xml version="1.0" encoding="utf-8"?>
<!-- Generator: Adobe Illustrator 16.0.0, SVG Export Plug-In . SVG Version: 6.00 Build 0)  -->
<!DOCTYPE svg PUBLIC "-//W3C//DTD SVG 1.1//EN" "http://www.w3.org/Graphics/SVG/1.1/DTD/svg11.dtd">
<svg version="1.1" xmlns="http://www.w3.org/2000/svg" xmlns:xlink="http://www.w3.org/1999/xlink" x="0px" y="0px"
	 width="24.001px" height="24.001px" viewBox="0 0 24.001 24.001" enable-background="new 0 0 24.001 24.001" xml:space="preserve">
<g id="Frames-24px">
	<rect fill="none" width="24.001" height="24.001"/>
</g>
<g id="Outline">
	<g>
		<path fill="#757575" d="M6.723,13.002l2.541-7.621l1.658,2.764l-1.388,4.857h2.08l1.35-4.726c0.076-0.266,0.039-0.551-0.104-0.789
			l-3-5C9.659,2.153,9.278,1.965,8.894,2.009c-0.388,0.042-0.716,0.307-0.84,0.677L4.533,13.249c0.468-0.145,0.955-0.246,1.47-0.246
			H6.723z"/>
		<path fill="#757575" d="M19.002,5.002c-1.654,0-3,1.346-3,3v5h2v-2h1v-2h-1v-1c0-0.551,0.449-1,1-1s1,0.449,1,1v5.424
			c0.801,0.352,1.483,0.914,2,1.607V8.002C22.002,6.349,20.657,5.002,19.002,5.002z"/>
		<path fill="#757575" d="M18.002,14.002h-12c-2.206,0-4,1.794-4,4s1.794,4,4,4h12c2.206,0,4-1.794,4-4S20.208,14.002,18.002,14.002
			z M6.002,19.002c-0.552,0-1-0.447-1-1c0-0.551,0.448-1,1-1s1,0.449,1,1C7.002,18.555,6.555,19.002,6.002,19.002z M18.002,19.002
			c-0.552,0-1-0.447-1-1c0-0.551,0.448-1,1-1s1,0.449,1,1C19.002,18.555,18.555,19.002,18.002,19.002z"/>
	</g>
</g>
</svg>
