<?xml version="1.0" encoding="utf-8"?>
<!-- Generator: Adobe Illustrator 16.0.0, SVG Export Plug-In . SVG Version: 6.00 Build 0)  -->
<!DOCTYPE svg PUBLIC "-//W3C//DTD SVG 1.1//EN" "http://www.w3.org/Graphics/SVG/1.1/DTD/svg11.dtd">
<svg version="1.1" xmlns="http://www.w3.org/2000/svg" xmlns:xlink="http://www.w3.org/1999/xlink" x="0px" y="0px"
	 width="24.001px" height="24.001px" viewBox="0 0 24.001 24.001" enable-background="new 0 0 24.001 24.001" xml:space="preserve">
<g id="Frames-24px">
	<rect fill="none" width="24.001" height="24.001"/>
</g>
<g id="Outline">
	<path fill="#757575" d="M20.599,8.199l-4-3c-0.173-0.13-0.384-0.2-0.6-0.2h-0.586l-1.707-1.707
		c-0.188-0.188-0.442-0.293-0.707-0.293h-3c-0.265,0-0.52,0.105-0.707,0.293L7.585,4.999H6.999c-0.216,0-0.427,0.07-0.6,0.2l-4,3
		C1.975,8.518,1.873,9.112,2.167,9.554l2,3c0.28,0.42,0.828,0.564,1.279,0.34l0.553-0.276v7.382c0,0.552,0.448,1,1,1h9
		c0.552,0,1-0.448,1-1v-7.382l0.553,0.276c0.451,0.225,1,0.08,1.279-0.34l2-3C21.125,9.112,21.023,8.518,20.599,8.199z
		 M11.999,7.909v4.09h-1v-4.09L9.368,6.045l1.045-1.046h2.172l1.045,1.046L11.999,7.909z"/>
</g>
</svg>
