<?xml version="1.0" encoding="utf-8"?>
<!-- Generator: Adobe Illustrator 16.0.0, SVG Export Plug-In . SVG Version: 6.00 Build 0)  -->
<!DOCTYPE svg PUBLIC "-//W3C//DTD SVG 1.1//EN" "http://www.w3.org/Graphics/SVG/1.1/DTD/svg11.dtd">
<svg version="1.1" xmlns="http://www.w3.org/2000/svg" xmlns:xlink="http://www.w3.org/1999/xlink" x="0px" y="0px" width="24px"
	 height="24px" viewBox="0 0 24 24" enable-background="new 0 0 24 24" xml:space="preserve">
<g id="Frames-24px">
	<rect fill="none" width="24" height="24"/>
</g>
<g id="Solid">
	<path fill="#757575" d="M21,2h-9c-1.654,0-3,1.346-3,3v9h5c2,0,3,2,3,3v2c-0.554,0-1-0.547-1-1c0-1.542-1.458-3-3-3H5
		c-3.776,0-4.933,5.567-4.98,5.804c-0.059,0.294,0.017,0.599,0.207,0.83C0.417,21.866,0.7,22,1,22h8c0.552,0,1-0.448,1-1h7
		c1.654,0,3-1.346,3-3V9h3c0.552,0,1-0.448,1-1V5C24,3.346,22.654,2,21,2z M10.367,19c0.372-1,1.12-2,2.633-2c0.449,0,1,0.552,1,1
		c0,0.348,0.077,0.683,0.197,1H10.367z M18,13h-7v-2h7V13z M18,10h-7V8h7V10z M18,7h-7V5h7V7z M22,7h-2V5c0-0.552,0.449-1,1-1
		s1,0.448,1,1V7z"/>
</g>
</svg>
