<?xml version="1.0" encoding="utf-8"?>
<!-- Generator: Adobe Illustrator 16.0.0, SVG Export Plug-In . SVG Version: 6.00 Build 0)  -->
<!DOCTYPE svg PUBLIC "-//W3C//DTD SVG 1.1//EN" "http://www.w3.org/Graphics/SVG/1.1/DTD/svg11.dtd">
<svg version="1.1" xmlns="http://www.w3.org/2000/svg" xmlns:xlink="http://www.w3.org/1999/xlink" x="0px" y="0px" width="24px"
	 height="24px" viewBox="0 0 24 24" enable-background="new 0 0 24 24" xml:space="preserve">
<g id="Frames-24px">
	<rect fill="none" width="24" height="24"/>
</g>
<g id="Outline">
	<g>
		<path fill="#757575" d="M13.002,5.002h-2c-0.552,0-1,0.448-1,1v1h-1c-0.552,0-1,0.448-1,1v8c0,1.103,0.897,2,2,2h4
			c1.103,0,2-0.897,2-2v-8c0-0.552-0.448-1-1-1h-1v-1C14.002,5.45,13.554,5.002,13.002,5.002z M14.502,12.002l-3.5,4v-3h-1.5l3.5-4
			v3H14.502z"/>
		<path fill="#757575" d="M12.002,21.002c-4.054,0-7.489-2.696-8.611-6.389l2.611-2.611h-6v6l1.827-1.827
			c1.647,4.001,5.584,6.827,10.173,6.827c5.382,0,9.865-3.888,10.809-9H20.77C19.857,18.004,16.276,21.002,12.002,21.002z"/>
		<path fill="#757575" d="M22.175,7.829c-1.647-4.001-5.584-6.827-10.173-6.827c-5.382,0-9.865,3.888-10.809,9h2.041
			c0.913-4.001,4.494-7,8.768-7c4.055,0,7.489,2.696,8.611,6.39l-2.611,2.61h6v-6L22.175,7.829z"/>
	</g>
</g>
</svg>
