<?xml version="1.0" encoding="utf-8"?>
<!-- Generator: Adobe Illustrator 16.0.0, SVG Export Plug-In . SVG Version: 6.00 Build 0)  -->
<!DOCTYPE svg PUBLIC "-//W3C//DTD SVG 1.1//EN" "http://www.w3.org/Graphics/SVG/1.1/DTD/svg11.dtd">
<svg version="1.1" xmlns="http://www.w3.org/2000/svg" xmlns:xlink="http://www.w3.org/1999/xlink" x="0px" y="0px" width="24px"
	 height="24px" viewBox="0 0 24 24" enable-background="new 0 0 24 24" xml:space="preserve">
<g id="Frames-24px">
	<rect fill="none" width="24" height="24"/>
</g>
<g id="Solid">
	<g>
		<path fill="#757575" d="M3,13.999v6c0,1.103,0.897,2,2,2h6v-8H3z"/>
		<path fill="#757575" d="M13,13.999v8h6c1.103,0,2-0.897,2-2v-6H13z"/>
		<path fill="#757575" d="M20,7.999h-3.114c0.451-0.234,0.878-0.521,1.235-0.877c1.169-1.169,1.169-3.072,0-4.244
			c-1.134-1.131-3.107-1.132-4.242,0.001c-1.636,1.637-1.857,4.718-1.877,5.064C12,7.962,12.01,7.979,12.01,7.999H11.99
			c0-0.019,0.01-0.037,0.009-0.057c-0.02-0.346-0.241-3.427-1.878-5.065C8.987,1.746,7.012,1.746,5.878,2.878
			c-1.169,1.17-1.169,3.073,0,4.243c0.357,0.356,0.785,0.643,1.236,0.877H4c-1.103,0-2,0.897-2,2v3h9v-4h2v4h9v-3
			C22,8.896,21.103,7.999,20,7.999z M7.293,5.707c-0.39-0.39-0.39-1.024,0-1.415C7.481,4.104,7.732,4,8,4
			c0.268,0,0.519,0.104,0.708,0.292c0.59,0.59,0.934,1.648,1.118,2.531C8.945,6.639,7.879,6.293,7.293,5.707z M14.174,6.825
			c0.184-0.883,0.528-1.942,1.118-2.532C15.481,4.104,15.733,4,16,4s0.519,0.104,0.706,0.291c0.39,0.391,0.391,1.026,0,1.416
			C16.116,6.298,15.057,6.642,14.174,6.825z"/>
	</g>
</g>
</svg>
