<?xml version="1.0" encoding="utf-8"?>
<!-- Generator: Adobe Illustrator 16.0.0, SVG Export Plug-In . SVG Version: 6.00 Build 0)  -->
<!DOCTYPE svg PUBLIC "-//W3C//DTD SVG 1.1//EN" "http://www.w3.org/Graphics/SVG/1.1/DTD/svg11.dtd">
<svg version="1.1" xmlns="http://www.w3.org/2000/svg" xmlns:xlink="http://www.w3.org/1999/xlink" x="0px" y="0px" width="24px"
	 height="24px" viewBox="0 0 24 24" enable-background="new 0 0 24 24" xml:space="preserve">
<g id="Frames-24px">
	<rect fill="none" width="24" height="24"/>
</g>
<g id="Solid">
	<g>
		<path fill="#757575" d="M7,10H3c-0.552,0-1,0.448-1,1v7c0,0.552,0.448,1,1,1h4c0.552,0,1-0.448,1-1v-7C8,10.448,7.552,10,7,10z"/>
		<path fill="#757575" d="M14,6h-4C9.448,6,9,6.448,9,7v11c0,0.552,0.448,1,1,1h4c0.552,0,1-0.448,1-1V7C15,6.448,14.552,6,14,6z"/>
		<path fill="#757575" d="M21,11h-4c-0.552,0-1,0.448-1,1v6c0,0.552,0.448,1,1,1h4c0.552,0,1-0.448,1-1v-6
			C22,11.448,21.552,11,21,11z"/>
	</g>
</g>
</svg>
