<?xml version="1.0" encoding="utf-8"?>
<!-- Generator: Adobe Illustrator 16.0.0, SVG Export Plug-In . SVG Version: 6.00 Build 0)  -->
<!DOCTYPE svg PUBLIC "-//W3C//DTD SVG 1.1//EN" "http://www.w3.org/Graphics/SVG/1.1/DTD/svg11.dtd">
<svg version="1.1" xmlns="http://www.w3.org/2000/svg" xmlns:xlink="http://www.w3.org/1999/xlink" x="0px" y="0px" width="24px"
	 height="24px" viewBox="0 0 24 24" enable-background="new 0 0 24 24" xml:space="preserve">
<g id="Frames-24px">
	<rect fill="none" width="24" height="24"/>
</g>
<g id="Outline">
	<g>
		<path fill="#757575" d="M20.311,3.696c-0.231-0.23-0.655-0.506-1.363-0.506c-0.718,0-1.659,0.309-2.733,0.859
			c0.511,0.271,1.002,0.594,1.464,0.97c0.3-0.123,1.343-0.493,1.571-0.263c1.22,1.214-4.434,7.555-5.654,8.777
			c-1.62,1.62-6.279,5.784-8.539,5.784c-0.663,0-0.294-1.031-0.045-1.646c-0.375-0.462-0.697-0.952-0.967-1.462
			c-1.76,3.417-0.426,4.608,1.012,4.608c1.161,0,2.898-0.792,4.854-2.145c0.661,0.209,1.361,0.331,2.092,0.331c3.866,0,7-3.134,7-7
			c0-0.729-0.121-1.427-0.329-2.087C19.82,8.265,21.733,5.118,20.311,3.696z"/>
		<path fill="#757575" d="M12.535,12.474c1.81-1.811,3.383-3.739,4.425-5.411c-1.267-1.271-3.02-2.059-4.958-2.059
			c-3.866,0-7,3.134-7,7c0,1.93,0.781,3.677,2.044,4.943C8.738,15.903,10.698,14.31,12.535,12.474z"/>
	</g>
</g>
</svg>
