<?xml version="1.0" encoding="utf-8"?>
<!-- Generator: Adobe Illustrator 16.0.0, SVG Export Plug-In . SVG Version: 6.00 Build 0)  -->
<!DOCTYPE svg PUBLIC "-//W3C//DTD SVG 1.1//EN" "http://www.w3.org/Graphics/SVG/1.1/DTD/svg11.dtd">
<svg version="1.1" xmlns="http://www.w3.org/2000/svg" xmlns:xlink="http://www.w3.org/1999/xlink" x="0px" y="0px" width="24px"
	 height="24px" viewBox="0 0 24 24" enable-background="new 0 0 24 24" xml:space="preserve">
<g id="Frames-24px">
	<rect fill="none" width="24" height="24"/>
</g>
<g id="Outline">
	<g>
		<path fill="#757575" d="M13.499,1c-0.828,0-1.5,0.672-1.5,1.5c0-0.828-0.672-1.5-1.5-1.5s-1.5,0.672-1.5,1.5c0,1.5,3,4.5,3,4.5
			s3-3,3-4.5C14.999,1.672,14.327,1,13.499,1z"/>
		<circle fill="#757575" cx="18.999" cy="7.5" r="2.5"/>
		<path fill="#757575" d="M18.999,11c-2.393,0-4,2.009-4,5v2c0,0.552,0.448,1,1,1h1v4c0,0.552,0.448,1,1,1h2c0.552,0,1-0.448,1-1v-4
			h1c0.552,0,1-0.448,1-1v-2C22.999,13.009,21.392,11,18.999,11z"/>
		<circle fill="#757575" cx="4.999" cy="7.5" r="2.5"/>
		<path fill="#757575" d="M8.174,16.533C6.948,11.523,6.82,11,4.978,11c-1.799,0-1.928,0.524-3.154,5.539
			c-0.219,0.895-0.479,1.957-0.794,3.219c-0.074,0.295-0.009,0.608,0.175,0.85S1.673,20.993,1.978,21c0,0,0.744,0.016,1.332,0.018
			c0.191,0.573,0.479,1.465,0.736,2.283C4.176,23.717,4.563,24,4.999,24s0.823-0.283,0.954-0.699
			c0.258-0.818,0.545-1.709,0.737-2.283C7.276,21.016,8.021,21,8.021,21c0.304-0.007,0.589-0.151,0.773-0.393
			s0.249-0.554,0.175-0.85C8.653,18.493,8.393,17.429,8.174,16.533z"/>
	</g>
</g>
</svg>
