<?xml version="1.0" encoding="utf-8"?>
<!-- Generator: Adobe Illustrator 16.0.0, SVG Export Plug-In . SVG Version: 6.00 Build 0)  -->
<!DOCTYPE svg PUBLIC "-//W3C//DTD SVG 1.1//EN" "http://www.w3.org/Graphics/SVG/1.1/DTD/svg11.dtd">
<svg version="1.1" xmlns="http://www.w3.org/2000/svg" xmlns:xlink="http://www.w3.org/1999/xlink" x="0px" y="0px" width="24px"
	 height="24px" viewBox="0 0 24 24" enable-background="new 0 0 24 24" xml:space="preserve">
<g id="Frames-24px">
	<rect fill="none" width="24" height="24"/>
</g>
<g id="Solid">
	<g>
		<path fill="#757575" d="M20,8H10c-1.104,0-2,0.896-2,2v10c0,1.104,0.896,2,2,2h10c1.104,0,2-0.896,2-2V10C22,8.896,21.104,8,20,8z
			"/>
		<path fill="#757575" d="M4,4h10l0,3h2V4c0-1.102-0.897-2-2-2H4C2.897,2,2,2.898,2,4v10c0,1.103,0.897,2,2,2h3v-2H4V4z"/>
	</g>
</g>
</svg>
