<?xml version="1.0" encoding="utf-8"?>
<!-- Generator: Adobe Illustrator 16.0.0, SVG Export Plug-In . SVG Version: 6.00 Build 0)  -->
<!DOCTYPE svg PUBLIC "-//W3C//DTD SVG 1.1//EN" "http://www.w3.org/Graphics/SVG/1.1/DTD/svg11.dtd">
<svg version="1.1" xmlns="http://www.w3.org/2000/svg" xmlns:xlink="http://www.w3.org/1999/xlink" x="0px" y="0px" width="24px"
	 height="24px" viewBox="0 0 24 24" enable-background="new 0 0 24 24" xml:space="preserve">
<g id="Frames-24px">
	<rect fill="none" width="24" height="24"/>
</g>
<g id="Solid">
	<g>
		<path fill="#757575" d="M16,14V4c0-1.104-0.896-2-2-2H4C2.896,2,2,2.896,2,4v10c0,1.104,0.896,2,2,2h10C15.104,16,16,15.104,16,14
			z"/>
		<path fill="#757575" d="M20,8h-3v2h3l0.001,10H10v-3H8v3c0,1.103,0.897,2,2,2h10c1.103,0,2-0.897,2-2V10C22,8.898,21.103,8,20,8z"
			/>
	</g>
</g>
</svg>
