<?xml version="1.0" encoding="utf-8"?>
<!-- Generator: Adobe Illustrator 16.0.0, SVG Export Plug-In . SVG Version: 6.00 Build 0)  -->
<!DOCTYPE svg PUBLIC "-//W3C//DTD SVG 1.1//EN" "http://www.w3.org/Graphics/SVG/1.1/DTD/svg11.dtd">
<svg version="1.1" xmlns="http://www.w3.org/2000/svg" xmlns:xlink="http://www.w3.org/1999/xlink" x="0px" y="0px" width="24px"
	 height="24px" viewBox="0 0 24 24" enable-background="new 0 0 24 24" xml:space="preserve">
<g id="Frames-24px">
	<rect fill="none" width="24" height="24"/>
</g>
<g id="Solid">
	<g>
		<g>
			<path fill="#757575" d="M9,15c1.572,0,2.889-0.123,4-0.316v-2.984C11.811,11.89,10.482,12,9,12c-4.175,0-7.191-0.843-9-2.031V12
				C0,12.769,2.216,15,9,15z"/>
			<path fill="#757575" d="M9,10c6.784,0,9-2.231,9-3V4.969C16.191,6.157,13.175,7,9,7S1.809,6.157,0,4.969V7C0,7.769,2.216,10,9,10
				z"/>
			<path fill="#757575" d="M11,16.925C10.363,16.97,9.703,17,9,17c-4.175,0-7.191-0.843-9-2.031V16c0,2.626,4.527,4,9,4
				c0.671,0,1.342-0.035,2-0.096V16.925z"/>
			<path fill="#757575" d="M9,5c5.195,0,7.705-1.306,8.599-2.265C16.404,0.936,12.687,0,9,0S1.596,0.936,0.401,2.735
				C1.295,3.694,3.805,5,9,5z"/>
		</g>
		<path fill="#757575" d="M21,16h-6h-3v2h2v1h-2v2h2c0,0.334,0.167,0.646,0.445,0.832l3,2C17.613,23.944,17.807,24,18,24
			s0.387-0.056,0.555-0.168l3-2C21.833,21.646,22,21.334,22,21h2v-2h-2v-1h2v-2H21z"/>
		<path fill="#757575" d="M14,15c0-2.209,1.791-4,4-4s4,1.791,4,4H14z"/>
	</g>
</g>
</svg>
