<?xml version="1.0" encoding="utf-8"?>
<!-- Generator: Adobe Illustrator 16.0.0, SVG Export Plug-In . SVG Version: 6.00 Build 0)  -->
<!DOCTYPE svg PUBLIC "-//W3C//DTD SVG 1.1//EN" "http://www.w3.org/Graphics/SVG/1.1/DTD/svg11.dtd">
<svg version="1.1" xmlns="http://www.w3.org/2000/svg" xmlns:xlink="http://www.w3.org/1999/xlink" x="0px" y="0px" width="24px"
	 height="24px" viewBox="0 0 24 24" enable-background="new 0 0 24 24" xml:space="preserve">
<g id="Frames-24px">
	<rect fill="none" width="24" height="24"/>
</g>
<g id="Solid">
	<g>
		<g>
			<path fill="#757575" d="M9,15c6.784,0,9-2.231,9-3V9.969C16.191,11.157,13.175,12,9,12s-7.191-0.843-9-2.031V12
				C0,12.769,2.216,15,9,15z"/>
			<path fill="#757575" d="M9,10c6.784,0,9-2.231,9-3V4.969C16.191,6.157,13.175,7,9,7S1.809,6.157,0,4.969V7C0,7.769,2.216,10,9,10
				z"/>
			<path fill="#757575" d="M15.403,16.148C13.716,16.675,11.583,17,9,17c-4.175,0-7.191-0.843-9-2.031V16c0,2.626,4.527,4,9,4
				c1.765,0,3.534-0.217,5.035-0.638C14.164,18.145,14.657,17.037,15.403,16.148z"/>
			<path fill="#757575" d="M9,5c5.195,0,7.705-1.306,8.599-2.265C16.404,0.936,12.687,0,9,0S1.596,0.936,0.401,2.735
				C1.295,3.694,3.805,5,9,5z"/>
		</g>
		<polygon fill="#757575" points="24,19 21,19 21,16 19,16 19,19 16,19 16,21 19,21 19,24 21,24 21,21 24,21 		"/>
	</g>
</g>
</svg>
