<?xml version="1.0" encoding="utf-8"?>
<!-- Generator: Adobe Illustrator 16.0.0, SVG Export Plug-In . SVG Version: 6.00 Build 0)  -->
<!DOCTYPE svg PUBLIC "-//W3C//DTD SVG 1.1//EN" "http://www.w3.org/Graphics/SVG/1.1/DTD/svg11.dtd">
<svg version="1.1" xmlns="http://www.w3.org/2000/svg" xmlns:xlink="http://www.w3.org/1999/xlink" x="0px" y="0px" width="24px"
	 height="24px" viewBox="0 0 24 24" enable-background="new 0 0 24 24" xml:space="preserve">
<g id="Frames-24px">
	<rect fill="none" width="24" height="24"/>
</g>
<g id="Solid">
	<g>
		<path fill="#757575" d="M12,9C7.825,9,4.809,8.157,3,6.969V9c0,0.769,2.216,3,9,3s9-2.231,9-3V6.969C19.191,8.157,16.175,9,12,9z"
			/>
		<path fill="#757575" d="M12,17c6.784,0,9-2.231,9-3v-2.031C19.191,13.157,16.175,14,12,14s-7.191-0.843-9-2.031V14
			C3,14.769,5.216,17,12,17z"/>
		<path fill="#757575" d="M12,7c5.195,0,7.705-1.306,8.599-2.265C19.404,2.936,15.687,2,12,2S4.596,2.936,3.401,4.735
			C4.295,5.694,6.805,7,12,7z"/>
		<path fill="#757575" d="M12,19c-4.175,0-7.191-0.843-9-2.031V18c0,2.626,4.527,4,9,4s9-1.374,9-4v-1.031
			C19.191,18.157,16.175,19,12,19z"/>
	</g>
</g>
</svg>
