<?xml version="1.0" encoding="utf-8"?>
<!-- Generator: Adobe Illustrator 16.0.0, SVG Export Plug-In . SVG Version: 6.00 Build 0)  -->
<!DOCTYPE svg PUBLIC "-//W3C//DTD SVG 1.1//EN" "http://www.w3.org/Graphics/SVG/1.1/DTD/svg11.dtd">
<svg version="1.1" xmlns="http://www.w3.org/2000/svg" xmlns:xlink="http://www.w3.org/1999/xlink" x="0px" y="0px" width="24px"
	 height="24px" viewBox="0 0 24 24" enable-background="new 0 0 24 24" xml:space="preserve">
<g id="Frames-24px">
	<rect fill="none" width="24" height="24"/>
</g>
<g id="Solid">
	<g>
		<circle fill="#757575" cx="20" cy="21" r="1"/>
		<circle fill="#757575" cx="4" cy="21" r="1"/>
		<g>
			<path fill="#757575" d="M2,10v4c0,1.103,0.897,2,2,2h7v4H6v2h12v-2h-5v-4h7c1.103,0,2-0.897,2-2v-4H2z M10,14H5v-2h5V14z M15,14
				c-0.552,0-1-0.447-1-1c0-0.552,0.448-1,1-1s1,0.448,1,1C16,13.553,15.552,14,15,14z M18,14c-0.552,0-1-0.447-1-1
				c0-0.552,0.448-1,1-1s1,0.448,1,1C19,13.553,18.552,14,18,14z"/>
			<path fill="#757575" d="M22,8V4c0-1.103-0.897-2-2-2H4C2.897,2,2,2.897,2,4v4H22z M18,4c0.552,0,1,0.448,1,1c0,0.553-0.448,1-1,1
				s-1-0.447-1-1C17,4.448,17.448,4,18,4z M15,4c0.552,0,1,0.448,1,1c0,0.553-0.448,1-1,1s-1-0.447-1-1C14,4.448,14.448,4,15,4z
				 M5,4h5v2H5V4z"/>
		</g>
	</g>
</g>
</svg>
