<?xml version="1.0" encoding="utf-8"?>
<!-- Generator: Adobe Illustrator 16.0.0, SVG Export Plug-In . SVG Version: 6.00 Build 0)  -->
<!DOCTYPE svg PUBLIC "-//W3C//DTD SVG 1.1//EN" "http://www.w3.org/Graphics/SVG/1.1/DTD/svg11.dtd">
<svg version="1.1" xmlns="http://www.w3.org/2000/svg" xmlns:xlink="http://www.w3.org/1999/xlink" x="0px" y="0px" width="24px"
	 height="24px" viewBox="0 0 24 24" enable-background="new 0 0 24 24" xml:space="preserve">
<g id="Frames-24px">
	<rect fill="none" width="24" height="24"/>
</g>
<g id="Solid">
	<g>
		<path fill="#757575" d="M21.707,13.606L10.393,2.293c-0.391-0.391-1.023-0.391-1.414,0c-1.7,1.7-2.637,3.959-2.637,6.363
			s0.937,4.664,2.637,6.363c1.7,1.7,3.96,2.637,6.364,2.637s4.664-0.937,6.364-2.637C21.895,14.832,22,14.578,22,14.313
			S21.895,13.793,21.707,13.606z"/>
		<path fill="#757575" d="M17.645,7.645l0.749-0.749C18.585,6.958,18.787,7,19,7c1.104,0,2-0.896,2-2c0-1.104-0.896-2-2-2
			c-1.105,0-2,0.896-2,2c0,0.143,0.016,0.282,0.045,0.416L16.23,6.23L17.645,7.645z"/>
		<path fill="#757575" d="M6.707,14.293c-0.228-0.227-0.551-0.331-0.867-0.28c-0.317,0.052-0.59,0.253-0.734,0.54l-3,6
			c-0.155,0.31-0.138,0.678,0.044,0.974C2.332,21.82,2.653,22,3,22h9c0.404,0,0.769-0.243,0.924-0.617s0.069-0.804-0.217-1.09
			L6.707,14.293z"/>
	</g>
</g>
</svg>
