<?xml version="1.0" encoding="utf-8"?>
<!-- Generator: Adobe Illustrator 16.0.0, SVG Export Plug-In . SVG Version: 6.00 Build 0)  -->
<!DOCTYPE svg PUBLIC "-//W3C//DTD SVG 1.1//EN" "http://www.w3.org/Graphics/SVG/1.1/DTD/svg11.dtd">
<svg version="1.1" xmlns="http://www.w3.org/2000/svg" xmlns:xlink="http://www.w3.org/1999/xlink" x="0px" y="0px" width="24px"
	 height="24px" viewBox="0 0 24 24" enable-background="new 0 0 24 24" xml:space="preserve">
<g id="Frames-24px">
	<rect fill="none" width="24" height="24"/>
</g>
<g id="Solid">
	<g>
		<path fill="#757575" d="M13,16.996h-2c-2.757,0-5,2.243-5,5v2h12v-2C18,19.239,15.756,16.996,13,16.996z"/>
		<path fill="#757575" d="M8.343,15.523c-1.249-1.757-1.099-4.21,0.475-5.784c1.754-1.755,4.609-1.755,6.364,0
			c1.574,1.573,1.724,4.027,0.475,5.784c0.629,0.259,1.211,0.607,1.733,1.028c1.702-2.526,1.439-5.992-0.793-8.226
			c-2.534-2.535-6.658-2.533-9.193,0c-2.232,2.234-2.495,5.7-0.793,8.226C7.131,16.13,7.714,15.782,8.343,15.523z"/>
		<path fill="#757575" d="M5.512,17.664C4.535,16.311,4,14.697,4,12.996c0-2.137,0.833-4.146,2.343-5.657
			c3.119-3.119,8.194-3.119,11.313,0c2.809,2.81,3.08,7.2,0.83,10.324c0.445,0.563,0.803,1.194,1.06,1.878
			c3.406-3.923,3.254-9.886-0.476-13.617c-3.898-3.897-10.243-3.897-14.142,0C3.041,7.813,2,10.325,2,12.996
			c0,2.434,0.872,4.729,2.452,6.546C4.709,18.858,5.067,18.226,5.512,17.664z"/>
		<circle fill="#757575" cx="12" cy="12.996" r="3"/>
	</g>
</g>
</svg>
