<?xml version="1.0" encoding="utf-8"?>
<!-- Generator: Adobe Illustrator 16.0.0, SVG Export Plug-In . SVG Version: 6.00 Build 0)  -->
<!DOCTYPE svg PUBLIC "-//W3C//DTD SVG 1.1//EN" "http://www.w3.org/Graphics/SVG/1.1/DTD/svg11.dtd">
<svg version="1.1" xmlns="http://www.w3.org/2000/svg" xmlns:xlink="http://www.w3.org/1999/xlink" x="0px" y="0px" width="24px"
	 height="24px" viewBox="0 0 24 24" enable-background="new 0 0 24 24" xml:space="preserve">
<g id="Frames-24px">
	<rect fill="none" width="24" height="24"/>
</g>
<g id="Solid">
	<path fill="#757575" d="M18.58,10l-3.712-6.497l-1.736,0.992L16.277,10H7.723l3.145-5.504L9.132,3.503L5.42,10H2v2h1.198
		l1.826,8.217C5.125,20.675,5.531,21,6,21h12c0.469,0,0.875-0.325,0.976-0.783L20.802,12H22v-2H18.58z M9,18H7v-5h2V18z M13,18h-2
		v-5h2V18z M17,18h-2v-5h2V18z"/>
</g>
</svg>
