<?xml version="1.0" encoding="utf-8"?>
<!-- Generator: Adobe Illustrator 16.0.0, SVG Export Plug-In . SVG Version: 6.00 Build 0)  -->
<!DOCTYPE svg PUBLIC "-//W3C//DTD SVG 1.1//EN" "http://www.w3.org/Graphics/SVG/1.1/DTD/svg11.dtd">
<svg version="1.1" xmlns="http://www.w3.org/2000/svg" xmlns:xlink="http://www.w3.org/1999/xlink" x="0px" y="0px" width="24px"
	 height="24px" viewBox="0 0 24 24" enable-background="new 0 0 24 24" xml:space="preserve">
<g id="Frames-24px">
	<rect fill="none" width="24" height="24"/>
</g>
<g id="Solid">
	<g>
		<polygon fill="#757575" points="20,9 20,7 16.58,7 12.868,0.503 11.132,1.496 14.277,7 5.724,7 8.868,1.496 7.132,0.503 3.42,7 
			0,7 0,9 		"/>
		<path fill="#757575" d="M17.656,14.157L18.58,10H1.421l1.604,7.217C3.126,17.675,3.531,18,4,18h9.349
			C14.027,16.084,15.647,14.617,17.656,14.157z"/>
		<polygon fill="#757575" points="22.293,16.293 18,20.586 15.707,18.293 14.293,19.707 18,23.414 23.707,17.707 		"/>
	</g>
</g>
</svg>
