<?xml version="1.0" encoding="utf-8"?>
<!-- Generator: Adobe Illustrator 16.0.0, SVG Export Plug-In . SVG Version: 6.00 Build 0)  -->
<!DOCTYPE svg PUBLIC "-//W3C//DTD SVG 1.1//EN" "http://www.w3.org/Graphics/SVG/1.1/DTD/svg11.dtd">
<svg version="1.1" xmlns="http://www.w3.org/2000/svg" xmlns:xlink="http://www.w3.org/1999/xlink" x="0px" y="0px" width="24px"
	 height="24.002px" viewBox="0 0 24 24.002" enable-background="new 0 0 24 24.002" xml:space="preserve">
<g id="Frames-24px">
	<rect y="0" fill="none" width="24" height="24.002"/>
</g>
<g id="Outline">
	<g>
		<circle fill="#757575" cx="19.001" cy="6.002" r="2"/>
		<path fill="#757575" d="M19.001,9.002c-2.393,0-4,2.009-4,5v2c0,0.552,0.448,1,1,1h1v4c0,0.552,0.448,1,1,1h2c0.552,0,1-0.448,1-1
			v-4h1c0.552,0,1-0.448,1-1v-2C23.001,11.011,21.394,9.002,19.001,9.002z"/>
		<rect x="11.001" y="2.002" fill="#757575" width="2" height="20"/>
		<circle fill="#757575" cx="5.001" cy="6.002" r="2"/>
		<path fill="#757575" d="M8.176,14.535C6.951,9.525,6.822,9.002,4.98,9.002c-1.799,0-1.928,0.524-3.154,5.538
			c-0.219,0.895-0.479,1.957-0.794,3.219c-0.074,0.295-0.009,0.608,0.175,0.85c0.185,0.242,0.469,0.386,0.773,0.393
			c0,0,0.745,0.016,1.332,0.018c0.191,0.573,0.478,1.465,0.736,2.283c0.131,0.417,0.517,0.699,0.954,0.699s0.823-0.283,0.954-0.699
			c0.258-0.818,0.545-1.71,0.736-2.283c0.587-0.002,1.332-0.018,1.332-0.018c0.304-0.007,0.589-0.152,0.773-0.393
			c0.185-0.241,0.249-0.555,0.175-0.85C8.656,16.495,8.395,15.43,8.176,14.535z"/>
	</g>
</g>
</svg>
