<?xml version="1.0" encoding="utf-8"?>
<!-- Generator: Adobe Illustrator 16.0.0, SVG Export Plug-In . SVG Version: 6.00 Build 0)  -->
<!DOCTYPE svg PUBLIC "-//W3C//DTD SVG 1.1//EN" "http://www.w3.org/Graphics/SVG/1.1/DTD/svg11.dtd">
<svg version="1.1" xmlns="http://www.w3.org/2000/svg" xmlns:xlink="http://www.w3.org/1999/xlink" x="0px" y="0px" width="24px"
	 height="24px" viewBox="0 0 24 24" enable-background="new 0 0 24 24" xml:space="preserve">
<g id="Frames-24px">
	<rect fill="none" width="24" height="24"/>
</g>
<g id="Solid">
	<path fill="#757575" d="M12,2.002c-5.522,0-10,4.477-10,10c0,5.521,4.478,10,10,10s10-4.479,10-10C22,6.479,17.522,2.002,12,2.002z
		 M9,7.002c1.104,0,2,0.895,2,2c0,1.104-0.896,2-2,2s-2-0.896-2-2C7,7.897,7.896,7.002,9,7.002z M12,19.002
		c-2.391,0-4.588-1.132-6-2.958l1.559-1.557c0.996,1.435,2.637,2.345,4.441,2.345c1.809,0,3.447-0.911,4.443-2.35L18,16.041
		C16.59,17.868,14.396,19.002,12,19.002z M18,10.002h-4v-2h4V10.002z"/>
</g>
</svg>
