<?xml version="1.0" encoding="utf-8"?>
<!-- Generator: Adobe Illustrator 16.0.0, SVG Export Plug-In . SVG Version: 6.00 Build 0)  -->
<!DOCTYPE svg PUBLIC "-//W3C//DTD SVG 1.1//EN" "http://www.w3.org/Graphics/SVG/1.1/DTD/svg11.dtd">
<svg version="1.1" xmlns="http://www.w3.org/2000/svg" xmlns:xlink="http://www.w3.org/1999/xlink" x="0px" y="0px" width="24px"
	 height="24px" viewBox="0 0 24 24" enable-background="new 0 0 24 24" xml:space="preserve">
<g id="Frames-24px">
	<rect fill="none" width="24" height="24"/>
</g>
<g id="Solid">
	<path fill="#757575" d="M12,2.005c-5.514,0-10,4.486-10,10c0,5.515,4.486,10,10,10s10-4.485,10-10C22,6.491,17.514,2.005,12,2.005z
		 M14,8.005h4v2h-4V8.005z M6,8.005h4v2H6V8.005z M6,16.005c-1.105,0-2-0.895-2-2s0.895-2,2-2s2,0.895,2,2S7.105,16.005,6,16.005z
		 M14,18.005h-4v-2h4V18.005z M18,16.005c-1.105,0-2-0.895-2-2s0.895-2,2-2s2,0.895,2,2S19.105,16.005,18,16.005z"/>
</g>
</svg>
