<?xml version="1.0" encoding="utf-8"?>
<!-- Generator: Adobe Illustrator 16.0.0, SVG Export Plug-In . SVG Version: 6.00 Build 0)  -->
<!DOCTYPE svg PUBLIC "-//W3C//DTD SVG 1.1//EN" "http://www.w3.org/Graphics/SVG/1.1/DTD/svg11.dtd">
<svg version="1.1" xmlns="http://www.w3.org/2000/svg" xmlns:xlink="http://www.w3.org/1999/xlink" x="0px" y="0px" width="24px"
	 height="24px" viewBox="0 0 24 24" enable-background="new 0 0 24 24" xml:space="preserve">
<g id="Frames-24px">
	<rect fill="none" width="24" height="24"/>
</g>
<g id="Outline">
	<g>
		<rect x="7.006" y="2.002" fill="#757575" width="5" height="4"/>
		<rect x="7.006" y="17.002" fill="#757575" width="5" height="5"/>
		<path fill="#757575" d="M15.938,13.23c-0.378,0.038-0.74,0.102-1.089,0.178c0.657-0.428,1.339-0.95,1.976-1.587
			c2.343-2.344,3.182-5.304,3.182-5.304s-2.96,0.839-5.304,3.182c-1.369,1.37-2.222,2.946-2.696,4.023V8.002h-5v7h4.214
			c0.457,0.181,2.555,0.941,4.966,0.699c2.729-0.275,4.816-1.733,4.816-1.733S18.667,12.956,15.938,13.23z"/>
	</g>
</g>
</svg>
