<?xml version="1.0" encoding="utf-8"?>
<!-- Generator: Adobe Illustrator 16.0.0, SVG Export Plug-In . SVG Version: 6.00 Build 0)  -->
<!DOCTYPE svg PUBLIC "-//W3C//DTD SVG 1.1//EN" "http://www.w3.org/Graphics/SVG/1.1/DTD/svg11.dtd">
<svg version="1.1" xmlns="http://www.w3.org/2000/svg" xmlns:xlink="http://www.w3.org/1999/xlink" x="0px" y="0px" width="24px"
	 height="24.001px" viewBox="0 0 24 24.001" enable-background="new 0 0 24 24.001" xml:space="preserve">
<g id="Frames-24px">
	<rect fill="none" width="24" height="24.001"/>
</g>
<g id="Outline">
	<g>
		<path fill="#757575" d="M3.001,12.002c0,1.105,0.896,2,2,2s2-0.895,2-2c0-1.5-2-4-2-4S3.001,10.502,3.001,12.002z"/>
		<g>
			<polygon fill="#757575" points="18.001,4.002 18.001,2.002 8.587,2.002 6.294,4.295 7.708,5.709 9.416,4.002 			"/>
			<path fill="#757575" d="M15.001,7.103V5.002h-2v2.101c-2.282,0.464-4,2.48-4,4.899v8c0,0.553,0.448,1,1,1h8c0.552,0,1-0.447,1-1
				v-8C19.001,9.583,17.284,7.566,15.001,7.103z M17.001,15.002h-6v-3h6V15.002z"/>
		</g>
	</g>
</g>
</svg>
