<?xml version="1.0" encoding="utf-8"?>
<!-- Generator: Adobe Illustrator 16.0.0, SVG Export Plug-In . SVG Version: 6.00 Build 0)  -->
<!DOCTYPE svg PUBLIC "-//W3C//DTD SVG 1.1//EN" "http://www.w3.org/Graphics/SVG/1.1/DTD/svg11.dtd">
<svg version="1.1" xmlns="http://www.w3.org/2000/svg" xmlns:xlink="http://www.w3.org/1999/xlink" x="0px" y="0px" width="24px"
	 height="24px" viewBox="0 0 24 24" enable-background="new 0 0 24 24" xml:space="preserve">
<g id="Frames-24px">
	<rect fill="none" width="24" height="24"/>
</g>
<g id="Outline">
	<g>
		<path fill="#757575" d="M16.023,9.295c0.334,0.931,0.554,1.897,0.554,2.85c0,2.362-1.306,4.152-2.521,5.313
			c1.309,0.033,3.021-0.229,4.325-1.534c2.43-2.43,2.514-7.542,2.514-7.542S18.369,8.425,16.023,9.295z"/>
		<path fill="#757575" d="M7.989,9.295c-2.345-0.87-4.872-0.914-4.872-0.914s0.084,5.112,2.514,7.542
			c1.304,1.305,3.016,1.568,4.325,1.534c-1.216-1.16-2.521-2.95-2.521-5.313C7.435,11.192,7.655,10.226,7.989,9.295z"/>
		<path fill="#757575" d="M15.562,11.891c0-3.437-3.556-7.112-3.556-7.112s-3.556,3.675-3.556,7.112
			c0,2.237,1.504,3.817,2.556,4.651v5.46h2v-5.46C14.058,15.708,15.562,14.128,15.562,11.891z"/>
	</g>
</g>
</svg>
