<?xml version="1.0" encoding="utf-8"?>
<!-- Generator: Adobe Illustrator 16.0.0, SVG Export Plug-In . SVG Version: 6.00 Build 0)  -->
<!DOCTYPE svg PUBLIC "-//W3C//DTD SVG 1.1//EN" "http://www.w3.org/Graphics/SVG/1.1/DTD/svg11.dtd">
<svg version="1.1" xmlns="http://www.w3.org/2000/svg" xmlns:xlink="http://www.w3.org/1999/xlink" x="0px" y="0px" width="24px"
	 height="24px" viewBox="0 0 24 24" enable-background="new 0 0 24 24" xml:space="preserve">
<g id="Frames-24px">
	<rect fill="none" width="24" height="24"/>
</g>
<g id="Solid">
	<g>
		<path fill="#757575" d="M20.268,3.271l-17,17l1.414,1.414l4.967-4.967l3.619,3.967c0.286,0.287,0.716,0.372,1.09,0.216
			c0.374-0.154,0.617-0.519,0.617-0.923v-8.586l6.707-6.708L20.268,3.271z"/>
		<path fill="#757575" d="M14.975,5.735V3.978c0-0.404-0.243-0.77-0.617-0.924c-0.374-0.155-0.804-0.07-1.09,0.217L8.975,7.978h-3
			c-0.55,0-1,0.45-1,1v6c0,0.211,0.082,0.399,0.196,0.561L14.975,5.735z"/>
	</g>
</g>
</svg>
