<?xml version="1.0" encoding="utf-8"?>
<!-- Generator: Adobe Illustrator 16.0.0, SVG Export Plug-In . SVG Version: 6.00 Build 0)  -->
<!DOCTYPE svg PUBLIC "-//W3C//DTD SVG 1.1//EN" "http://www.w3.org/Graphics/SVG/1.1/DTD/svg11.dtd">
<svg version="1.1" xmlns="http://www.w3.org/2000/svg" xmlns:xlink="http://www.w3.org/1999/xlink" x="0px" y="0px" width="24px"
	 height="24px" viewBox="0 0 24 24" enable-background="new 0 0 24 24" xml:space="preserve">
<g id="Frames-24px">
	<rect fill="none" width="24" height="24"/>
</g>
<g id="Solid">
	<g>
		<path fill="#757575" d="M13.383,4.082c-0.374-0.155-0.804-0.07-1.09,0.217L8,9.005H5c-0.55,0-1,0.45-1,1v6c0,0.55,0.45,1,1,1h3
			l4.293,4.707c0.286,0.286,0.716,0.371,1.09,0.217S14,21.409,14,21.005v-16C14,4.6,13.757,4.235,13.383,4.082z"/>
		<path fill="#757575" d="M16,10.005v2c0.551,0,1,0.449,1,1s-0.449,1-1,1v2c1.654,0,3-1.346,3-3C19,11.35,17.654,10.005,16,10.005z"
			/>
	</g>
</g>
</svg>
