<?xml version="1.0" encoding="utf-8"?>
<!-- Generator: Adobe Illustrator 16.0.0, SVG Export Plug-In . SVG Version: 6.00 Build 0)  -->
<!DOCTYPE svg PUBLIC "-//W3C//DTD SVG 1.1//EN" "http://www.w3.org/Graphics/SVG/1.1/DTD/svg11.dtd">
<svg version="1.1" xmlns="http://www.w3.org/2000/svg" xmlns:xlink="http://www.w3.org/1999/xlink" x="0px" y="0px" width="24px"
	 height="24px" viewBox="0 0 24 24" enable-background="new 0 0 24 24" xml:space="preserve">
<g id="Frames-24px">
	<rect fill="none" width="24" height="24"/>
</g>
<g id="Solid">
	<g>
		<path fill="#757575" d="M11.383,3.079c-0.374-0.154-0.804-0.069-1.09,0.217L6,8.002H3c-0.55,0-1,0.451-1,1v6c0,0.55,0.45,1,1,1h3
			l4.293,4.708c0.286,0.286,0.716,0.372,1.09,0.217C11.757,20.772,12,20.407,12,20.002v-16C12,3.599,11.757,3.232,11.383,3.079z"/>
		<path fill="#757575" d="M14,5.002v2c2.757,0,5,2.244,5,5c0,2.757-2.243,5-5,5v2c3.86,0,7-3.139,7-7C21,8.143,17.86,5.002,14,5.002
			z"/>
		<path fill="#757575" d="M17,12.002c0-1.653-1.346-3-3-3v2c0.551,0,1,0.449,1,1c0,0.551-0.449,1-1,1v2
			C15.654,15.002,17,13.657,17,12.002z"/>
	</g>
</g>
</svg>
