<?xml version="1.0" encoding="utf-8"?>
<!-- Generator: Adobe Illustrator 16.0.0, SVG Export Plug-In . SVG Version: 6.00 Build 0)  -->
<!DOCTYPE svg PUBLIC "-//W3C//DTD SVG 1.1//EN" "http://www.w3.org/Graphics/SVG/1.1/DTD/svg11.dtd">
<svg version="1.1" xmlns="http://www.w3.org/2000/svg" xmlns:xlink="http://www.w3.org/1999/xlink" x="0px" y="0px" width="24px"
	 height="24px" viewBox="0 0 24 24" enable-background="new 0 0 24 24" xml:space="preserve">
<g id="Frames-24px">
	<rect fill="none" width="24" height="24"/>
</g>
<g id="Outline">
	<g>
		<path fill="#757575" d="M18.08,11h3.87c-0.157-1.577-0.688-3.041-1.491-4.316C19.197,7.763,18.328,9.281,18.08,11z"/>
		<path fill="#757575" d="M18.08,13c0.248,1.719,1.117,3.237,2.379,4.317c0.803-1.276,1.334-2.74,1.491-4.317H18.08z"/>
		<path fill="#757575" d="M13,11h3.059c0.262-2.36,1.439-4.447,3.17-5.897C17.624,3.421,15.444,2.293,13,2.051V11z"/>
		<path fill="#757575" d="M7.941,11H11V2.051c-2.444,0.242-4.624,1.37-6.229,3.052C6.501,6.553,7.679,8.64,7.941,11z"/>
		<path fill="#757575" d="M2.05,13c0.157,1.577,0.688,3.041,1.491,4.317C4.803,16.237,5.672,14.719,5.92,13H2.05z"/>
		<path fill="#757575" d="M3.541,6.684C2.738,7.959,2.207,9.423,2.05,11h3.87C5.672,9.281,4.803,7.763,3.541,6.684z"/>
		<path fill="#757575" d="M16.059,13H13v8.95c2.444-0.243,4.624-1.371,6.229-3.052C17.499,17.447,16.321,15.36,16.059,13z"/>
		<path fill="#757575" d="M11,13H7.941c-0.262,2.36-1.439,4.447-3.17,5.897c1.605,1.682,3.785,2.81,6.229,3.052V13z"/>
	</g>
</g>
</svg>
