<?xml version="1.0" encoding="utf-8"?>
<!-- Generator: Adobe Illustrator 16.0.0, SVG Export Plug-In . SVG Version: 6.00 Build 0)  -->
<!DOCTYPE svg PUBLIC "-//W3C//DTD SVG 1.1//EN" "http://www.w3.org/Graphics/SVG/1.1/DTD/svg11.dtd">
<svg version="1.1" xmlns="http://www.w3.org/2000/svg" xmlns:xlink="http://www.w3.org/1999/xlink" x="0px" y="0px" width="24px"
	 height="24px" viewBox="0 0 24 24" enable-background="new 0 0 24 24" xml:space="preserve">
<g id="Frames-24px">
	<rect fill="none" width="24" height="24"/>
</g>
<g id="Outline">
	<g>
		<path fill="#757575" d="M8.3,21.331c5.067-1.379,8.853-5.263,10.263-9.193c-0.873-0.498-1.445-0.771-2.644-1.105
			c-1.52,4.451-5.314,7.884-10.336,8.679C6.39,20.388,7.306,20.934,8.3,21.331z"/>
		<path fill="#757575" d="M9.737,11.025c0.49,1.366,1.237,2.633,2.218,3.743c1.094-1.152,1.938-2.525,2.485-4.052
			C12.876,10.495,11.281,10.595,9.737,11.025z"/>
		<path fill="#757575" d="M10.858,15.789c-3.021-3.398-4.227-8.246-2.54-13.031C7.267,3.175,6.305,3.764,5.463,4.492
			C4.55,9.284,5.946,13.839,8.688,17.164C9.436,16.793,9.945,16.529,10.858,15.789z"/>
		<path fill="#757575" d="M21.998,12.048c0-0.851-0.118-1.672-0.318-2.461c-3.815-2.779-8.394-3.541-12.63-2.506
			c0,0.011-0.002,0.021-0.002,0.03c0,0.843,0.098,1.669,0.272,2.475c4.297-1.204,9.104-0.192,12.638,3.249
			C21.979,12.574,21.998,12.313,21.998,12.048z"/>
		<path fill="#757575" d="M9.164,5.514c3.805-0.814,7.854-0.337,11.601,1.725C19.064,4.146,15.778,2.049,12,2.049
			c-0.633,0-1.25,0.065-1.85,0.178C9.665,3.269,9.323,4.373,9.164,5.514z"/>
		<path fill="#757575" d="M19.844,12.982c-1.418,3.621-4.631,7.161-8.899,9.007c4.997,0.523,9.428-2.688,10.689-7.303
			C21.097,14.058,20.502,13.482,19.844,12.982z"/>
		<path fill="#757575" d="M7.277,17.752c-2.462-3.123-3.803-7.098-3.585-11.268c-1.067,1.591-1.691,3.504-1.691,5.563
			c0,2.389,0.841,4.58,2.239,6.3C5.276,18.286,6.295,18.087,7.277,17.752z"/>
	</g>
</g>
</svg>
