<?xml version="1.0" encoding="utf-8"?>
<!-- Generator: Adobe Illustrator 16.0.0, SVG Export Plug-In . SVG Version: 6.00 Build 0)  -->
<!DOCTYPE svg PUBLIC "-//W3C//DTD SVG 1.1//EN" "http://www.w3.org/Graphics/SVG/1.1/DTD/svg11.dtd">
<svg version="1.1" xmlns="http://www.w3.org/2000/svg" xmlns:xlink="http://www.w3.org/1999/xlink" x="0px" y="0px" width="24px"
	 height="24px" viewBox="0 0 24 24" enable-background="new 0 0 24 24" xml:space="preserve">
<g id="Frames-24px">
	<rect fill="none" width="24" height="24"/>
</g>
<g id="Outline">
	<g>
		<path fill="#757575" d="M13,4v4.142c1.72,0.448,3,2,3,3.858s-1.28,3.411-3,3.858V20h11v-4h-4V8h4V4H13z"/>
		<path fill="#757575" d="M8,12c0-1.858,1.28-3.41,3-3.858V4H0v4h4v8H0v4h11v-4.142C9.28,15.411,8,13.858,8,12z"/>
		<rect y="10" fill="#757575" width="2" height="4"/>
		<rect x="22" y="10" fill="#757575" width="2" height="4"/>
		<circle fill="#757575" cx="12" cy="12" r="2"/>
	</g>
</g>
</svg>
