<?xml version="1.0" encoding="utf-8"?>
<!-- Generator: Adobe Illustrator 16.0.0, SVG Export Plug-In . SVG Version: 6.00 Build 0)  -->
<!DOCTYPE svg PUBLIC "-//W3C//DTD SVG 1.1//EN" "http://www.w3.org/Graphics/SVG/1.1/DTD/svg11.dtd">
<svg version="1.1" xmlns="http://www.w3.org/2000/svg" xmlns:xlink="http://www.w3.org/1999/xlink" x="0px" y="0px" width="24px"
	 height="24.001px" viewBox="0 0 24 24.001" enable-background="new 0 0 24 24.001" xml:space="preserve">
<g id="Frames-24px">
	<rect fill="none" width="24" height="24.001"/>
</g>
<g id="Outline">
	<g>
		<circle fill="#757575" cx="15.001" cy="6.002" r="1"/>
		<circle fill="#757575" cx="17.001" cy="4.002" r="1"/>
		<circle fill="#757575" cx="20.001" cy="2.002" r="1"/>
		<circle fill="#757575" cx="20.001" cy="6.002" r="1"/>
		<circle fill="#757575" cx="20.001" cy="10.002" r="1"/>
		<circle fill="#757575" cx="17.001" cy="8.002" r="1"/>
		<path fill="#757575" d="M13.001,5.002c0-0.552-0.448-1-1-1h-5c-0.334,0-0.646,0.167-0.832,0.445l-2,3
			C3.965,7.754,3.946,8.148,4.12,8.474c0.174,0.325,0.513,0.528,0.882,0.528h0.001h5.999h0.001v1h-0.001
			c0,0.266,0.105,0.52,0.293,0.707l3,3l1.414-1.414l-2.707-2.707V5.002z"/>
		<path fill="#757575" d="M10.001,10.588v-0.586h-4v0.586l-2.707,2.707c-0.188,0.188-0.293,0.442-0.293,0.707v7c0,0.552,0.448,1,1,1
			h8c0.552,0,1-0.448,1-1v-7c0-0.265-0.105-0.52-0.293-0.707L10.001,10.588z"/>
	</g>
</g>
</svg>
