<?xml version="1.0" encoding="utf-8"?>
<!-- Generator: Adobe Illustrator 16.0.0, SVG Export Plug-In . SVG Version: 6.00 Build 0)  -->
<!DOCTYPE svg PUBLIC "-//W3C//DTD SVG 1.1//EN" "http://www.w3.org/Graphics/SVG/1.1/DTD/svg11.dtd">
<svg version="1.1" xmlns="http://www.w3.org/2000/svg" xmlns:xlink="http://www.w3.org/1999/xlink" x="0px" y="0px" width="24px"
	 height="24px" viewBox="0 0 24 24" enable-background="new 0 0 24 24" xml:space="preserve">
<g id="Frames-24px">
	<rect fill="none" width="24" height="24"/>
</g>
<g id="Outline">
	<path fill="#757575" d="M19.763,15.028l-3.209-5.776c0.276-0.343,0.449-0.773,0.449-1.248c0-1.104-0.896-2-2-2
		c-0.589,0-1.113,0.259-1.479,0.664L5.995,3.93c-0.04-1.069-0.914-1.926-1.993-1.926c-1.104,0-2,0.896-2,2s0.896,2,2,2
		c0.589,0,1.113-0.259,1.479-0.664l7.529,2.738c0.006,0.162,0.034,0.317,0.076,0.467l-6.087,4.735
		c-0.294-0.17-0.632-0.275-0.996-0.275c-1.104,0-2,0.896-2,2s0.896,2,2,2c0.277,0,0.541-0.057,0.781-0.158l2.377,2.377
		c-0.102,0.24-0.158,0.504-0.158,0.781c0,1.104,0.896,2,2,2c1.061,0,1.92-0.828,1.987-1.872l5.5-1.833
		c0.367,0.428,0.905,0.705,1.513,0.705c1.104,0,2-0.896,2-2C22.002,15.861,21.025,14.876,19.763,15.028z M11.002,18.004
		c-0.277,0-0.541,0.057-0.781,0.159l-2.377-2.378c0.102-0.24,0.158-0.504,0.158-0.781c0-0.188-0.034-0.367-0.083-0.541l6.087-4.734
		c0.448,0.26,0.828,0.301,1.236,0.251l3.209,5.776c-0.251,0.312-0.409,0.696-0.436,1.12l-5.5,1.833
		C12.148,18.281,11.61,18.004,11.002,18.004z"/>
</g>
</svg>
