<?xml version="1.0" encoding="utf-8"?>
<!-- Generator: Adobe Illustrator 16.0.0, SVG Export Plug-In . SVG Version: 6.00 Build 0)  -->
<!DOCTYPE svg PUBLIC "-//W3C//DTD SVG 1.1//EN" "http://www.w3.org/Graphics/SVG/1.1/DTD/svg11.dtd">
<svg version="1.1" xmlns="http://www.w3.org/2000/svg" xmlns:xlink="http://www.w3.org/1999/xlink" x="0px" y="0px" width="24px"
	 height="24px" viewBox="0 0 24 24" enable-background="new 0 0 24 24" xml:space="preserve">
<g id="Frames-24px">
	<rect fill="none" width="24" height="24"/>
</g>
<g id="Solid">
	<g>
		<circle fill="#757575" cx="12" cy="12.002" r="5"/>
		<rect x="11" y="2.002" fill="#757575" width="2" height="3"/>
		
			<rect x="17.01" y="4.491" transform="matrix(0.7071 0.7071 -0.7071 0.7071 9.5119 -10.9802)" fill="#757575" width="2" height="3.001"/>
		<rect x="19" y="11.002" fill="#757575" width="3" height="2"/>
		
			<rect x="16.51" y="17.013" transform="matrix(-0.7072 -0.707 0.707 -0.7072 18.0115 43.4848)" fill="#757575" width="3.001" height="1.999"/>
		<rect x="11" y="19.002" fill="#757575" width="2" height="3"/>
		
			<rect x="4.99" y="16.512" transform="matrix(-0.7072 -0.707 0.707 -0.7072 -2.5088 34.9865)" fill="#757575" width="1.999" height="3.001"/>
		<rect x="2" y="11.002" fill="#757575" width="3" height="2"/>
		
			<rect x="4.489" y="4.992" transform="matrix(0.7071 0.7071 -0.7071 0.7071 5.9911 -2.4805)" fill="#757575" width="3.001" height="2"/>
	</g>
</g>
</svg>
