<?xml version="1.0" encoding="utf-8"?>
<!-- Generator: Adobe Illustrator 16.0.0, SVG Export Plug-In . SVG Version: 6.00 Build 0)  -->
<!DOCTYPE svg PUBLIC "-//W3C//DTD SVG 1.1//EN" "http://www.w3.org/Graphics/SVG/1.1/DTD/svg11.dtd">
<svg version="1.1" xmlns="http://www.w3.org/2000/svg" xmlns:xlink="http://www.w3.org/1999/xlink" x="0px" y="0px" width="24px"
	 height="24px" viewBox="0 0 24 24" enable-background="new 0 0 24 24" xml:space="preserve">
<g id="Frames-24px">
	<rect fill="none" width="24" height="24"/>
</g>
<g id="Outline">
	<g>
		<path fill="#757575" d="M17.896,14.554c-0.169-0.338-0.516-0.552-0.895-0.552h-11c-0.459,0-0.859,0.312-0.97,0.757l-0.561,2.243
			H19.12L17.896,14.554z"/>
		<path fill="#757575" d="M19.001,18.002h-14c-1.657,0-3,1.343-3,3c0,1.657,1.343,3,3,3h14c1.657,0,3-1.343,3-3
			C22.001,19.345,20.659,18.002,19.001,18.002z M7.001,22.252c-0.691,0-1.25-0.56-1.25-1.25c0-0.689,0.559-1.25,1.25-1.25
			s1.25,0.561,1.25,1.25C8.251,21.692,7.692,22.252,7.001,22.252z M12.001,22.252c-0.691,0-1.25-0.56-1.25-1.25
			c0-0.689,0.559-1.25,1.25-1.25s1.25,0.561,1.25,1.25C13.251,21.692,12.692,22.252,12.001,22.252z M17.001,22.252
			c-0.691,0-1.25-0.56-1.25-1.25c0-0.689,0.559-1.25,1.25-1.25s1.25,0.561,1.25,1.25C18.251,21.692,17.692,22.252,17.001,22.252z"/>
		<path fill="#757575" d="M20.001,9.002v1h-4.923L14.93,9.63c-0.152-0.38-0.52-0.628-0.929-0.628h-5
			c-0.409,0-0.776,0.249-0.929,0.628l-1.349,3.372h9.555l-0.4-1h4.123v1h2v-4H20.001z"/>
	</g>
</g>
</svg>
