<?xml version="1.0" encoding="utf-8"?>
<!-- Generator: Adobe Illustrator 16.0.0, SVG Export Plug-In . SVG Version: 6.00 Build 0)  -->
<!DOCTYPE svg PUBLIC "-//W3C//DTD SVG 1.1//EN" "http://www.w3.org/Graphics/SVG/1.1/DTD/svg11.dtd">
<svg version="1.1" xmlns="http://www.w3.org/2000/svg" xmlns:xlink="http://www.w3.org/1999/xlink" x="0px" y="0px" width="24px"
	 height="24.001px" viewBox="0 0 24 24.001" enable-background="new 0 0 24 24.001" xml:space="preserve">
<g id="Frames-24px">
	<rect y="0" fill="none" width="24" height="24.001"/>
</g>
<g id="Outline">
	<g>
		<path fill="#757575" d="M4.004,9.004h16c0.552,0,1-0.448,1-1v-1.35c0-0.395-0.232-0.753-0.594-0.914l-8-3.556
			c-0.259-0.115-0.554-0.115-0.813,0l-8,3.556C3.237,5.901,3.004,6.259,3.004,6.654v1.35C3.004,8.556,3.452,9.004,4.004,9.004z"/>
		<path fill="#757575" d="M21.565,18.688l-0.333-1c-0.136-0.409-0.518-0.684-0.949-0.684h-1.279v-7h-2v7h-2v-7h-2v7h-2v-7h-2v7h-2
			v-7h-2v7H3.725c-0.43,0-0.813,0.275-0.949,0.684l-0.333,1c-0.102,0.305-0.05,0.64,0.138,0.901c0.188,0.261,0.49,0.415,0.811,0.415
			h17.226c0.321,0,0.623-0.154,0.811-0.415C21.616,19.328,21.667,18.993,21.565,18.688z"/>
	</g>
</g>
</svg>
