<?xml version="1.0" encoding="utf-8"?>
<!-- Generator: Adobe Illustrator 16.0.0, SVG Export Plug-In . SVG Version: 6.00 Build 0)  -->
<!DOCTYPE svg PUBLIC "-//W3C//DTD SVG 1.1//EN" "http://www.w3.org/Graphics/SVG/1.1/DTD/svg11.dtd">
<svg version="1.1" xmlns="http://www.w3.org/2000/svg" xmlns:xlink="http://www.w3.org/1999/xlink" x="0px" y="0px"
	 width="24.001px" height="24.001px" viewBox="0 0 24.001 24.001" enable-background="new 0 0 24.001 24.001" xml:space="preserve">
<g id="Frames-24px">
	<rect fill="none" width="24.001" height="24.001"/>
</g>
<g id="Outline">
	<g>
		<path fill="#757575" d="M20.289,14.13l1.42-1.421c0.391-0.39,0.391-1.023,0-1.413l-1.42-1.421l1.545-2.317
			c0.205-0.308,0.224-0.702,0.05-1.026c-0.174-0.325-0.513-0.529-0.882-0.529h-7.189c-0.651-1.743-2.967-3-5.811-3
			c-3.364,0-6,1.757-6,4v10c0,2.243,2.636,4,6,4c2.843,0,5.16-1.257,5.811-3h7.189c0.369,0,0.708-0.203,0.882-0.528
			c0.174-0.326,0.155-0.72-0.05-1.026L20.289,14.13z M8.002,5.002c2.29,0,4,1.056,4,2s-1.71,2-4,2s-4-1.056-4-2
			S5.713,5.002,8.002,5.002z M8.002,19.002c-2.29,0-4-1.056-4-2v-7c1.055,0.623,2.448,1,4,1s2.945-0.377,4-1v7
			C12.002,17.947,10.292,19.002,8.002,19.002z M18.17,14.558l0.963,1.445h-5.131v-8h5.131L18.17,9.448
			c-0.265,0.396-0.212,0.925,0.125,1.261l1.293,1.293l-1.293,1.293C17.958,13.633,17.906,14.161,18.17,14.558z"/>
		<circle fill="#757575" cx="8.002" cy="7.002" r="1"/>
	</g>
</g>
</svg>
