<?xml version="1.0" encoding="utf-8"?>
<!-- Generator: Adobe Illustrator 16.0.0, SVG Export Plug-In . SVG Version: 6.00 Build 0)  -->
<!DOCTYPE svg PUBLIC "-//W3C//DTD SVG 1.1//EN" "http://www.w3.org/Graphics/SVG/1.1/DTD/svg11.dtd">
<svg version="1.1" xmlns="http://www.w3.org/2000/svg" xmlns:xlink="http://www.w3.org/1999/xlink" x="0px" y="0px" width="24px"
	 height="24px" viewBox="0 0 24 24" enable-background="new 0 0 24 24" xml:space="preserve">
<g id="Frames-24px">
	<rect fill="none" width="24" height="24"/>
</g>
<g id="Outline">
	<g>
		<path fill="#757575" d="M8.002,20.002c0-0.366-0.105-0.705-0.277-1h7.555c-0.172,0.295-0.277,0.634-0.277,1c0,1.104,0.896,2,2,2
			s2-0.896,2-2c0-0.366-0.105-0.705-0.277-1h1.277c0.552,0,1-0.447,1-1v-6c0-0.553-0.448-1-1-1h-17c-0.552,0-1,0.447-1,1v6
			c0,0.553,0.448,1,1,1H4.28c-0.172,0.295-0.277,0.634-0.277,1c0,1.104,0.896,2,2,2S8.002,21.106,8.002,20.002z M16.002,13.002h3v3
			h-3V13.002z M10.002,13.002h3v3h-3V13.002z M4.002,13.002h3v3h-3V13.002z"/>
		<rect x="2.002" y="22.002" fill="#757575" width="20" height="2"/>
		<polygon fill="#757575" points="18.002,8.002 13.237,8.002 11.904,6.002 13.237,4.002 15.002,4.002 15.002,2.002 9.002,2.002 
			9.002,4.002 11.434,4.002 10.101,6.002 11.434,8.002 6.002,8.002 6.002,10.002 18.002,10.002 		"/>
	</g>
</g>
</svg>
