<?xml version="1.0" encoding="utf-8"?>
<!-- Generator: Adobe Illustrator 16.0.0, SVG Export Plug-In . SVG Version: 6.00 Build 0)  -->
<!DOCTYPE svg PUBLIC "-//W3C//DTD SVG 1.1//EN" "http://www.w3.org/Graphics/SVG/1.1/DTD/svg11.dtd">
<svg version="1.1" xmlns="http://www.w3.org/2000/svg" xmlns:xlink="http://www.w3.org/1999/xlink" x="0px" y="0px" width="24px"
	 height="24px" viewBox="0 0 24 24" enable-background="new 0 0 24 24" xml:space="preserve">
<g id="Frames-24px">
	<rect fill="none" width="24" height="24"/>
	<rect fill="none" width="24" height="24"/>
</g>
<g id="Outline">
	<g>
		<path fill="#757575" d="M0.002,12.002c0,1.045,0.163,2.053,0.461,3h4.539v-6H0.463C0.165,9.95,0.002,10.957,0.002,12.002z"/>
		<path fill="#757575" d="M1.355,7.002h3.647V3.354C3.491,4.232,2.232,5.491,1.355,7.002z"/>
		<polygon fill="#757575" points="11.002,9.002 7.002,9.002 7.002,15.002 13.002,15.002 13.002,12.002 11.002,12.002 		"/>
		<path fill="#757575" d="M11.002,2.053c-0.329-0.033-0.663-0.051-1-0.051c-1.045,0-2.053,0.163-3,0.461v4.539h4V2.053z"/>
		<path fill="#757575" d="M15.002,20.648c1.511-0.877,2.77-2.135,3.647-3.647h-3.647V20.648z"/>
		<path fill="#757575" d="M5.002,20.648v-3.647H1.355C2.232,18.513,3.491,19.772,5.002,20.648z"/>
		<path fill="#757575" d="M15.002,15.002h4.539c0.298-0.947,0.461-1.955,0.461-3h-5V15.002z"/>
		<path fill="#757575" d="M7.002,21.541c0.947,0.299,1.955,0.46,3,0.46s2.053-0.162,3-0.46v-4.54h-6V21.541z"/>
		<path fill="#757575" d="M23.915,3.522c-0.223-0.493-0.795-0.724-1.297-0.523l-2.806,1.249L16.49,2.145l-1.607,0.832
			c0.159,0.103,3.045,2.025,3.235,2.025l-2.43,1.082l-2.102-0.939l-1.584,0.913l4,2.006l2.199-1.015l-1.523,3.953l1.797-0.933
			l2.191-4.003l2.732-1.204C23.911,4.64,24.144,4.037,23.915,3.522z"/>
	</g>
</g>
</svg>
