<?xml version="1.0" encoding="utf-8"?>
<!-- Generator: Adobe Illustrator 16.0.0, SVG Export Plug-In . SVG Version: 6.00 Build 0)  -->
<!DOCTYPE svg PUBLIC "-//W3C//DTD SVG 1.1//EN" "http://www.w3.org/Graphics/SVG/1.1/DTD/svg11.dtd">
<svg version="1.1" xmlns="http://www.w3.org/2000/svg" xmlns:xlink="http://www.w3.org/1999/xlink" x="0px" y="0px" width="24px"
	 height="24.001px" viewBox="0 0 24 24.001" enable-background="new 0 0 24 24.001" xml:space="preserve">
<g id="Frames-24px">
	<rect fill="none" width="24" height="24.001"/>
	<rect fill="none" width="24" height="24.001"/>
</g>
<g id="Outline">
	<g>
		<path fill="#757575" d="M21.475,3.003l-0.729,5.105L19.26,7.896l0.699-4.894h-3.913l0.699,4.894L15.26,8.108l-0.729-5.105h-1.528
			l1.739,16.995c0.146,1.692,1.563,3.005,3.261,3.005c1.696,0,3.111-1.321,3.259-3.012l1.741-16.988H21.475z M20.003,19.003
			c0,1.105-0.896,2-2,2s-2-0.895-2-2v-3c0-1.104,0.896-2,2-2s2,0.896,2,2V19.003z"/>
		<path fill="#757575" d="M8.003,2.003c-1.698,0-3.114,1.313-3.261,3.005L3.003,22.003h1.528l0.729-5.106l1.485,0.212l-0.699,4.895
			h3.913L9.26,17.108l1.485-0.212l0.729,5.106h1.528L11.262,5.016C11.114,3.324,9.699,2.003,8.003,2.003z M10.003,9.003
			c0,1.105-0.896,2-2,2s-2-0.895-2-2v-3c0-1.104,0.896-2,2-2s2,0.896,2,2V9.003z"/>
	</g>
</g>
</svg>
