<?xml version="1.0" encoding="utf-8"?>
<!-- Generator: Adobe Illustrator 16.0.0, SVG Export Plug-In . SVG Version: 6.00 Build 0)  -->
<!DOCTYPE svg PUBLIC "-//W3C//DTD SVG 1.1//EN" "http://www.w3.org/Graphics/SVG/1.1/DTD/svg11.dtd">
<svg version="1.1" xmlns="http://www.w3.org/2000/svg" xmlns:xlink="http://www.w3.org/1999/xlink" x="0px" y="0px" width="24px"
	 height="24.001px" viewBox="0 0 24 24.001" enable-background="new 0 0 24 24.001" xml:space="preserve">
<g id="Frames-24px">
	<rect fill="none" width="24" height="24.001"/>
</g>
<g id="Outline">
	<path fill="#757575" d="M21.85,20.472L12.905,7.44l2.954-4.924l-1.715-1.029l-2.143,3.57l-2.143-3.57L8.145,2.517l2.954,4.923
		L2.154,20.472c-0.192,0.309-0.203,0.697-0.026,1.015c0.176,0.318,0.511,0.515,0.875,0.515h6v-2c0-1.656,1.343-3,3-3s3,1.344,3,3v2
		h6c0.363,0,0.698-0.197,0.875-0.515C22.053,21.169,22.042,20.781,21.85,20.472z"/>
</g>
</svg>
