<?xml version="1.0" encoding="utf-8"?>
<!-- Generator: Adobe Illustrator 16.0.0, SVG Export Plug-In . SVG Version: 6.00 Build 0)  -->
<!DOCTYPE svg PUBLIC "-//W3C//DTD SVG 1.1//EN" "http://www.w3.org/Graphics/SVG/1.1/DTD/svg11.dtd">
<svg version="1.1" xmlns="http://www.w3.org/2000/svg" xmlns:xlink="http://www.w3.org/1999/xlink" x="0px" y="0px" width="24px"
	 height="24.001px" viewBox="0 0 24 24.001" enable-background="new 0 0 24 24.001" xml:space="preserve">
<g id="Frames-24px">
	<rect fill="none" width="24" height="24.001"/>
	<rect fill="none" width="24" height="24.001"/>
</g>
<g id="Outline">
	<g>
		<path fill="#757575" d="M9.804,13.042l1.854,6.391c0.631-0.158,1.285-0.306,1.954-0.443l-1.884-6.497
			c0.906-1.032,2.1-1.83,3.518-2.242c1.846-0.535,3.726-0.322,5.333,0.45c-1.488-4.978-6.516-7.94-11.527-6.938L8.75,2.724
			C8.597,2.193,8.04,1.889,7.512,2.042C6.981,2.196,6.676,2.75,6.83,3.281l0.309,1.066C2.535,6.27-0.002,11.363,1.377,16.271
			c0.944-1.512,2.419-2.698,4.265-3.233C7.056,12.627,8.489,12.659,9.804,13.042z"/>
		<path fill="#757575" d="M4.002,24.002h19v-5C12.002,19.002,4.002,23.002,4.002,24.002z"/>
	</g>
</g>
</svg>
