<?xml version="1.0" encoding="utf-8"?>
<!-- Generator: Adobe Illustrator 16.0.0, SVG Export Plug-In . SVG Version: 6.00 Build 0)  -->
<!DOCTYPE svg PUBLIC "-//W3C//DTD SVG 1.1//EN" "http://www.w3.org/Graphics/SVG/1.1/DTD/svg11.dtd">
<svg version="1.1" xmlns="http://www.w3.org/2000/svg" xmlns:xlink="http://www.w3.org/1999/xlink" x="0px" y="0px"
	 width="24.001px" height="24.001px" viewBox="0 0 24.001 24.001" enable-background="new 0 0 24.001 24.001" xml:space="preserve">
<g id="Frames-24px">
	<rect fill="none" width="24.001" height="24.001"/>
</g>
<g id="Outline">
	<g>
		<path fill="#757575" d="M4.003,11.002h16c0-1.657-1.344-3-3-3c-0.314,0-0.612,0.062-0.897,0.152
			c-0.903-1.298-2.401-2.152-4.103-2.152S8.804,6.856,7.901,8.155c-0.285-0.09-0.583-0.152-0.897-0.152
			C5.347,8.002,4.003,9.345,4.003,11.002z"/>
		<rect x="11.003" y="2.002" fill="#757575" width="2" height="3"/>
		
			<rect x="3.589" y="4.003" transform="matrix(0.7071 0.7071 -0.7071 0.7071 5.0027 -2.0728)" fill="#757575" width="2.828" height="1.999"/>
		
			<rect x="18.004" y="3.588" transform="matrix(0.7074 0.7069 -0.7069 0.7074 9.0974 -11.9688)" fill="#757575" width="1.999" height="2.828"/>
		<path fill="#757575" d="M20.003,12.002h-16c-0.552,0-1,0.449-1,1v8c0,0.552,0.448,1,1,1h16c0.552,0,1-0.448,1-1v-8
			C21.003,12.451,20.556,12.002,20.003,12.002z M12.002,13.5c0.553,0,1.001,0.449,1.001,1.002s-0.448,1-1.001,1
			s-1.001-0.448-1.001-1S11.45,13.5,12.002,13.5z M18.003,19.002h-12v-4h3v2h6v-2h3V19.002z"/>
	</g>
</g>
</svg>
