<?xml version="1.0" encoding="utf-8"?>
<!-- Generator: Adobe Illustrator 16.0.0, SVG Export Plug-In . SVG Version: 6.00 Build 0)  -->
<!DOCTYPE svg PUBLIC "-//W3C//DTD SVG 1.1//EN" "http://www.w3.org/Graphics/SVG/1.1/DTD/svg11.dtd">
<svg version="1.1" xmlns="http://www.w3.org/2000/svg" xmlns:xlink="http://www.w3.org/1999/xlink" x="0px" y="0px" width="24px"
	 height="24px" viewBox="0 0 24 24" enable-background="new 0 0 24 24" xml:space="preserve">
<g id="Frames-24px">
	<rect fill="none" width="24" height="24"/>
</g>
<g id="Solid">
	<g>
		<circle fill="#757575" cx="19" cy="5" r="3"/>
		<path fill="#757575" d="M19,8c-2.757,0-5,2.243-5,5v3c0,0.553,0.448,1,1,1h1v4c0,0.553,0.448,1,1,1h4c0.552,0,1-0.447,1-1v-4h1
			c0.552,0,1-0.447,1-1v-3C24,10.243,21.757,8,19,8z"/>
		<path fill="#757575" d="M6,16c0.552,0,1-0.447,1-1V9c0-0.552-0.448-1-1-1H1C0.448,8,0,8.448,0,9v6c0,0.553,0.448,1,1,1H6z"/>
		<circle fill="#757575" cx="10" cy="20" r="2"/>
		<path fill="#757575" d="M9.003,5.917L8.08,17H1v2h6.184c0.416-1.164,1.53-2.033,2.902-1.991L10.92,7H13V5h-3
			C9.48,5,9.047,5.398,9.003,5.917z"/>
	</g>
</g>
</svg>
