<?xml version="1.0" encoding="utf-8"?>
<!-- Generator: Adobe Illustrator 16.0.0, SVG Export Plug-In . SVG Version: 6.00 Build 0)  -->
<!DOCTYPE svg PUBLIC "-//W3C//DTD SVG 1.1//EN" "http://www.w3.org/Graphics/SVG/1.1/DTD/svg11.dtd">
<svg version="1.1" xmlns="http://www.w3.org/2000/svg" xmlns:xlink="http://www.w3.org/1999/xlink" x="0px" y="0px"
	 width="24.001px" height="24.001px" viewBox="0 0 24.001 24.001" enable-background="new 0 0 24.001 24.001" xml:space="preserve">
<g id="Frames-24px">
	<rect fill="none" width="24.001" height="24.001"/>
</g>
<g id="Outline">
	<g>
		<path fill="#757575" d="M10.457,7.999c-0.472,0.595-1.458,2.067-1.458,4c0,1.363,1.128,5.723,1.758,8h2.483
			c0.63-2.277,1.758-6.638,1.758-8c0-1.952-0.981-3.409-1.455-4H10.457z"/>
		<path fill="#757575" d="M8.068,7.999H2.999c-0.552,0-1,0.448-1,1v6c0,0.552,0.448,1,1,1c2.629,0,4.299,1.242,5.217,2.236
			c-0.569-2.211-1.217-4.998-1.217-6.236C6.999,10.354,7.522,8.987,8.068,7.999z"/>
		<path fill="#757575" d="M20.999,7.999H15.93c0.546,0.988,1.069,2.355,1.069,4c0,1.24-0.65,4.034-1.219,6.247
			c0.919-0.995,2.594-2.247,5.219-2.247c0.552,0,1-0.448,1-1v-6C21.999,8.447,21.551,7.999,20.999,7.999z"/>
		<rect x="1.999" y="4.999" fill="#757575" width="20" height="2"/>
	</g>
</g>
</svg>
