<?xml version="1.0" encoding="utf-8"?>
<!-- Generator: Adobe Illustrator 16.0.0, SVG Export Plug-In . SVG Version: 6.00 Build 0)  -->
<!DOCTYPE svg PUBLIC "-//W3C//DTD SVG 1.1//EN" "http://www.w3.org/Graphics/SVG/1.1/DTD/svg11.dtd">
<svg version="1.1" xmlns="http://www.w3.org/2000/svg" xmlns:xlink="http://www.w3.org/1999/xlink" x="0px" y="0px" width="24px"
	 height="24px" viewBox="0 0 24 24" enable-background="new 0 0 24 24" xml:space="preserve">
<g id="Frames-24px">
	<rect fill="none" width="24" height="24"/>
</g>
<g id="Solid">
	<path fill="#757575" d="M21.414,18.586l-4.527-4.527C17.607,12.841,18,11.452,18,10c0-2.137-0.833-4.146-2.344-5.656
		C14.146,2.833,12.137,2,10,2S5.854,2.833,4.344,4.343C2.833,5.854,2,7.863,2,10s0.833,4.146,2.344,5.656
		C5.854,17.168,7.863,18,10,18c1.452,0,2.841-0.393,4.059-1.113l4.527,4.527C18.964,21.792,19.466,22,20,22s1.036-0.208,1.414-0.586
		C22.194,20.635,22.194,19.366,21.414,18.586z M9.949,6c1.104,0,2,0.896,2,2s-0.896,2-2,2s-2-0.896-2-2S8.845,6,9.949,6z M6.949,14
		c0-1.841,1.159-3,3-3s3,1.159,3,3H6.949z"/>
</g>
</svg>
