<?xml version="1.0" encoding="utf-8"?>
<!-- Generator: Adobe Illustrator 16.0.0, SVG Export Plug-In . SVG Version: 6.00 Build 0)  -->
<!DOCTYPE svg PUBLIC "-//W3C//DTD SVG 1.1//EN" "http://www.w3.org/Graphics/SVG/1.1/DTD/svg11.dtd">
<svg version="1.1" xmlns="http://www.w3.org/2000/svg" xmlns:xlink="http://www.w3.org/1999/xlink" x="0px" y="0px" width="24px"
	 height="24px" viewBox="0 0 24 24" enable-background="new 0 0 24 24" xml:space="preserve">
<g id="Frames-24px">
	<rect fill="none" width="24" height="24"/>
</g>
<g id="Solid">
	<path fill="#757575" d="M20.561,11.02C19.546,6.586,18.498,2,12,2c-4.411,0-8,3.589-8,8v12h12v-3h1c1.103,0,2-0.897,2-2v-3h2.281
		C21.281,14,20.691,11.591,20.561,11.02z M12,13.988c0,0-4-2.908-4-5.063c0-2.047,3.111-2.937,4-0.248c0.889-2.688,4-1.799,4,0.248
		C16,11.08,12,13.988,12,13.988z"/>
</g>
</svg>
