<?xml version="1.0" encoding="utf-8"?>
<!-- Generator: Adobe Illustrator 16.0.0, SVG Export Plug-In . SVG Version: 6.00 Build 0)  -->
<!DOCTYPE svg PUBLIC "-//W3C//DTD SVG 1.1//EN" "http://www.w3.org/Graphics/SVG/1.1/DTD/svg11.dtd">
<svg version="1.1" xmlns="http://www.w3.org/2000/svg" xmlns:xlink="http://www.w3.org/1999/xlink" x="0px" y="0px" width="24px"
	 height="24px" viewBox="0 0 24 24" enable-background="new 0 0 24 24" xml:space="preserve">
<g id="Frames-24px">
	<rect fill="none" width="24" height="24"/>
</g>
<g id="Solid">
	<g>
		<g>
			<path fill="#757575" d="M8,16c2.206,0,4-1.794,4-4s-1.794-4-4-4s-4,1.794-4,4S5.794,16,8,16z"/>
			<path fill="#757575" d="M8,17c-4.71,0-8,2.467-8,6v1h16v-1C16,19.467,12.71,17,8,17z"/>
		</g>
		<g>
			<polygon fill="#757575" points="22,7 19,7 19,4 17,4 17,7 14,7 14,9 17,9 17,12 19,12 19,9 22,9 			"/>
		</g>
	</g>
</g>
</svg>
