<?xml version="1.0" encoding="utf-8"?>
<!-- Generator: Adobe Illustrator 16.0.0, SVG Export Plug-In . SVG Version: 6.00 Build 0)  -->
<!DOCTYPE svg PUBLIC "-//W3C//DTD SVG 1.1//EN" "http://www.w3.org/Graphics/SVG/1.1/DTD/svg11.dtd">
<svg version="1.1" xmlns="http://www.w3.org/2000/svg" xmlns:xlink="http://www.w3.org/1999/xlink" x="0px" y="0px" width="24px"
	 height="24px" viewBox="0 0 24 24" enable-background="new 0 0 24 24" xml:space="preserve">
<g id="Frames-24px">
	<rect fill="none" width="24" height="24"/>
</g>
<g id="Outline">
	<path fill="#757575" d="M14.413,12l5.642-5.642c0.391-0.39,0.391-1.023,0-1.414C18.159,3.046,15.653,2,12.999,2
		c-5.514,0-10,4.485-10,10s4.486,10,10,10c2.654,0,5.16-1.046,7.056-2.945c0.39-0.39,0.39-1.023,0-1.414L14.413,12z M11.499,8.998
		c-0.828,0-1.5-0.672-1.5-1.5s0.672-1.5,1.5-1.5s1.5,0.672,1.5,1.5S12.327,8.998,11.499,8.998z"/>
</g>
</svg>
