<?xml version="1.0" encoding="utf-8"?>
<!-- Generator: Adobe Illustrator 16.0.0, SVG Export Plug-In . SVG Version: 6.00 Build 0)  -->
<!DOCTYPE svg PUBLIC "-//W3C//DTD SVG 1.1//EN" "http://www.w3.org/Graphics/SVG/1.1/DTD/svg11.dtd">
<svg version="1.1" xmlns="http://www.w3.org/2000/svg" xmlns:xlink="http://www.w3.org/1999/xlink" x="0px" y="0px"
	 width="24.001px" height="24.002px" viewBox="0 0 24.001 24.002" enable-background="new 0 0 24.001 24.002" xml:space="preserve">
<g id="Frames-24px">
	<rect fill="none" width="24.001" height="24.002"/>
</g>
<g id="Outline">
	<path fill="#757575" d="M18.999,1h-14c-1.103,0-2,0.896-2,2v18c0,1.103,0.897,2,2,2h11c2.757,0,5-2.243,5-5V3
		C20.999,1.896,20.102,1,18.999,1z M10.999,19h-2v2h-2v-2h-2v-2h2v-2h2v2h2V19z M14.999,20c-0.553,0-1-0.448-1-1
		c0-0.553,0.447-1,1-1s1,0.447,1,1C15.999,19.552,15.552,20,14.999,20z M16.999,18c-0.553,0-1-0.448-1-1c0-0.553,0.447-1,1-1
		s1,0.447,1,1C17.999,17.552,17.552,18,16.999,18z M17.999,12c0,0.552-0.448,1-1,1h-10c-0.552,0-1-0.448-1-1V5c0-0.552,0.448-1,1-1
		h10c0.552,0,1,0.448,1,1V12z"/>
</g>
</svg>
