<?xml version="1.0" encoding="utf-8"?>
<!-- Generator: Adobe Illustrator 16.0.0, SVG Export Plug-In . SVG Version: 6.00 Build 0)  -->
<!DOCTYPE svg PUBLIC "-//W3C//DTD SVG 1.1//EN" "http://www.w3.org/Graphics/SVG/1.1/DTD/svg11.dtd">
<svg version="1.1" xmlns="http://www.w3.org/2000/svg" xmlns:xlink="http://www.w3.org/1999/xlink" x="0px" y="0px" width="24px"
	 height="24px" viewBox="0 0 24 24" enable-background="new 0 0 24 24" xml:space="preserve">
<g id="Frames-24px">
	<rect fill="none" width="24" height="24"/>
</g>
<g id="Solid">
	<g>
		<path fill="#757575" d="M21.2,11.403L10.8,3.603c-0.44-0.33-0.8-0.149-0.8,0.4v2.75l7,5.25l-7,5.25v2.75
			c0,0.55,0.36,0.729,0.8,0.4l10.4-7.801C21.64,12.273,21.64,11.732,21.2,11.403z"/>
		<path fill="#757575" d="M13.2,11.403L2.8,3.603C2.36,3.273,2,3.453,2,4.003v16c0,0.55,0.36,0.729,0.8,0.4l10.4-7.801
			C13.64,12.273,13.64,11.732,13.2,11.403z"/>
	</g>
</g>
</svg>
