<?xml version="1.0" encoding="utf-8"?>
<!-- Generator: Adobe Illustrator 16.0.0, SVG Export Plug-In . SVG Version: 6.00 Build 0)  -->
<!DOCTYPE svg PUBLIC "-//W3C//DTD SVG 1.1//EN" "http://www.w3.org/Graphics/SVG/1.1/DTD/svg11.dtd">
<svg version="1.1" xmlns="http://www.w3.org/2000/svg" xmlns:xlink="http://www.w3.org/1999/xlink" x="0px" y="0px" width="24px"
	 height="24px" viewBox="0 0 24 24" enable-background="new 0 0 24 24" xml:space="preserve">
<g id="Frames-24px">
	<rect fill="none" width="24" height="24"/>
</g>
<g id="Solid">
	<g>
		<path fill="#757575" d="M6,3.003H3c-0.55,0-1,0.45-1,1v16c0,0.55,0.45,1,1,1h3c0.55,0,1-0.45,1-1v-16C7,3.453,6.55,3.003,6,3.003z
			"/>
		<path fill="#757575" d="M20.2,3.603L9.8,11.403c-0.44,0.329-0.44,0.87,0,1.199l10.4,7.801c0.44,0.329,0.8,0.149,0.8-0.4v-16
			C21,3.453,20.64,3.273,20.2,3.603z"/>
	</g>
</g>
</svg>
