<?xml version="1.0" encoding="utf-8"?>
<!-- Generator: Adobe Illustrator 16.0.0, SVG Export Plug-In . SVG Version: 6.00 Build 0)  -->
<!DOCTYPE svg PUBLIC "-//W3C//DTD SVG 1.1//EN" "http://www.w3.org/Graphics/SVG/1.1/DTD/svg11.dtd">
<svg version="1.1" xmlns="http://www.w3.org/2000/svg" xmlns:xlink="http://www.w3.org/1999/xlink" x="0px" y="0px" width="24px"
	 height="24px" viewBox="0 0 24 24" enable-background="new 0 0 24 24" xml:space="preserve">
<g id="Frames-24px">
	<rect fill="none" width="24" height="24"/>
</g>
<g id="Solid">
	<path fill="#757575" d="M20,3.003H3c-1.104,0-2,0.896-2,2v14c0,1.104,0.896,2,2,2h17c1.104,0,2-0.896,2-2v-14
		C22,3.898,21.104,3.003,20,3.003z M8,5.003h2v2H8V5.003z M5,19.003H3v-2h2V19.003z M5,7.003H3v-2h2V7.003z M10,19.003H8v-2h2
		V19.003z M15,19.003h-2v-2h2V19.003z M9,15.003v-6l6,3L9,15.003z M15,7.003h-2v-2h2V7.003z M20,19.003h-2v-2h2V19.003z M20,7.003
		h-2v-2h2V7.003z"/>
</g>
</svg>
