<?xml version="1.0" encoding="utf-8"?>
<!-- Generator: Adobe Illustrator 16.0.0, SVG Export Plug-In . SVG Version: 6.00 Build 0)  -->
<!DOCTYPE svg PUBLIC "-//W3C//DTD SVG 1.1//EN" "http://www.w3.org/Graphics/SVG/1.1/DTD/svg11.dtd">
<svg version="1.1" xmlns="http://www.w3.org/2000/svg" xmlns:xlink="http://www.w3.org/1999/xlink" x="0px" y="0px" width="24px"
	 height="24px" viewBox="0 0 24 24" enable-background="new 0 0 24 24" xml:space="preserve">
<g id="Frames-24px">
	<rect fill="none" width="24" height="24"/>
</g>
<g id="Solid">
	<g>
		<path fill="#757575" d="M21,3.003H3c-1.104,0-2,0.896-2,2v14c0,1.104,0.896,2,2,2h18c1.104,0,2-0.896,2-2v-14
			C23,3.898,22.104,3.003,21,3.003z M12,19.003c-3.86,0-7-3.14-7-7c0-3.859,3.14-7,7-7s7,3.141,7,7
			C19,15.863,15.86,19.003,12,19.003z"/>
		<path fill="#757575" d="M12,7.003c-2.757,0-5,2.243-5,5c0,2.758,2.243,5,5,5s5-2.242,5-5C17,9.246,14.757,7.003,12,7.003z
			 M10,15.003v-6l5,3L10,15.003z"/>
	</g>
</g>
</svg>
