<?xml version="1.0" encoding="utf-8"?>
<!-- Generator: Adobe Illustrator 16.0.0, SVG Export Plug-In . SVG Version: 6.00 Build 0)  -->
<!DOCTYPE svg PUBLIC "-//W3C//DTD SVG 1.1//EN" "http://www.w3.org/Graphics/SVG/1.1/DTD/svg11.dtd">
<svg version="1.1" xmlns="http://www.w3.org/2000/svg" xmlns:xlink="http://www.w3.org/1999/xlink" x="0px" y="0px" width="24px"
	 height="24px" viewBox="0 0 24 24" enable-background="new 0 0 24 24" xml:space="preserve">
<g id="Frames-24px">
	<rect fill="none" width="24" height="24"/>
</g>
<g id="Solid">
	<g>
		<path fill="#757575" d="M20,17.003H4c-0.55,0-1,0.45-1,1v3c0,0.55,0.45,1,1,1h16c0.55,0,1-0.45,1-1v-3
			C21,17.453,20.55,17.003,20,17.003z"/>
		<path fill="#757575" d="M4,15.003h16c0.55,0,0.73-0.36,0.4-0.8l-7.8-10.4c-0.33-0.439-0.87-0.439-1.2,0l-7.8,10.4
			C3.27,14.643,3.45,15.003,4,15.003z"/>
	</g>
</g>
</svg>
