<?xml version="1.0" encoding="utf-8"?>
<!-- Generator: Adobe Illustrator 16.0.0, SVG Export Plug-In . SVG Version: 6.00 Build 0)  -->
<!DOCTYPE svg PUBLIC "-//W3C//DTD SVG 1.1//EN" "http://www.w3.org/Graphics/SVG/1.1/DTD/svg11.dtd">
<svg version="1.1" xmlns="http://www.w3.org/2000/svg" xmlns:xlink="http://www.w3.org/1999/xlink" x="0px" y="0px" width="24px"
	 height="24.001px" viewBox="0 0 24 24.001" enable-background="new 0 0 24 24.001" xml:space="preserve">
<g id="Frames-24px">
	<rect y="0" fill="none" width="24" height="24.001"/>
</g>
<g id="Outline">
	<g>
		<path fill="#757575" d="M16.111,16.78c-0.121-0.432-0.514-0.73-0.962-0.73h-6.29c-0.448,0-0.841,0.299-0.962,0.73
			c-0.437,1.559-2.128,3.268-3.588,4.507c-0.319,0.271-0.435,0.714-0.291,1.107c0.145,0.394,0.519,0.655,0.938,0.655h14.095
			c0.419,0,0.794-0.261,0.939-0.655c0.145-0.394,0.028-0.835-0.291-1.107C18.239,20.048,16.548,18.339,16.111,16.78z"/>
		<path fill="#757575" d="M18.003,6.003H16.23c-0.625-1.759-2.312-3-4.227-3s-3.602,1.241-4.227,3H6.003c-1.654,0-3,1.346-3,3
			c0,1.655,1.346,3,3,3h4v3h4v-3h4c1.654,0,3-1.345,3-3C21.003,7.349,19.658,6.003,18.003,6.003z"/>
	</g>
</g>
</svg>
