<?xml version="1.0" encoding="utf-8"?>
<!-- Generator: Adobe Illustrator 16.0.0, SVG Export Plug-In . SVG Version: 6.00 Build 0)  -->
<!DOCTYPE svg PUBLIC "-//W3C//DTD SVG 1.1//EN" "http://www.w3.org/Graphics/SVG/1.1/DTD/svg11.dtd">
<svg version="1.1" xmlns="http://www.w3.org/2000/svg" xmlns:xlink="http://www.w3.org/1999/xlink" x="0px" y="0px" width="24px"
	 height="24px" viewBox="0 0 24 24" enable-background="new 0 0 24 24" xml:space="preserve">
<g id="Frames-24px">
	<rect fill="none" width="24" height="24"/>
</g>
<g id="Solid">
	<g>
		<path fill="#757575" d="M19,14h4c0.552,0,1-0.448,1-1V3c0-0.552-0.448-1-1-1h-4c-0.552,0-1,0.448-1,1v10
			C18,13.552,18.448,14,19,14z"/>
		<path fill="#757575" d="M1.232,14.641C1.422,14.868,1.704,15,2,15h6v4c0,0.552,0.448,1,1,1h3c0.4,0,0.762-0.238,0.919-0.606L16,13
			V3.522l-3.628-1.451C12.253,2.024,12.127,2,12,2H4C3.517,2,3.103,2.346,3.016,2.821l-2,11C0.963,14.113,1.042,14.413,1.232,14.641
			z"/>
	</g>
</g>
</svg>
