<?xml version="1.0" encoding="utf-8"?>
<!-- Generator: Adobe Illustrator 16.0.0, SVG Export Plug-In . SVG Version: 6.00 Build 0)  -->
<!DOCTYPE svg PUBLIC "-//W3C//DTD SVG 1.1//EN" "http://www.w3.org/Graphics/SVG/1.1/DTD/svg11.dtd">
<svg version="1.1" xmlns="http://www.w3.org/2000/svg" xmlns:xlink="http://www.w3.org/1999/xlink" x="0px" y="0px" width="24px"
	 height="24px" viewBox="0 0 24 24" enable-background="new 0 0 24 24" xml:space="preserve">
<g id="Frames-24px">
	<rect fill="none" width="24" height="24"/>
</g>
<g id="Solid">
	<path fill="#757575" d="M18,3H6C4.346,3,3,4.346,3,6v13c0,1.103,0.897,2,2,2h14c1.103,0,2-0.897,2-2V6C21,4.346,19.654,3,18,3z
		 M10,5h4v2h-4V5z M5,6c0-0.552,0.449-1,1-1h2v2H5V6z M12,15h-2v2H8v-2H6v-2h2v-2h2v2h2V15z M17,18h-2v-5.381l-1.447,0.723
		l-0.895-1.789l2.895-1.447c0.31-0.155,0.678-0.139,0.973,0.044C16.82,10.332,17,10.653,17,11V18z M19,7h-3V5h2c0.551,0,1,0.448,1,1
		V7z"/>
</g>
</svg>
