<?xml version="1.0" encoding="utf-8"?>
<!-- Generator: Adobe Illustrator 16.0.0, SVG Export Plug-In . SVG Version: 6.00 Build 0)  -->
<!DOCTYPE svg PUBLIC "-//W3C//DTD SVG 1.1//EN" "http://www.w3.org/Graphics/SVG/1.1/DTD/svg11.dtd">
<svg version="1.1" xmlns="http://www.w3.org/2000/svg" xmlns:xlink="http://www.w3.org/1999/xlink" x="0px" y="0px" width="24px"
	 height="24px" viewBox="0 0 24 24" enable-background="new 0 0 24 24" xml:space="preserve">
<g id="Frames-24px">
	<rect fill="none" width="24" height="24"/>
</g>
<g id="Solid">
	<g>
		<path fill="#757575" d="M5,8H1C0.448,8,0,8.448,0,9v10c0,0.552,0.448,1,1,1h4c0.552,0,1-0.448,1-1V9C6,8.448,5.552,8,5,8z"/>
		<path fill="#757575" d="M22.768,7.359C22.578,7.132,22.296,7,22,7h-6V3c0-0.552-0.448-1-1-1h-3c-0.4,0-0.762,0.238-0.919,0.606
			L8,9v9.478l3.628,1.451C11.747,19.976,11.873,20,12,20h8c0.483,0,0.897-0.346,0.984-0.821l2-11
			C23.037,7.887,22.958,7.587,22.768,7.359z"/>
	</g>
</g>
</svg>
