<?xml version="1.0" encoding="utf-8"?>
<!-- Generator: Adobe Illustrator 16.0.0, SVG Export Plug-In . SVG Version: 6.00 Build 0)  -->
<!DOCTYPE svg PUBLIC "-//W3C//DTD SVG 1.1//EN" "http://www.w3.org/Graphics/SVG/1.1/DTD/svg11.dtd">
<svg version="1.1" xmlns="http://www.w3.org/2000/svg" xmlns:xlink="http://www.w3.org/1999/xlink" x="0px" y="0px" width="24px"
	 height="24.001px" viewBox="0 0 24 24.001" enable-background="new 0 0 24 24.001" xml:space="preserve">
<g id="Frames-24px">
	<rect fill="none" width="24" height="24.001"/>
</g>
<g id="Outline">
	<g>
		<path fill="#757575" d="M19.003,14.004h-16v2h3.778l-1.778,8h4.045l1.955-2.513l1.955,2.513h4.045l-1.778-8h3.778V14.004z
			 M7.199,23.123l1.127-5.075l1.41,1.813L7.199,23.123z M12.271,19.861l1.41-1.813l1.127,5.075L12.271,19.861z M11.003,18.232
			l-1.733-2.228h3.466L11.003,18.232z"/>
		<rect x="5.003" y="6.004" fill="#757575" width="12" height="7"/>
		<path fill="#757575" d="M5.003,5.004h12c0.435,0,0.82-0.281,0.952-0.694c0.133-0.414-0.017-0.867-0.371-1.12l-6-2.771
			c-0.348-0.249-0.814-0.249-1.162,0l-6,2.771c-0.354,0.253-0.504,0.705-0.371,1.12C4.184,4.723,4.569,5.004,5.003,5.004z"/>
	</g>
</g>
</svg>
