<?xml version="1.0" encoding="utf-8"?>
<!-- Generator: Adobe Illustrator 16.0.0, SVG Export Plug-In . SVG Version: 6.00 Build 0)  -->
<!DOCTYPE svg PUBLIC "-//W3C//DTD SVG 1.1//EN" "http://www.w3.org/Graphics/SVG/1.1/DTD/svg11.dtd">
<svg version="1.1" xmlns="http://www.w3.org/2000/svg" xmlns:xlink="http://www.w3.org/1999/xlink" x="0px" y="0px" width="24px"
	 height="24px" viewBox="0 0 24 24" enable-background="new 0 0 24 24" xml:space="preserve">
<g id="Frames-24px">
	<rect fill="none" width="24" height="24"/>
</g>
<g id="Solid">
	<g>
		<path fill="#757575" d="M22,7.002V5c0-1.102-0.897-2-2-2H4C2.897,3,2,3.898,2,5v2.002H22z M8,4c0.552,0,1,0.448,1,1S8.552,6,8,6
			S7,5.552,7,5S7.448,4,8,4z M5,4c0.552,0,1,0.448,1,1S5.552,6,5,6S4,5.552,4,5S4.448,4,5,4z"/>
		<path fill="#757575" d="M2,8.002V19c0,1.103,0.897,2,2,2h16c1.103,0,2-0.897,2-2V8.002H2z"/>
	</g>
</g>
</svg>
