<?xml version="1.0" encoding="UTF-8" standalone="no"?>
<!DOCTYPE svg PUBLIC "-//W3C//DTD SVG 1.1//EN" "http://www.w3.org/Graphics/SVG/1.1/DTD/svg11.dtd">
<svg width="100%" height="100%" viewBox="0 0 22 22" version="1.1" xmlns="http://www.w3.org/2000/svg" xmlns:xlink="http://www.w3.org/1999/xlink" xml:space="preserve" xmlns:serif="http://www.serif.com/" style="fill-rule:evenodd;clip-rule:evenodd;stroke-linejoin:round;stroke-miterlimit:2;">
    <g transform="matrix(1,0,0,1,-5.64487,-6.19137)">
        <g transform="matrix(0.667965,0.744192,-0.744192,0.667965,18.3105,-6.67509)">
            <path d="M16.636,6.189C22.703,6.189 27.629,11.115 27.629,17.182C27.629,23.249 22.703,28.175 16.636,28.175C10.569,28.175 5.643,23.249 5.643,17.182C5.643,11.115 10.569,6.189 16.636,6.189ZM26.617,17.661L6.655,17.661C6.905,22.958 11.281,27.182 16.636,27.182C21.99,27.182 26.367,22.958 26.617,17.661ZM26.617,16.704C26.367,11.406 21.99,7.182 16.636,7.182C11.281,7.182 6.905,11.406 6.655,16.704L26.617,16.704Z" style="fill:rgb(220,24,19);"/>
        </g>
    </g>
</svg>
