<?xml version="1.0" encoding="UTF-8" standalone="no"?>
<!DOCTYPE svg PUBLIC "-//W3C//DTD SVG 1.1//EN" "http://www.w3.org/Graphics/SVG/1.1/DTD/svg11.dtd">
<svg width="100%" height="100%" viewBox="0 0 21 19" version="1.1" xmlns="http://www.w3.org/2000/svg" xmlns:xlink="http://www.w3.org/1999/xlink" xml:space="preserve" xmlns:serif="http://www.serif.com/" style="fill-rule:evenodd;clip-rule:evenodd;stroke-linejoin:round;stroke-miterlimit:2;">
    <g transform="matrix(1,0,0,1,-3.23972,-9.11348)">
        <path id="path6" d="M7.533,13.613L4.24,17.146L3.24,18.146L7.533,22.813L8.24,22.106L5.154,18.646L14.24,18.646L14.24,17.615L5.154,17.646L8.24,14.32L7.533,13.613ZM18.74,9.113C16.254,9.113 14.24,11.128 14.24,13.613C14.24,16.099 16.254,18.146 18.74,18.146C21.225,18.146 23.24,16.099 23.24,13.613C23.24,11.128 21.225,9.113 18.74,9.113ZM18.74,10.113C20.673,10.113 22.24,11.68 22.24,13.613C22.24,15.546 20.673,17.113 18.74,17.113C16.807,17.113 15.24,15.546 15.24,13.613C15.24,11.68 16.807,10.113 18.74,10.113ZM18.74,18.146C14.598,18.146 13.24,22.695 13.24,27.113L13.24,28.113L24.24,28.113L24.24,27.113C24.24,22.695 22.882,18.146 18.74,18.146ZM18.74,19.146C22.33,19.146 23.24,23.247 23.24,27.113L14.24,27.113C14.24,23.247 15.15,19.146 18.74,19.146Z" style="fill:url(#_Linear1);fill-rule:nonzero;"/>
    </g>
    <defs>
        <linearGradient id="_Linear1" x1="0" y1="0" x2="1" y2="0" gradientUnits="userSpaceOnUse" gradientTransform="matrix(21,0,0,19,3.23972,18.6135)"><stop offset="0" style="stop-color:white;stop-opacity:1"/><stop offset="0.45" style="stop-color:rgb(255,160,54);stop-opacity:1"/><stop offset="1" style="stop-color:rgb(255,134,0);stop-opacity:1"/></linearGradient>
    </defs>
</svg>
