<?xml version="1.0" encoding="UTF-8" standalone="no"?>
<!DOCTYPE svg PUBLIC "-//W3C//DTD SVG 1.1//EN" "http://www.w3.org/Graphics/SVG/1.1/DTD/svg11.dtd">
<svg width="100%" height="100%" viewBox="0 0 21 23" version="1.1" xmlns="http://www.w3.org/2000/svg" xmlns:xlink="http://www.w3.org/1999/xlink" xml:space="preserve" xmlns:serif="http://www.serif.com/" style="fill-rule:evenodd;clip-rule:evenodd;stroke-linejoin:round;stroke-miterlimit:2;">
    <g transform="matrix(1,0,0,1,-6.64083,-5.92908)">
        <g transform="matrix(0.940898,0,0,0.919622,1.25768,2.25059)">
            <path d="M5.721,4L5.721,28L28,28L28,7.629L27,6.629L25.235,5L24.235,4L5.721,4ZM6.721,5L11.721,5L11.721,13L22.087,13L22.087,5L23.821,5L27,8.043L27,27L24.842,27L24.842,19L8.879,19L8.879,27L6.721,27L6.721,5ZM12.721,5L14.826,5L14.826,12L12.721,12L12.721,5ZM9.879,20L23.842,20L23.842,27L9.879,27L9.879,20Z" style="fill:url(#_Linear1);fill-rule:nonzero;"/>
        </g>
    </g>
    <defs>
        <linearGradient id="_Linear1" x1="0" y1="0" x2="1" y2="0" gradientUnits="userSpaceOnUse" gradientTransform="matrix(-9.74201,12.5162,-12.8803,-10.4947,25.4104,6.48384)"><stop offset="0" style="stop-color:white;stop-opacity:1"/><stop offset="0.45" style="stop-color:rgb(149,59,190);stop-opacity:1"/><stop offset="1" style="stop-color:rgb(121,6,172);stop-opacity:1"/></linearGradient>
    </defs>
</svg>
