<?xml version="1.0" encoding="UTF-8" standalone="no"?>
<!DOCTYPE svg PUBLIC "-//W3C//DTD SVG 1.1//EN" "http://www.w3.org/Graphics/SVG/1.1/DTD/svg11.dtd">
<svg width="100%" height="100%" viewBox="0 0 17 17" version="1.1" xmlns="http://www.w3.org/2000/svg" xmlns:xlink="http://www.w3.org/1999/xlink" xml:space="preserve" xmlns:serif="http://www.serif.com/" style="fill-rule:evenodd;clip-rule:evenodd;stroke-linejoin:round;stroke-miterlimit:2;">
    <g transform="matrix(1,0,0,1,-3.99938,-3.99807)">
        <path d="M15.999,19.998L19.999,19.998L19.999,15.998L15.999,15.998M15.999,13.998L19.999,13.998L19.999,9.998L15.999,9.998M9.999,7.998L13.999,7.998L13.999,3.998L9.999,3.998M15.999,7.998L19.999,7.998L19.999,3.998L15.999,3.998M9.999,13.998L13.999,13.998L13.999,9.998L9.999,9.998M3.999,13.998L7.999,13.998L7.999,9.998L3.999,9.998M3.999,19.998L7.999,19.998L7.999,15.998L3.999,15.998M9.999,19.998L13.999,19.998L13.999,15.998L9.999,15.998M3.999,7.998L7.999,7.998L7.999,3.998L3.999,3.998L3.999,7.998Z" style="fill:rgb(157,157,157);fill-rule:nonzero;"/>
    </g>
</svg>
