<?xml version="1.0" encoding="UTF-8" standalone="no"?>
<!DOCTYPE svg PUBLIC "-//W3C//DTD SVG 1.1//EN" "http://www.w3.org/Graphics/SVG/1.1/DTD/svg11.dtd">
<svg width="100%" height="100%" viewBox="0 0 21 20" version="1.1" xmlns="http://www.w3.org/2000/svg" xmlns:xlink="http://www.w3.org/1999/xlink" xml:space="preserve" xmlns:serif="http://www.serif.com/" style="fill-rule:evenodd;clip-rule:evenodd;stroke-linejoin:round;stroke-miterlimit:2;">
    <g transform="matrix(1,0,0,1,-1.2,-2.00001)">
        <path d="M1.2,4.468L2.477,3.2L20,20.723L18.732,22L16.732,20L4,20C2.895,20 2,19.105 2,18L2,6C2,5.78 2.036,5.568 2.101,5.37L1.2,4.468ZM7,4L9,2L15,2L17,4L20,4C21.105,4 22,4.895 22,6L22,18C22,18.597 21.738,19.134 21.323,19.5L16.328,14.505C16.755,13.769 17,12.913 17,12C17,9.239 14.761,7 12,7C11.087,7 10.231,7.245 9.495,7.672L5.823,4L7,4ZM7,12C7,14.761 9.239,17 12,17C12.523,17 13.028,16.92 13.502,16.77L11.719,14.987C10.286,14.854 9.146,13.714 9.013,12.282L7.23,10.498C7.08,10.972 7,11.477 7,12ZM12,9C13.657,9 15,10.343 15,12C15,12.352 14.939,12.691 14.828,13.005L10.995,9.172C11.309,9.061 11.648,9 12,9Z" style="fill:url(#_Radial1);fill-rule:nonzero;"/>
    </g>
    <defs>
        <radialGradient id="_Radial1" cx="0" cy="0" r="1" gradientUnits="userSpaceOnUse" gradientTransform="matrix(20.8,0,0,20,1.2,12)"><stop offset="0" style="stop-color:rgb(0,128,255);stop-opacity:1"/><stop offset="0.55" style="stop-color:rgb(54,155,255);stop-opacity:1"/><stop offset="1" style="stop-color:white;stop-opacity:1"/></radialGradient>
    </defs>
</svg>
