<?xml version="1.0" encoding="UTF-8" standalone="no"?>
<!DOCTYPE svg PUBLIC "-//W3C//DTD SVG 1.1//EN" "http://www.w3.org/Graphics/SVG/1.1/DTD/svg11.dtd">
<svg width="100%" height="100%" viewBox="0 0 25 24" version="1.1" xmlns="http://www.w3.org/2000/svg" xmlns:xlink="http://www.w3.org/1999/xlink" xml:space="preserve" xmlns:serif="http://www.serif.com/" style="fill-rule:evenodd;clip-rule:evenodd;stroke-linejoin:round;stroke-miterlimit:2;">
    <g transform="matrix(1,0,0,1,-3.99962,-4)">
        <g id="path6" transform="matrix(1,0.000384741,-0.000384741,1,0.00615704,-0.00615467)">
            <path d="M26.501,17L28,17C27.491,23.158 22.29,28 16,28C9.71,28 4.509,23.158 4,17L5.357,17L5.357,18L5.051,18C5.992,23.119 10.609,27 16,27C21.391,27 26.008,23.119 26.949,18L26.501,18L26.501,17ZM26.501,18L25.548,18L25.548,17L26.501,17L26.501,18ZM24.525,18L23.53,18L23.53,17L24.525,17L24.525,18ZM22.507,18L21.513,18L21.513,17L22.507,17L22.507,18ZM20.49,18L19.524,18L19.524,17L20.49,17L20.49,18ZM18.501,18L17.534,18L17.534,17L18.501,17L18.501,18ZM16.511,18L15.47,18L15.47,17L16.511,17L16.511,18ZM14.447,18L13.469,18L13.469,17L14.447,17L14.447,18ZM12.446,18L11.44,18L11.44,17L12.446,17L12.446,18ZM10.417,18L9.405,18L9.405,17L10.417,17L10.417,18ZM8.382,18L7.403,18L7.403,17L8.382,17L8.382,18ZM26.501,15L26.949,15C26.443,9.394 21.738,5 16,5C10.262,5 5.557,9.394 5.051,15L5.357,15L5.357,16L4,16C4,9.373 9.373,4 16,4C22.627,4 28,9.373 28,16L26.501,16L26.501,15ZM24.455,15L24.455,16L23.502,16L23.502,15L24.455,15ZM22.479,15L22.479,16L21.484,16L21.484,15L22.479,15ZM20.461,15L20.461,16L19.467,16L19.467,15L20.461,15ZM18.444,15L18.444,16L17.478,16L17.478,15L18.444,15ZM16.455,15L16.455,16L15.489,16L15.489,15L16.455,15ZM14.466,15L14.466,16L13.424,16L13.424,15L14.466,15ZM12.401,15L12.401,16L11.423,16L11.423,15L12.401,15ZM10.4,15L10.4,16L9.394,16L9.394,15L10.4,15ZM8.371,15L8.371,16L7.359,16L7.359,15L8.371,15ZM6.336,15L6.336,16L5.357,16L5.357,15L6.336,15Z" style="fill:url(#_Linear1);fill-rule:nonzero;"/>
        </g>
    </g>
    <defs>
        <linearGradient id="_Linear1" x1="0" y1="0" x2="1" y2="0" gradientUnits="userSpaceOnUse" gradientTransform="matrix(-21.5467,0.0443498,-0.0443498,-21.5467,25.5469,16.4449)"><stop offset="0" style="stop-color:white;stop-opacity:1"/><stop offset="0.45" style="stop-color:rgb(94,194,255);stop-opacity:1"/><stop offset="1" style="stop-color:rgb(51,178,255);stop-opacity:1"/></linearGradient>
    </defs>
</svg>
