<?xml version="1.0" encoding="UTF-8" standalone="no"?>
<!DOCTYPE svg PUBLIC "-//W3C//DTD SVG 1.1//EN" "http://www.w3.org/Graphics/SVG/1.1/DTD/svg11.dtd">
<svg width="100%" height="100%" viewBox="0 0 50 53" version="1.1" xmlns="http://www.w3.org/2000/svg" xmlns:xlink="http://www.w3.org/1999/xlink" xml:space="preserve" xmlns:serif="http://www.serif.com/" style="fill-rule:evenodd;clip-rule:evenodd;stroke-linejoin:round;stroke-miterlimit:2;">
    <g transform="matrix(1,0,0,1,0.918758,2.14799)">
        <g transform="matrix(0.105661,0,0,0.105661,-0.188747,13.6094)">
            <g transform="matrix(0.941052,0,0,1,13.0915,-2.84217e-14)">
                <path d="M342.585,-120.472L115.023,-120.472L9.2,-19.251L9.2,217.017L115.023,317.062L342.585,317.062L449.165,217.017L449.165,-19.251L342.585,-120.472Z" style="fill:url(#_Linear1);fill-rule:nonzero;"/>
                <clipPath id="_clip2">
                    <path d="M345.665,-127.423L111.928,-127.423L1.814,-22.097L1.814,219.886L111.954,324.013L345.639,324.013L456.551,219.901L456.551,-22.111L345.665,-127.423ZM118.118,-113.522L16.586,-16.405L16.586,214.147L118.092,310.111L339.531,310.111L441.778,214.132L441.778,-16.391L339.506,-113.522L118.118,-113.522Z"/>
                </clipPath>
                <g clip-path="url(#_clip2)">
                    <g transform="matrix(10.057,-0,-0,9.46419,-21.2534,-149.131)">
                    </g>
                </g>
            </g>
        </g>
        <g transform="matrix(0.105661,0,0,0.105661,-0.188747,13.6094)">
            <g transform="matrix(1.90695,0,0,1.95324,104.534,-34.4795)">
                <path d="M132.77,118.025L104.825,90.08C111.56,80.358 114.929,69.521 114.929,57.572C114.929,49.805 113.421,42.377 110.406,35.289C107.392,28.2 103.318,22.09 98.185,16.957C93.052,11.824 86.943,7.75 79.855,4.736C72.765,1.721 65.337,0.214 57.57,0.214C49.803,0.214 42.375,1.721 35.287,4.736C28.198,7.75 22.088,11.824 16.955,16.957C11.822,22.09 7.748,28.201 4.734,35.289C1.719,42.378 0.212,49.805 0.212,57.572C0.212,65.339 1.719,72.765 4.734,79.855C7.748,86.943 11.822,93.052 16.955,98.185C22.088,103.319 28.199,107.392 35.287,110.407C42.376,113.422 49.803,114.929 57.57,114.929C69.521,114.929 80.357,111.56 90.079,104.825L118.024,132.688C119.979,134.752 122.421,135.784 125.356,135.784C128.18,135.784 130.626,134.752 132.688,132.688C134.752,130.625 135.784,128.18 135.784,125.356C135.785,122.479 134.781,120.034 132.77,118.025ZM83.357,83.357C76.214,90.5 67.619,94.071 57.57,94.071C47.522,94.071 38.927,90.499 31.784,83.357C24.641,76.214 21.07,67.62 21.07,57.571C21.07,47.523 24.642,38.927 31.784,31.785C38.926,24.642 47.522,21.071 57.57,21.071C67.618,21.071 76.213,24.643 83.357,31.785C90.5,38.927 94.072,47.523 94.072,57.571C94.072,67.62 90.499,76.214 83.357,83.357Z" style="fill:rgb(200,200,200);fill-opacity:0.85;fill-rule:nonzero;"/>
            </g>
        </g>
    </g>
    <defs>
        <linearGradient id="_Linear1" x1="0" y1="0" x2="1" y2="0" gradientUnits="userSpaceOnUse" gradientTransform="matrix(-482.738,445.952,-500.79,-480.072,470.724,-120.472)"><stop offset="0" style="stop-color:white;stop-opacity:1"/><stop offset="0.45" style="stop-color:rgb(54,155,255);stop-opacity:1"/><stop offset="1" style="stop-color:rgb(0,128,255);stop-opacity:1"/></linearGradient>
    </defs>
</svg>
