<?xml version="1.0" encoding="UTF-8" standalone="no"?>
<svg
   xmlns:dc="http://purl.org/dc/elements/1.1/"
   xmlns:cc="http://creativecommons.org/ns#"
   xmlns:rdf="http://www.w3.org/1999/02/22-rdf-syntax-ns#"
   xmlns:svg="http://www.w3.org/2000/svg"
   xmlns="http://www.w3.org/2000/svg"
   xmlns:sodipodi="http://sodipodi.sourceforge.net/DTD/sodipodi-0.dtd"
   xmlns:inkscape="http://www.inkscape.org/namespaces/inkscape"
   version="1.1"
   width="24"
   height="24"
   viewBox="0 0 24.00 24.00"
   enable-background="new 0 0 24.00 24.00"
   xml:space="preserve"
   id="svg4"
   sodipodi:docname="help-browser.svg"
   inkscape:version="0.92.0 r15299"><metadata
     id="metadata10"><rdf:RDF><cc:Work
         rdf:about=""><dc:format>image/svg+xml</dc:format><dc:type
           rdf:resource="http://purl.org/dc/dcmitype/StillImage" /><dc:title></dc:title></cc:Work></rdf:RDF></metadata><defs
     id="defs8" /><sodipodi:namedview
     pagecolor="#ffffff"
     bordercolor="#666666"
     borderopacity="1"
     objecttolerance="10"
     gridtolerance="10"
     guidetolerance="10"
     inkscape:pageopacity="0"
     inkscape:pageshadow="2"
     inkscape:window-width="726"
     inkscape:window-height="480"
     id="namedview6"
     showgrid="false"
     inkscape:zoom="9.8333333"
     inkscape:cx="28.881356"
     inkscape:cy="12"
     inkscape:window-x="641"
     inkscape:window-y="2"
     inkscape:window-maximized="0"
     inkscape:current-layer="svg4" /><path
     fill="#000000"
     fill-opacity="1"
     stroke-width="0.2"
     stroke-linejoin="round"
     d="M 16.3607,13.998C 16.4427,13.3411 16.4997,12.6771 16.4997,11.998C 16.4997,11.319 16.4427,10.655 16.3607,9.99805L 19.7367,9.99805C 19.9027,10.6381 19.9997,11.306 19.9997,11.998C 19.9997,12.6901 19.9027,13.358 19.7367,13.998M 14.5927,19.559C 15.1927,18.446 15.6487,17.248 15.9717,15.998L 18.9207,15.998C 17.9617,17.652 16.4297,18.928 14.5927,19.559 Z M 14.3387,13.998L 9.6597,13.998C 9.5647,13.343 9.49969,12.6791 9.49969,11.998C 9.49969,11.317 9.5647,10.6531 9.6597,9.99805L 14.3387,9.99805C 14.4337,10.6531 14.4997,11.317 14.4997,11.998C 14.4997,12.6791 14.4337,13.343 14.3387,13.998 Z M 11.9977,19.962C 11.1657,18.762 10.5157,17.4291 10.0887,15.998L 13.9097,15.998C 13.4817,17.4291 12.8317,18.762 11.9977,19.962 Z M 8.0257,7.99805L 5.07669,7.99805C 6.0347,6.34204 7.56668,5.06403 9.40469,4.43506C 8.80469,5.54803 8.34869,6.74603 8.0257,7.99805 Z M 5.07669,15.998L 8.0257,15.998C 8.34869,17.249 8.80469,18.4481 9.40469,19.561C 7.56668,18.9321 6.0347,17.6541 5.07669,15.998 Z M 4.26068,13.998C 4.0957,13.358 3.99969,12.6901 3.99969,11.998C 3.99969,11.306 4.0957,10.6381 4.26068,9.99805L 7.6377,9.99805C 7.55569,10.655 7.49969,11.319 7.49969,11.998C 7.49969,12.6771 7.55569,13.3411 7.6377,13.998M 11.9977,4.03406C 12.8317,5.23407 13.4817,6.56702 13.9097,7.99805L 10.0887,7.99805C 10.5157,6.56702 11.1657,5.23407 11.9977,4.03406 Z M 18.9207,7.99805L 15.9717,7.99805C 15.6487,6.74805 15.1927,5.55005 14.5927,4.43707C 16.4297,5.06805 17.9617,6.34406 18.9207,7.99805 Z M 11.9937,1.99805C 6.46768,1.99805 1.99969,6.47504 1.99969,11.998C 1.99969,17.5211 6.46768,21.998 11.9937,21.998C 17.5207,21.998 21.9997,17.5211 21.9997,11.998C 21.9997,6.47504 17.5207,1.99805 11.9937,1.99805 Z "
     id="path2" /><path
     inkscape:connector-curvature="0"
     style="fill:#808080;fill-opacity:1;stroke-width:1.33333004;stroke-linejoin:miter"
     d="m 14.0887,18.99805 h 3 v 3 h -3 v -3 m 2,-17 c 5.3536,0.2231 7.6774,5.6179 4.5,9.67 -0.83,1 -2.17,1.66 -2.83,2.5 -0.67,0.83 -0.67,1.83 -0.67,2.83 h -3 c 0,-1.67 0,-3.08 0.67,-4.08 0.66,-1 2,-1.59 2.83,-2.25 2.4157,-2.2399 1.82,-5.4133 -1.5,-5.67 -1.6569,0 -3,1.3431 -3,3 h -3 c 0,-3.3137 2.68629,-6 6,-6 z"
     id="path2-3" /></svg>