<?xml version="1.0" encoding="UTF-8" standalone="no"?>
<!DOCTYPE svg PUBLIC "-//W3C//DTD SVG 1.1//EN" "http://www.w3.org/Graphics/SVG/1.1/DTD/svg11.dtd">
<svg width="100%" height="100%" viewBox="0 0 18 18" version="1.1" xmlns="http://www.w3.org/2000/svg" xmlns:xlink="http://www.w3.org/1999/xlink" xml:space="preserve" xmlns:serif="http://www.serif.com/" style="fill-rule:evenodd;clip-rule:evenodd;stroke-linejoin:round;stroke-miterlimit:2;">
    <g transform="matrix(1,0,0,1,-2.9994,-2.99805)">
        <path d="M11.999,3.998L9.908,6.089L11.999,8.18M4.272,2.998L2.999,4.271L7.726,8.998L2.999,8.998L2.999,14.998L6.999,14.998L11.999,19.998L11.999,13.271L16.254,17.526C15.584,18.043 14.83,18.456 13.999,18.704L13.999,20.767C15.376,20.454 16.628,19.82 17.684,18.956L19.726,20.998L20.999,19.725L11.999,10.725M18.999,11.998C18.999,12.937 18.795,13.822 18.46,14.64L19.974,16.154C20.624,14.91 20.999,13.499 20.999,11.998C20.999,7.715 18.006,4.138 13.999,3.228L13.999,5.292C16.89,6.152 18.999,8.828 18.999,11.998ZM16.499,11.998C16.499,10.232 15.479,8.708 13.999,7.97L13.999,10.18L16.453,12.634C16.483,12.426 16.499,12.214 16.499,11.998Z" style="fill:url(#_Linear1);fill-rule:nonzero;"/>
    </g>
    <defs>
        <linearGradient id="_Linear1" x1="0" y1="0" x2="1" y2="0" gradientUnits="userSpaceOnUse" gradientTransform="matrix(-18.5967,18.324,-18.324,-18.5967,21.5961,2.67403)"><stop offset="0" style="stop-color:white;stop-opacity:1"/><stop offset="0.45" style="stop-color:rgb(54,155,255);stop-opacity:1"/><stop offset="1" style="stop-color:rgb(0,128,255);stop-opacity:1"/></linearGradient>
    </defs>
</svg>
