<?xml version="1.0" encoding="UTF-8" standalone="no"?>
<!DOCTYPE svg PUBLIC "-//W3C//DTD SVG 1.1//EN" "http://www.w3.org/Graphics/SVG/1.1/DTD/svg11.dtd">
<svg width="100%" height="100%" viewBox="0 0 38 38" version="1.1" xmlns="http://www.w3.org/2000/svg" xmlns:xlink="http://www.w3.org/1999/xlink" xml:space="preserve" xmlns:serif="http://www.serif.com/" style="fill-rule:evenodd;clip-rule:evenodd;stroke-linejoin:round;stroke-miterlimit:2;">
    <g transform="matrix(1,0,0,1,-4,-4)">
        <path d="M42,13L34,21L34,14C34,12.9 33.1,12 32,12L19.64,12L42,34.36L42,13ZM6.55,4L4,6.55L9.45,12L8,12C6.9,12 6,12.9 6,14L6,34C6,35.1 6.9,36 8,36L32,36C32.41,36 32.77,35.85 33.09,35.63L39.46,42L42,39.45L6.55,4Z" style="fill:url(#_Linear1);fill-rule:nonzero;"/>
    </g>
    <defs>
        <linearGradient id="_Linear1" x1="0" y1="0" x2="1" y2="0" gradientUnits="userSpaceOnUse" gradientTransform="matrix(-36.0221,0.18,-0.18,-36.0221,42,23)"><stop offset="0" style="stop-color:white;stop-opacity:1"/><stop offset="0.45" style="stop-color:rgb(54,155,255);stop-opacity:1"/><stop offset="1" style="stop-color:rgb(0,128,255);stop-opacity:1"/></linearGradient>
    </defs>
</svg>
