<?xml version="1.0" encoding="UTF-8" standalone="no"?>
<!DOCTYPE svg PUBLIC "-//W3C//DTD SVG 1.1//EN" "http://www.w3.org/Graphics/SVG/1.1/DTD/svg11.dtd">
<svg width="100%" height="100%" viewBox="0 0 15 19" version="1.1" xmlns="http://www.w3.org/2000/svg" xmlns:xlink="http://www.w3.org/1999/xlink" xml:space="preserve" xmlns:serif="http://www.serif.com/" style="fill-rule:evenodd;clip-rule:evenodd;stroke-linejoin:round;stroke-miterlimit:2;">
    <g transform="matrix(1,0,0,1,-4.99999,-2.53039)">
        <path d="M12,2.53C15.866,2.53 18.514,5.134 18.514,9C18.514,12.866 15.866,15.536 12,15.536C8.134,15.536 5.486,12.866 5.486,9C5.486,5.134 8.134,2.53 12,2.53ZM12,4C9.239,4 7,6.239 7,9C7,11.762 9.239,14 12,14C14.761,14 17,11.762 17,9C17,6.239 14.761,4 12,4ZM12,6C13.657,6 15,7.343 15,9C15,10.657 13.657,12 12,12C10.343,12 9,10.657 9,9C9,7.343 10.343,6 12,6ZM7,21.398C5.895,21.398 5,20.503 5,19.398C5,19.021 5.104,18.669 5.286,18.368L7,15.536C12.992,17.767 12,17.398 12,17.398C12,17.398 11.076,17.742 17,15.536L18.72,18.368C18.901,18.669 19.006,19.021 19.006,19.398C19.006,20.503 18.11,21.398 17.006,21.398L7,21.398Z" style="fill:url(#_Linear1);fill-rule:nonzero;"/>
    </g>
    <defs>
        <linearGradient id="_Linear1" x1="0" y1="0" x2="1" y2="0" gradientUnits="userSpaceOnUse" gradientTransform="matrix(-17.5193,4.24862,-5.72357,-23.6013,19.0055,7.75138)"><stop offset="0" style="stop-color:white;stop-opacity:1"/><stop offset="0.45" style="stop-color:rgb(54,155,255);stop-opacity:1"/><stop offset="1" style="stop-color:rgb(0,128,255);stop-opacity:1"/></linearGradient>
    </defs>
</svg>
