<?xml version="1.0" encoding="UTF-8" standalone="no"?>
<!DOCTYPE svg PUBLIC "-//W3C//DTD SVG 1.1//EN" "http://www.w3.org/Graphics/SVG/1.1/DTD/svg11.dtd">
<svg width="100%" height="100%" viewBox="0 0 21 20" version="1.1" xmlns="http://www.w3.org/2000/svg" xmlns:xlink="http://www.w3.org/1999/xlink" xml:space="preserve" xmlns:serif="http://www.serif.com/" style="fill-rule:evenodd;clip-rule:evenodd;stroke-linejoin:round;stroke-miterlimit:2;">
    <g transform="matrix(1,0,0,1,-1.99937,-1.99813)">
        <path d="M11.999,19.998C16.419,19.998 19.999,16.416 19.999,11.998C19.999,7.58 16.419,3.998 11.999,3.998C7.579,3.998 3.999,7.58 3.999,11.998C3.999,16.416 7.579,19.998 11.999,19.998ZM11.994,1.998C17.52,1.998 21.999,6.475 21.999,11.998C21.999,17.521 17.52,21.998 11.994,21.998C6.467,21.998 1.999,17.521 1.999,11.998C1.999,6.475 6.467,1.998 11.994,1.998ZM12.499,6.998L12.499,12.248L16.999,14.917L16.246,16.148L10.999,12.998L10.999,6.998L12.499,6.998Z" style="fill:rgb(0,128,255);fill-opacity:0.9;fill-rule:nonzero;"/>
    </g>
</svg>
