<?xml version="1.0" encoding="UTF-8" standalone="no"?>
<!DOCTYPE svg PUBLIC "-//W3C//DTD SVG 1.1//EN" "http://www.w3.org/Graphics/SVG/1.1/DTD/svg11.dtd">
<svg width="100%" height="100%" viewBox="0 0 24 24" version="1.1" xmlns="http://www.w3.org/2000/svg" xmlns:xlink="http://www.w3.org/1999/xlink" xml:space="preserve" xmlns:serif="http://www.serif.com/" style="fill-rule:evenodd;clip-rule:evenodd;stroke-linejoin:round;stroke-miterlimit:2;">
    <g transform="matrix(1,0,0,1,-4,-4)">
        <path id="path6" d="M16,4C9.417,4 4,9.417 4,16C4,22.583 9.417,28 16,28C22.583,28 28,22.583 28,16C28,9.417 22.583,4 16,4ZM16,4.69C22.034,4.69 27.277,9.966 27.277,16C27.54,16 27.277,16 27.277,16C27.277,22.034 22.034,27.173 16,27.173C9.966,27.173 4.703,22.034 4.703,16C4.406,16 4.703,16 4.703,16C4.703,9.966 9.966,4.69 16,4.69Z" style="fill:url(#_Linear1);fill-rule:nonzero;"/>
        <g id="path61" serif:id="path6" transform="matrix(0.64592,0,0,0.658347,6.64642,3.74618)">
            <path d="M7.533,13.613L4.24,17.146L3.24,18.146L7.533,22.813L8.24,22.106L5.154,18.646L14.24,18.646L14.24,17.615L5.154,17.646L8.24,14.32L7.533,13.613ZM18.74,9.113C16.254,9.113 14.24,11.128 14.24,13.613C14.24,16.099 16.254,18.146 18.74,18.146C21.225,18.146 23.24,16.099 23.24,13.613C23.24,11.128 21.225,9.113 18.74,9.113ZM18.74,10.113C20.673,10.113 22.24,11.68 22.24,13.613C22.24,15.546 20.673,17.113 18.74,17.113C16.807,17.113 15.24,15.546 15.24,13.613C15.24,11.68 16.807,10.113 18.74,10.113ZM18.74,18.146C14.598,18.146 13.24,22.695 13.24,27.113L13.24,28.113L24.24,28.113L24.24,27.113C24.24,22.695 22.882,18.146 18.74,18.146ZM18.74,19.146C22.33,19.146 23.24,23.247 23.24,27.113L14.24,27.113C14.24,23.247 15.15,19.146 18.74,19.146Z" style="fill:url(#_Linear2);fill-rule:nonzero;"/>
        </g>
    </g>
    <defs>
        <linearGradient id="_Linear1" x1="0" y1="0" x2="1" y2="0" gradientUnits="userSpaceOnUse" gradientTransform="matrix(24,1.5e-07,-1.5e-07,24,4,16)"><stop offset="0" style="stop-color:white;stop-opacity:1"/><stop offset="0.06" style="stop-color:rgb(174,214,255);stop-opacity:1"/><stop offset="0.14" style="stop-color:rgb(95,175,255);stop-opacity:1"/><stop offset="0.34" style="stop-color:rgb(61,158,255);stop-opacity:1"/><stop offset="1" style="stop-color:rgb(0,128,255);stop-opacity:1"/></linearGradient>
        <linearGradient id="_Linear2" x1="0" y1="0" x2="1" y2="0" gradientUnits="userSpaceOnUse" gradientTransform="matrix(32.5442,-2.69821e-15,2.75012e-15,31.9299,0.51498,18.613)"><stop offset="0" style="stop-color:white;stop-opacity:1"/><stop offset="0.19" style="stop-color:rgb(148,202,255);stop-opacity:1"/><stop offset="0.4" style="stop-color:rgb(45,150,255);stop-opacity:1"/><stop offset="1" style="stop-color:rgb(0,128,255);stop-opacity:1"/></linearGradient>
    </defs>
</svg>
