<?xml version="1.0" encoding="UTF-8" standalone="no"?>
<!DOCTYPE svg PUBLIC "-//W3C//DTD SVG 1.1//EN" "http://www.w3.org/Graphics/SVG/1.1/DTD/svg11.dtd">
<svg width="100%" height="100%" viewBox="0 0 50 53" version="1.1" xmlns="http://www.w3.org/2000/svg" xmlns:xlink="http://www.w3.org/1999/xlink" xml:space="preserve" xmlns:serif="http://www.serif.com/" style="fill-rule:evenodd;clip-rule:evenodd;stroke-linejoin:round;stroke-miterlimit:2;">
    <g transform="matrix(1,0,0,1,0.918758,2.14799)">
        <g transform="matrix(0.105661,0,0,0.105661,-0.188747,13.6094)">
            <g transform="matrix(0.941052,0,0,1,13.0915,-2.84217e-14)">
                <path d="M342.585,-120.472L115.023,-120.472L9.2,-19.251L9.2,217.017L115.023,317.062L342.585,317.062L449.165,217.017L449.165,-19.251L342.585,-120.472Z" style="fill:url(#_Linear1);fill-rule:nonzero;"/>
                <clipPath id="_clip2">
                    <path d="M345.665,-127.423L111.928,-127.423L1.814,-22.097L1.814,219.886L111.954,324.013L345.639,324.013L456.551,219.901L456.551,-22.111L345.665,-127.423ZM118.118,-113.522L16.586,-16.405L16.586,214.147L118.092,310.111L339.531,310.111L441.778,214.132L441.778,-16.391L339.506,-113.522L118.118,-113.522Z"/>
                </clipPath>
                <g clip-path="url(#_clip2)">
                    <g transform="matrix(10.057,-0,-0,9.46419,-21.2534,-149.131)">
                    </g>
                </g>
            </g>
        </g>
        <g transform="matrix(0.105661,0,0,0.105661,-0.188747,13.6094)">
            <g transform="matrix(39.4228,0,0,35.3123,-14072.9,-18483.6)">
                <path d="M363.3,530.14C363.158,530.29 362.978,530.365 362.76,530.365C362.543,530.365 362.359,530.29 362.209,530.14C362.066,529.99 361.995,529.81 361.995,529.6C361.995,529.39 362.066,529.21 362.209,529.06C362.359,528.91 362.543,528.835 362.76,528.835C362.978,528.835 363.158,528.91 363.3,529.06C363.45,529.21 363.525,529.39 363.525,529.6C363.525,529.81 363.45,529.99 363.3,530.14ZM363.289,527.8L362.231,527.8L362.231,527.272C362.231,526.934 362.303,526.645 362.445,526.405C362.588,526.158 362.839,525.869 363.199,525.539C363.401,525.352 363.544,525.213 363.626,525.123C363.716,525.025 363.803,524.894 363.885,524.729C363.975,524.557 364.02,524.38 364.02,524.2C364.02,523.855 363.908,523.578 363.683,523.368C363.465,523.158 363.161,523.053 362.771,523.053C362.126,523.053 361.684,523.413 361.444,524.133L360.476,523.728C360.634,523.3 360.904,522.918 361.286,522.58C361.676,522.235 362.171,522.063 362.771,522.063C363.454,522.063 364.009,522.265 364.436,522.67C364.864,523.068 365.078,523.578 365.078,524.2C365.078,524.47 365.006,524.744 364.864,525.022C364.721,525.299 364.594,525.498 364.481,525.618C364.376,525.73 364.226,525.877 364.031,526.057C364.009,526.079 363.99,526.098 363.975,526.113C363.518,526.525 363.289,526.938 363.289,527.35L363.289,527.8L363.289,527.8Z" style="fill:rgb(155,155,155);fill-opacity:0.85;fill-rule:nonzero;"/>
            </g>
        </g>
    </g>
    <defs>
        <linearGradient id="_Linear1" x1="0" y1="0" x2="1" y2="0" gradientUnits="userSpaceOnUse" gradientTransform="matrix(-482.738,445.952,-500.79,-480.072,470.724,-120.472)"><stop offset="0" style="stop-color:white;stop-opacity:1"/><stop offset="0.45" style="stop-color:rgb(241,243,86);stop-opacity:1"/><stop offset="1" style="stop-color:rgb(237,240,40);stop-opacity:1"/></linearGradient>
    </defs>
</svg>
