<?xml version="1.0" encoding="UTF-8" standalone="no"?>
<!DOCTYPE svg PUBLIC "-//W3C//DTD SVG 1.1//EN" "http://www.w3.org/Graphics/SVG/1.1/DTD/svg11.dtd">
<svg width="100%" height="100%" viewBox="0 0 25 25" version="1.1" xmlns="http://www.w3.org/2000/svg" xmlns:xlink="http://www.w3.org/1999/xlink" xml:space="preserve" xmlns:serif="http://www.serif.com/" style="fill-rule:evenodd;clip-rule:evenodd;stroke-linejoin:round;stroke-miterlimit:2;">
    <g transform="matrix(1,0,0,1,-3.99549,-3.99775)">
        <g transform="matrix(0.853079,0.682602,-0.68201,0.85234,13.5268,-10.0007)">
            <path d="M26.628,17.669L27.618,17.669C27.363,23.511 22.54,28.175 16.636,28.175C10.714,28.175 5.88,23.483 5.651,17.617L6.653,17.617C6.88,22.935 11.266,27.182 16.636,27.182C21.635,27.182 25.782,23.5 26.514,18.7L19.025,18.7L19.025,17.669L26.628,17.669L26.628,17.669ZM5.656,16.643C5.937,10.826 10.749,6.189 16.636,6.189C22.54,6.189 27.363,10.854 27.618,16.695L26.617,16.695C26.362,11.402 21.987,7.182 16.636,7.182C11.635,7.182 7.487,10.866 6.757,15.669L14.247,15.669L14.247,16.643L5.656,16.643Z" style="fill:url(#_Radial1);"/>
        </g>
    </g>
    <defs>
        <radialGradient id="_Radial1" cx="0" cy="0" r="1" gradientUnits="userSpaceOnUse" gradientTransform="matrix(21.9667,0,0,21.9858,5.65128,17.1822)"><stop offset="0" style="stop-color:white;stop-opacity:1"/><stop offset="0.45" style="stop-color:rgb(54,250,98);stop-opacity:1"/><stop offset="1" style="stop-color:rgb(0,249,56);stop-opacity:1"/></radialGradient>
    </defs>
</svg>
