<svg width="48" height="48" xmlns="http://www.w3.org/2000/svg">
  <path fill="#000000" stroke-linejoin="round" stroke-width="0.2" fill-opacity="1" d="m27.687553,33.124943l-1.59,0l-0.549999,-0.549999c1.959999,-2.27 3.139999,-5.220001 3.139999,-8.450001c0,-7.18 -5.82,-13.000002 -13,-13.000002s-13,5.820002 -13,13.000002s5.82,13 13,13c3.23,0 6.18,-1.18 8.450001,-3.130001l0.549999,0.549999l0,1.580002l10.000004,9.98l2.98,-2.98l-9.980003,-10zm-12,0c-4.970001,0 -9,-4.030003 -9,-9s4.029998,-9.000002 9,-9.000002s9,4.030001 9,9.000002s-4.030001,9 -9,9z" id="svg_1"/>
  <path fill="#000000" stroke-linejoin="round" stroke-width="0.2" fill-opacity="1" d="m27.965633,17.870171l7.198387,-6.610442l-7.198387,-6.609192l4.11425,-3.776335l11.313541,10.385527l-11.313541,10.390563" id="svg_10" transform="rotate(179.921, 35.6795, 11.2622)"/>
</svg>
