<?xml version="1.0" encoding="UTF-8" standalone="no"?>
<svg
   xmlns:dc="http://purl.org/dc/elements/1.1/"
   xmlns:cc="http://creativecommons.org/ns#"
   xmlns:rdf="http://www.w3.org/1999/02/22-rdf-syntax-ns#"
   xmlns:svg="http://www.w3.org/2000/svg"
   xmlns="http://www.w3.org/2000/svg"
   xmlns:sodipodi="http://sodipodi.sourceforge.net/DTD/sodipodi-0.dtd"
   xmlns:inkscape="http://www.inkscape.org/namespaces/inkscape"
   width="48"
   height="48"
   viewBox="0 0 48 48"
   version="1.1"
   id="svg4"
   sodipodi:docname="object-flip-vertical.svg"
   inkscape:version="0.92.0 r15299">
  <metadata
     id="metadata10">
    <rdf:RDF>
      <cc:Work
         rdf:about="">
        <dc:format>image/svg+xml</dc:format>
        <dc:type
           rdf:resource="http://purl.org/dc/dcmitype/StillImage" />
        <dc:title></dc:title>
      </cc:Work>
    </rdf:RDF>
  </metadata>
  <defs
     id="defs8" />
  <sodipodi:namedview
     pagecolor="#ffffff"
     bordercolor="#666666"
     borderopacity="1"
     objecttolerance="10"
     gridtolerance="10"
     guidetolerance="10"
     inkscape:pageopacity="0"
     inkscape:pageshadow="2"
     inkscape:window-width="640"
     inkscape:window-height="480"
     id="namedview6"
     showgrid="false"
     inkscape:zoom="4.9166667"
     inkscape:cx="24"
     inkscape:cy="24"
     inkscape:window-x="-1"
     inkscape:window-y="2"
     inkscape:window-maximized="0"
     inkscape:current-layer="svg4" />
  <path
     d="m 6,30 v 4 h 4 v -4 z m 24,8 v 4 h 4 V 38 Z M 38,6 H 10 C 7.79,6 6,7.79 6,10 v 8 h 4 v -8 h 28 v 8 h 4 V 10 C 42,7.79 40.21,6 38,6 Z m 4,32 h -4 v 4 c 2.21,0 4,-1.79 4,-4 z M 2,22 v 4 h 44 v -4 z m 12,16 v 4 h 4 v -4 z m 24,-8 v 4 h 4 v -4 z m -16,8 v 4 h 4 V 38 Z M 6,38 c 0,2.21 1.79,4 4,4 v -4 z"
     id="path2"
     inkscape:connector-curvature="0" />
</svg>
